<svg width="23" height="22" viewBox="0 0 23 22" fill="none" xmlns="http://www.w3.org/2000/svg">
<g clip-path="url(#clip0_604_938)">
<path d="M11.8209 21.88C17.8629 21.88 22.7609 16.982 22.7609 10.94C22.7609 4.898 17.8629 0 11.8209 0C5.77886 0 0.880859 4.898 0.880859 10.94C0.880859 16.982 5.77886 21.88 11.8209 21.88Z" fill="#FF931E"/>
<path d="M10.28 6.8701V10.4601C10.28 10.7101 10.28 10.9101 10.26 11.0601C10.25 11.2101 10.19 11.4101 10.1 11.6701C10 11.9301 9.87 12.1301 9.68 12.2801C9.5 12.4301 9.22 12.5601 8.84 12.6801C8.46 12.8001 8 12.8601 7.47 12.8601C7.04 12.8601 6.66 12.8301 6.33 12.7701C6 12.7101 5.74 12.6101 5.55 12.4601C5.36 12.3201 5.2 12.1801 5.09 12.0401C4.98 11.9001 4.9 11.7201 4.85 11.4701C4.81 11.2201 4.78 11.0201 4.77 10.8701C4.76 10.7201 4.75 10.4901 4.75 10.1901V6.8001C4.75 6.5701 4.75 6.3901 4.77 6.2501C4.78 6.1101 4.84 5.9201 4.93 5.6901C5.03 5.4501 5.17 5.2701 5.35 5.1301C5.53 4.9901 5.81 4.8701 6.18 4.7601C6.55 4.6501 7.01 4.6001 7.54 4.6001C8.17 4.6001 8.68 4.6701 9.09 4.8201C9.49 4.9701 9.77 5.1801 9.93 5.4501C10.09 5.7201 10.18 5.9601 10.22 6.1601C10.26 6.3501 10.27 6.5901 10.27 6.8801L10.28 6.8701ZM8.13 10.7601V6.5601C8.13 6.1401 7.92 5.9301 7.51 5.9301C7.12 5.9301 6.93 6.1401 6.93 6.5601V10.7601C6.93 10.9201 6.93 11.0301 6.95 11.1101C6.96 11.1901 7.01 11.2701 7.1 11.3601C7.19 11.4501 7.33 11.5001 7.51 11.5001C7.7 11.5001 7.85 11.4501 7.94 11.3601C8.04 11.2701 8.09 11.1801 8.1 11.1001C8.11 11.0201 8.12 10.9001 8.12 10.7601H8.13ZM14.54 4.8001L10.67 17.5801H9.09L12.96 4.8001H14.54ZM18.89 11.7301V15.3301C18.89 15.5701 18.89 15.7601 18.87 15.9101C18.86 16.0501 18.8 16.2601 18.71 16.5201C18.61 16.7801 18.47 16.9801 18.28 17.1301C18.09 17.2801 17.81 17.4101 17.43 17.5301C17.05 17.6501 16.59 17.7101 16.06 17.7101C15.63 17.7101 15.25 17.6801 14.92 17.6201C14.59 17.5601 14.33 17.4501 14.14 17.3001C13.95 17.1501 13.79 17.0101 13.68 16.8801C13.57 16.7501 13.49 16.5601 13.44 16.3101C13.39 16.0601 13.37 15.8501 13.36 15.7001C13.35 15.5501 13.34 15.3301 13.34 15.0401V11.6501C13.34 11.4201 13.34 11.2401 13.36 11.1001C13.37 10.9601 13.43 10.7701 13.52 10.5401C13.62 10.3001 13.76 10.1201 13.94 9.9801C14.12 9.8401 14.4 9.7201 14.77 9.6101C15.14 9.5001 15.6 9.4501 16.13 9.4501C16.66 9.4501 17.09 9.5101 17.46 9.6201C17.83 9.7301 18.1 9.8601 18.27 10.0101C18.44 10.1501 18.58 10.3501 18.69 10.5901C18.79 10.8301 18.85 11.0201 18.86 11.1701C18.87 11.3201 18.88 11.5001 18.88 11.7301H18.89ZM16.73 15.6401V11.4401C16.73 11.0101 16.52 10.7901 16.11 10.7901C15.7 10.7901 15.51 11.0101 15.51 11.4401V15.6401C15.51 15.7901 15.51 15.9001 15.53 15.9801C15.54 16.0601 15.6 16.1401 15.69 16.2301C15.78 16.3201 15.92 16.3701 16.11 16.3701C16.3 16.3701 16.45 16.3201 16.54 16.2301C16.63 16.1401 16.69 16.0601 16.7 15.9801C16.71 15.9001 16.72 15.7901 16.72 15.6401H16.73Z" fill="white"/>
</g>
<defs>
<clipPath id="clip0_604_938">
<rect width="21.88" height="21.88" fill="white" transform="translate(0.880859)"/>
</clipPath>
</defs>
</svg>
