<svg width="22" height="22" viewBox="0 0 22 22" fill="none" xmlns="http://www.w3.org/2000/svg">
<g clip-path="url(#clip0_604_2265)">
<path d="M10.94 21.88C16.982 21.88 21.88 16.982 21.88 10.94C21.88 4.898 16.982 0 10.94 0C4.898 0 0 4.898 0 10.94C0 16.982 4.898 21.88 10.94 21.88Z" fill="#FF6B35"/>
<path d="M16.7405 7.72008C14.4805 3.71008 7.86054 2.83008 7.86054 2.83008C7.86054 2.83008 10.9205 6.17008 7.01054 8.81008C4.54054 10.4801 3.56054 12.6401 4.62054 15.0101C5.43054 16.8201 7.15054 17.5601 8.99054 17.8301C8.11054 16.1601 8.79054 14.1301 8.87054 13.9101C10.6005 16.5201 13.8605 13.9101 12.2205 11.0701C14.3705 11.5401 14.6905 15.2601 13.0405 17.5901C15.4705 16.8201 17.1005 14.9001 17.5405 13.1901C18.0105 11.4001 17.6505 9.32008 16.7405 7.72008Z" fill="white"/>
</g>
<defs>
<clipPath id="clip0_604_2265">
<rect width="21.88" height="21.88" fill="white"/>
</clipPath>
</defs>
</svg>
