<svg width="225" height="36" viewBox="0 0 225 36" fill="none" xmlns="http://www.w3.org/2000/svg">
<g clip-path="url(#clip0_434_3071)">
<path d="M169.635 27.9347V20.0486H166.772V32.2961H169.18L176.071 24.3407V32.2961H178.934V20.0486H176.53L169.639 27.9347H169.635ZM200.294 27.9991V20.0437H197.431V32.2912H199.834L206.725 24.2714V32.2912H209.588V20.0437H207.054L200.294 27.9991ZM191.323 24.806H185.046V20.0486H182.184V32.2961H185.046V27.5041H191.323V32.2961H194.186V20.0486H191.323V24.806ZM156.476 20.0486L149.614 32.2961H152.995L157.516 24.207L162.067 32.2961H165.611L158.749 20.0486H156.476ZM222.471 20.0486L215.705 28.0041V20.0486H212.847V32.2961H215.256L222.147 24.2763V32.2961H225.009V20.0486H222.475H222.471ZM152.966 20.0486H139.638V22.7417H151.438L152.966 20.0486ZM139.638 24.806V27.4991H148.773L150.301 24.806H139.638ZM76.4343 20.0486H63.1068V22.7417H74.9062L76.4343 20.0486ZM52.4681 17.3506H50.1275L43.2704 29.5981H41.5488V35.8902H44.2762V32.2961H58.3194V35.8902H61.0516V29.5981H59.3301L52.4729 17.3506H52.4681ZM46.6796 29.5981L51.1962 21.509L55.7467 29.5981H46.6748H46.6796ZM96.2949 19.7466C91.5171 19.7466 89.2395 22.7417 89.2395 26.1031C89.2395 29.4644 91.4494 32.4595 96.2949 32.4595C98.4081 32.4595 103.283 31.4595 103.283 26.1031C103.283 22.608 101.102 19.7466 96.2949 19.7466ZM96.261 29.7664C93.4998 29.7664 92.3295 28.1377 92.3295 26.1377C92.3295 23.9397 93.6642 22.4743 96.261 22.4743C99.1867 22.4743 100.193 23.9397 100.193 26.1377C100.193 28.7664 98.2776 29.7664 96.261 29.7664ZM79.9402 20.0486L73.0831 32.2961H76.4633L80.9848 24.207L85.5353 32.2961H89.0799L82.2227 20.0486H79.9451H79.9402ZM133.55 32.2961H136.379V20.0486H133.55V32.2961ZM128.153 24.4397H123.796V20.0486H120.933V32.2961H128.119C130.068 32.2961 132.085 31.1971 132.085 28.3011C132.085 24.5041 129.483 24.4397 128.148 24.4397H128.153ZM127.989 29.6971H123.796V26.9694H127.989C128.477 26.9694 129.227 27.1031 129.227 28.3357C129.227 29.4694 128.613 29.7021 127.989 29.7021V29.6971ZM63.0971 24.806V27.4991H72.232L73.7601 24.806H63.0971ZM139.628 32.2961H146.099L147.593 29.5981H139.628V32.2961ZM115.793 25.0734C116.552 24.7417 117.195 24.212 117.195 22.8803C117.195 20.3506 115.116 20.0536 113.651 20.0536H105.913V32.3011H113.781C117.389 32.3011 118.138 30.2714 118.138 28.405C118.138 26.306 116.973 25.4397 115.793 25.0734ZM108.742 22.6476H113.327C114.008 22.6476 114.303 23.014 114.303 23.712C114.303 24.41 113.849 24.811 113.327 24.811H108.742V22.6476ZM113.781 29.7021H108.742V27.0734H113.781C114.594 27.0734 115.179 27.2714 115.179 28.3704C115.179 29.2367 114.821 29.7021 113.781 29.7021ZM63.0971 32.2961H69.5674L71.0617 29.5981H63.0971V32.2961Z" fill="#1A1A18" fill-opacity="0.5"/>
<path d="M22.206 23.0635L10.3148 14.0288L7.40844 19.1773L21.0019 25.2021L22.206 23.0635ZM24.0339 19.8258L13.8401 7.77139L10.9579 12.8853L22.8491 21.9249L24.0339 19.8209V19.8258ZM26.2197 15.9496L17.7232 0.885254L14.5171 6.57337L24.7109 18.6229L26.2197 15.9496ZM3.20613 26.6328L0 32.311H16.9882L18.4969 29.6377L3.20613 26.6278V26.6328ZM18.4631 32.311H22.9845L26.9547 25.2664L30.9249 32.311H35.4464L26.9547 17.2516L18.4631 32.311ZM20.3587 26.3358L6.76528 20.3159L3.87831 25.4348L19.1691 28.4447L20.3539 26.3407L20.3587 26.3358Z" fill="#1A1A18" fill-opacity="0.5"/>
</g>
<defs>
<clipPath id="clip0_434_3071">
<rect width="225" height="35" fill="white" transform="translate(0 0.885254)"/>
</clipPath>
</defs>
</svg>
