<svg width="101" height="26" viewBox="0 0 101 26" fill="none" xmlns="http://www.w3.org/2000/svg">
<g clip-path="url(#clip0_434_3074)">
<path fill-rule="evenodd" clip-rule="evenodd" d="M100.775 1.50532C100.775 1.50532 98.8989 1.28052 96.6896 1.28052C94.4803 1.28052 92.7129 1.50532 92.7129 1.50532V8.52858H100.775V1.50532Z" fill="#1A1A18" fill-opacity="0.5"/>
<path fill-rule="evenodd" clip-rule="evenodd" d="M100.775 18.0713H92.7129V25.2031C92.7129 25.2031 94.9842 25.4279 96.7982 25.4279C98.6121 25.4279 100.775 25.1488 100.775 25.1488V18.0713Z" fill="#1A1A18" fill-opacity="0.5"/>
<path fill-rule="evenodd" clip-rule="evenodd" d="M87.8835 1.50537H77.9455L71.023 10.1023H67.7904V1.50537H59.2168V25.2651H67.7904V16.3348H70.9145L77.899 25.2651H88.5191L78.1315 12.6217L87.8835 1.50537Z" fill="#1A1A18" fill-opacity="0.5"/>
<path fill-rule="evenodd" clip-rule="evenodd" d="M27.0853 1.50537H0V25.2651H8.68992V8.24181H18.3953V25.2651H27.0853V1.50537Z" fill="#1A1A18" fill-opacity="0.5"/>
<path fill-rule="evenodd" clip-rule="evenodd" d="M31.2793 7.79217L30.0312 1.4976C30.0312 1.4976 38.1475 0.877441 43.2018 0.877441C48.2561 0.877441 54.3258 1.4976 54.3258 1.4976C54.3258 1.4976 56.2018 6.32705 56.2018 13.1255C56.2018 19.924 54.2716 25.2573 54.2716 25.2573C54.2716 25.2573 48.4809 25.8774 43.1475 25.8774C37.8142 25.8774 30.0312 25.2573 30.0312 25.2573L31.2793 18.9627C31.2793 18.9627 36.7289 19.3581 41.3878 19.3581C46.0468 19.3581 47.8607 18.9627 47.8607 18.9627C47.8607 18.9627 48.0855 17.7844 48.2018 16.4356H37.0778V10.3658H48.2638C48.1475 8.79217 47.9227 7.83868 47.9227 7.83868C47.9227 7.83868 44.1165 7.44333 40.884 7.44333C37.5894 7.38907 31.2871 7.77667 31.2871 7.77667L31.2793 7.79217Z" fill="#1A1A18" fill-opacity="0.5"/>
</g>
<defs>
<clipPath id="clip0_434_3074">
<rect width="100.775" height="25" fill="white" transform="translate(0 0.885254)"/>
</clipPath>
</defs>
</svg>
