<svg width="90" height="26" viewBox="0 0 90 26" fill="none" xmlns="http://www.w3.org/2000/svg">
<g clip-path="url(#clip0_434_3080)">
<path fill-rule="evenodd" clip-rule="evenodd" d="M13.7072 19.8188H9.81844C3.75199 19.8188 8.15716 6.92681 13.2654 6.92681H19.4128C20.3958 6.92681 22.138 7.10725 22.9904 4.66823L24.3157 0.879028H15.8849C11.3179 0.879028 7.76518 2.4843 5.20171 5.18465C0.765427 9.8076 -0.734075 17.0189 0.329887 20.4659C1.34407 23.6578 4.08798 25.7546 8.3936 25.8106L11.741 25.8355H15.8662L16.8804 22.7991C17.6333 20.6463 15.9471 19.8188 13.7134 19.8188H13.7072ZM61.0628 14.4741L62.3321 10.3489H48.7682C46.5096 10.3489 45.5016 10.9711 45.1096 12.2653L43.8403 16.3905H57.4043C59.6629 16.3905 60.6708 15.7683 61.0628 14.4741ZM41.8182 21.7352L40.5489 25.8604H54.1129C56.3403 25.8604 57.3794 25.2382 57.7714 23.944L59.0407 19.8188H45.4767C43.2492 19.8188 42.2351 20.441 41.8182 21.7352ZM64.2298 5.03533L65.5053 0.910138H51.9414C49.6828 0.910138 48.6748 1.53234 48.2828 2.82651L47.0136 6.9517H60.5775C62.8112 6.9517 63.8192 6.3295 64.2361 5.03533H64.2298ZM43.7408 5.86285C43.1746 2.02388 41.1213 0.910138 36.1437 0.910138H27.0658L21.7771 16.3905H25.1246C27.1218 16.3905 28.136 16.4154 29.1937 13.5657L31.3963 6.92681H34.7687C37.6494 6.92681 36.9961 10.5294 35.5464 14.0323C34.2522 17.1185 31.9936 19.8437 29.2684 19.8437H23.6375C21.3789 19.8437 20.3461 20.4659 19.9292 21.7601L18.5292 25.8853H22.6544L26.6987 25.8604C30.2764 25.8355 33.2069 25.5742 36.629 22.488C40.2627 19.1966 44.4625 10.7409 43.7346 5.86285H43.7408ZM89.3356 0.88525H81.4772L74.0855 8.74364C73.2268 9.65205 72.3495 10.5605 71.4909 11.6244H71.4162L75.0997 0.88525H68.691L60.0549 25.8604H66.4635L69.2137 18.002L72.0696 15.5878L74.3281 22.6934C75.025 24.896 75.753 25.8604 77.3085 25.8604H82.2114L77.1778 11.9044L89.3356 0.88525Z" fill="#1A1A18" fill-opacity="0.5"/>
</g>
<defs>
<clipPath id="clip0_434_3080">
<rect width="89.3355" height="25" fill="white" transform="translate(0 0.885254)"/>
</clipPath>
</defs>
</svg>
