<svg width="59" height="36" viewBox="0 0 59 36" fill="none" xmlns="http://www.w3.org/2000/svg">
<g clip-path="url(#clip0_434_3064)">
<path fill-rule="evenodd" clip-rule="evenodd" d="M56 0.885254H2.33333C1.05 0.885254 0 1.92942 0 3.22442V33.5461C0 34.8353 1.04417 35.8853 2.33333 35.8853H56C57.2833 35.8853 58.3333 34.8411 58.3333 33.5461V3.22442C58.3333 1.93525 57.2892 0.885254 56 0.885254ZM22.4642 25.0878H18.2V17.1661H17.8967L15.4583 25.0878H12.4133L9.98083 17.1661H9.67167V25.0878H5.41333V11.6828H9.67167C10.7508 11.6828 11.7075 12.4003 12.0108 13.4444L13.7842 19.6044H14.0875L15.8667 13.4444C16.17 12.4003 17.1208 11.6828 18.2058 11.6828H22.4642V25.0878ZM37.695 25.0878H33.4308V17.1661H33.1275L30.1233 23.6703C29.7267 24.5336 28.8633 25.0878 27.9125 25.0878H24.2958V11.6828H28.5542V19.6044H28.8633L31.8617 13.1003C32.2642 12.2369 33.1275 11.6828 34.0783 11.6828H37.695V25.0878ZM48.3525 20.8236H43.7792V25.0878H39.5208V17.7786H52.6575C52.0275 19.5519 50.3417 20.8236 48.3525 20.8236ZM52.8325 17.1661H45.5C42.2158 17.1661 39.4858 14.8036 38.9142 11.6828H48.3525C50.8783 11.6828 52.92 13.7303 52.92 16.2503C52.92 16.5653 52.8908 16.8686 52.8325 17.1661Z" fill="#1A1A18" fill-opacity="0.5"/>
</g>
<defs>
<clipPath id="clip0_434_3064">
<rect width="58.3333" height="35" fill="white" transform="translate(0 0.885254)"/>
</clipPath>
</defs>
</svg>
