<svg width="59" height="36" viewBox="0 0 59 36" fill="none" xmlns="http://www.w3.org/2000/svg">
<g clip-path="url(#clip0_434_3054)">
<path fill-rule="evenodd" clip-rule="evenodd" d="M28.6417 10.5628C28.3617 10.8369 28.0933 11.1286 27.8425 11.4378H30.1408C30.4558 11.8228 30.7417 12.2194 31.01 12.6452H26.9733C26.7342 13.0302 26.5125 13.4327 26.32 13.8527H31.6692C31.85 14.2436 32.0133 14.6461 32.1533 15.0602H25.8417C25.7133 15.4511 25.6025 15.8536 25.5092 16.2619H24.29C24.29 16.2619 23.8233 19.0269 23.7533 19.4644C23.6775 19.9602 23.5725 20.5086 23.5842 20.7186C23.5842 21.3894 23.9283 21.7511 24.5583 21.7511C24.8442 21.7511 25.1067 21.7044 25.445 21.5994L25.6083 20.5611C25.5267 20.5902 25.4158 20.6077 25.2758 20.6077C24.9842 20.6077 24.85 20.5027 24.85 20.2577C24.85 20.1119 25.0542 18.9977 25.2 18.1052H25.83L25.9992 16.9794H25.3692L25.515 16.2677H32.48C32.5267 16.4952 32.5675 16.7227 32.6025 16.9502C32.0892 16.8452 31.7975 17.1369 31.4183 17.6911C31.4475 17.4519 31.5058 17.2186 31.4942 16.9794H30.3567C30.1992 18.4319 29.925 19.9019 29.7092 21.3602L29.6508 21.6752H30.8875C31.3308 18.8052 31.4358 18.2452 32.13 18.3152C32.2408 17.7319 32.445 17.2186 32.5967 16.9561C32.6258 17.1661 32.655 17.3761 32.6725 17.5861C33.1158 16.4602 34.02 15.7602 35.1575 15.7602C35.7 15.7602 36.3358 15.9877 36.5167 16.0577L36.3125 17.3119C35.8692 17.0902 35.5542 17.0027 35.21 17.0027C34.2883 17.0027 33.6408 17.8952 33.6408 19.1669C33.6408 20.0419 34.0783 20.5727 34.7958 20.5727C35.0992 20.5727 35.4375 20.4794 35.8458 20.2752L35.63 21.5936C35.175 21.7161 34.8833 21.7627 34.5392 21.7627C33.6 21.7627 32.9117 21.2902 32.5908 20.4736C32.4917 21.1036 32.34 21.7102 32.1417 22.3052H25.83C25.97 22.7194 26.1275 23.1219 26.3142 23.5127H31.6633C31.4708 23.9269 31.2492 24.3294 31.0042 24.7202H26.9675C27.23 25.1402 27.5217 25.5427 27.8367 25.9219H30.135C29.7792 26.3536 29.4 26.7561 28.9858 27.1294C28.8808 27.2227 28.77 27.3161 28.665 27.4094C30.7592 29.4219 33.6058 30.6527 36.7383 30.6527C43.1842 30.6527 48.405 25.4319 48.405 18.9861C48.405 12.5402 43.1842 7.31942 36.7383 7.31942C33.5942 7.31942 30.7358 8.56192 28.6417 10.5919H28.6358L28.6417 10.5628ZM28.5542 9.83942C26.5942 8.23525 24.0858 7.27275 21.3558 7.27275C15.0675 7.27275 9.96917 12.3711 9.96917 18.6594C9.96917 24.9477 15.0675 30.0402 21.3558 30.0402C23.9225 30.0402 26.285 29.1944 28.1925 27.7594C28.2975 27.8586 28.4025 27.9577 28.5192 28.0511C29.1783 28.6519 29.9075 29.1827 30.6892 29.6261C32.5092 30.6644 34.5742 31.2186 36.715 31.2186C43.4642 31.2186 48.93 25.7294 48.93 18.9569C48.93 12.1844 43.4642 6.69525 36.715 6.69525C33.6642 6.69525 30.7825 7.82108 28.56 9.82775L28.5542 9.83942ZM0 3.22442C0 1.92942 1.05 0.885254 2.33333 0.885254H56.0058C57.295 0.885254 58.3392 1.93525 58.3392 3.22442V33.5519C58.3392 34.8411 57.2892 35.8911 56.0058 35.8911H2.33333C1.04417 35.8911 0 34.8411 0 33.5519V3.22442ZM16.0125 21.6636H14.7758L15.4817 17.2244L13.9008 21.6636H13.0608L12.9558 17.2536L12.2092 21.6636H11.0542L12.0225 15.8886H13.8017L13.8542 19.4644L15.0558 15.8886H16.975L16.0183 21.6636H16.0125ZM19.9558 21.6636H18.9292L18.9525 21.1794C18.6375 21.5644 18.2233 21.7452 17.6575 21.7452C16.9867 21.7452 16.5258 21.2202 16.5258 20.4619C16.5258 19.3186 17.325 18.6536 18.6958 18.6536C18.8358 18.6536 19.0167 18.6652 19.1975 18.6886C19.2383 18.5311 19.2442 18.4669 19.2442 18.3852C19.2442 18.0761 19.0283 17.9594 18.4508 17.9594C17.8442 17.9536 17.3483 18.1052 17.1442 18.1694C17.1558 18.0936 17.3133 17.1136 17.3133 17.1136C17.9317 16.9327 18.3342 16.8627 18.795 16.8627C19.8567 16.8627 20.4167 17.3411 20.4167 18.2394C20.4167 18.4786 20.3817 18.7819 20.3175 19.1727C20.2125 19.8494 19.9792 21.3136 19.95 21.6636H19.9558ZM29.2133 21.5586C28.7933 21.6869 28.385 21.7511 27.9533 21.7511C26.5767 21.7511 25.8592 21.0336 25.8592 19.6569C25.8592 18.0527 26.7692 16.8686 28.0058 16.8686C29.0208 16.8686 29.6683 17.5277 29.6683 18.5661C29.6683 18.9102 29.6217 19.2486 29.5167 19.7211H27.0725C26.9908 20.4036 27.4283 20.6894 28.14 20.6894C28.5775 20.6894 28.9742 20.5961 29.4175 20.3919L29.2133 21.5586ZM20.6967 18.4552C20.6967 19.0502 20.9825 19.4586 21.6358 19.7677C22.1375 20.0011 22.2133 20.0711 22.2133 20.2869C22.2133 20.5786 21.9917 20.7127 21.5017 20.7127C21.1342 20.7127 20.79 20.6544 20.3933 20.5261C20.3933 20.5261 20.23 21.5586 20.2242 21.6111C20.5042 21.6752 20.755 21.7277 21.5075 21.7511C22.8142 21.7511 23.415 21.2552 23.415 20.1819C23.415 19.5344 23.1642 19.1552 22.5458 18.8752C22.0267 18.6361 21.9683 18.5836 21.9683 18.3619C21.9683 18.1052 22.1725 17.9769 22.575 17.9769C22.82 17.9769 23.1467 18.0061 23.4617 18.0469L23.6367 16.9561C23.3158 16.9036 22.8317 16.8627 22.5517 16.8627C21.1692 16.8627 20.6908 17.5861 20.6967 18.4552ZM19.0575 19.5752C18.9292 19.5577 18.8708 19.5577 18.7833 19.5577C18.0833 19.5577 17.7275 19.7969 17.7275 20.2694C17.7275 20.5611 17.9025 20.7477 18.1708 20.7477C18.6725 20.7477 19.0342 20.2694 19.0575 19.5752ZM28.525 18.7761C28.5308 18.6769 28.6533 17.9361 27.9533 17.9361C27.5625 17.9361 27.2825 18.2336 27.1658 18.7761H28.525ZM38.5233 19.5752C38.395 19.5577 38.3367 19.5577 38.2492 19.5577C37.5492 19.5577 37.1933 19.7969 37.1933 20.2694C37.1933 20.5611 37.3683 20.7477 37.6367 20.7477C38.1383 20.7477 38.5058 20.2694 38.5233 19.5752ZM39.4217 21.6694H38.395L38.4183 21.1852C38.1033 21.5702 37.6892 21.7511 37.1233 21.7511C36.4525 21.7511 35.9917 21.2261 35.9917 20.4677C35.9917 19.3244 36.7908 18.6594 38.1617 18.6594C38.3017 18.6594 38.4825 18.6711 38.6633 18.6944C38.7042 18.5369 38.71 18.4727 38.71 18.3911C38.71 18.0819 38.4942 17.9652 37.9167 17.9652C37.31 17.9594 36.8142 18.1111 36.61 18.1752C36.6217 18.0994 36.7792 17.1194 36.7792 17.1194C37.3975 16.9386 37.8 16.8686 38.2608 16.8686C39.3225 16.8686 39.8825 17.3469 39.8825 18.2452C39.8825 18.4844 39.8475 18.7877 39.7833 19.1786C39.6783 19.8552 39.445 21.3194 39.4158 21.6694H39.4217ZM45.9608 21.6694H44.7942L44.8525 21.2319C44.5142 21.5936 44.1642 21.7511 43.715 21.7511C42.8167 21.7511 42.2217 20.9752 42.2217 19.8027C42.2217 18.2394 43.1433 16.9269 44.2342 16.9269C44.7125 16.9269 45.0742 17.1252 45.4125 17.5686L45.6867 15.9002H46.9058L45.9667 21.6752L45.9608 21.6694ZM44.135 20.5844C44.7125 20.5844 45.115 19.9311 45.115 19.0036C45.115 18.4086 44.8875 18.0819 44.4617 18.0819C43.9017 18.0819 43.505 18.7352 43.505 19.6569C43.505 20.2694 43.7208 20.5844 44.1408 20.5844H44.135ZM40.53 16.9736C40.3783 18.4261 40.0983 19.8961 39.8883 21.3544L39.83 21.6694H41.0667C41.51 18.7994 41.615 18.2394 42.3092 18.3094C42.42 17.7202 42.6242 17.2069 42.7758 16.9502C42.2567 16.8394 41.9708 17.1369 41.5917 17.6911C41.6208 17.4519 41.6792 17.2186 41.6675 16.9794H40.53V16.9736Z" fill="#1A1A18" fill-opacity="0.5"/>
</g>
<defs>
<clipPath id="clip0_434_3054">
<rect width="58.3333" height="35" fill="white" transform="translate(0 0.885254)"/>
</clipPath>
</defs>
</svg>
