<svg width="59" height="36" viewBox="0 0 59 36" fill="none" xmlns="http://www.w3.org/2000/svg">
<g clip-path="url(#clip0_434_3059)">
<path fill-rule="evenodd" clip-rule="evenodd" d="M0 3.22442C0 1.92942 1.05 0.885254 2.33333 0.885254H56.0058C57.295 0.885254 58.3392 1.93525 58.3392 3.22442V33.5519C58.3392 34.8411 57.2892 35.8911 56.0058 35.8911H2.33333C1.04417 35.8911 0 34.8411 0 33.5519V3.22442ZM24.2025 23.9561L25.9933 12.8319H28.8575L27.0667 23.9561H24.1967H24.2025ZM37.4675 13.1003C36.9017 12.8786 36.0092 12.6336 34.9008 12.6336C32.0658 12.6336 30.0708 14.1444 30.0533 16.3028C30.0358 17.9011 31.4767 18.7936 32.5617 19.3244C33.6817 19.8669 34.055 20.2169 34.0492 20.7069C34.0433 21.4536 33.1567 21.7919 32.3342 21.7919C31.185 21.7919 30.5783 21.6228 29.6333 21.2086L29.2658 21.0336L28.8633 23.5244C29.5342 23.8336 30.7708 24.1019 32.06 24.1194C35.07 24.1194 37.03 22.6261 37.0533 20.3161C37.065 19.0503 36.3008 18.0878 34.6442 17.2944C33.6408 16.7811 33.0283 16.4369 33.0342 15.9119C33.0342 15.4511 33.5533 14.9553 34.6792 14.9553C35.6183 14.9378 36.295 15.1594 36.8258 15.3811L37.0825 15.5094L37.4733 13.1003H37.4675ZM41.2825 20.0069C41.5217 19.3653 42.4258 16.8978 42.4258 16.8978C42.4083 16.9269 42.665 16.2561 42.805 15.8361L42.9975 16.7986C42.9975 16.7986 43.5458 19.4528 43.6625 20.0128H41.2825V20.0069ZM18.6842 18.8811L18.9875 20.4211L21.7933 12.8378H24.8325L20.3175 23.9444H17.2842L14.735 14.2844C13.8542 13.7653 12.845 13.3511 11.725 13.0653L11.7658 12.8319H16.3917C17.0158 12.8553 17.5175 13.0653 17.6925 13.7711L18.6958 18.8811H18.6842ZM44.8175 12.8378H42.6008C41.9125 12.8378 41.3992 13.0361 41.0958 13.7594L36.8375 23.9561H39.8475C39.8475 23.9561 40.3375 22.5853 40.4483 22.2819C40.775 22.2819 43.7033 22.2819 44.1233 22.2819C44.2108 22.6728 44.4733 23.9503 44.4733 23.9503H47.1333L44.8117 12.8319L44.8175 12.8378Z" fill="#1A1A18" fill-opacity="0.5"/>
</g>
<defs>
<clipPath id="clip0_434_3059">
<rect width="58.3333" height="35" fill="white" transform="translate(0 0.885254)"/>
</clipPath>
</defs>
</svg>
