<svg width="20" height="40" viewBox="0 0 20 40" fill="none" xmlns="http://www.w3.org/2000/svg">
<path d="M14.962 33.4966C14.0487 33.4966 13.0055 33.3185 11.8324 32.8562C6.4631 30.7503 0.694357 32.209 0.636185 32.2262C0.33369 32.3049 0.0505851 31.9351 0.00598642 31.4009C-0.0386122 30.8667 0.170808 30.3668 0.473303 30.288C0.717626 30.223 6.498 28.7574 12.0728 30.9455C16.7848 32.7946 19.0806 29.7367 19.1039 29.7059C19.3463 29.3737 19.6953 29.4525 19.8834 29.8771C20.0715 30.3051 20.0269 30.9215 19.7865 31.2537C19.7011 31.3701 18.1053 33.4966 14.964 33.5L14.962 33.4966Z" fill="#1A1A18"/>
<path d="M5.03795 35.5034C5.95125 35.5034 6.99447 35.6815 8.16761 36.1438C13.5369 38.2497 19.3056 36.791 19.3638 36.7738C19.6663 36.6951 19.9494 37.0649 19.994 37.5991C20.0386 38.1333 19.8292 38.6332 19.5267 38.712C19.2824 38.777 13.502 40.2426 7.92717 38.0545C3.21522 36.2054 0.919361 39.2633 0.896093 39.2941C0.653709 39.6263 0.304676 39.5475 0.116587 39.1229C-0.0715027 38.6949 -0.0269051 38.0785 0.213541 37.7463C0.298859 37.6299 1.89472 35.5034 5.03601 35.5L5.03795 35.5034Z" fill="#1A1A18"/>
<path d="M10.7071 0.292892C10.3166 -0.0976315 9.68342 -0.0976314 9.29289 0.292892L2.92893 6.65685C2.53841 7.04738 2.53841 7.68054 2.92893 8.07107C3.31946 8.46159 3.95262 8.46159 4.34315 8.07107L10 2.41421L15.6569 8.07107C16.0474 8.46159 16.6805 8.46159 17.0711 8.07107C17.4616 7.68054 17.4616 7.04738 17.0711 6.65685L10.7071 0.292892ZM11 24.5L11 1L9 1L9 24.5L11 24.5Z" fill="#1A1A18"/>
<circle cx="10" cy="23.5" r="3" fill="#1A1A18"/>
</svg>
