<svg width="33" height="40" viewBox="0 0 33 40" fill="none" xmlns="http://www.w3.org/2000/svg">
<g clip-path="url(#clip0_434_34490)">
<path d="M32.1895 39.9039L28.5117 29.4539C28.4958 29.4219 28.464 29.3978 28.4321 29.4058C28.4003 29.4058 28.3684 29.4379 28.3684 29.4779C28.257 30.7581 27.9465 31.9984 27.453 33.1746C27.1664 33.8627 26.8081 34.5349 26.3862 35.167C26.3703 35.191 26.3703 35.215 26.3783 35.231L28.0341 39.952C28.042 39.984 28.0739 40 28.1057 40H32.1179C32.1418 40 32.1656 39.984 32.1816 39.968C32.1975 39.96 32.1975 39.9279 32.1895 39.9039Z" fill="#1A1A18"/>
<path d="M16.0941 25.3251C17.3678 25.3251 18.5061 26.1333 18.936 27.3415C18.9519 27.3815 18.9917 27.3975 19.0315 27.3895L21.7939 26.4054C21.8098 26.3973 21.8257 26.3813 21.8337 26.3653C21.8416 26.3493 21.8416 26.3253 21.8337 26.3093C20.9739 23.8688 18.6654 22.2285 16.0861 22.2285C12.7267 22.2285 9.98828 24.9811 9.98828 28.3577C9.98828 31.7344 12.7188 34.487 16.0861 34.487C18.6574 34.487 20.966 32.8466 21.8337 30.4062C21.8416 30.3901 21.8416 30.3661 21.8337 30.3501C21.8257 30.3341 21.8098 30.3181 21.7939 30.3101L19.0315 29.3179C18.9917 29.3019 18.9519 29.3259 18.936 29.3659C18.5061 30.5742 17.3678 31.3823 16.0941 31.3823C14.4303 31.3823 13.077 30.0221 13.077 28.3497C13.085 26.6854 14.4383 25.3251 16.0941 25.3251Z" fill="#1A1A18"/>
<path d="M11.2291 8.28166C11.245 8.28166 11.2609 8.27366 11.2768 8.26566C11.3962 8.16964 11.5157 8.07362 11.6351 7.9856C12.869 7.08942 14.3258 6.59332 15.8462 6.54531C15.8781 6.54531 15.902 6.52131 15.9179 6.4973L18.1628 0.104021C18.1707 0.0800161 18.1707 0.0560112 18.1548 0.0320064C18.1389 0.0160032 18.115 0 18.0911 0H14.079C14.0471 0 14.0153 0.0240048 14.0073 0.0480096L11.1495 8.17764C11.1415 8.20965 11.1495 8.24966 11.1734 8.26566C11.1972 8.27366 11.2132 8.28166 11.2291 8.28166Z" fill="#1A1A18"/>
<path d="M4.7418 33.1748C4.24824 31.9986 3.93777 30.7503 3.82633 29.47C3.82633 29.438 3.79448 29.406 3.76264 29.398C3.7308 29.39 3.691 29.414 3.68303 29.446L0.00522897 39.8961C-0.00273165 39.9201 -0.00273165 39.9441 0.0131896 39.9682C0.0291108 39.9922 0.0529927 40.0002 0.0768745 40.0002H4.08903C4.12087 40.0002 4.15271 39.9842 4.16067 39.9522L5.81648 35.2312C5.82444 35.2072 5.82444 35.1832 5.80852 35.1672C5.38661 34.5351 5.02838 33.8629 4.7418 33.1748Z" fill="#1A1A18"/>
<path d="M27.4378 28.3496C27.4378 28.0215 27.4218 27.6854 27.398 27.3574C27.3741 27.0373 27.3263 26.7092 27.2706 26.3892C27.2149 26.0771 27.1512 25.757 27.0636 25.453C26.992 25.1729 26.9044 24.8849 26.8009 24.5968L26.7611 24.4928C26.379 23.4126 25.8297 22.4044 25.1451 21.4922C24.4525 20.572 23.6326 19.7638 22.7012 19.0917C21.9768 18.5716 21.1887 18.1315 20.3608 17.7954C20.106 17.6914 19.8592 17.5954 19.6125 17.5234C18.4741 17.1473 17.288 16.9553 16.078 16.9553C15.3535 16.9553 14.6689 16.6672 14.1515 16.1551C13.634 15.635 13.3554 14.9469 13.3554 14.2187C13.3554 14.0587 13.3713 13.8987 13.3952 13.7466C13.4191 13.5946 13.4589 13.4506 13.5146 13.3065C13.6977 12.7784 14.04 12.3224 14.4938 11.9943C14.9555 11.6582 15.5048 11.4822 16.078 11.4822C16.6511 11.4822 17.2004 11.6582 17.6621 11.9943C18.1159 12.3224 18.4582 12.7784 18.6413 13.2985L18.6492 13.3146C18.6652 13.3466 18.705 13.3626 18.7448 13.3546L22.3111 12.0823C22.335 12.0743 22.3509 12.0583 22.3589 12.0343C22.3668 12.0183 22.3668 11.9943 22.3589 11.9783C21.9051 10.69 21.0772 9.5778 19.9707 8.77764C19.0234 8.09751 17.9089 7.67342 16.7546 7.5614C16.2531 7.51339 15.9347 7.51339 15.4252 7.5614C14.2629 7.67342 13.1484 8.09751 12.2091 8.77764C11.1026 9.5778 10.2747 10.69 9.82091 11.9783C9.69354 12.3304 9.59801 12.6984 9.53433 13.0585C9.47064 13.4346 9.4388 13.8187 9.4388 14.2027C9.4388 15.9871 10.1314 17.6674 11.3892 18.9317L11.421 18.9557C12.6788 20.2039 14.3346 20.8841 16.1018 20.8841C16.8899 20.8841 17.6701 21.0121 18.4104 21.2521C19.1269 21.4922 19.8035 21.8363 20.4165 22.2843C21.0295 22.7244 21.5628 23.2525 22.0166 23.8527C22.4624 24.4528 22.8206 25.1169 23.0753 25.8211L23.0833 25.8531L23.0992 25.9091C23.1629 26.0931 23.2186 26.2771 23.2664 26.4452C23.3221 26.6452 23.3619 26.8533 23.4017 27.0613C23.4415 27.2693 23.4654 27.4854 23.4813 27.6934C23.4972 27.9095 23.5132 28.1255 23.5132 28.3416C23.5132 29.3498 23.3142 30.326 22.932 31.2381C22.5579 32.1263 22.0245 32.9185 21.3399 33.6066C20.6553 34.2948 19.8672 34.8309 18.9836 35.2069C18.0681 35.599 17.0969 35.7911 16.1018 35.7911C15.1068 35.7911 14.1276 35.591 13.2201 35.2069C12.3365 34.8309 11.5484 34.2948 10.8638 33.6066C10.1871 32.9185 9.64578 32.1263 9.27163 31.2381C8.88952 30.318 8.6905 29.3498 8.6905 28.3416C8.6905 28.1255 8.69847 27.9095 8.71439 27.6934C8.73031 27.4774 8.76215 27.2693 8.79399 27.0613C8.82584 26.8533 8.8736 26.6532 8.92932 26.4452C8.98505 26.2451 9.04077 26.0451 9.11242 25.8531C9.12834 25.8131 9.10446 25.773 9.06465 25.757L5.4983 24.4928C5.45849 24.4768 5.41073 24.5008 5.40277 24.5408C5.29928 24.8369 5.20376 25.1409 5.12415 25.453C5.04454 25.765 4.9729 26.0771 4.91717 26.3892C4.86145 26.7092 4.82165 27.0373 4.7898 27.3574C4.76592 27.6854 4.75 28.0215 4.75 28.3496C4.75 29.8859 5.0525 31.3822 5.64159 32.7905C5.79284 33.1425 5.96797 33.5026 6.15903 33.8547C6.67647 34.7909 7.32128 35.655 8.06958 36.4152C9.11242 37.4634 10.3224 38.2796 11.6757 38.8557C13.0768 39.4478 14.5575 39.7519 16.0939 39.7519C17.6303 39.7519 19.111 39.4478 20.512 38.8557C21.8653 38.2796 23.0753 37.4634 24.1182 36.4152C24.8744 35.655 25.5192 34.7989 26.0287 33.8627C26.2198 33.5106 26.4029 33.1505 26.5462 32.7905C27.1432 31.3822 27.4378 29.8939 27.4378 28.3496Z" fill="#1A1A18"/>
</g>
<defs>
<clipPath id="clip0_434_34490">
<rect width="32.1951" height="40" fill="white"/>
</clipPath>
</defs>
</svg>
