<svg width="46" height="53" viewBox="0 0 46 53" fill="none" xmlns="http://www.w3.org/2000/svg">
<g clip-path="url(#clip0_434_3169)">
<path d="M32.5312 51.1116C32.5312 51.1116 32.5355 51.1082 32.5372 51.1065C32.5705 51.0732 32.6029 51.04 32.6353 51.0059C32.6012 51.0417 32.5662 51.0766 32.5312 51.1116Z" fill="#1A1A18"/>
<path d="M43.9815 23.3896H37.9581V20.6793C37.9581 20.0117 37.4167 19.4712 36.7492 19.4712H1.55082C0.884115 19.4712 0.342733 20.0117 0.342733 20.6793V29.2664C0.342733 34.9794 3.34293 39.9917 7.85472 42.8128H0C0 45.6323 1.80489 48.0297 4.32168 48.9138C4.33958 48.9599 4.35834 49.0059 4.37795 49.052C4.3967 49.0954 4.41546 49.1389 4.43507 49.1824C4.43763 49.1892 4.44104 49.1952 4.44359 49.202C4.46406 49.2472 4.48537 49.2932 4.50754 49.3384C4.50754 49.3393 4.50839 49.3401 4.50839 49.341C4.53056 49.387 4.55357 49.4331 4.57745 49.4782C4.59365 49.5098 4.60984 49.5413 4.6269 49.572C4.63883 49.5959 4.65077 49.6181 4.66356 49.6419C4.66441 49.6436 4.66611 49.6462 4.66697 49.6479C4.68999 49.6888 4.71301 49.7306 4.73688 49.7707C4.75308 49.7997 4.77013 49.8286 4.78718 49.8568C4.79315 49.867 4.79911 49.8772 4.80594 49.8875C4.83322 49.9318 4.8605 49.9761 4.88863 50.0196C4.89205 50.0256 4.89631 50.0316 4.89972 50.0375C4.91762 50.0648 4.93467 50.0912 4.95258 50.1177C4.97645 50.1535 5.00032 50.1893 5.02505 50.2242C5.02505 50.2251 5.0259 50.2251 5.0259 50.2259C5.04977 50.26 5.07364 50.2941 5.09837 50.3274C5.14014 50.3854 5.18362 50.4433 5.22711 50.4996C5.25183 50.5312 5.27655 50.5618 5.30213 50.5925C5.34305 50.6445 5.38483 50.6949 5.42831 50.7452C5.49993 50.8279 5.57325 50.9097 5.64913 50.989C5.68664 51.0291 5.72501 51.0683 5.76337 51.1066C6.9331 52.2764 8.54957 53.0002 10.3349 53.0002H27.966C28.0154 53.0002 28.064 52.9993 28.1135 52.9985C28.1399 52.9985 28.1672 52.9968 28.1936 52.9959C28.2346 52.9951 28.2755 52.9934 28.3155 52.9908C28.3548 52.9891 28.394 52.9866 28.4332 52.9832C28.4716 52.9806 28.5099 52.9772 28.5474 52.9738C28.5858 52.9704 28.6233 52.967 28.6608 52.9627C28.6984 52.9593 28.7359 52.955 28.7734 52.9499C28.8058 52.9465 28.8373 52.9422 28.8689 52.9371C28.9021 52.9328 28.9362 52.9277 28.9695 52.9226C29.0411 52.9115 29.1118 52.8996 29.1826 52.886C29.192 52.8843 29.2014 52.8825 29.2107 52.88C29.2576 52.8715 29.3028 52.8621 29.3489 52.8519C29.3523 52.851 29.3565 52.8501 29.3599 52.8493C29.3625 52.8493 29.3651 52.8493 29.3676 52.8476C29.3693 52.8476 29.3719 52.8467 29.3736 52.8459C29.4009 52.8408 29.4264 52.834 29.4537 52.828C29.4964 52.8177 29.5398 52.8075 29.5816 52.7964C29.6319 52.7836 29.6814 52.77 29.7308 52.7564C29.7351 52.7555 29.7393 52.7538 29.7427 52.753C29.7879 52.7402 29.8331 52.7265 29.8783 52.7129C29.9073 52.7035 29.9363 52.695 29.9644 52.6856C29.9755 52.6822 29.9857 52.6788 29.9968 52.6745C30.0181 52.6677 30.0386 52.6609 30.0599 52.6532C30.0914 52.643 30.1221 52.631 30.1537 52.62C30.1921 52.6063 30.2296 52.5927 30.2671 52.5782C30.3054 52.5637 30.3421 52.5492 30.3796 52.5338C30.4171 52.5194 30.4546 52.504 30.4913 52.4878C30.528 52.4725 30.5646 52.4563 30.6013 52.4401C30.6379 52.4239 30.6746 52.4068 30.7104 52.3898C30.7471 52.3727 30.7829 52.3557 30.8187 52.3378C30.8818 52.3071 30.944 52.2755 31.0054 52.2423C31.0301 52.2295 31.054 52.2167 31.0787 52.203C31.1145 52.1834 31.1495 52.1638 31.1844 52.1434C31.1861 52.1425 31.187 52.1417 31.1879 52.1408C31.2424 52.1101 31.2953 52.0786 31.3481 52.0453C31.3643 52.0359 31.3797 52.0257 31.3959 52.0155C31.4453 51.9848 31.4939 51.9532 31.5425 51.9208C31.5732 51.9012 31.6022 51.8808 31.632 51.8603C31.673 51.833 31.7122 51.804 31.7523 51.7751C31.7557 51.7734 31.7591 51.7708 31.7625 51.7682C31.7625 51.7674 31.7625 51.7674 31.7625 51.7674C31.7864 51.7503 31.8102 51.7333 31.8332 51.7154C31.8665 51.6907 31.8997 51.6659 31.9321 51.6404C31.962 51.6173 31.9918 51.5935 32.0208 51.5696C32.0609 51.538 32.1001 51.5056 32.1385 51.4724C32.1606 51.4545 32.1819 51.4357 32.2033 51.417C32.2314 51.3923 32.2595 51.3675 32.2868 51.3428C32.3149 51.3181 32.3422 51.2925 32.3695 51.2669C32.3968 51.2414 32.4241 51.2158 32.4505 51.1902C32.4778 51.1646 32.5042 51.1382 32.5307 51.1118C32.5656 51.0768 32.6006 51.0418 32.6347 51.006C32.7037 50.9336 32.7711 50.8602 32.8367 50.7852C32.8691 50.7477 32.9015 50.7102 32.9331 50.6718C32.9655 50.6335 32.997 50.5951 33.0277 50.5559C33.0422 50.538 33.0567 50.5192 33.0712 50.5005C33.0754 50.4962 33.0789 50.4911 33.0831 50.486C33.1411 50.4101 33.1982 50.3334 33.2536 50.2549C33.2698 50.2319 33.286 50.208 33.3022 50.1842C33.315 50.1654 33.3278 50.1475 33.3397 50.1287C33.3619 50.0963 33.3832 50.064 33.4037 50.0307C33.4241 49.9992 33.4438 49.9685 33.4634 49.9369C33.4659 49.9327 33.4685 49.9275 33.471 49.9233C33.4838 49.9028 33.4966 49.8824 33.5094 49.861C33.5145 49.8534 33.5188 49.8457 33.523 49.838C33.5563 49.7835 33.5878 49.728 33.6185 49.6726C33.6381 49.6377 33.6569 49.6027 33.6757 49.5678C33.6961 49.5302 33.7157 49.4919 33.7345 49.4535C33.749 49.4271 33.7626 49.3998 33.7754 49.3725C33.795 49.3333 33.8138 49.2941 33.8317 49.254C33.8342 49.2497 33.8359 49.2463 33.8376 49.2421C33.8624 49.1892 33.8862 49.1346 33.9093 49.0809C33.9331 49.0255 33.9561 48.9701 33.9783 48.9138C36.4951 48.0297 38.3 45.6323 38.3 42.8137L30.4453 42.8128C32.3832 41.6013 34.0423 39.9849 35.3041 38.0828H37.0748C41.8356 38.0828 45.6952 34.2232 45.6952 29.4625V25.1033C45.6952 24.1569 44.9279 23.3896 43.9807 23.3896H43.9815ZM27.966 51.6361H10.3349C8.52399 51.6361 6.93139 50.6889 6.02596 49.2625C6.1709 49.2728 6.31754 49.2779 6.46504 49.2779H31.8358C31.9833 49.2779 32.1291 49.2728 32.274 49.2625C31.3694 50.6889 29.776 51.6361 27.966 51.6361ZM36.7509 44.177C36.3911 45.4729 35.5317 46.5624 34.3944 47.2232C33.7447 47.6017 33.0055 47.8413 32.2161 47.8993C32.0907 47.9087 31.9637 47.9138 31.8358 47.9138H6.46504C6.33715 47.9138 6.21012 47.9087 6.08479 47.8993C5.29531 47.8413 4.55613 47.6017 3.90647 47.2232C2.76915 46.5624 1.9089 45.4729 1.54912 44.177H36.7509ZM35.1173 35.682C34.4165 37.1117 33.4762 38.4323 32.3167 39.5918C30.9065 41.002 29.2593 42.0882 27.4638 42.8128H10.837C9.0415 42.0882 7.39434 41.002 5.98419 39.5918C3.22612 36.8338 1.70684 33.1669 1.70684 29.2664V20.8353H36.594V29.2664C36.594 29.8828 36.5565 30.4924 36.4815 31.0943C36.282 32.7014 35.8199 34.2471 35.1173 35.682ZM44.3319 29.4625C44.3319 33.4636 41.0768 36.7187 37.0757 36.7187H36.4815V35.9821C37.4295 33.9402 37.9581 31.6646 37.9581 29.2664V24.7537H43.9815C44.175 24.7537 44.3319 24.9106 44.3319 25.1033V29.4625Z" fill="#1A1A18"/>
<path d="M10.2873 39.6931C10.1535 39.8312 9.97612 39.9003 9.79793 39.9003C9.61974 39.9003 9.4552 39.8372 9.32305 39.7084C6.54623 37.016 4.78653 33.4131 4.36706 29.562L4.12323 27.3223C4.0823 26.948 4.35342 26.6113 4.7277 26.5703C5.10198 26.5303 5.43874 26.8005 5.47966 27.1748L5.7235 29.4145C6.10801 32.9501 7.72363 36.2581 10.2728 38.7288C10.5431 38.9914 10.5499 39.4228 10.2873 39.6931Z" fill="#1A1A18"/>
<path d="M13.9786 17.0149C13.9095 17.0149 13.8387 17.0046 13.7688 16.9816C13.4108 16.8657 13.2138 16.4811 13.3289 16.1231C13.3323 16.1137 13.6307 15.1835 13.849 14.1528C14.2412 12.3001 14.0041 11.8935 14.0016 11.8892C13.7023 11.4322 13.4287 11.0273 13.1882 10.67C11.7713 8.56845 11.1847 7.69883 11.5018 5.47362C11.5547 5.10105 11.9 4.84101 12.2734 4.89472C12.646 4.94758 12.9052 5.29287 12.8523 5.6663C12.6093 7.37229 12.9717 7.90941 14.3196 9.90783C14.5634 10.2685 14.8388 10.6777 15.1432 11.1424C15.3827 11.5081 15.6479 12.2473 15.1841 14.4341C14.9505 15.5374 14.6402 16.5016 14.6274 16.5425C14.5344 16.8316 14.2667 17.0149 13.9786 17.0149Z" fill="#1A1A18"/>
<path d="M18.1833 12.2379C18.0588 12.2379 17.9326 12.2038 17.8201 12.1322C17.5012 11.931 17.4066 11.5098 17.607 11.1918C17.6121 11.1833 18.1322 10.3563 18.5994 9.41167C19.4391 7.71421 19.3095 7.26149 19.3087 7.25723C19.1322 6.74057 18.9677 6.28019 18.8227 5.87436C17.971 3.48717 17.6189 2.49904 18.4783 0.422179C18.6224 0.0743308 19.0214 -0.0910677 19.3692 0.0530166C19.7171 0.197101 19.8825 0.596103 19.7384 0.943952C19.0794 2.53655 19.2976 3.14614 20.1067 5.41653C20.2533 5.82662 20.4187 6.29127 20.5986 6.81645C20.7402 7.22995 20.8135 8.01176 19.8219 10.0161C19.3215 11.0273 18.7827 11.8841 18.7596 11.9199C18.6301 12.1254 18.4084 12.2379 18.1825 12.2379H18.1833Z" fill="#1A1A18"/>
<path d="M23.426 17.0614C23.299 17.0614 23.1702 17.0256 23.0551 16.9515C22.7388 16.7469 22.6493 16.324 22.8539 16.0085C22.859 16 23.3902 15.1798 23.8693 14.2411C24.7304 12.5548 24.6068 12.1003 24.6059 12.0961C24.4363 11.5769 24.2777 11.1148 24.1379 10.7072C23.3169 8.30982 22.9767 7.31658 23.8625 5.2508C24.0109 4.90466 24.4116 4.74437 24.7577 4.89272C25.1038 5.04107 25.2641 5.44178 25.1158 5.78792C24.4371 7.37199 24.6469 7.98499 25.4278 10.2648C25.5685 10.6766 25.7288 11.1438 25.9019 11.6707C26.0383 12.0859 26.1014 12.8685 25.0842 14.8601C24.571 15.8644 24.0211 16.7145 23.9981 16.7503C23.8676 16.9515 23.6485 17.0606 23.4251 17.0606L23.426 17.0614Z" fill="#1A1A18"/>
</g>
<defs>
<clipPath id="clip0_434_3169">
<rect width="45.696" height="53" fill="white"/>
</clipPath>
</defs>
</svg>
