<svg width="63" height="44" viewBox="0 0 63 44" fill="none" xmlns="http://www.w3.org/2000/svg">
<g clip-path="url(#clip0_434_3201)">
<path d="M62.5635 3.50567C61.5852 0.969793 59.3383 -0.44012 57.4481 0.29487L38.0648 7.83916C36.3506 8.50644 35.393 10.3008 35.7886 12.1049L35.9984 13.0594L29.9884 15.2546C29.9797 15.2579 29.971 15.2622 29.9623 15.2655L27.8742 10.0365C27.4068 8.86574 27.4546 7.54975 28.0068 6.41614L31.1352 0H5.65715L8.80182 6.80493C9.31923 7.92544 9.35075 9.21194 8.88878 10.3565L0.325444 31.5729C-0.1974 32.867 -0.0854397 34.3326 0.626541 35.5318L4.3658 41.8278C5.16583 43.1755 6.61262 44.0011 8.17463 44.0011H28.6145C30.1765 44.0011 31.6233 43.1755 32.4233 41.8278L36.168 35.523C36.8778 34.3283 36.9908 32.8703 36.4756 31.5794L30.6069 16.8873L36.3745 14.7806L36.3908 14.8571C36.5952 15.7886 37.193 16.5815 38.03 17.0325C38.5083 17.2903 39.0366 17.4202 39.5659 17.4202C39.9627 17.4202 40.3616 17.3471 40.741 17.1996L60.9341 9.33972C62.8243 8.60364 63.5396 6.04046 62.5613 3.50458L62.5635 3.50567ZM34.6766 34.6286L30.9319 40.9333C30.4482 41.7481 29.5601 42.2548 28.6166 42.2548H8.17571C7.23112 42.2548 6.34413 41.7492 5.86042 40.9333L2.12116 34.6373C1.69071 33.9122 1.62223 33.0134 1.93746 32.2303L10.5008 11.0128C11.1421 9.4249 11.0976 7.62292 10.3791 6.06885L8.38224 1.74738H28.346L26.4437 5.64839C26.1285 6.29492 25.9339 6.98513 25.8557 7.68736H14.9912C14.5107 7.68736 14.1216 8.07833 14.1216 8.56105C14.1216 9.04376 14.5107 9.43473 14.9912 9.43473H25.9057C25.9785 9.86066 26.097 10.2811 26.2589 10.6885L34.8636 32.2303C35.1756 33.0101 35.1049 33.9067 34.6766 34.6275V34.6286ZM60.3079 7.71138L40.1149 15.5713C39.7029 15.7318 39.2431 15.7034 38.8539 15.4938C38.4648 15.2841 38.1865 14.9149 38.092 14.4814L37.4876 11.7293C37.2778 10.7737 37.7843 9.82243 38.6931 9.46968L58.0763 1.92539C58.2035 1.87624 58.3372 1.85222 58.4753 1.85222C59.3579 1.85222 60.4275 2.80563 60.9417 4.13691C61.5362 5.67788 61.2395 7.3488 60.3079 7.71138Z" fill="#1A1A18"/>
<path d="M15.1547 32.7723C7.84136 34.405 4.1695 31.6933 4.13797 31.6681C3.75861 31.3722 3.21294 31.441 2.91728 31.8221C2.6227 32.2033 2.69118 32.7515 3.07055 33.0486C3.20316 33.1523 5.70542 35.0493 10.6273 35.0493C12.0578 35.0493 13.6927 34.8888 15.5318 34.4781C23.9441 32.5997 32.9846 33.9015 33.0748 33.9157C33.5499 33.9856 33.9923 33.6558 34.0618 33.1785C34.1325 32.7013 33.8042 32.2568 33.3292 32.1869C32.9477 32.1301 23.8887 30.8228 15.1547 32.7723Z" fill="#1A1A18"/>
</g>
<defs>
<clipPath id="clip0_434_3201">
<rect width="63" height="44" fill="white"/>
</clipPath>
</defs>
</svg>
