<svg width="25" height="25" viewBox="0 0 25 25" fill="none" xmlns="http://www.w3.org/2000/svg">
<path d="M10.1561 17.1875H7.81232V2.34375C7.81232 2.13655 7.73001 1.93784 7.5835 1.79132C7.43699 1.64481 7.23827 1.5625 7.03107 1.5625H5.46857C5.26137 1.5625 5.06266 1.64481 4.91614 1.79132C4.76963 1.93784 4.68732 2.13655 4.68732 2.34375V17.1875H2.34357C1.6507 17.1875 1.3006 18.0293 1.7923 18.521L5.69855 23.2085C5.84505 23.3549 6.04369 23.4371 6.2508 23.4371C6.45791 23.4371 6.65655 23.3549 6.80304 23.2085L10.7093 18.521C11.1986 18.0303 10.8504 17.1875 10.1561 17.1875ZM21.8748 14.0625H15.6248C15.4176 14.0625 15.2189 14.1448 15.0724 14.2913C14.9259 14.4378 14.8436 14.6365 14.8436 14.8438V16.4062C14.8436 16.6135 14.9259 16.8122 15.0724 16.9587C15.2189 17.1052 15.4176 17.1875 15.6248 17.1875H18.3592L15.368 20.6274C15.2031 20.7741 15.071 20.9539 14.9807 21.1552C14.8903 21.3566 14.8435 21.5747 14.8436 21.7954V22.6562C14.8436 22.8635 14.9259 23.0622 15.0724 23.2087C15.2189 23.3552 15.4176 23.4375 15.6248 23.4375H21.8748C22.082 23.4375 22.2807 23.3552 22.4272 23.2087C22.5738 23.0622 22.6561 22.8635 22.6561 22.6562V21.0938C22.6561 20.8865 22.5738 20.6878 22.4272 20.5413C22.2807 20.3948 22.082 20.3125 21.8748 20.3125H19.1404L22.1317 16.8726C22.2966 16.7259 22.4286 16.5461 22.519 16.3448C22.6094 16.1434 22.6561 15.9253 22.6561 15.7046V14.8438C22.6561 14.6365 22.5738 14.4378 22.4272 14.2913C22.2807 14.1448 22.082 14.0625 21.8748 14.0625ZM23.3914 9.89355L20.4974 2.08105C20.4432 1.92928 20.3434 1.79798 20.2117 1.70514C20.0799 1.61231 19.9227 1.56248 19.7615 1.5625H17.7381C17.5769 1.56248 17.4197 1.61231 17.288 1.70514C17.1563 1.79798 17.0565 1.92928 17.0023 2.08105L14.1082 9.89355C14.0661 10.0114 14.053 10.1377 14.0699 10.2617C14.0868 10.3857 14.1332 10.5038 14.2053 10.6062C14.2774 10.7085 14.373 10.792 14.484 10.8496C14.5951 10.9073 14.7184 10.9374 14.8436 10.9375H16.056C16.2212 10.9376 16.3822 10.8852 16.5158 10.788C16.6495 10.6908 16.7488 10.5537 16.7996 10.3965L17.0154 9.76562H20.4822L20.6976 10.3965C20.7485 10.554 20.8481 10.6913 20.9822 10.7886C21.1162 10.8858 21.2776 10.938 21.4432 10.9375H22.6561C22.7812 10.9374 22.9045 10.9073 23.0156 10.8496C23.1267 10.792 23.2223 10.7085 23.2944 10.6062C23.3664 10.5038 23.4129 10.3857 23.4298 10.2617C23.4467 10.1377 23.4335 10.0114 23.3914 9.89355ZM17.9495 7.03125L18.7498 4.6875L19.5501 7.03125H17.9495Z" fill="#1A1A18"/>
</svg>
