<svg width="72" height="56" viewBox="0 0 72 56" fill="none" xmlns="http://www.w3.org/2000/svg">
<g clip-path="url(#clip0_434_3229)">
<path d="M68.1836 15.699C68.1836 15.699 60.3824 14.5654 53.3619 17.3771C53.3917 10.3993 50.2974 4.2065 50.2948 4.2019C50.2948 4.2019 38.6048 8.07779 34.807 17.2938C31.1608 26.1467 31.7343 34.8741 35.9994 37.3096C36.005 37.3128 36.0097 37.3155 36.0153 37.3186C36.0153 37.3186 36.0153 37.3186 36.0148 37.3194C35.9469 37.7016 35.8887 38.0779 35.8394 38.448C35.7557 39.0326 35.6751 39.5974 35.5971 40.1409C35.4854 41.2315 35.3596 42.2306 35.3187 43.1254C35.2458 44.0154 35.2371 44.7966 35.217 45.4413C35.2171 45.9623 35.2162 46.391 35.2256 46.7245C35.2279 46.8052 35.2312 46.8804 35.2344 46.9503C35.2471 47.1969 35.2552 47.3614 35.2593 47.437C35.3232 47.4632 35.3923 47.4748 35.4601 47.4702L36.1267 47.4278L36.3747 47.4116C36.3747 47.4116 36.3559 47.242 36.3398 46.946C36.4619 46.6825 36.6208 46.3564 36.8038 45.977C37.0936 45.4234 37.4314 44.7435 37.8736 43.9911C38.292 43.2252 38.8278 42.3973 39.3939 41.4815C39.6949 41.0354 40.0086 40.5707 40.3336 40.0899C40.4968 39.8447 40.6654 39.5973 40.8404 39.3496C40.8404 39.3496 40.8404 39.3496 40.8409 39.3489C41.1638 39.6746 41.5297 39.9527 41.9349 40.184C45.9526 42.4782 53.7491 40.1839 60.5181 34.4338C68.1284 27.9673 68.1831 15.6998 68.1831 15.6998L68.1836 15.699ZM55.054 18.299C56.9039 17.6778 58.9628 17.2595 61.1749 17.0556C63.0507 16.8825 64.7213 16.8955 65.9407 16.9532C65.4943 17.2028 64.991 17.4839 64.4358 17.7951C63.6501 18.21 62.8148 18.7575 61.8921 19.3386C60.9762 19.9299 59.9548 20.529 58.9289 21.241C57.9091 21.9627 56.8329 22.7224 55.7195 23.5104C54.6357 24.3348 53.5405 25.2198 52.4124 26.1016C51.7608 26.6405 51.1184 27.2022 50.4749 27.7674C51.0353 26.7307 51.5575 25.634 52.0308 24.4847C52.7707 22.688 53.1552 20.8215 53.2962 18.98C53.8586 18.7316 54.4448 18.5041 55.0536 18.2998L55.054 18.299ZM41.2182 37.4267C41.2131 37.4155 41.2074 37.4051 41.2023 37.3938C41.2226 37.3859 41.2434 37.3771 41.2634 37.3679C41.2634 37.3679 41.2629 37.3686 41.2625 37.3694C41.2473 37.3886 41.2326 37.407 41.2174 37.4262L41.2182 37.4267ZM40.7777 35.4471C40.7487 34.2348 41.0612 32.7925 41.6828 31.2749C43.0469 27.9415 45.7323 24.463 49.2446 21.4793C50 20.8377 50.8399 20.2598 51.7562 19.7472C51.5694 21.2417 51.2112 22.6404 50.6836 23.9218C48.9325 28.1742 46.4502 31.7996 43.6939 34.1297C42.7282 34.9462 41.7478 35.5749 40.8154 35.9814C40.7964 35.8085 40.7832 35.6308 40.779 35.4468L40.7777 35.4471ZM51.1853 11.2564C51.6805 13.4127 51.9232 15.492 51.9073 17.4348C51.9059 17.6362 51.9005 17.8353 51.8923 18.0339C50.6257 18.6591 49.406 19.4307 48.2873 20.3807C42.135 25.6071 38.714 32.0897 39.4131 36.432C38.5564 36.599 37.7778 36.5392 37.091 36.2523C37.0878 36.2505 37.0855 36.2491 37.0818 36.2481C37.1539 35.8126 37.2266 35.3703 37.3014 34.9208C37.4359 34.2837 37.5719 33.6351 37.7129 32.9738C37.9631 31.6444 38.3656 30.3061 38.7108 28.9299C39.0935 27.5638 39.548 26.1932 39.9788 24.8164C40.4841 23.4656 40.9567 22.1002 41.4841 20.7826C42.0458 19.4785 42.5798 18.1843 43.1333 16.9497C43.7287 15.7339 44.3048 14.5576 44.8502 13.4422C45.4067 12.3332 46.0129 11.3268 46.5306 10.3741C47.0603 9.42818 47.5288 8.55055 48.0174 7.81643C48.3751 7.24896 48.6984 6.73616 48.9808 6.28767C49.1775 6.20091 49.3637 6.12153 49.5329 6.04996C49.9988 7.18776 50.6751 9.03793 51.1848 11.2572L51.1853 11.2564ZM33.889 29.6441C33.6724 26.1179 34.4771 21.9317 36.1554 17.8565C36.9474 15.9337 38.1921 14.0983 39.8529 12.4014C41.208 11.0169 42.8408 9.72081 44.7067 8.55057C46.2892 7.55796 47.7747 6.8236 48.8809 6.33177C48.5993 6.75492 48.2817 7.23383 47.93 7.76137C47.424 8.48554 46.9332 9.35048 46.3801 10.2861C45.8389 11.2264 45.2071 12.2223 44.6214 13.3199C44.0464 14.4245 43.4415 15.5906 42.8145 16.7955C42.2288 18.022 41.6614 19.3065 41.0654 20.6044C40.5028 21.9174 39.9942 23.2777 39.452 24.6249C38.9847 25.9995 38.4939 27.3689 38.0741 28.7376C37.6942 30.1156 37.254 31.4572 36.9676 32.7948C36.8111 33.4575 36.6574 34.1115 36.5059 34.7524C36.4387 35.104 36.3721 35.4508 36.3069 35.7932C34.9396 34.737 34.0674 32.5357 33.8898 29.6445L33.889 29.6441ZM36.3315 43.1931C36.3532 42.3172 36.4506 41.3329 36.536 40.2571C36.5989 39.7215 36.6658 39.1624 36.7344 38.5856C36.7663 38.2922 36.8041 37.994 36.8462 37.692C36.8462 37.692 36.8466 37.6912 36.8471 37.6904C37.7731 38.0077 38.7737 38.0416 39.8139 37.8236C39.939 38.1128 40.0893 38.3873 40.2647 38.6454C40.2647 38.6454 40.2643 38.6462 40.2638 38.6469C40.0301 38.955 39.8069 39.263 39.5932 39.5691C39.2515 40.0497 38.9216 40.5133 38.6051 40.9589C38.0073 41.8751 37.4405 42.7039 36.9961 43.4766C36.7302 43.9036 36.4987 44.3089 36.2912 44.6815C36.2939 44.2312 36.3025 43.7337 36.3327 43.1928L36.3315 43.1931ZM59.5618 33.3337C56.457 35.9703 52.9715 37.9643 49.7462 38.9484C48.2288 39.4108 46.8261 39.6374 45.5762 39.6222C44.3988 39.607 43.4132 39.3775 42.6457 38.9392C42.2865 38.7341 41.974 38.4804 41.7161 38.1845C41.7133 38.1819 41.7118 38.179 41.7091 38.1764C41.9719 37.823 42.239 37.4638 42.5105 37.0989C42.6974 36.8692 42.8854 36.6393 43.0758 36.4054C45.3725 34.9169 47.671 32.4348 49.6143 29.2599C50.6515 28.318 51.6667 27.3523 52.7087 26.4482C53.808 25.5449 54.8778 24.6382 55.9354 23.7895C57.0267 22.9796 58.0796 22.1963 59.0785 21.4523C60.0835 20.718 61.0867 20.0972 61.9866 19.4844C62.8928 18.8825 63.7147 18.316 64.4882 17.8838C65.069 17.5407 65.5915 17.2315 66.0503 16.9601C66.2668 16.9713 66.4711 16.9837 66.6562 16.9965C66.3935 20.2222 65.1782 28.5617 59.5605 33.334L59.5618 33.3337Z" fill="#1A1A18"/>
</g>
<g clip-path="url(#clip1_434_3229)">
<path d="M24.3352 2.93945C24.3352 2.93945 19.7654 9.36289 19.0621 16.8927C12.8675 13.6808 5.94501 13.6069 5.93972 13.6072C5.93972 13.6072 4.05177 25.7774 10.5178 33.3635C16.73 40.6488 24.7568 44.1227 28.8707 41.4396C28.8761 41.4362 28.8807 41.4332 28.886 41.4297C28.886 41.4297 28.886 41.4297 28.8865 41.4304C29.1955 41.6653 29.5038 41.8889 29.8105 42.1017C30.2925 42.443 30.7582 42.7725 31.2062 43.09C32.1255 43.6873 32.957 44.2553 33.7345 44.7002C34.4931 45.1713 35.1841 45.5357 35.7486 45.8478C36.2122 46.0856 36.5932 46.2821 36.8941 46.426C36.967 46.4608 37.0354 46.4921 37.0991 46.5212C37.3243 46.6225 37.4743 46.6904 37.5435 46.7212C37.5959 46.6763 37.6378 46.6202 37.6647 46.5577L37.9313 45.9453L38.03 45.7172C38.03 45.7172 37.8705 45.6565 37.5999 45.5357C37.4211 45.3068 37.2035 45.0166 36.9495 44.6806C36.5893 44.17 36.1385 43.5591 35.671 42.8222C35.1806 42.1003 34.6886 41.2456 34.1321 40.3239C33.8726 39.8525 33.6024 39.3613 33.323 38.8526C33.1793 38.5954 33.0362 38.3326 32.8957 38.0637C32.8957 38.0637 32.8957 38.0637 32.8952 38.063C33.3324 37.9244 33.7469 37.7257 34.1377 37.4709C38.013 34.9435 39.5308 26.9594 37.5047 18.3119C35.2253 8.58896 24.3357 2.9402 24.3357 2.9402L24.3352 2.93945ZM20.6548 15.808C20.9466 13.8785 21.5143 11.8557 22.3426 9.79451C23.0449 8.04654 23.8192 6.56607 24.4272 5.50749C24.4455 6.0186 24.4658 6.59469 24.4893 7.23077C24.4997 8.11924 24.6056 9.11232 24.7014 10.1986C24.8093 11.2834 24.8761 12.4656 25.0413 13.7034C25.2179 14.9403 25.4025 16.2446 25.5953 17.5949C25.8341 18.9356 26.1216 20.314 26.3911 21.7202C26.5732 22.5459 26.7796 23.3739 26.9888 24.2044C26.3222 23.2326 25.5848 22.2674 24.7783 21.3216C23.5176 19.8431 22.0324 18.649 20.4583 17.6829C20.494 17.0691 20.5592 16.4437 20.6553 15.8088L20.6548 15.808ZM31.3573 36.8498C31.3449 36.8493 31.3331 36.8495 31.3208 36.849C31.3229 36.8272 31.3246 36.8047 31.3255 36.7827C31.3255 36.7827 31.326 36.7835 31.3265 36.7842C31.3367 36.8065 31.3463 36.828 31.3565 36.8503L31.3573 36.8498ZM29.3949 36.338C28.303 35.8104 27.1624 34.8739 26.0959 33.6281C23.7528 30.8928 21.8838 26.9156 20.8324 22.4286C20.6064 21.4636 20.4757 20.4525 20.4379 19.4033C21.6823 20.2517 22.7633 21.2089 23.6625 22.2633C26.6466 25.7624 28.7391 29.626 29.5539 33.142C29.8396 34.374 29.9514 35.5333 29.8874 36.5484C29.7249 36.4864 29.5608 36.417 29.3951 36.3368L29.3949 36.338ZM12.6228 16.0352C14.7674 16.579 16.7281 17.3122 18.4495 18.2132C18.628 18.3064 18.8027 18.4021 18.9756 18.5001C18.9537 19.9124 19.0835 21.3498 19.418 22.7788C21.2595 30.6385 25.4657 36.6416 29.6482 38.0018C29.4058 38.8402 28.9971 39.5057 28.4283 39.9858C28.4253 39.9878 28.423 39.9893 28.4204 39.992C28.0658 39.7291 27.7055 39.4624 27.3397 39.1908C26.8343 38.7802 26.3192 38.3632 25.7952 37.9358C24.7267 37.1064 23.7197 36.1373 22.6529 35.2019C21.612 34.2378 20.6001 33.2078 19.5718 32.196C18.6006 31.1297 17.6016 30.086 16.67 29.0153C15.7661 27.9202 14.8584 26.8543 14.0126 25.7982C13.2027 24.7135 12.419 23.664 11.6757 22.6695C10.943 21.6681 10.3243 20.6693 9.71297 19.7738C9.11313 18.8708 8.54617 18.0533 8.11604 17.2834C7.77443 16.7062 7.46576 16.1844 7.19564 15.7284C7.20825 15.5138 7.22264 15.3119 7.23617 15.1287C8.46119 15.2336 10.4161 15.4764 12.6233 16.036L12.6228 16.0352ZM21.0871 39.8181C17.8509 38.4011 14.4937 35.7741 11.634 32.4206C10.2848 30.8382 9.21993 28.8929 8.46831 26.6406C7.85516 24.8029 7.44734 22.7585 7.25789 20.5642C7.09715 18.7031 7.1219 17.0462 7.1893 15.8374C7.43725 16.2811 7.71835 16.7823 8.02717 17.336C8.44047 18.1169 8.98601 18.9483 9.56591 19.8676C10.1555 20.7783 10.7532 21.7951 11.4624 22.8172C12.1827 23.8331 12.944 24.9035 13.7299 26.0115C14.5537 27.0925 15.4376 28.1836 16.3203 29.3065C17.2317 30.4064 18.2097 31.4798 19.1609 32.5773C20.1706 33.6206 21.165 34.6823 22.1911 35.6807C23.2437 36.6478 24.2365 37.6518 25.2958 38.5172C25.8139 38.959 26.3257 39.3943 26.8267 39.8216C27.1089 40.0419 27.387 40.2595 27.662 40.4738C26.098 41.2082 23.7413 40.9793 21.0879 39.8176L21.0871 39.8181ZM34.257 43.83C33.4877 43.4108 32.6563 42.8748 31.7381 42.3078C31.2903 42.0073 30.8234 41.6925 30.3415 41.3682C30.0951 41.2059 29.847 41.0361 29.5975 40.8608C29.5975 40.8608 29.597 40.8601 29.5965 40.8593C30.3015 40.1803 30.7884 39.3054 31.0694 38.2804C31.3837 38.3011 31.6966 38.2928 32.0063 38.2544C32.0063 38.2544 32.0068 38.2552 32.0073 38.2559C32.1747 38.6046 32.3468 38.9437 32.5216 39.2736C32.7932 39.797 33.0551 40.3022 33.3071 40.7872C33.8494 41.7373 34.328 42.62 34.8127 43.3681C35.0712 43.7996 35.3261 44.1906 35.5629 44.5453C35.1635 44.3373 34.7247 44.1025 34.2573 43.8287L34.257 43.83ZM36.0894 18.6606C37.0179 22.6266 37.2009 26.638 36.6042 29.9569C36.3229 31.518 35.8842 32.8695 35.3 33.9746C34.7491 35.0152 34.095 35.7874 33.3546 36.2702C33.0082 36.4961 32.6397 36.6583 32.2588 36.7528C32.2552 36.754 32.2519 36.754 32.2484 36.7553C32.0539 36.3601 31.8563 35.9585 31.6555 35.5503C31.5365 35.2793 31.4178 35.007 31.2966 34.7309C31.0207 32.0079 29.8615 28.8298 27.9238 25.6515C27.5593 24.2987 27.1635 22.9546 26.8347 21.6148C26.5329 20.2243 26.2145 18.8586 25.9422 17.5302C25.7198 16.1895 25.5035 14.8952 25.2976 13.6668C25.103 12.4374 25.0086 11.2614 24.8742 10.1811C24.7524 9.10002 24.6235 8.11017 24.5921 7.22466C24.552 6.55132 24.5153 5.94522 24.4833 5.4131C24.5921 5.22556 24.6964 5.04951 24.7923 4.89069C27.5424 6.59689 34.4074 11.4852 36.0891 18.6619L36.0894 18.6606Z" fill="#1A1A18"/>
</g>
<defs>
<clipPath id="clip0_434_3229">
<rect width="32" height="45" fill="white" transform="translate(44.1367 0.685547) rotate(29.727)"/>
</clipPath>
<clipPath id="clip1_434_3229">
<rect width="32" height="45" fill="white" transform="translate(0 17.481) rotate(-33.1118)"/>
</clipPath>
</defs>
</svg>
