<svg width="51" height="45" viewBox="0 0 51 45" fill="none" xmlns="http://www.w3.org/2000/svg">
<g clip-path="url(#clip0_434_3209)">
<path d="M9.41016 36.5605C9.41016 39.1186 11.467 41.1878 14.0098 41.1878H26.7128C29.2555 41.1878 31.3124 39.1186 31.3124 36.5605V36.3979H9.41016V36.5605Z" fill="#1A1A18"/>
<path d="M16.4442 25.3721C16.7721 24.7935 16.707 23.993 16.1982 23.2992C15.5664 22.4489 14.4825 22.0608 13.6289 22.3252C13.9737 23.2167 14.802 24.7523 16.4442 25.3721Z" fill="#1A1A18"/>
<path d="M15.8864 25.9255C15.9925 25.8673 16.0914 25.7933 16.1734 25.7193C14.4746 25.0425 13.5956 23.49 13.2098 22.5317C12.4298 23.0606 12.3321 24.1668 13.0049 25.0838C13.7102 26.042 14.9991 26.4216 15.8864 25.9255Z" fill="#1A1A18"/>
<path d="M24.4785 25.2984C25.2176 25.3397 26.0459 24.9843 26.5884 24.316C27.2528 23.4814 27.2528 22.4577 26.6463 21.8804C25.8337 22.4917 24.5123 23.7471 24.4797 25.2984H24.4785Z" fill="#1A1A18"/>
<path d="M26.2688 21.6145C25.4152 21.1936 24.1999 21.5235 23.4777 22.415C22.7314 23.3478 22.8134 24.5292 23.6742 25.0495C23.7815 25.115 23.8876 25.1647 24.0022 25.1987C24.0757 23.5879 25.4056 22.2925 26.2676 21.6145H26.2688Z" fill="#1A1A18"/>
<path d="M17.0586 24.2162C17.1985 24.8518 17.7977 25.4546 18.6838 25.7433C19.775 26.0987 20.9167 25.8342 21.4087 25.1732C20.5141 24.6443 18.7899 23.8523 17.0586 24.215V24.2162Z" fill="#1A1A18"/>
<path d="M17.1171 23.4812C17.0762 23.5892 17.0436 23.6874 17.0352 23.7954C18.8569 23.4485 20.6305 24.2332 21.5986 24.7948C21.853 23.9688 21.1718 23.0276 19.9987 22.6479C18.7677 22.2513 17.4788 22.6237 17.1171 23.4824V23.4812Z" fill="#1A1A18"/>
<path d="M18.6259 21.6074C17.8869 21.178 16.4678 20.5254 15.0391 20.8226C15.1536 21.343 15.6467 21.8463 16.3774 22.078C17.2804 22.3667 18.216 22.152 18.6259 21.6074Z" fill="#1A1A18"/>
<path d="M18.7835 21.2932C18.9969 20.6079 18.4302 19.8401 17.4705 19.526C16.4613 19.2033 15.3943 19.509 15.0989 20.2113C15.0664 20.2937 15.0411 20.3847 15.0254 20.4757C16.5192 20.187 17.9889 20.8396 18.7847 21.2932H18.7835Z" fill="#1A1A18"/>
<path d="M21.7362 22.5232C22.2281 22.4079 22.6718 22.0283 22.8527 21.4825C23.0745 20.8141 22.8201 20.1531 22.2776 19.8887C21.9158 20.4503 21.3661 21.5152 21.7362 22.5232Z" fill="#1A1A18"/>
<path d="M21.155 22.5229C21.237 22.5472 21.319 22.5557 21.4094 22.5557C21.0477 21.4992 21.5818 20.4003 21.9761 19.8059C21.3118 19.6907 20.6137 20.1443 20.3677 20.8551C20.1133 21.6059 20.4666 22.3495 21.1562 22.5229H21.155Z" fill="#1A1A18"/>
<path d="M23.3549 19.9055C24.2169 20.4841 25.3575 20.4671 26.0303 19.9055L22.6399 17.6592C22.2047 18.3687 22.4844 19.3355 23.3537 19.9055H23.3549Z" fill="#1A1A18"/>
<path d="M25.6441 17.288C24.7821 16.7094 23.6415 16.7264 22.9688 17.2795L26.3591 19.5331C26.7944 18.8236 26.5146 17.8569 25.6453 17.2868L25.6441 17.288Z" fill="#1A1A18"/>
<path d="M48.5754 11.2803H36.5705C36.3921 11.2803 36.2172 11.3009 36.0496 11.3385V3.8814H30.8652V2.66846H37.2553V9.58221H40.6312V0H37.2553V0.97035H29.6596V3.8814H10.9716V0.97035H3.37589V0H0V9.58221H3.37589V2.66846H9.76596V3.8814H4.58156V35.761C4.58156 40.8639 8.69291 45 13.7652 45H26.866C31.7285 45 35.706 41.1974 36.0267 36.3881H38.8106C45.5431 36.3881 51.0012 30.8972 51.0012 24.1241V13.7183C51.0012 12.372 49.9161 11.2791 48.5766 11.2791L48.5754 11.2803ZM10.9716 15.4055V5.8221H29.6596V24.6263C29.6596 26.2298 28.3635 27.5337 26.7696 27.5337H13.8616C12.2677 27.5337 10.9716 26.2298 10.9716 24.6263V15.4055ZM34.1206 35.761C34.1206 39.7856 30.8665 43.0593 26.866 43.0593H13.7652C9.76475 43.0593 6.51064 39.7856 6.51064 35.761V5.8221H9.76596V24.6263C9.76596 26.9018 11.5998 28.7466 13.8616 28.7466H26.7696C29.0314 28.7466 30.8652 26.9018 30.8652 24.6263V5.8221H34.1206V35.761ZM49.0709 24.1241C49.0709 29.8164 44.4677 34.4474 38.8094 34.4474H36.075V13.7195C36.075 13.4454 36.2968 13.221 36.5705 13.221H48.5754C48.8479 13.221 49.0709 13.4442 49.0709 13.7195V24.1253V24.1241Z" fill="#1A1A18"/>
</g>
<defs>
<clipPath id="clip0_434_3209">
<rect width="51" height="45" fill="white"/>
</clipPath>
</defs>
</svg>
