<svg width="48" height="48" viewBox="0 0 48 48" fill="none" xmlns="http://www.w3.org/2000/svg">
<path d="M23.8411 47.0164C36.7471 47.0164 47.2095 36.5675 47.2095 23.6781C47.2095 10.7887 36.7471 0.339844 23.8411 0.339844C10.9351 0.339844 0.472656 10.7887 0.472656 23.6781C0.472656 36.5675 10.9351 47.0164 23.8411 47.0164Z" fill="#1A1A18"/>
<path d="M20.5507 14.9959V22.6544C20.5507 23.1878 20.5507 23.6144 20.5079 23.9344C20.4866 24.2544 20.3584 24.6811 20.1662 25.2357C19.9526 25.7904 19.6749 26.217 19.269 26.537C18.8845 26.857 18.2864 27.1344 17.4747 27.3904C16.663 27.6463 15.6805 27.7743 14.5483 27.7743C13.6298 27.7743 12.8181 27.7103 12.1132 27.5823C11.4083 27.4543 10.853 27.241 10.4471 26.921C10.0413 26.6224 9.69951 26.3237 9.46454 26.025C9.22957 25.7264 9.05869 25.3424 8.95189 24.8091C8.86644 24.2757 8.80236 23.8491 8.781 23.5291C8.75964 23.2091 8.73828 22.7184 8.73828 22.0784V14.8466C8.73828 14.3559 8.73828 13.9719 8.781 13.6733C8.80236 13.3746 8.93053 12.9693 9.12277 12.4786C9.33638 11.9666 9.63542 11.5826 10.0199 11.284C10.4044 10.9853 11.0025 10.7293 11.7928 10.4946C12.5832 10.26 13.5658 10.1533 14.6979 10.1533C16.0436 10.1533 17.133 10.3027 18.0088 10.6226C18.8632 10.9426 19.4613 11.3906 19.803 11.9666C20.1448 12.5426 20.3371 13.0546 20.4225 13.4813C20.5079 13.8866 20.5293 14.3986 20.5293 15.0172L20.5507 14.9959ZM15.9581 23.2944V14.3346C15.9581 13.4386 15.5096 12.9906 14.6338 12.9906C13.8007 12.9906 13.3949 13.4386 13.3949 14.3346V23.2944C13.3949 23.6357 13.3949 23.8704 13.4376 24.0411C13.459 24.2117 13.5658 24.3824 13.758 24.5744C13.9503 24.7664 14.2493 24.8731 14.6338 24.8731C15.0396 24.8731 15.36 24.7664 15.5523 24.5744C15.7659 24.3824 15.8727 24.1904 15.8941 24.0197C15.9154 23.8491 15.9368 23.5931 15.9368 23.2944H15.9581ZM29.6502 10.58L21.3837 37.8435H18.0088L26.2753 10.58H29.6502ZM38.9421 25.3637V33.0436C38.9421 33.5556 38.9421 33.9609 38.8994 34.2809C38.878 34.5796 38.7498 35.0275 38.5576 35.5822C38.344 36.1369 38.0449 36.5635 37.6391 36.8835C37.2332 37.2035 36.6351 37.4808 35.8234 37.7368C35.0117 37.9928 34.0292 38.1208 32.897 38.1208C31.9785 38.1208 31.1668 38.0568 30.4619 37.9288C29.757 37.8008 29.2017 37.5662 28.7958 37.2462C28.39 36.9262 28.0482 36.6275 27.8132 36.3502C27.5783 36.0729 27.4074 35.6675 27.3006 35.1342C27.1938 34.6009 27.1511 34.1529 27.1297 33.8329C27.1083 33.5129 27.087 33.0436 27.087 32.4249V25.1931C27.087 24.7024 27.087 24.3184 27.1297 24.0197C27.1511 23.7211 27.2792 23.3158 27.4715 22.8251C27.6851 22.3131 27.9841 21.9291 28.3686 21.6305C28.7531 21.3318 29.3512 21.0758 30.1415 20.8411C30.9319 20.6065 31.9145 20.4998 33.0466 20.4998C34.1787 20.4998 35.0972 20.6278 35.8875 20.8625C36.6779 21.0971 37.2546 21.3745 37.6177 21.6945C37.9808 21.9931 38.2799 22.4198 38.5149 22.9318C38.7285 23.4438 38.8566 23.8491 38.878 24.1691C38.8993 24.4891 38.9207 24.8731 38.9207 25.3637H38.9421ZM34.3282 33.7049V24.7451C34.3282 23.8277 33.8796 23.3584 33.0038 23.3584C32.1281 23.3584 31.7222 23.8277 31.7222 24.7451V33.7049C31.7222 34.0249 31.7222 34.2596 31.7649 34.4302C31.7863 34.6009 31.9145 34.7716 32.1067 34.9635C32.2989 35.1555 32.598 35.2622 33.0038 35.2622C33.4097 35.2622 33.7301 35.1555 33.9223 34.9635C34.1146 34.7716 34.2428 34.6009 34.2641 34.4302C34.2855 34.2596 34.3068 34.0249 34.3068 33.7049H34.3282Z" fill="white"/>
</svg>
