<svg width="46" height="58" viewBox="0 0 46 58" fill="none" xmlns="http://www.w3.org/2000/svg">
<g clip-path="url(#clip0_434_3180)">
<path d="M31.9 57.0564H8.44367C6.12344 57.0564 4.01385 55.963 2.65703 54.0559C1.2971 52.1487 0.937763 49.7733 1.66574 47.5394L1.68433 47.4797L8.76894 32.8066H31.5779L38.6625 47.4797L38.6811 47.5394C39.409 49.7733 39.0466 52.1487 37.6898 54.0559C36.3298 55.963 34.2203 57.0564 31.9 57.0564ZM3.32924 48.1615C2.80572 49.8236 3.08452 51.5863 4.0944 53.0033C5.11666 54.436 6.70272 55.2592 8.44677 55.2592H31.9031C33.6472 55.2592 35.2332 54.436 36.2555 53.0033C37.2654 51.5863 37.5442 49.8236 37.0206 48.1615L30.475 34.607H9.87484L3.32924 48.1615Z" fill="#1A1A18"/>
<path d="M28.1195 50.3355C26.6604 50.3355 24.9938 50.1722 23.1197 49.748C14.542 47.8157 5.32607 49.1542 5.23314 49.1699C4.74988 49.2421 4.29761 48.9028 4.22636 48.4126C4.15511 47.9225 4.48967 47.4638 4.97292 47.3915C5.36324 47.3318 14.5977 45.987 23.5038 47.9948C31.0314 49.6914 34.6992 46.8856 34.7363 46.8574C35.1236 46.5526 35.6812 46.6249 35.9816 47.0145C36.2821 47.4072 36.2109 47.9728 35.8268 48.2775C35.6905 48.3844 33.141 50.3355 28.1226 50.3387L28.1195 50.3355Z" fill="#1A1A18"/>
<path d="M30.4034 34.6069H9.93945V28.6748H30.4034V34.6069ZM11.7145 32.8097H28.6314V30.4752H11.7145V32.8097Z" fill="#1A1A18"/>
<path d="M10.8286 30.4751C10.4755 30.4751 10.1409 30.2583 10.0046 29.9064C9.4625 28.5114 8.86463 27.6128 7.0989 26.5634C6.6776 26.312 6.5351 25.7622 6.77983 25.3317C7.02765 24.9044 7.56976 24.7599 7.99415 25.0081C10.1843 26.3089 10.9959 27.5468 11.6557 29.2435C11.8354 29.7054 11.6124 30.2269 11.1539 30.4092C11.0486 30.4532 10.937 30.472 10.8286 30.472V30.4751Z" fill="#1A1A18"/>
<path d="M29.5165 30.4751C29.408 30.4751 29.2996 30.4562 29.1912 30.4122C28.7358 30.23 28.5128 29.7084 28.6894 29.2466C29.3492 27.5467 30.1577 26.3119 32.3509 25.0112C32.7753 24.7598 33.3174 24.9043 33.5653 25.3348C33.8131 25.7621 33.6706 26.3151 33.2462 26.5664C31.4805 27.6159 30.8826 28.5145 30.3405 29.9095C30.2042 30.2646 29.8696 30.4782 29.5165 30.4782V30.4751Z" fill="#1A1A18"/>
<path d="M42.2577 42.2448C41.1766 42.2448 40.2163 41.6792 39.6835 40.7209C37.196 36.275 35.8515 34.4432 33.9557 34.6066C33.4663 34.6475 33.0388 34.2799 32.9985 33.7866C32.9582 33.2901 33.3207 32.8565 33.807 32.8157C36.9079 32.5518 38.7573 35.4235 41.2262 39.8349C41.4461 40.2245 41.8333 40.4539 42.2825 40.4476C42.7224 40.4413 43.1065 40.1994 43.311 39.8035C43.4566 39.5207 43.4876 39.1814 43.3915 38.8734C41.443 32.6994 38.1718 29.636 33.3919 29.5072C32.9025 29.4946 32.5152 29.0799 32.5276 28.5834C32.54 28.087 32.9427 27.6943 33.4384 27.7068C36.1272 27.7791 38.4506 28.6494 40.3402 30.2927C42.3569 32.0459 43.9522 34.748 45.0798 38.3236C45.3214 39.0871 45.2471 39.9291 44.8816 40.6361C44.3704 41.6227 43.4101 42.2228 42.3104 42.2416C42.2918 42.2416 42.2763 42.2416 42.2577 42.2416V42.2448Z" fill="#1A1A18"/>
<path d="M13.5081 24.1253H1.66526C1.17581 24.1253 0.779297 23.7232 0.779297 23.2267C0.779297 22.7303 1.17581 22.3281 1.66526 22.3281H13.5081C13.9975 22.3281 14.394 22.7303 14.394 23.2267C14.394 23.7232 13.9975 24.1253 13.5081 24.1253Z" fill="#1A1A18"/>
<path d="M38.678 24.1253H26.8352C26.3457 24.1253 25.9492 23.7232 25.9492 23.2267C25.9492 22.7303 26.3457 22.3281 26.8352 22.3281H38.678C39.1674 22.3281 39.5639 22.7303 39.5639 23.2267C39.5639 23.7232 39.1674 24.1253 38.678 24.1253Z" fill="#1A1A18"/>
<path d="M20.3778 5.10676C25.0058 5.10676 29.3706 6.51123 32.2143 7.68947C33.8964 8.38699 35.2626 9.08765 36.1671 9.59037L20.6101 25.1715L12.466 17.3134L4.51715 9.64378C5.2823 9.13793 6.45636 8.43726 7.99285 7.73974C10.6414 6.53951 14.9412 5.10676 20.3809 5.10676M20.3809 3.98193C9.39304 3.98193 2.7793 9.51811 2.7793 9.51811L11.7009 18.1271L20.6225 26.7362L37.9762 9.35786C37.9762 9.35786 29.7206 3.98193 20.3747 3.98193H20.3809Z" fill="#1A1A18"/>
<path d="M5.35107 6.12214C5.18492 6.12214 5.02197 6.04918 4.91014 5.90659C4.70884 5.65456 4.74399 5.27984 4.98682 5.07092C5.22326 4.86864 10.8628 0.129883 20.279 0.129883C28.2797 0.129883 35.2261 4.69288 35.5168 4.88854C35.782 5.06429 35.8587 5.43238 35.6894 5.70762C35.52 5.98286 35.1654 6.06245 34.9002 5.88669C34.8299 5.84027 27.9379 1.31706 20.279 1.31706C11.2686 1.31706 5.76964 5.93975 5.71532 5.98618C5.60988 6.07903 5.47888 6.12214 5.35107 6.12214Z" fill="#1A1A18"/>
<path d="M30.3701 13.3262C30.1843 13.3262 30.0015 13.2319 29.8962 13.0559L28.5084 10.7497C28.3504 10.4858 28.4309 10.1402 28.6942 9.9768C28.9544 9.81656 29.2952 9.89825 29.4563 10.1653L30.8441 12.4715C31.0021 12.7355 30.9215 13.0811 30.6582 13.2445C30.5684 13.301 30.4693 13.3262 30.3701 13.3262Z" fill="#1A1A18"/>
<path d="M28.667 15.0229C28.4811 15.0229 28.2984 14.9287 28.193 14.7527L26.8052 12.4465C26.6473 12.1826 26.7278 11.837 26.9911 11.6736C27.2513 11.5133 27.5921 11.595 27.7532 11.8621L29.141 14.1683C29.299 14.4322 29.2184 14.7779 28.9551 14.9412C28.8653 14.9978 28.7661 15.0229 28.667 15.0229Z" fill="#1A1A18"/>
<path d="M26.9658 16.7196C26.78 16.7196 26.5972 16.6254 26.4919 16.4494L25.1041 14.1432C24.9461 13.8793 25.0266 13.5337 25.2899 13.3703C25.5532 13.2069 25.8909 13.2917 26.052 13.5588L27.4398 15.865C27.5978 16.1289 27.5172 16.4746 27.2539 16.6379C27.1641 16.6945 27.065 16.7196 26.9658 16.7196Z" fill="#1A1A18"/>
<path d="M25.2647 18.416C25.0788 18.416 24.896 18.3217 24.7907 18.1458L23.4029 15.8396C23.2449 15.5756 23.3255 15.23 23.5888 15.0666C23.849 14.9064 24.1897 14.9881 24.3508 15.2552L25.7386 17.5614C25.8966 17.8253 25.8161 18.1709 25.5528 18.3343C25.4629 18.3909 25.3638 18.416 25.2647 18.416Z" fill="#1A1A18"/>
<path d="M23.5615 20.1127C23.3757 20.1127 23.1929 20.0184 23.0876 19.8425L21.6998 17.5363C21.5418 17.2724 21.6223 16.9267 21.8856 16.7634C22.149 16.6 22.4866 16.6848 22.6477 16.9519L24.0355 19.2581C24.1935 19.522 24.1129 19.8676 23.8496 20.031C23.7598 20.0876 23.6607 20.1127 23.5615 20.1127Z" fill="#1A1A18"/>
<path d="M21.8604 21.8096C21.6745 21.8096 21.4917 21.7153 21.3864 21.5393L19.9986 19.2331C19.8406 18.9692 19.9212 18.6236 20.1845 18.4602C20.4447 18.3 20.7854 18.3817 20.9465 18.6487L22.3343 20.9549C22.4923 21.2189 22.4118 21.5645 22.1485 21.7279C22.0586 21.7844 21.9595 21.8096 21.8604 21.8096Z" fill="#1A1A18"/>
</g>
<defs>
<clipPath id="clip0_434_3180">
<rect width="44.4407" height="56.9264" fill="white" transform="translate(0.779297 0.129883)"/>
</clipPath>
</defs>
</svg>
