<svg width="61" height="56" viewBox="0 0 61 56" fill="none" xmlns="http://www.w3.org/2000/svg">
<g clip-path="url(#clip0_434_3148)">
<path d="M42.532 27.0946C37.9458 23.9998 31.8676 22.2969 25.4178 22.2969C18.9679 22.2969 12.8898 24.0011 8.30355 27.0946C3.59126 30.2746 0.996094 34.5432 0.996094 39.115C0.996094 43.6869 3.59127 47.9554 8.30486 51.1355C12.8911 54.2302 18.9692 55.9332 25.4191 55.9332C31.8689 55.9332 37.9471 54.2289 42.5333 51.1355C47.2456 47.9554 49.842 43.6869 49.842 39.115C49.842 34.5432 47.2469 30.2746 42.5333 27.0946H42.532ZM25.4178 53.8337C13.1104 53.8337 3.09745 47.2306 3.09745 39.115C3.09745 30.9994 13.1104 24.3964 25.4178 24.3964C37.7251 24.3964 47.7381 30.9994 47.7381 39.115C47.7381 47.2306 37.7251 53.8337 25.4178 53.8337Z" fill="#1A1A18"/>
<path d="M27.3423 38.1866L27.3095 38.205C21.5899 41.5019 16.0961 41.0424 10.0193 36.7607C9.54516 36.4259 8.8898 36.5401 8.5549 37.0141C8.22131 37.4881 8.33425 38.1433 8.80837 38.4781C11.9985 40.7272 15.0179 41.9995 18.0373 42.3672C18.6335 42.4394 19.2298 42.4761 19.8273 42.4761C22.6642 42.4761 25.5207 41.6582 28.3431 40.0353C32.8873 37.6312 37.6455 37.4264 42.891 39.4077C43.4334 39.6125 44.0402 39.3394 44.2451 38.7958C44.4499 38.2536 44.1768 37.647 43.633 37.4421C37.8661 35.2639 32.3842 35.5133 27.3423 38.1879V38.1866Z" fill="#1A1A18"/>
<path d="M60.3794 28.6426C60.1444 22.8313 57.41 16.6668 52.4705 10.8134L52.4298 10.7675C48.0944 6.20088 43.5883 3.17837 39.0376 1.78266C36.9349 1.13798 34.8559 0.862248 32.8583 0.951532C32.6862 0.92002 32.5155 0.931837 32.3592 0.98173C30.6335 1.11172 28.9747 1.51874 27.4184 2.2015C21.1984 4.93122 17.5158 11.6327 18.0372 19.2744C18.0766 19.8534 18.5796 20.2906 19.1575 20.2512C19.7367 20.2118 20.174 19.7103 20.1346 19.1312C19.6749 12.3838 22.865 6.49368 28.2642 4.12504C29.2689 3.68387 30.3091 3.37663 31.3755 3.19675C30.3984 9.26541 31.8693 13.9712 35.8527 17.5465C36.6722 18.2817 37.6704 18.908 38.9956 19.516C41.1153 20.4902 42.9343 22.4991 44.7165 25.8367C44.9056 26.1912 45.2694 26.3921 45.6437 26.3921C45.8105 26.3921 45.9799 26.3527 46.1375 26.2687C46.6497 25.9956 46.8428 25.3588 46.5696 24.8467C44.5589 21.0837 42.4313 18.7833 39.8729 17.6069C38.7447 17.0882 37.9134 16.5722 37.2554 15.9827C33.6909 12.7829 32.5011 8.64436 33.5386 3.00899C39.0481 2.96829 45.1276 6.13654 50.884 12.1921C60.1352 23.1713 60.784 34.5983 52.5742 42.0194C52.1435 42.408 52.1106 43.0724 52.4994 43.503C52.7069 43.7328 52.9919 43.8484 53.2795 43.8484C53.5303 43.8484 53.7825 43.7591 53.9835 43.5766C58.4002 39.5838 60.6119 34.4197 60.3781 28.6426H60.3794Z" fill="#1A1A18"/>
</g>
<defs>
<clipPath id="clip0_434_3148">
<rect width="59.4" height="55" fill="white" transform="translate(0.996094 0.93457)"/>
</clipPath>
</defs>
</svg>
