<svg width="53" height="56" viewBox="0 0 53 56" fill="none" xmlns="http://www.w3.org/2000/svg">
<g clip-path="url(#clip0_434_3158)">
<path d="M8.50996 51.9608C8.30674 51.9608 8.10101 51.899 7.92288 51.769C1.3947 47.0191 -1.00256 40.5148 0.374827 31.3003L0.732346 28.9084L2.17121 30.8459C2.81474 31.7131 3.46455 32.3556 4.13066 32.7822C3.81705 30.5569 4.06418 28.4489 4.8733 26.4937C5.77024 24.3251 7.34207 22.3131 9.68163 20.3428L9.76944 20.2771C14.2968 17.2376 16.5485 12.9485 16.6514 7.16234L16.6815 5.44189L18.1592 6.3078C21.6391 8.34633 23.3176 11.1611 23.2937 14.9126C23.2837 16.4348 22.9324 17.9786 22.2488 19.5034C21.4873 21.2023 21.555 22.7877 22.4557 24.3479C22.7342 24.83 22.5711 25.4486 22.0919 25.7288C21.6127 26.009 20.9981 25.8449 20.7196 25.3627C19.4877 23.2283 19.3861 20.9777 20.4185 18.6741C20.9855 17.408 21.2778 16.1382 21.2866 14.8999C21.3029 12.4436 20.4273 10.5414 18.5544 9.01911C18.0162 14.5339 15.4571 18.8697 10.9298 21.9269C6.60821 25.5861 5.18566 29.4587 6.45391 34.1114L6.86538 35.6235L5.32741 35.3761C4.17582 35.1906 3.10954 34.6604 2.10347 33.768C1.48126 41.0904 3.68533 46.1949 9.09956 50.1356C9.54865 50.4626 9.64901 51.0937 9.32411 51.5456C9.12841 51.8182 8.82107 51.9634 8.50996 51.9634V51.9608Z" fill="black"/>
<path d="M27.7494 55.9347C25.5177 55.9347 23.2145 55.6431 20.9189 55.0486C15.3316 53.5995 10.9836 50.6736 9.29136 47.2214L9.25623 47.1494L9.2324 47.0724C6.13389 36.9694 13.1011 32.4695 26.1851 28.1172C27.4433 27.6085 28.4456 26.6391 28.9386 25.4564C29.4166 24.3078 29.384 23.0228 28.8445 21.7391C28.1094 19.9909 27.708 18.4194 27.6152 16.9362C27.3254 12.271 28.7216 7.74326 31.7637 3.48065L33.5801 0.937214C33.5801 0.937214 33.5889 0.935951 33.5889 0.939738L33.5851 4.07012C33.5763 10.4255 34.0217 15.6715 39.7244 20.5235C42.7439 22.9584 44.3747 25.7758 44.5879 28.9137C44.5879 28.9175 44.593 28.92 44.5955 28.9175C45.8073 27.9544 46.2062 25.7493 45.9515 21.8262L45.6367 16.9754C45.6367 16.9754 45.6429 16.9678 45.6455 16.9728L47.8458 21.3011C51.4109 28.3104 53.0656 34.4159 52.7657 39.4447C52.4735 44.3397 50.3471 48.3612 46.4445 51.4007C46.0055 51.7428 45.3594 51.6998 45.0107 51.2656C44.6569 50.8226 44.7347 50.1763 45.1801 49.8317C48.6762 47.1242 50.5014 43.6871 50.7624 39.3247C50.9844 35.6112 50.026 31.206 47.9097 26.191C47.9085 26.1873 47.901 26.1873 47.901 26.191C47.5698 28.5742 46.5487 30.9144 43.755 31.4306L42.4729 31.6679C42.4729 31.6679 42.4667 31.6654 42.4679 31.6629L42.5746 30.3552C42.8279 27.2286 41.4819 24.5261 38.4599 22.0925L38.4399 22.0761C32.978 17.4348 31.859 12.2268 31.6344 7.56529C31.6344 7.56024 31.6282 7.55897 31.6257 7.56402C30.099 10.5581 29.4266 13.6569 29.6223 16.8125C29.7001 18.0647 30.0513 19.4191 30.6961 20.954C31.4513 22.7501 31.4839 24.5779 30.7927 26.239C30.089 27.9292 28.6702 29.3025 26.9014 30.0081L26.8462 30.0283C19.623 32.4291 15.3316 34.5812 12.9343 37.0073C10.4768 39.4926 9.91858 42.3933 11.1291 46.4009C12.5755 49.2612 16.5095 51.8223 21.4232 53.0959C27.7419 54.7343 34.0932 53.9062 38.4135 50.8806C40.4947 49.4227 42.0314 47.311 42.7414 44.9342C43.4727 42.4804 43.1616 40.3371 41.788 38.3818C40.2099 36.1338 37.1729 34.0839 32.7622 32.2877C32.2479 32.0782 32.0008 31.49 32.2077 30.9724C32.416 30.4549 33.0006 30.2063 33.5149 30.4158C38.3546 32.3862 41.5973 34.6115 43.4276 37.2155C45.1562 39.6769 45.5727 42.469 44.6645 45.5136C43.8265 48.3246 42.0138 50.82 39.5613 52.5367C36.3675 54.7734 32.2077 55.9372 27.7544 55.9372L27.7494 55.9347Z" fill="black"/>
<path d="M22.0036 45.3748C21.4918 45.3748 20.9825 45.3432 20.4744 45.2801C18.1951 44.9961 15.932 44.0557 13.5549 42.4035C13.0982 42.0866 12.9841 41.458 13.2989 40.9986C13.6138 40.5391 14.2385 40.4243 14.6952 40.7411C19.2526 43.9081 23.2744 44.1908 28.1404 41.6878L28.158 41.6789C32.2588 39.672 36.2831 39.5849 40.1217 41.4214C40.6222 41.6613 40.8355 42.2634 40.5971 42.767C40.3588 43.2706 39.7604 43.4852 39.2599 43.2454C35.9569 41.6651 32.6163 41.7458 29.0449 43.4903C26.5886 44.7525 24.2704 45.3748 22.0036 45.3748Z" fill="black"/>
</g>
<defs>
<clipPath id="clip0_434_3158">
<rect width="52.8" height="55" fill="white" transform="translate(0 0.93457)"/>
</clipPath>
</defs>
</svg>
