<svg width="57" height="56" viewBox="0 0 57 56" fill="none" xmlns="http://www.w3.org/2000/svg">
<g clip-path="url(#clip0_434_3154)">
<path d="M56.9647 18.8437C56.9647 17.5416 56.4563 16.314 55.5298 15.3829C54.6032 14.4622 53.3747 13.9542 52.0716 13.9542H38.7544C38.1749 6.67887 32.0689 0.93457 24.6408 0.93457H22.3886C18.606 0.93457 15.0507 2.40662 12.3751 5.07851C9.70644 7.7504 8.2333 11.2979 8.22983 15.0847V16.0209C3.44432 18.7761 0.498047 23.8372 0.498047 29.3925V29.5763C0.498047 34.9097 3.27254 39.8703 7.78043 42.6826V47.5062C7.78043 50.2007 9.97538 52.394 12.6718 52.394C13.7927 52.394 14.8251 52.0143 15.651 51.3797C16.3694 53.1899 18.1357 54.4729 20.1988 54.4729C21.4134 54.4729 22.5274 54.0273 23.3828 53.2904C24.1983 54.8596 25.838 55.9346 27.7259 55.9346C30.2349 55.9346 32.3084 54.036 32.586 51.5999C33.3547 52.101 34.2708 52.394 35.2546 52.394C37.951 52.394 40.146 50.2007 40.146 47.5062V45.0164H47.4336C49.7517 45.0164 51.499 43.3484 51.499 41.136V39.8582C51.499 39.1317 51.303 38.4329 50.9507 37.8243C52.3215 37.0476 53.2359 35.5807 53.2359 33.8937V33.1377C53.2359 32.2049 52.9513 31.3206 52.4447 30.5837C53.8987 29.7289 54.8721 28.1476 54.8721 26.3652V26.034C54.8721 25.044 54.5702 24.1008 54.0393 23.3119C55.7588 22.5542 56.963 20.8359 56.963 18.842L56.9647 18.8437ZM10.4855 15.0743C10.489 11.903 11.7261 8.91903 13.9714 6.67194C16.2202 4.42484 19.2098 3.1886 22.3886 3.1886H24.6408C30.8248 3.1886 35.9227 7.92205 36.4953 13.9542H27.299C27.2609 13.9542 27.2244 13.9559 27.188 13.9594H15.3075V24.1996C15.3075 25.5295 14.2247 26.6114 12.8939 26.6114C12.2502 26.6114 11.6463 26.36 11.19 25.9023C10.7354 25.448 10.4838 24.8429 10.4838 24.1996V15.0725L10.4855 15.0743ZM12.6718 50.1417C11.2177 50.1417 10.0361 48.961 10.0361 47.508V42.0723C10.0361 42.0723 10.0361 42.0619 10.0361 42.055V37.8677C10.0361 36.4147 11.2177 35.2339 12.6718 35.2339C14.1258 35.2339 15.3075 36.4147 15.3075 37.8677V47.508C15.3075 48.961 14.1258 50.1417 12.6718 50.1417ZM20.1988 52.2189C18.7448 52.2189 17.5632 51.0381 17.5632 49.5852V35.8997C17.5632 34.4468 18.7448 33.266 20.1988 33.266C21.6529 33.266 22.8345 34.4468 22.8345 35.8997V49.5852C22.8345 51.0381 21.6529 52.2189 20.1988 52.2189ZM30.3615 51.0468C30.3615 52.4998 29.1799 53.6805 27.7259 53.6805C26.2718 53.6805 25.0902 52.4998 25.0902 51.0468V32.9227C25.0902 31.4697 26.2718 30.2889 27.7259 30.2889C29.1799 30.2889 30.3615 31.4697 30.3615 32.9227V51.0468ZM37.8886 47.5062C37.8886 48.9592 36.707 50.14 35.2529 50.14C33.7989 50.14 32.6172 48.9592 32.6172 47.5062V37.1169C32.6172 35.6639 33.7989 34.4832 35.2529 34.4832C36.707 34.4832 37.8886 35.6639 37.8886 37.1169V47.5062ZM49.2433 41.1377C49.2433 42.2058 48.3324 42.7641 47.4336 42.7641H40.146V38.4156H48.5233C48.9727 38.7571 49.2451 39.2894 49.2451 39.8616V41.1395L49.2433 41.1377ZM52.0699 21.4757H51.5303C51.5303 21.4757 51.5233 21.4757 51.5198 21.4757H27.6634C27.0405 21.4757 26.5356 21.9803 26.5356 22.6027C26.5356 23.2252 27.0405 23.7297 27.6634 23.7297H51.2457C52.0855 24.1875 52.6165 25.07 52.6165 26.0375V26.3687C52.6165 27.7419 51.5459 28.8949 50.1734 28.9955C50.1109 29.0007 50.0485 29.0024 49.9842 29.0024H34.8625C34.2396 29.0024 33.7347 29.507 33.7347 30.1294C33.7347 30.7519 34.2396 31.2564 34.8625 31.2564H49.9738C50.6002 31.676 50.9802 32.3765 50.9802 33.1394V33.8954C50.9802 35.116 50.0242 36.1095 48.8026 36.1563H48.761C48.7436 36.1598 48.7263 36.1598 48.7107 36.1598H40.0506C39.6046 33.9214 37.6231 32.2291 35.2529 32.2291C34.283 32.2291 33.379 32.5135 32.6172 33.0024V32.921C32.6172 30.2265 30.4223 28.0332 27.7259 28.0332C25.3938 28.0332 23.4383 29.6734 22.9508 31.8598C22.1665 31.3241 21.2174 31.0102 20.1971 31.0102C18.1652 31.0102 16.4197 32.2534 15.6823 34.0185C14.8511 33.3666 13.8048 32.9782 12.6701 32.9782C9.97365 32.9782 7.7787 35.1715 7.7787 37.8659V39.9292C4.63809 37.4481 2.75199 33.6388 2.75199 29.5763V29.3925C2.75199 25.1012 4.80987 21.1549 8.2281 18.698V24.1996C8.2281 25.4445 8.71394 26.6149 9.59192 27.4939C10.4716 28.3782 11.6446 28.8654 12.8939 28.8654C15.4688 28.8654 17.5632 26.7727 17.5632 24.1996V16.2134H38.803V16.2082H52.0716C52.7744 16.2082 53.4372 16.4822 53.9352 16.9763C54.4331 17.4774 54.709 18.1397 54.709 18.842C54.709 20.2932 53.5257 21.474 52.0716 21.474L52.0699 21.4757Z" fill="black"/>
</g>
<defs>
<clipPath id="clip0_434_3154">
<rect width="56.4667" height="55" fill="white" transform="translate(0.498047 0.93457)"/>
</clipPath>
</defs>
</svg>
