<svg width="65" height="81" viewBox="0 0 65 81" fill="none" xmlns="http://www.w3.org/2000/svg">
<g clip-path="url(#clip0_434_3006)">
<path d="M34.1293 22.5163C34.4024 21.4066 34.3652 20.4088 33.8086 19.3032C33.0928 17.8839 32.3438 16.6154 32.0976 15.0149C32.021 14.5181 31.9797 14.005 31.9797 13.4878C31.9797 12.0808 32.2735 10.743 32.8052 9.52941C32.9997 11.0891 33.5665 12.5878 34.45 13.893C35.2527 15.0679 36.2934 15.7968 37.3113 16.7661C38.1865 17.5948 38.7927 18.6658 39.0617 19.8204C39.1713 20.2765 39.2251 20.7428 39.2251 21.2152C39.2251 21.8566 39.1279 22.4735 38.9437 23.0538C38.9272 23.1109 38.9065 23.1658 38.8858 23.2188C37.3465 22.8502 35.7555 22.614 34.1252 22.5183L34.1293 22.5163ZM32.5093 22.4674C32.741 22.4674 32.9728 22.4715 33.2024 22.4756C33.2107 22.3554 33.2066 22.2394 33.2024 22.1192C33.0638 19.6391 30.9555 17.1855 30.9555 14.6891C30.9555 13.2658 31.2535 11.9118 31.7935 10.686C30.3162 11.8038 29.1597 13.3106 28.4832 15.017C28.1418 15.8783 27.9204 16.7925 27.8314 17.7129C27.7342 18.7188 27.9535 19.633 27.9866 20.6267C28.0156 21.4921 27.7301 22.3066 27.2252 22.9744C28.9363 22.6425 30.7031 22.4654 32.5093 22.4654V22.4674ZM14.8633 18.0163C15.7302 17.4523 16.5619 16.8495 17.2943 16.145C16.626 14.3226 15.6329 12.6509 14.3916 11.2011C14.8074 12.6326 15.0309 14.1414 15.0309 15.7052C15.0309 16.4912 14.9729 17.2649 14.8633 18.0183V18.0163ZM49.9029 15.7032C49.9029 14.1414 50.1264 12.6305 50.5422 11.1991C49.3009 12.6489 48.3078 14.3206 47.6395 16.143C48.3719 16.8475 49.2036 17.4502 50.0705 18.0143C49.9609 17.2609 49.9029 16.4871 49.9029 15.7011V15.7032ZM32.5321 69.0943C31.4542 72.2362 29.4659 74.981 26.7825 77.0314C25.9756 77.6525 25.1211 78.1941 24.2253 78.6543C26.7452 80.1937 29.6273 80.998 32.621 80.998C35.6148 80.998 38.4348 80.2079 40.932 78.7052C40.0072 78.2369 39.1155 77.6749 38.2775 77.0294C35.5941 74.9769 33.6121 72.2362 32.5321 69.0923V69.0943ZM17.8467 69.5627C16.8164 70.1796 15.5254 70.3568 14.3895 70.0717C14.4867 70.1796 14.5923 70.2835 14.7081 70.3955C15.2543 70.933 15.8688 71.4054 16.5453 71.8065C16.9922 72.0713 17.4702 72.3034 17.9584 72.4887L18.0267 72.5172C18.0908 72.5416 18.1612 72.5701 18.2212 72.5884L18.2833 72.6088C18.9101 72.8002 19.6177 72.8002 20.2467 72.6088L20.3646 72.5681C20.406 72.5559 20.4453 72.5396 20.4867 72.5233L20.5632 72.4907C21.9887 71.9409 23.2715 71.0532 24.2811 69.919L24.3308 69.862C24.8315 69.2857 25.2556 68.6688 25.6053 68.0111C25.6508 67.9276 25.6942 67.8421 25.7356 67.7586C25.7935 67.6344 25.8494 67.5142 25.899 67.3982C25.9404 67.3065 25.9673 67.2373 25.9963 67.1701C26.0418 67.0581 26.077 66.9624 26.1101 66.8647L26.1308 66.8077C26.1432 66.7832 26.1515 66.7547 26.1639 66.7283C26.2094 66.6041 26.2404 66.4921 26.2735 66.3801C26.2942 66.317 26.3025 66.2885 26.3108 66.2559L26.3397 66.1439C26.3646 66.0726 26.3852 65.9912 26.4018 65.9118C26.4639 65.6878 26.5073 65.4719 26.5528 65.2154C26.5652 65.1523 26.5694 65.1115 26.5777 65.0708L26.6232 64.7267C26.6397 64.5984 26.6521 64.4498 26.6604 64.2971L26.6687 64.2299C26.6687 64.1891 26.6728 64.1504 26.6728 64.1097V64.0609C26.677 64.0242 26.677 63.9896 26.677 63.957V63.9122C26.6811 63.8837 26.6852 63.8674 26.6811 63.8491V63.7575C26.6852 63.7208 26.6852 63.6903 26.6852 63.6536C26.6852 63.505 26.6811 63.3563 26.6687 63.2138C26.6645 63.1018 26.6563 63.0061 26.648 62.9124C26.6439 62.8045 26.6356 62.7007 26.6232 62.5968L26.6149 62.5296C26.6025 62.4013 26.5859 62.2812 26.5611 62.1611C26.5321 61.9839 26.5032 61.8251 26.468 61.6642L26.3583 61.2081C26.3211 61.0717 26.2859 60.9353 26.2363 60.7989C26.1949 60.6787 26.1597 60.5627 26.1225 60.4547L26.0852 60.3631C26.0397 60.2471 25.9963 60.1351 25.9508 60.0231L25.9052 59.9274C25.9011 59.9151 25.897 59.907 25.8928 59.8948L25.8763 59.8581C25.8349 59.7665 25.7956 59.6728 25.7501 59.5812C24.4177 59.8826 22.9405 59.7726 21.6453 59.2656C21.6908 59.571 21.7218 59.8744 21.7549 60.1758C21.788 60.5036 21.8232 60.8376 21.8729 61.1694C22.117 62.7638 21.8191 64.3704 20.9812 65.9464C19.8743 68.0457 18.2046 69.357 17.8508 69.5688L17.8467 69.5627ZM43.1851 60.1697C43.2182 59.8683 43.2492 59.5649 43.2906 59.2595C41.9954 59.7685 40.5182 59.8765 39.1858 59.5751C39.1403 59.6667 39.101 59.7604 39.0596 59.852L39.043 59.8928C39.043 59.8928 39.0348 59.9131 39.0306 59.9213L39.0017 59.9823C38.9479 60.1066 38.9003 60.2308 38.8506 60.359L38.801 60.4873C38.7679 60.583 38.7368 60.6828 38.7037 60.7846C38.6624 60.9088 38.6272 61.0289 38.5899 61.1532L38.5734 61.2163C38.5362 61.3649 38.501 61.5095 38.4679 61.6561C38.4306 61.821 38.4037 61.9799 38.3748 62.1489C38.3541 62.2771 38.3334 62.3973 38.3251 62.5256L38.3127 62.5928C38.3003 62.6966 38.2962 62.8004 38.2879 62.9043C38.2796 63 38.2713 63.0957 38.2672 63.1894C38.2548 63.3584 38.2506 63.5009 38.2506 63.6495V63.7371C38.2506 63.8491 38.2548 63.957 38.2631 64.0649C38.2631 64.1443 38.2672 64.1891 38.2713 64.2299L38.2755 64.3093C38.2837 64.4335 38.2962 64.5699 38.3086 64.7023L38.321 64.7817C38.3375 64.9262 38.3582 65.0627 38.383 65.2032L38.4451 65.5351C38.4617 65.6267 38.4865 65.7265 38.5134 65.8283C38.5465 65.9728 38.5755 66.0808 38.6065 66.1927L38.623 66.2559C38.6313 66.2844 38.6396 66.3129 38.6479 66.3394L38.6686 66.4004C38.6893 66.488 38.7224 66.5817 38.7534 66.6692C38.7741 66.7323 38.7906 66.7771 38.8072 66.8179L38.832 66.879C38.8568 66.9624 38.8899 67.048 38.9251 67.1314C39.0099 67.3513 39.101 67.5529 39.1941 67.7443C39.2396 67.84 39.283 67.9256 39.3286 68.009C39.6782 68.6667 40.1023 69.2837 40.5865 69.8396L40.663 69.9271C41.6603 71.0491 42.9471 71.9389 44.3644 72.4846L44.4451 72.5213C44.4864 72.5375 44.5257 72.5538 44.5671 72.5661L44.6892 72.6068C45.3119 72.7982 46.0216 72.7982 46.6526 72.6068L46.7105 72.5864C46.7726 72.5661 46.8409 72.5375 46.905 72.5152L46.9733 72.4866C47.4616 72.3013 47.9374 72.0692 48.3905 71.8004C49.0629 71.4034 49.6774 70.931 50.2195 70.3975C50.3374 70.2855 50.4429 70.1776 50.5443 70.0697C49.4043 70.3547 48.1133 70.1776 47.083 69.5606C46.7292 69.3489 45.0595 68.0375 43.9526 65.9382C43.1189 64.3642 42.8168 62.7556 43.0609 61.1613C43.1106 60.8294 43.1458 60.4955 43.183 60.1676L43.1851 60.1697ZM6.46338 56.2072C6.48821 56.14 6.53166 56.0423 6.57717 55.9466C5.9627 54.7636 5.49512 53.5093 5.1765 52.2163C4.86202 50.9213 4.70064 49.5875 4.70064 48.2538C4.70064 45.7738 5.23443 43.3853 6.28545 41.1495C6.11787 40.8054 5.97925 40.4756 5.85304 40.1518C5.78891 39.995 5.73097 39.8362 5.67304 39.6672C5.62339 39.5593 5.5758 39.4106 5.52615 39.262C5.47649 39.1133 5.42477 38.9464 5.37512 38.7774C5.31305 38.5697 5.25719 38.3681 5.20339 38.1645C5.15374 37.9649 5.10202 37.7633 5.06064 37.5597C5.01512 37.348 4.97167 37.124 4.93029 36.8898C1.78343 39.8545 0 43.9391 0 48.2538C0 52.7823 1.93032 56.9973 5.32546 59.9864C5.34201 59.8948 5.35856 59.8052 5.37925 59.7176C5.38339 59.6688 5.39994 59.6057 5.4165 59.5364C5.43718 59.4204 5.46615 59.2717 5.50132 59.1231L5.5096 59.0783C5.52201 59.0213 5.53856 58.9663 5.55098 58.9093L5.57167 58.8339C5.60477 58.6894 5.64408 58.5366 5.6896 58.39C5.71856 58.274 5.75787 58.1416 5.79511 58.0174L5.81166 57.9645C5.8489 57.8362 5.89649 57.6835 5.95028 57.5308C6.01235 57.3495 6.08063 57.1622 6.14476 56.981C6.21718 56.7855 6.2958 56.5961 6.37649 56.4088C6.40959 56.3253 6.43442 56.2602 6.46131 56.2052L6.46338 56.2072ZM19.2743 45.3604C19.2743 44.0776 19.0219 42.8355 18.517 41.6627C18.5336 41.7014 18.0619 42.1615 18.0122 42.2185C17.8488 42.4079 17.6895 42.6013 17.5343 42.7968C17.2198 43.198 16.924 43.6133 16.6488 44.0409C16.1067 44.886 15.6474 45.7819 15.2771 46.7145C14.8716 47.7366 14.5364 48.8301 14.3833 49.9195C14.2902 50.571 14.2736 51.2511 14.2385 51.9068C14.2012 52.5747 14.1909 53.2446 14.2571 53.9104C14.4619 56.0118 15.1033 58.0683 16.1253 59.9253C16.6343 60.8498 17.2384 61.7253 17.9233 62.5337C18.2667 62.9389 18.6329 63.3278 19.0177 63.6984C19.1212 63.7982 20.2239 64.6982 20.2074 64.7348C20.8136 63.2952 20.6956 61.8129 20.5363 60.298C20.4722 59.6728 20.406 59.0762 20.2508 58.5224C19.4895 58.0011 18.8295 57.3251 18.337 56.5514L18.3122 56.5269L18.2708 56.4516C17.9605 55.9547 17.7164 55.4172 17.5509 54.8532L17.526 54.7697C17.4805 54.6088 17.4412 54.4459 17.404 54.2769C17.3791 54.1568 17.3543 54.0244 17.3357 53.8921C17.3274 53.829 17.315 53.7434 17.3067 53.6559C17.1578 52.4586 17.3626 51.4344 17.8757 50.3409C18.6495 48.6957 19.2722 47.2032 19.2722 45.3604H19.2743ZM18.395 22.1294C14.9585 25.2061 12.0557 27.9957 11.1557 32.6647L11.1392 32.793C11.1144 33.0943 11.0337 34.1063 11.0337 34.6011C11.0337 35.0409 11.0626 35.4909 11.1185 35.9389C11.5137 35.5256 12.0392 35.045 12.7033 34.4566C12.9268 34.257 13.1399 34.0676 13.2081 33.9964C14.2633 32.8826 15.1674 31.724 15.904 30.5613C17.5364 27.9692 18.3991 25.1715 18.3991 22.4715C18.3991 22.3595 18.3991 22.2434 18.395 22.1314V22.1294ZM60.0718 36.8898C59.9952 37.3337 59.9042 37.7633 59.7946 38.1685C59.7449 38.364 59.6932 38.5697 59.6311 38.7652C59.3952 39.5756 59.0849 40.3758 58.7187 41.1495C59.7697 43.3853 60.3035 45.7738 60.3035 48.2538C60.3035 50.9274 59.6559 53.5826 58.427 55.9466C58.4725 56.0423 58.5118 56.1339 58.5532 56.2357C58.7973 56.7937 59.0166 57.3862 59.1966 57.9828C59.2421 58.1111 59.2773 58.2556 59.3187 58.4043C59.3601 58.5407 59.3994 58.6934 59.4325 58.8441L59.4449 58.8767C59.4656 58.9642 59.4863 59.0498 59.507 59.1373C59.5401 59.2737 59.569 59.4224 59.5959 59.5751C59.6042 59.6077 59.6208 59.6708 59.629 59.74C59.6456 59.8195 59.6621 59.9009 59.6787 59.9884C63.0738 56.9993 65.0042 52.7844 65.0042 48.2559C65.0042 43.7274 63.2207 39.8566 60.0739 36.8918L60.0718 36.8898ZM50.7491 52.6378C50.7657 50.8704 50.4781 49.0459 49.9153 47.4027C49.5491 46.3337 49.065 45.3054 48.4754 44.3403C48.1795 43.8556 47.8588 43.3873 47.5112 42.9353C47.3374 42.7093 47.1574 42.4873 46.9712 42.2715C46.9154 42.2063 46.4002 41.7034 46.4188 41.6606C45.9181 42.8355 45.6616 44.0776 45.6616 45.3584C45.6616 47.0871 46.2202 48.5654 46.965 50.1047C47.5257 51.2633 47.7657 52.3914 47.6292 53.6661C47.6209 53.7414 47.6126 53.8269 47.5961 53.9063C47.5795 54.0224 47.5588 54.1547 47.5319 54.279C47.4947 54.4561 47.4512 54.6271 47.4016 54.8002L47.385 54.8491C47.3085 55.1179 47.2133 55.3785 47.0995 55.6228C47.054 55.7389 46.9899 55.8753 46.9154 56.0036C46.874 56.0912 46.8057 56.2113 46.7354 56.3274C46.7105 56.3681 46.6857 56.4109 46.663 56.4516C46.154 57.2722 45.4733 57.9828 44.6851 58.5265C44.5299 59.0762 44.4657 59.6728 44.3995 60.298C44.234 61.8516 44.1016 63.2443 44.7285 64.7348C44.714 64.6982 45.8188 63.7961 45.9223 63.6964C46.3071 63.3258 46.6733 62.9348 47.0188 62.5276C48.3947 60.9068 49.4333 59.0152 50.0581 56.9952C50.3726 55.9792 50.5815 54.9326 50.6829 53.8758C50.7222 53.4685 50.7429 53.0552 50.7471 52.6378H50.7491ZM41.7223 52.2692C41.2444 52.2692 40.8575 52.65 40.8575 53.1204C40.8575 53.5907 41.2444 53.9715 41.7223 53.9715C42.2003 53.9715 42.5871 53.5907 42.5871 53.1204C42.5871 52.65 42.2003 52.2692 41.7223 52.2692ZM23.3998 52.2692C22.9218 52.2692 22.5349 52.65 22.5349 53.1204C22.5349 53.5907 22.9218 53.9715 23.3998 53.9715C23.8777 53.9715 24.2646 53.5907 24.2646 53.1204C24.2646 52.65 23.8777 52.2692 23.3998 52.2692ZM52.5119 34.5686C53.1719 35.157 53.6974 35.6416 54.0925 36.0509C54.1505 35.6111 54.1774 35.157 54.1774 34.7131C54.1774 34.2204 54.0967 33.2063 54.0719 32.905L54.0553 32.7767C53.1594 28.1077 50.2526 25.3201 46.8161 22.2414C46.8119 22.3534 46.8119 22.4695 46.8119 22.5814C46.8119 25.2814 47.6747 28.0792 49.3112 30.6713C50.0436 31.8339 50.9519 32.9905 52.007 34.1104C52.0712 34.1776 52.2843 34.367 52.5119 34.5665V34.5686ZM59.4842 33.5993C59.4842 34.1715 59.4552 34.7335 59.3952 35.2894C59.3745 35.4767 59.3539 35.6661 59.327 35.8534C59.0063 38.0993 58.0111 40.0948 57.1339 42.1656C56.3104 44.1142 55.9484 46.3052 55.7436 48.3964C55.578 50.064 55.7187 51.7622 56.1553 53.381C56.5918 55.0018 57.3884 56.5025 57.9159 58.0948C58.6173 60.2063 58.729 62.1937 58.6215 64.3826L58.6173 64.4396C58.5201 66.5226 58.0028 68.5344 57.0904 70.4219C56.0973 72.4704 54.6925 74.252 52.9132 75.7201C52.5926 75.9848 52.2657 76.2332 51.9491 76.4532C51.016 77.119 49.9981 77.683 48.9367 78.133C48.7981 78.19 48.6595 78.245 48.5167 78.302C48.3823 78.3509 48.2436 78.4018 48.1092 78.4507C48.0202 78.4751 47.9292 78.4955 47.8402 78.5138C46.4354 78.8416 44.9085 78.8457 43.4747 78.5219C43.1168 78.3977 42.7671 78.2654 42.4154 78.1167C42.3906 78.1086 42.3616 78.0964 42.3016 78.0679C42.2375 78.0394 42.1754 78.0108 42.0947 77.9722C40.9754 77.4753 39.9037 76.838 38.9189 76.0846C36.3658 74.1299 34.4934 71.5011 33.5003 68.4753C33.4672 68.3796 33.4362 68.2839 33.4072 68.178C33.2603 67.6853 33.159 67.276 33.0783 66.8912L32.4804 63.9977L31.8824 66.8912C31.8017 67.276 31.6983 67.6853 31.5535 68.1821C31.5204 68.286 31.4893 68.3817 31.4521 68.4916C30.4673 71.5011 28.5928 74.1299 26.0418 76.0846C25.057 76.838 23.9853 77.4753 22.866 77.9722L22.8205 77.9966C22.808 78.0047 22.7915 78.0088 22.7749 78.017L22.7377 78.0332C22.6736 78.0618 22.6073 78.0943 22.5267 78.1249C22.1936 78.2654 21.8418 78.3977 21.4839 78.5219C20.0957 78.8335 18.6288 78.8416 17.2571 78.5464C17.1226 78.5179 16.984 78.4853 16.8495 78.4507C16.7647 78.4181 16.6819 78.3896 16.5971 78.359C16.4026 78.2878 16.2102 78.2145 16.026 78.1351C14.9585 77.6871 13.9405 77.121 13.0054 76.4552C12.6909 76.2353 12.3661 75.9869 12.0454 75.7222C10.2661 74.2561 8.86129 72.4724 7.86819 70.4199C6.43028 67.4552 5.9089 63.8247 6.43442 60.579C6.7489 58.6588 7.48958 56.8446 8.00681 54.9733C8.53232 53.0735 8.69991 51.074 8.69991 49.1152C8.69991 47.3152 8.5406 45.4683 8.15371 43.6846C8.12061 43.5278 8.08543 43.3792 8.04819 43.2204C7.9344 42.7439 7.80406 42.2756 7.65302 41.8133C6.7489 39.04 5.63373 36.5722 5.63373 33.5993C5.63373 32.7869 5.6958 31.9846 5.81373 31.2027C6.13028 29.0504 6.88131 27.0346 7.97164 25.2448C9.27508 23.1007 10.9923 21.3943 13.115 20.0443C13.835 19.5882 14.5695 19.1464 15.2771 18.6821C16.144 18.1181 16.9757 17.5154 17.7081 16.8109C18.3846 16.1695 18.9784 15.4364 19.4377 14.5629C19.446 14.5547 19.4501 14.5466 19.4543 14.5385C19.9301 13.7179 20.3294 12.8484 20.6563 11.9423C20.6894 11.8588 20.7184 11.7692 20.7453 11.6817C21.2998 10.2075 22.1874 8.89208 23.3273 7.83937C23.348 7.83937 23.6729 7.52375 23.8322 7.3914C24.5646 6.77851 25.4273 6.2328 26.3314 5.9009C27.8252 5.34299 29.2383 4.98258 30.37 3.79751C31.359 2.76719 31.9652 1.41719 32.0728 0.0020362C32.35 0.698416 32.501 1.45588 32.501 2.25C32.501 3.30475 32.2362 4.29434 31.7686 5.1638C31.7645 5.18009 31.7521 5.20045 31.7438 5.21674C31.1335 6.4181 30.0783 7.26516 28.8845 7.85362C27.5935 8.49502 26.5032 9.17104 25.4521 10.1423C24.3928 11.1238 23.6108 12.5023 23.1349 13.84C23.0977 13.9643 23.0584 14.0844 23.0129 14.2004C22.1418 16.7253 20.5943 18.9407 18.6205 20.7489C18.5626 20.8059 18.5026 20.8609 18.4405 20.9138C14.6419 24.3081 11.2385 27.2647 10.2413 32.4937C10.2413 32.5018 10.233 32.5609 10.2247 32.6586C10.1916 33.0434 10.1151 34.0086 10.1151 34.5136C10.1151 35.2059 10.1792 35.8758 10.2992 36.5253C10.3033 36.5457 10.3075 36.5701 10.3116 36.5885C10.3158 36.617 10.324 36.6495 10.3282 36.676C10.3323 36.7045 10.3406 36.733 10.3447 36.7554C10.3489 36.7717 10.353 36.788 10.3571 36.8043C10.3654 36.8613 10.3778 36.9163 10.3902 36.9692C10.4027 37.0323 10.4151 37.0934 10.4316 37.1566C10.4523 37.2441 10.473 37.3378 10.4999 37.4253C10.8247 38.4312 11.224 39.4127 11.6233 40.39C11.673 40.5183 11.7247 40.6466 11.7744 40.7749C12.4902 42.5301 13.1626 44.2934 13.3654 46.2136C13.8578 50.8866 11.6792 55.2543 11.2571 59.8419C10.9199 63.5131 11.0254 67.8767 13.5454 70.8577C14.2136 71.6477 15.0267 72.3075 15.9226 72.8409C16.4316 73.1423 16.9736 73.4029 17.5074 73.6066L17.6005 73.6432C17.6812 73.6758 17.7681 73.7063 17.8157 73.7185C17.8446 73.7308 17.8798 73.743 17.9253 73.7593C18.7922 74.024 19.7295 74.0321 20.646 73.7511C20.6791 73.743 20.7081 73.7308 20.7391 73.7185C20.8239 73.6941 20.9025 73.6615 20.9625 73.6351L21.0246 73.6147C22.6198 72.9977 24.0701 71.9959 25.2184 70.705L25.2825 70.6337C26.8528 68.8948 27.7218 66.6142 27.8563 64.3011C27.9245 63.1323 27.8045 61.9514 27.4983 60.8192C27.3452 60.2532 27.1445 59.7013 26.8983 59.1679C26.6397 58.6099 26.557 58.1009 25.8928 58.3025C25.3632 58.4633 24.8025 58.5468 24.2232 58.5468C23.1204 58.5468 22.0405 58.2353 21.1115 57.6448C19.1357 56.3885 17.9543 53.7638 18.6991 51.5016C19.0219 50.5201 19.6715 49.6812 19.9757 48.6916C20.3088 47.6124 20.4991 46.4905 20.4991 45.3624C20.4991 44.552 20.4101 43.7559 20.2301 42.9781C20.197 42.8294 20.1577 42.6808 20.1163 42.5382C19.9529 41.9457 19.7377 41.3674 19.4688 40.8034C19.3922 40.6466 19.3177 40.498 19.2412 40.3554C19.1998 40.2842 19.1605 40.2149 19.1191 40.1437C18.9391 39.8199 18.7446 39.5145 18.5377 39.2294C18.3019 38.7326 18.1095 38.2195 17.9646 37.6941C17.9274 37.5658 17.8964 37.4335 17.8674 37.3011C17.7081 36.619 17.6315 35.9185 17.6315 35.2059C17.6315 34.5563 17.6957 33.919 17.824 33.298C17.8364 33.2369 17.8529 33.1819 17.8653 33.1249L17.8777 33.0679C17.9108 32.9314 17.9419 32.8032 17.9833 32.6708C18.0246 32.5181 18.0681 32.3695 18.1219 32.2188L18.1426 32.1557C18.4881 31.1538 18.997 30.2233 19.6488 29.4027C20.1453 28.8183 20.7039 28.2645 21.3101 27.7473C24.217 25.2468 27.9473 23.8683 31.8183 23.8683C32.0293 23.8683 32.2424 23.8724 32.4535 23.8846H32.5176C32.7286 23.8724 32.9417 23.8683 33.1528 23.8683C37.0258 23.8683 40.7541 25.2468 43.6651 27.7473C44.263 28.2645 44.8257 28.8163 45.3099 29.3823C45.9781 30.2274 46.4912 31.1661 46.8326 32.1679C46.8368 32.1801 46.8409 32.1964 46.845 32.2086L46.8533 32.2249C46.903 32.3735 46.9464 32.5222 46.9919 32.6769C47.0292 32.8052 47.0602 32.9335 47.0892 33.0658L47.1016 33.1147C47.1181 33.1758 47.1347 33.2348 47.1471 33.3061C47.2733 33.919 47.3395 34.5563 47.3395 35.2059C47.3395 35.8554 47.2712 36.5314 47.1285 37.1769C47.1036 37.3093 47.0705 37.4416 47.0354 37.5699C46.8926 38.138 46.6899 38.6919 46.4333 39.2294C46.2264 39.5145 46.0299 39.8219 45.8602 40.1314C45.8147 40.2068 45.7712 40.2801 45.734 40.3473C45.6533 40.5 45.5788 40.6486 45.5023 40.8034C45.2168 41.3959 44.9933 42.0088 44.8299 42.6339C44.7885 42.7785 44.7533 42.9271 44.7202 43.0737C44.5526 43.819 44.472 44.5846 44.472 45.3624C44.472 46.4722 44.6561 47.5575 44.9892 48.6163C45.2954 49.5896 45.8871 50.4041 46.2368 51.3529C46.4209 51.8538 46.4933 52.3894 46.4892 52.9208C46.4726 54.8084 45.4775 56.6185 43.8657 57.6448C42.9327 58.2332 41.8547 58.5468 40.752 58.5468C40.1748 58.5468 39.612 58.4633 39.0824 58.3025C38.5672 58.1457 38.5196 58.3167 38.2817 58.7688C38.052 59.2066 37.8555 59.6606 37.692 60.1269C37.3651 61.0595 37.1727 62.0369 37.1127 63.0224C36.9472 65.7835 37.8658 68.5283 39.6927 70.6337L39.7651 70.7172C40.9051 71.9959 42.3554 72.9977 43.9464 73.6106L43.992 73.631C44.0726 73.6636 44.1513 73.6941 44.2361 73.7185C44.2692 73.7308 44.3044 73.743 44.354 73.7593C47.0105 74.6308 49.7829 72.7412 51.4795 70.8882C53.4988 68.683 54.5125 65.7061 54.3698 62.7475C54.3677 62.6864 54.3636 62.6233 54.3594 62.5622C54.1525 59.3613 52.7705 56.474 52.2119 53.3464C52.1353 52.9127 52.0691 52.481 52.0132 52.0432C51.616 48.993 51.587 46.1057 52.545 43.1552C53.4677 40.3106 55.0174 37.5679 55.0174 34.5115C55.0174 34.0066 54.9408 33.0414 54.9077 32.6566C54.8994 32.5609 54.8912 32.4998 54.8912 32.4916C53.8939 27.2627 50.4905 24.3041 46.6919 20.9118C46.6299 20.8588 46.5699 20.8038 46.5119 20.7468C44.5382 18.9387 42.9906 16.7233 42.1196 14.1984C42.074 14.0824 42.0347 13.9622 41.9975 13.838C41.5216 12.5002 40.7396 11.1217 39.6803 10.1403C38.6293 9.17104 37.5389 8.49299 36.2479 7.85158C35.0541 7.26312 34.001 6.41606 33.3886 5.21471C33.3803 5.19842 33.3679 5.17805 33.3638 5.16176C32.8962 4.29231 32.6314 3.30271 32.6314 2.24796C32.6314 1.45385 32.7824 0.69638 33.0597 0C33.1652 1.41516 33.7714 2.76516 34.7624 3.79547C35.8941 4.98258 37.3072 5.34299 38.801 5.89887C39.7051 6.23077 40.5679 6.77647 41.3003 7.38937C41.4596 7.52172 41.7844 7.83733 41.8051 7.83733C42.9451 8.89208 43.8326 10.2054 44.3871 11.6796C44.4161 11.7672 44.4451 11.8568 44.4761 11.9403C44.8009 12.8464 45.2002 13.7158 45.6781 14.5364C45.6823 14.5446 45.6864 14.5527 45.6947 14.5609C46.154 15.4344 46.7499 16.1674 47.4243 16.8088C48.1567 17.5133 48.9885 18.1161 49.8553 18.6801C50.5629 19.1443 51.2974 19.5862 52.0174 20.0423C54.1381 21.3923 55.8573 23.1007 57.1608 25.2428C58.2511 27.0346 59.0021 29.0504 59.3187 31.2007C59.4366 31.9826 59.4987 32.7828 59.4987 33.5973L59.4842 33.5993ZM38.4555 55.9222C38.9644 56.1584 39.5313 56.2907 40.1292 56.2907C42.2954 56.2907 44.0499 54.564 44.0499 52.4321C44.0499 51.245 43.5037 50.1801 42.6451 49.4715C40.7727 51.2471 39.3182 53.4502 38.4555 55.9222ZM26.677 55.8428C25.7977 53.3667 24.3266 51.1615 22.4294 49.3961C21.5129 50.1007 20.9232 51.2043 20.9232 52.4342C20.9232 54.5661 22.6818 56.2928 24.8439 56.2928C25.508 56.2928 26.1308 56.1319 26.677 55.8448V55.8428Z" fill="#1A1A18"/>
</g>
<defs>
<clipPath id="clip0_434_3006">
<rect width="65" height="81" fill="white"/>
</clipPath>
</defs>
</svg>
