<svg width="21" height="28" viewBox="0 0 21 28" fill="none" xmlns="http://www.w3.org/2000/svg">
<g clip-path="url(#clip0_447_10034)">
<path d="M8.72006 20.9809L9.06486 20.8123C13.0802 18.8431 15.5069 14.6525 15.208 10.2007L15.1818 9.8177C15.1261 8.9887 14.7966 8.21409 14.263 7.60485C14.1561 7.48301 14.1376 7.30894 14.2183 7.1686L17.3891 1.69088C17.5004 1.49832 17.7568 1.44392 17.9369 1.57556C21.8071 4.4107 22.1454 12.1045 18.1671 18.977C14.1888 25.8494 7.3365 29.4048 2.93922 27.4813C2.73409 27.3921 2.65335 27.144 2.76573 26.9504L5.93657 21.4727C6.01732 21.3334 6.17881 21.2616 6.33702 21.2932C7.13355 21.4498 7.97045 21.3465 8.71897 20.9798L8.72006 20.9809Z" fill="black"/>
<path d="M12.0218 6.08144C11.5995 5.83884 11.4544 5.30031 11.6988 4.87819L14.2685 0.439449C14.5118 0.0184212 15.0519 -0.126273 15.4752 0.117423L16.5544 0.738629C16.7344 0.841983 16.7955 1.07154 16.6919 1.25104L13.6138 6.56775C13.5101 6.74725 13.2799 6.80818 13.0998 6.70483L12.0229 6.08253L12.0218 6.08144Z" fill="black"/>
<path d="M0.441724 26.0829C0.0194549 25.8403 -0.125666 25.3018 0.118748 24.8797L2.68837 20.4409C2.9317 20.0199 3.47181 19.8752 3.89517 20.1189L4.9743 20.7379C5.15434 20.8413 5.21653 21.0708 5.11288 21.2503L2.03478 26.567C1.93112 26.7465 1.7009 26.8075 1.52086 26.7041L0.441724 26.0829Z" fill="black"/>
</g>
<defs>
<clipPath id="clip0_447_10034">
<rect width="21" height="28" fill="white"/>
</clipPath>
</defs>
</svg>
