<svg width="40" height="40" viewBox="0 0 40 40" fill="none" xmlns="http://www.w3.org/2000/svg">
<path d="M20 0C11.7266 0 5 6.72656 5 15C5 26.0625 18.8359 39.2188 19.4297 39.7734C19.5938 39.9219 19.7969 40 20 40C20.2031 40 20.4141 39.9219 20.5703 39.7734C21.1641 39.2188 35 26.0625 35 15C35 6.72656 28.2734 0 20 0ZM20 23.3359C15.4062 23.3359 11.6641 19.5938 11.6641 15C11.6641 10.4062 15.4062 6.66406 20 6.66406C24.5938 6.66406 28.3359 10.4062 28.3359 15C28.3359 19.5938 24.5938 23.3359 20 23.3359Z" fill="red"/>
</svg>
