<svg width="812" height="88" viewBox="0 0 812 88" fill="none" xmlns="http://www.w3.org/2000/svg">
<path d="M174.88 45.5483C174.88 52.7514 173.06 59.3803 169.445 65.435C165.83 71.5681 160.882 76.3179 154.703 79.9194C148.524 83.4427 141.806 85.1651 134.525 85.1651C127.244 85.1651 120.475 83.4427 114.245 79.9194C108.066 76.344 103.169 71.5681 99.5543 65.435C95.9392 59.3542 94.1189 52.7514 94.1189 45.5483C94.1189 38.3453 95.9392 31.7164 99.5543 25.6616C103.169 19.633 108.066 14.8309 114.245 11.3077C120.475 7.78447 127.193 5.98371 134.525 5.98371C137.14 5.98371 139.627 6.19249 142.089 6.68835L135.551 22.1906C135.243 22.1384 134.858 22.1384 134.551 22.1384C130.295 22.1384 126.398 23.104 122.834 25.1136C119.322 27.1753 116.553 29.9417 114.527 33.5171C112.45 37.0926 111.451 41.1638 111.451 45.6005C111.451 50.0372 112.45 54.0563 114.527 57.6317C116.604 61.2071 119.373 64.0257 122.885 66.0353C126.449 68.0448 130.346 69.0626 134.551 69.0626C138.756 69.0626 142.704 68.0448 146.216 66.0353C149.729 64.0257 152.498 61.2071 154.574 57.6317C156.6 54.0563 157.651 50.0372 157.651 45.6005C157.651 41.1638 156.574 37.0926 154.574 33.5171C153.395 31.5076 152.011 29.7851 150.421 28.2714L157.036 12.6648C162.138 16.0836 166.343 20.4159 169.496 25.6616C173.111 31.7425 174.931 38.3453 174.931 45.5483H174.88ZM261.846 83.4688L231.387 7.81057H215.158L184.7 83.4688H202.98L207.774 71.1766H238.746L243.54 83.4688H261.82H261.846ZM222.696 32.943L223.183 30.5941H223.337L223.824 32.943L233.054 56.5617H213.44L222.67 32.943H222.696ZM306.508 85.3478C312.687 85.3478 318.122 84.4605 322.789 82.6597C327.455 80.859 331.07 78.197 333.659 74.6737C336.249 71.1505 337.531 66.9226 337.531 61.9901C337.531 55.1002 335.198 49.7762 330.506 46.0181C325.84 42.26 319.353 39.5197 311.097 37.8233C307.098 37.0404 303.893 36.2313 301.483 35.3962C299.073 34.561 297.304 33.5693 296.176 32.4471C295.048 31.3249 294.484 29.9678 294.484 28.3497C294.484 23.6521 298.201 21.3032 305.611 21.3032C309.79 21.3032 312.841 22.1123 314.764 23.7304C316.687 25.3484 317.635 27.358 317.635 29.759H334.941C334.941 24.9048 333.864 20.703 331.685 17.1015C329.531 13.526 326.25 10.7857 321.917 8.85449C317.558 6.92324 312.2 5.95761 305.842 5.95761C299.483 5.95761 294.304 6.87104 289.997 8.724C285.69 10.577 282.485 13.1868 280.357 16.5273C278.229 19.894 277.152 23.7826 277.152 28.2192C277.152 33.1779 278.511 37.2491 281.229 40.4592C283.946 43.6693 287.279 46.0964 291.228 47.7927C295.176 49.4891 299.791 51.0028 305.072 52.2816C308.559 53.0907 311.379 53.8997 313.482 54.7087C315.584 55.4917 317.199 56.4834 318.327 57.6317C319.43 58.78 319.994 60.2154 319.994 61.9118C319.994 64.8348 318.917 67.0009 316.764 68.4102C314.61 69.8195 311.174 70.5241 306.431 70.5241C302.073 70.5241 298.663 69.5585 296.253 67.6534C293.817 65.7482 292.612 63.1906 292.612 60.0066H275.306C275.306 64.3911 276.383 68.4885 278.511 72.3249C280.639 76.1613 284.049 79.2931 288.715 81.6941C293.381 84.0951 299.304 85.3217 306.483 85.3217L306.508 85.3478ZM0 7.88886V83.4688H17.8957V58.1798H41.7907L58.507 83.4688H78.6845L58.3019 55.4134C63.8655 53.5082 68.3009 50.6374 71.557 46.7749C74.8131 42.9124 76.4283 38.4236 76.4283 33.3605C76.4283 28.2975 74.9669 23.9913 72.0442 20.1288C69.1214 16.2663 65.0192 13.2651 59.789 11.125C54.5587 8.98498 48.5849 7.88886 41.9446 7.88886H0ZM44.0982 43.4605H17.8957V23.5738H44.0982C46.739 23.5738 49.149 24.0174 51.3795 24.9048C53.6101 25.7921 55.3535 26.9926 56.6354 28.4802C57.9173 29.9939 58.5583 31.612 58.5583 33.3344C58.5583 35.2657 57.9174 36.9882 56.6611 38.528C55.4048 40.0677 53.6614 41.2682 51.4308 42.1295C49.2003 42.9907 46.7646 43.4344 44.0726 43.4344L44.0982 43.4605ZM391.295 52.0728V35.8138H374.937V3.50439L356.99 3.60879V58.9105C356.99 68.3841 358.964 74.8042 363.015 78.0404C367.066 81.2504 372.014 82.8685 377.937 82.8685H391.295V67.8099H381.757C379.68 67.8099 378.04 67.1575 376.809 65.9048C375.578 64.5999 374.937 62.5381 374.937 59.7195V52.0728H391.295Z" fill="#1A1A18"/>
<path d="M457.493 87.8273C449.878 87.8273 442.725 85.9221 436.29 82.164C429.854 78.4059 424.675 73.2385 420.907 66.8184C417.138 60.3722 415.215 53.2213 415.215 45.6007C415.215 37.9801 417.138 30.777 420.907 24.3308C424.65 17.9107 429.829 12.7694 436.29 9.03734C442.751 5.30532 449.878 3.42626 457.493 3.42626C463.313 3.42626 469.081 4.65287 474.594 7.05389C480.208 9.481 485.08 13.2913 489.079 18.3804C493.105 23.4956 495.694 29.8114 496.771 37.2232L497.207 40.2245H474.568L474.106 38.2149C473.004 33.5173 471.03 30.1767 468.081 28.0367C465.03 25.8445 461.415 24.7745 457.006 24.7745C453.416 24.7745 450.134 25.6357 447.212 27.306C444.263 28.9762 442.007 31.3512 440.264 34.509C438.546 37.6669 437.674 41.425 437.674 45.679C437.674 49.933 438.546 53.8738 440.264 57.0055C441.981 60.1373 444.238 62.46 447.186 64.0781C450.109 65.6962 453.416 66.5313 457.006 66.5313C461.39 66.5313 464.979 65.4613 468.03 63.269C471.004 61.129 472.978 57.8146 474.055 53.143L474.517 51.1335H497.207L496.771 54.1347C495.694 61.5205 493.105 67.8623 489.105 72.9514C485.131 78.0144 480.26 81.8248 474.645 84.2519C469.107 86.6529 463.313 87.8795 457.467 87.8795L457.493 87.8273ZM438.828 77.6491C444.494 80.9374 450.775 82.6077 457.493 82.6077C462.646 82.6077 467.748 81.5377 472.645 79.3976C477.465 77.3098 481.67 74.0214 485.105 69.637C487.977 65.9571 490.028 61.4944 491.156 56.327H478.491C477.004 61.2073 474.465 64.9654 470.979 67.4969C467.107 70.3155 462.39 71.7248 456.98 71.7248C452.519 71.7248 448.391 70.6809 444.699 68.6191C440.956 66.5313 437.956 63.4778 435.777 59.5109C433.623 55.5962 432.521 50.9247 432.521 45.6529C432.521 40.3811 433.623 35.8661 435.777 31.9253C437.956 27.9584 440.956 24.8527 444.673 22.7127C448.365 20.5988 452.519 19.5026 456.98 19.5026C462.415 19.5026 467.133 20.938 471.03 23.7305C474.517 26.262 477.055 30.0202 478.542 34.9527H491.13C490.002 29.7592 487.951 25.2964 485.054 21.6166C481.593 17.206 477.388 13.9177 472.568 11.8298C467.671 9.68979 462.595 8.61977 457.467 8.61977C450.75 8.61977 444.468 10.29 438.802 13.5523C433.136 16.8406 428.598 21.3556 425.291 26.9928C421.983 32.6039 420.317 38.8674 420.317 45.5746C420.317 52.2818 421.983 58.4931 425.291 64.1303C428.598 69.7935 433.136 74.3346 438.802 77.623L438.828 77.6491ZM551.535 87.8012C548.714 87.8012 545.817 87.5402 542.971 86.9922L539.767 86.3919L548.817 65.9049L550.894 66.453C550.894 66.453 551.304 66.4791 551.535 66.4791C555.303 66.4791 558.79 65.5657 561.944 63.7649C565.046 61.9902 567.456 59.5631 569.353 56.3009C571.199 53.143 572.097 49.6198 572.097 45.6007C572.097 41.5816 571.174 37.954 569.353 34.8483C567.507 31.6643 565.072 29.2372 561.918 27.3843C558.816 25.6096 555.406 24.7484 551.535 24.7484C547.663 24.7484 544.253 25.6096 541.125 27.3843C537.946 29.2372 535.511 31.6643 533.742 34.8222C531.921 38.0322 530.998 41.6599 530.998 45.6007C530.998 49.5415 531.921 53.1169 533.742 56.327C534.767 58.0755 535.946 59.5631 537.228 60.7375L538.613 62.0163L529.742 82.0335L527.229 80.3633C521.922 76.8139 517.589 72.2468 514.359 66.7923C510.513 60.3461 508.565 53.1952 508.565 45.5485C508.565 37.9018 510.513 30.7509 514.359 24.3047C518.205 17.8846 523.486 12.7694 530.05 9.01124C536.613 5.25312 543.843 3.37406 551.535 3.37406C559.226 3.37406 566.405 5.27922 573.02 9.01124C579.532 12.7172 584.788 17.8585 588.659 24.3047C592.505 30.777 594.453 37.9279 594.453 45.5746C594.453 53.2213 592.505 60.3722 588.659 66.8184C584.865 73.2124 579.609 78.4059 573.045 82.2162C566.482 85.9482 559.252 87.8273 551.535 87.8273V87.8012ZM547.176 82.3467C548.637 82.5033 550.099 82.5816 551.535 82.5816C558.457 82.5816 564.662 80.9635 570.533 77.6491C576.404 74.2563 580.916 69.8197 584.275 64.1042C587.685 58.3887 589.326 52.334 589.326 45.5485C589.326 38.763 587.659 32.7083 584.275 27.0189C580.865 21.3556 576.225 16.8406 570.507 13.5784C564.585 10.2378 558.38 8.59367 551.535 8.59367C544.689 8.59367 538.356 10.2639 532.562 13.5784C526.794 16.8667 522.127 21.4078 518.743 27.0189C515.333 32.7083 513.692 38.7891 513.692 45.5485C513.692 52.3079 515.359 58.3887 518.743 64.0781C521.076 67.9928 524.05 71.3855 527.588 74.2041L532.434 63.2429C531.306 61.9902 530.255 60.581 529.306 58.9629C526.999 54.8916 525.845 50.4027 525.845 45.5746C525.845 40.7464 526.999 36.2054 529.28 32.1863C531.511 28.2455 534.639 25.1137 538.587 22.8171C542.459 20.6249 546.792 19.5026 551.509 19.5026C556.226 19.5026 560.559 20.6249 564.431 22.8171C568.405 25.1398 571.43 28.1933 573.738 32.1602C576.019 36.101 577.173 40.616 577.173 45.5746C577.173 50.5332 576.019 54.996 573.738 58.9368C571.404 62.9298 568.277 66.0876 564.431 68.2799C560.611 70.4721 556.38 71.5943 551.842 71.6465L547.15 82.2945L547.176 82.3467ZM682.701 86.1048H658.857L654.063 73.8127H626.578L621.784 86.1048H597.94L630.501 5.22702H650.166L682.727 86.1048H682.701ZM662.318 80.8852H675.061L646.705 10.4466H633.937L605.581 80.8852H618.323L623.117 68.593H657.55L662.344 80.8852H662.318ZM653.883 59.1978H626.732L637.27 32.2124L638.141 28.0106H642.295L642.885 30.0723L643.32 32.1863L653.858 59.1717L653.883 59.1978ZM634.27 53.9781H646.32L640.295 38.5542L634.27 53.9781ZM723.518 87.9839C715.98 87.9839 709.622 86.679 704.596 84.0953C699.494 81.4594 695.674 77.9622 693.315 73.6822C690.982 69.4804 689.777 64.8871 689.777 60.0851V57.4753H712.211V60.0851C712.211 62.4861 713.057 64.2347 714.852 65.6701C716.8 67.2098 719.697 67.9928 723.466 67.9928C728.697 67.9928 731.209 67.0794 732.388 66.2964C733.799 65.3569 734.44 64.0259 734.44 61.9902C734.44 60.9724 734.132 60.1895 733.517 59.537C732.671 58.6758 731.363 57.8929 729.619 57.2404C727.62 56.4836 724.902 55.7006 721.518 54.9177C716.082 53.5867 711.288 52.0208 707.237 50.2722C702.956 48.4193 699.264 45.7051 696.315 42.234C693.213 38.5803 691.623 33.8827 691.623 28.2977C691.623 23.3652 692.828 18.9546 695.213 15.1704C697.623 11.3862 701.263 8.43708 706.006 6.37534C710.596 4.39189 716.262 3.40016 722.851 3.40016C729.44 3.40016 735.311 4.44408 739.952 6.50583C744.772 8.64587 748.438 11.7515 750.874 15.7706C753.284 19.7636 754.514 24.4613 754.514 29.7853V32.3951H732.081V29.7853C732.081 28.1672 731.465 26.8884 730.132 25.7662C728.722 24.5657 726.133 23.9393 722.62 23.9393C714.057 23.9393 714.057 27.1755 714.057 28.376C714.057 29.2633 714.339 29.968 714.98 30.5943C715.57 31.1685 716.775 32.0558 719.313 32.9431C721.595 33.7261 724.697 34.509 728.568 35.2659C737.209 37.0405 744.105 39.9896 749.079 43.9826C754.386 48.2627 757.078 54.3174 757.078 62.0163C757.078 67.4969 755.591 72.299 752.694 76.2398C749.823 80.1545 745.797 83.1296 740.695 85.087C735.747 86.9922 729.978 87.9578 723.518 87.9578V87.9839ZM695.059 62.6949C695.392 65.644 696.315 68.4626 697.777 71.0984C699.648 74.4651 702.725 77.2576 706.904 79.4237C711.211 81.6421 716.8 82.7643 723.518 82.7643C729.363 82.7643 734.542 81.903 738.875 80.2328C743.054 78.6147 746.31 76.2398 748.592 73.1341C750.848 70.0545 751.951 66.4269 751.951 62.0163C751.951 55.9094 749.976 51.3683 745.9 48.08C741.567 44.609 735.388 41.9991 727.568 40.4072C723.441 39.5981 720.185 38.7891 717.646 37.9018C714.826 36.91 712.775 35.7617 711.365 34.3263C709.775 32.7344 708.904 30.6726 708.904 28.376C708.904 24.7745 710.673 18.7197 722.595 18.7197C727.44 18.7197 730.978 19.7114 733.388 21.7471C735.157 23.2347 736.337 25.0876 736.875 27.1755H749.259C748.951 23.9132 748.028 21.0163 746.515 18.5109C744.644 15.4053 741.747 12.9781 737.901 11.2818C733.901 9.5071 728.825 8.61977 722.851 8.61977C716.877 8.61977 711.98 9.481 708.006 11.2035C704.212 12.8476 701.366 15.1443 699.52 18.0412C697.648 20.9902 696.751 24.3569 696.751 28.3238C696.751 32.6822 697.879 36.1271 700.187 38.8413C702.622 41.7121 705.673 43.9565 709.237 45.4963C713.031 47.1405 717.544 48.602 722.672 49.8547C726.287 50.6898 729.132 51.5249 731.363 52.3601C733.824 53.2735 735.747 54.474 737.132 55.8833C738.696 57.5275 739.542 59.6153 739.542 61.9902C739.542 65.8006 738.029 68.8018 735.157 70.6809C732.568 72.3773 728.722 73.2124 723.441 73.2124C718.518 73.2124 714.544 72.0641 711.698 69.7936C709.314 67.9145 707.852 65.5396 707.314 62.6949H695.033H695.059ZM810.688 85.4524H794.767C788.332 85.4524 782.794 83.6516 778.281 80.0762C773.615 76.292 771.282 69.1672 771.282 58.8846V0.999142L794.357 0.868652V33.178H811.073V54.6567H794.357V59.6936C794.357 61.7554 794.767 63.269 795.51 64.0781C796.228 64.7827 797.279 65.1742 798.613 65.1742H810.714V85.4524H810.688ZM776.384 6.19265V58.8846C776.384 67.4969 778.076 73.2385 781.435 75.9788C785.05 78.8235 789.408 80.2328 794.741 80.2328H805.535V70.3938H798.561C795.895 70.3938 793.613 69.5065 791.844 67.784C790.049 65.8789 789.178 63.1908 789.178 59.7197V49.4632H805.894V38.4237H789.178V6.11436L776.358 6.19265H776.384Z" fill="#1A1A18"/>
</svg>
