<svg width="714" height="77" viewBox="0 0 714 77" fill="none" xmlns="http://www.w3.org/2000/svg">
<path d="M153.95 39.3322C153.95 45.6732 152.347 51.5087 149.165 56.8388C145.982 62.2378 141.626 66.4192 136.187 69.5896C130.748 72.6912 124.834 74.2075 118.425 74.2075C112.015 74.2075 106.056 72.6912 100.572 69.5896C95.1324 66.4421 90.8215 62.2378 87.6392 56.8388C84.4568 51.4857 82.8543 45.6732 82.8543 39.3322C82.8543 32.9913 84.4568 27.1557 87.6392 21.8257C90.8215 16.5186 95.1324 12.2912 100.572 9.18969C106.056 6.08813 111.97 4.50289 118.425 4.50289C120.727 4.50289 122.916 4.68669 125.083 5.1232L119.327 18.7701C119.057 18.7241 118.718 18.7241 118.447 18.7241C114.701 18.7241 111.27 19.5742 108.133 21.3432C105.041 23.1582 102.603 25.5935 100.82 28.741C98.9918 31.8885 98.1116 35.4725 98.1116 39.3782C98.1116 43.2838 98.9918 46.8219 100.82 49.9694C102.648 53.1169 105.086 55.5982 108.178 57.3672C111.315 59.1362 114.746 60.0322 118.447 60.0322C122.149 60.0322 125.624 59.1362 128.716 57.3672C131.809 55.5982 134.246 53.1169 136.074 49.9694C137.857 46.8219 138.783 43.2838 138.783 39.3782C138.783 35.4725 137.835 31.8885 136.074 28.741C135.036 26.9719 133.817 25.4556 132.418 24.1231L138.241 10.3844C142.732 13.394 146.434 17.2078 149.21 21.8257C152.392 27.1787 153.995 32.9913 153.995 39.3322H153.95ZM230.507 72.7142L203.694 6.1111H189.407L162.594 72.7142H178.686L182.907 61.8932H210.171L214.392 72.7142H230.484H230.507ZM196.043 28.2355L196.471 26.1678H196.607L197.036 28.2355L205.161 49.0275H187.895L196.02 28.2355H196.043ZM269.824 74.3683C275.263 74.3683 280.048 73.5872 284.156 72.002C288.264 70.4167 291.446 68.0733 293.725 64.9718C296.005 61.8702 297.133 58.1483 297.133 53.8062C297.133 47.7409 295.08 43.0541 290.949 39.7458C286.842 36.4374 281.131 34.0251 273.864 32.5318C270.343 31.8425 267.522 31.1303 265.4 30.3951C263.279 29.66 261.721 28.7869 260.728 27.799C259.735 26.8111 259.239 25.6164 259.239 24.192C259.239 20.0566 262.511 17.9889 269.034 17.9889C272.713 17.9889 275.399 18.7011 277.091 20.1255C278.784 21.55 279.619 23.319 279.619 25.4327H294.854C294.854 21.1594 293.906 17.4605 291.988 14.29C290.092 11.1425 287.203 8.7302 283.388 7.03008C279.552 5.32997 274.834 4.47992 269.237 4.47992C263.64 4.47992 259.081 5.28402 255.289 6.91521C251.497 8.5464 248.676 10.8439 246.803 13.7846C244.929 16.7483 243.981 20.1715 243.981 24.0772C243.981 28.4423 245.177 32.0263 247.57 34.8522C249.962 37.6781 252.896 39.8147 256.372 41.308C259.848 42.8014 263.911 44.1339 268.56 45.2596C271.629 45.9719 274.112 46.6841 275.963 47.3963C277.814 48.0855 279.236 48.9585 280.229 49.9694C281.199 50.9803 281.696 52.2439 281.696 53.7372C281.696 56.3104 280.748 58.2173 278.852 59.4579C276.956 60.6985 273.932 61.3188 269.756 61.3188C265.919 61.3188 262.917 60.4688 260.796 58.7916C258.652 57.1145 257.591 54.863 257.591 52.0601H242.356C242.356 55.9198 243.304 59.5268 245.177 62.9041C247.051 66.2813 250.053 69.0382 254.16 71.1519C258.268 73.2656 263.482 74.3454 269.801 74.3454L269.824 74.3683ZM0 6.18003V72.7142H15.7538V50.4519H36.789L51.5046 72.7142H69.2672L51.3241 48.0166C56.2218 46.3394 60.1264 43.8123 62.9928 40.412C65.8591 37.0118 67.281 33.0602 67.281 28.6031C67.281 24.1461 65.9946 20.3553 63.4216 16.9551C60.8486 13.5548 57.2374 10.9128 52.6331 9.02887C48.0289 7.14496 42.7701 6.18003 36.9245 6.18003H0ZM38.8203 37.4943H15.7538V19.9877H38.8203C41.145 19.9877 43.2666 20.3783 45.2302 21.1594C47.1938 21.9405 48.7285 22.9974 49.857 24.3069C50.9855 25.6394 51.5498 27.0638 51.5498 28.5802C51.5498 30.2803 50.9855 31.7966 49.8796 33.1521C48.7737 34.5076 47.2389 35.5644 45.2753 36.3226C43.3118 37.0807 41.1676 37.4713 38.7978 37.4713L38.8203 37.4943ZM344.463 45.0759V30.7627H330.063V2.32031L314.264 2.41221V51.0952C314.264 59.4349 316.002 65.0866 319.568 67.9355C323.134 70.7613 327.49 72.1858 332.704 72.1858H344.463V58.9295H336.067C334.239 58.9295 332.794 58.3551 331.711 57.2523C330.627 56.1036 330.063 54.2886 330.063 51.8074V45.0759H344.463Z" fill="#ECEFFF"/>
<path d="M402.737 76.551C396.034 76.551 389.737 74.8739 384.072 71.5656C378.407 68.2572 373.848 63.7083 370.53 58.0566C367.212 52.3819 365.52 46.0868 365.52 39.3783C365.52 32.6697 367.212 26.3288 370.53 20.6541C373.825 15.0023 378.384 10.4764 384.072 7.19102C389.76 3.90567 396.034 2.2515 402.737 2.2515C407.861 2.2515 412.939 3.3313 417.792 5.44496C422.734 7.58158 427.023 10.9359 430.544 15.4159C434.087 19.9189 436.367 25.4787 437.315 32.0035L437.698 34.6455H417.769L417.363 32.8765C416.392 28.7411 414.654 25.8004 412.059 23.9165C409.373 21.9866 406.191 21.0446 402.309 21.0446C399.149 21.0446 396.26 21.8028 393.687 23.2732C391.091 24.7435 389.105 26.8342 387.57 29.6141C386.058 32.394 385.291 35.7024 385.291 39.4472C385.291 43.1921 386.058 46.6612 387.57 49.4181C389.083 52.1751 391.069 54.2198 393.664 55.6442C396.237 57.0687 399.149 57.8038 402.309 57.8038C406.168 57.8038 409.328 56.8619 412.014 54.932C414.632 53.0481 416.37 50.1304 417.318 46.0179L417.724 44.2489H437.698L437.315 46.891C436.367 53.3927 434.087 58.9755 430.566 63.4556C427.068 67.9126 422.78 71.2669 417.837 73.4035C412.962 75.5172 407.861 76.597 402.715 76.597L402.737 76.551ZM386.306 67.591C391.294 70.4858 396.824 71.9561 402.737 71.9561C407.274 71.9561 411.765 71.0142 416.076 69.1303C420.319 67.2923 424.021 64.3975 427.045 60.5378C429.573 57.2984 431.379 53.3698 432.372 48.8208H421.222C419.913 53.117 417.679 56.4254 414.609 58.6539C411.201 61.1352 407.048 62.3758 402.286 62.3758C398.359 62.3758 394.725 61.4568 391.475 59.6418C388.18 57.8038 385.539 55.1158 383.621 51.6237C381.725 48.1775 380.754 44.0651 380.754 39.4242C380.754 34.7834 381.725 30.8088 383.621 27.3397C385.539 23.8475 388.18 21.1136 391.452 19.2297C394.702 17.3687 398.359 16.4038 402.286 16.4038C407.071 16.4038 411.224 17.6674 414.654 20.1257C417.724 22.3542 419.958 25.6625 421.267 30.0047H432.349C431.356 25.4328 429.55 21.5041 427 18.2647C423.953 14.382 420.252 11.4872 416.009 9.64929C411.698 7.76538 407.229 6.82343 402.715 6.82343C396.801 6.82343 391.272 8.29379 386.284 11.1656C381.296 14.0604 377.301 18.035 374.39 22.9975C371.478 27.937 370.011 33.4509 370.011 39.3553C370.011 45.2598 371.478 50.7277 374.39 55.6902C377.301 60.6757 381.296 64.6732 386.284 67.568L386.306 67.591ZM485.524 76.5281C483.041 76.5281 480.491 76.2983 477.986 75.8158L475.164 75.2874L483.132 57.2525L484.96 57.7349C484.96 57.7349 485.321 57.7579 485.524 57.7579C488.842 57.7579 491.911 56.9538 494.687 55.3685C497.418 53.8063 499.54 51.6697 501.21 48.7978C502.835 46.0179 503.625 42.9164 503.625 39.3783C503.625 35.8402 502.813 32.6468 501.21 29.9128C499.585 27.1099 497.441 24.9733 494.665 23.3421C491.934 21.7798 488.932 21.0217 485.524 21.0217C482.116 21.0217 479.114 21.7798 476.361 23.3421C473.562 24.9733 471.418 27.1099 469.86 29.8898C468.258 32.7157 467.445 35.9091 467.445 39.3783C467.445 42.8474 468.258 45.9949 469.86 48.8208C470.763 50.3601 471.801 51.6697 472.93 52.7035L474.149 53.8293L466.339 71.4507L464.128 69.9803C459.456 66.8558 455.641 62.8353 452.798 58.0336C449.412 52.3589 447.697 46.0639 447.697 39.3323C447.697 32.6008 449.412 26.3058 452.798 20.6311C456.183 14.9794 460.832 10.4764 466.61 7.16804C472.388 3.85972 478.753 2.20555 485.524 2.20555C492.295 2.20555 498.615 3.88269 504.438 7.16804C510.17 10.4304 514.797 14.9564 518.205 20.6311C521.591 26.3288 523.306 32.6238 523.306 39.3553C523.306 46.0868 521.591 52.3819 518.205 58.0566C514.865 63.6853 510.238 68.2572 504.46 71.6115C498.682 74.8969 492.318 76.551 485.524 76.551V76.5281ZM481.687 71.7264C482.974 71.8642 484.26 71.9332 485.524 71.9332C491.618 71.9332 497.08 70.5087 502.248 67.591C507.417 64.6043 511.389 60.6986 514.346 55.6672C517.348 50.6358 518.792 45.3057 518.792 39.3323C518.792 33.359 517.325 28.0289 514.346 23.0205C511.344 18.035 507.259 14.0604 502.226 11.1886C497.012 8.24785 491.55 6.80045 485.524 6.80045C479.498 6.80045 473.923 8.27082 468.822 11.1886C463.744 14.0834 459.636 18.0809 456.657 23.0205C453.655 28.0289 452.211 33.382 452.211 39.3323C452.211 45.2827 453.678 50.6358 456.657 55.6442C458.711 59.0904 461.329 62.0771 464.444 64.5583L468.709 54.9091C467.716 53.8063 466.791 52.5657 465.956 51.1412C463.925 47.5572 462.909 43.6056 462.909 39.3553C462.909 35.105 463.925 31.1075 465.933 27.5694C467.897 24.1003 470.65 21.3433 474.126 19.3216C477.534 17.3917 481.349 16.4038 485.501 16.4038C489.654 16.4038 493.469 17.3917 496.877 19.3216C500.375 21.3663 503.038 24.0543 505.07 27.5464C507.078 31.0156 508.094 34.9902 508.094 39.3553C508.094 43.7205 507.078 47.6491 505.07 51.1183C503.016 54.6334 500.262 57.4133 496.877 59.3431C493.514 61.273 489.79 62.2609 485.795 62.3069L481.665 71.6804L481.687 71.7264ZM600.992 75.0347H580.002L575.781 64.2137H551.586L547.366 75.0347H526.376L555.039 3.83674H572.351L601.014 75.0347H600.992ZM583.049 70.4398H594.266L569.304 8.43164H558.064L533.101 70.4398H544.319L548.539 59.6188H578.851L583.071 70.4398H583.049ZM575.623 51.348H551.722L560.998 27.5924L561.765 23.8935H565.422L565.941 25.7085L566.324 27.5694L575.601 51.325L575.623 51.348ZM558.357 46.7531H568.965L563.661 33.1752L558.357 46.7531ZM636.923 76.6889C630.288 76.6889 624.69 75.5402 620.267 73.2657C615.775 70.9453 612.412 67.8667 610.336 64.0989C608.282 60.4 607.221 56.3565 607.221 52.1291V49.8317H626.97V52.1291C626.97 54.2428 627.715 55.7821 629.295 57.0457C631.01 58.4012 633.56 59.0904 636.878 59.0904C641.482 59.0904 643.694 58.2863 644.732 57.5971C645.974 56.77 646.538 55.5983 646.538 53.8063C646.538 52.9103 646.267 52.221 645.725 51.6467C644.981 50.8885 643.83 50.1993 642.295 49.6249C640.534 48.9587 638.142 48.2694 635.163 47.5802C630.378 46.4085 626.157 45.03 622.591 43.4907C618.822 41.8595 615.572 39.4702 612.976 36.4146C610.245 33.1982 608.846 29.0627 608.846 24.1462C608.846 19.804 609.907 15.9213 612.006 12.59C614.128 9.25872 617.332 6.6626 621.508 4.84762C625.548 3.10156 630.536 2.22853 636.336 2.22853C642.137 2.22853 647.305 3.14751 651.39 4.96249C655.634 6.8464 658.861 9.58037 661.005 13.1184C663.127 16.6335 664.21 20.7689 664.21 25.4557V27.7532H644.462V25.4557C644.462 24.0313 643.92 22.9056 642.746 21.9177C641.505 20.8608 639.225 20.3095 636.133 20.3095C628.595 20.3095 628.595 23.1583 628.595 24.2151C628.595 24.9963 628.843 25.6166 629.407 26.168C629.926 26.6734 630.987 27.4545 633.222 28.2357C635.23 28.9249 637.961 29.6141 641.369 30.2804C648.976 31.8427 655.047 34.4388 659.425 37.9539C664.097 41.7217 666.467 47.0518 666.467 53.8293C666.467 58.6539 665.158 62.8812 662.608 66.3504C660.08 69.7965 656.536 72.4156 652.045 74.1387C647.689 75.8158 642.611 76.6659 636.923 76.6659V76.6889ZM611.871 54.4266C612.164 57.0227 612.976 59.504 614.263 61.8244C615.911 64.7881 618.619 67.2464 622.298 69.1532C626.09 71.1061 631.01 72.094 636.923 72.094C642.069 72.094 646.628 71.3358 650.443 69.8655C654.121 68.441 656.988 66.3504 658.997 63.6164C660.983 60.9054 661.953 57.7119 661.953 53.8293C661.953 48.4532 660.215 44.4557 656.627 41.5609C652.812 38.5053 647.373 36.2078 640.489 34.8064C636.855 34.0942 633.989 33.382 631.755 32.6008C629.272 31.7278 627.466 30.7169 626.225 29.4533C624.826 28.0519 624.058 26.2369 624.058 24.2151C624.058 21.0446 625.616 15.7146 636.111 15.7146C640.376 15.7146 643.491 16.5876 645.613 18.3796C647.17 19.6891 648.208 21.3203 648.682 23.1583H659.583C659.313 20.2865 658.5 17.7363 657.168 15.5308C655.521 12.7968 652.97 10.6602 649.585 9.16683C646.064 7.60456 641.595 6.82343 636.336 6.82343C631.078 6.82343 626.767 7.58159 623.268 9.0979C619.928 10.5453 617.423 12.5671 615.798 15.1172C614.15 17.7133 613.36 20.6771 613.36 24.1692C613.36 28.0059 614.353 31.0386 616.385 33.4279C618.529 35.9551 621.215 37.9309 624.352 39.2864C627.692 40.7338 631.664 42.0204 636.178 43.1231C639.361 43.8583 641.866 44.5935 643.83 45.3287C645.996 46.1328 647.689 47.1896 648.908 48.4302C650.285 49.8776 651.029 51.7156 651.029 53.8063C651.029 57.1606 649.698 59.8026 647.17 61.4568C644.89 62.9501 641.505 63.6853 636.855 63.6853C632.522 63.6853 629.024 62.6744 626.518 60.6757C624.419 59.0215 623.133 56.9308 622.659 54.4266H611.848H611.871ZM713.661 74.4604H699.645C693.98 74.4604 689.105 72.8751 685.133 69.7276C681.025 66.3963 678.971 60.1243 678.971 51.0723V0.114873L699.284 0V28.4424H714V47.3504H699.284V51.7845C699.284 53.5995 699.645 54.932 700.3 55.6442C700.932 56.2646 701.857 56.6092 703.031 56.6092H713.684V74.4604H713.661ZM683.462 4.6868V51.0723C683.462 58.6539 684.952 63.7083 687.909 66.1206C691.091 68.6248 694.928 69.8655 699.623 69.8655H709.124V61.2041H702.985C700.638 61.2041 698.629 60.4229 697.072 58.9066C695.492 57.2295 694.725 54.8631 694.725 51.8075V42.7785H709.44V33.0603H694.725V4.61787L683.44 4.6868H683.462Z" fill="#ECEFFF"/>
</svg>
