<svg width="57" height="55" viewBox="0 0 57 55" fill="none" xmlns="http://www.w3.org/2000/svg">
<g clip-path="url(#clip0_434_3301)">
<path d="M56.4667 17.9096C56.4667 16.6075 55.9583 15.3799 55.0317 14.4488C54.1051 13.5281 52.8767 13.0201 51.5736 13.0201H38.2564C37.6768 5.74479 31.5709 0.000488281 24.1427 0.000488281H21.8905C18.1079 0.000488281 14.5526 1.47254 11.877 4.14443C9.20839 6.81632 7.73526 10.3638 7.73179 14.1506V15.0869C2.94627 17.842 0 22.9031 0 28.4585V28.6422C0 33.9756 2.77449 38.9362 7.28238 41.7485V46.5722C7.28238 49.2666 9.47734 51.4599 12.1737 51.4599C13.2946 51.4599 14.3271 51.0802 15.153 50.4456C15.8713 52.2558 17.6377 53.5388 19.7008 53.5388C20.9154 53.5388 22.0293 53.0932 22.8848 52.3563C23.7003 53.9255 25.34 55.0005 27.2278 55.0005C29.7368 55.0005 31.8103 53.1019 32.0879 50.6658C32.8566 51.1669 33.7728 51.4599 34.7566 51.4599C37.453 51.4599 39.648 49.2666 39.648 46.5722V44.0823H46.9355C49.2537 44.0823 51.001 42.4143 51.001 40.2019V38.9241C51.001 38.1976 50.8049 37.4988 50.4527 36.8902C51.8234 36.1135 52.7379 34.6466 52.7379 32.9596V32.2036C52.7379 31.2708 52.4533 30.3865 51.9466 29.6496C53.4007 28.7948 54.3741 27.2135 54.3741 25.4311V25.0999C54.3741 24.1099 54.0722 23.1667 53.5412 22.3778C55.2607 21.6201 56.4649 19.9018 56.4649 17.9079L56.4667 17.9096ZM9.98747 14.1402C9.99094 10.9689 11.2281 7.98495 13.4734 5.73785C15.7221 3.49076 18.7118 2.25452 21.8905 2.25452H24.1427C30.3268 2.25452 35.4246 6.98797 35.9972 13.0201H26.801C26.7628 13.0201 26.7264 13.0218 26.6899 13.0253H14.8094V23.2655C14.8094 24.5954 13.7267 25.6773 12.3958 25.6773C11.7521 25.6773 11.1483 25.4259 10.6919 24.9682C10.2373 24.5139 9.98573 23.9088 9.98573 23.2655V14.1384L9.98747 14.1402ZM12.1737 49.2076C10.7197 49.2076 9.53807 48.0269 9.53807 46.5739V41.1382C9.53807 41.1382 9.53807 41.1278 9.53807 41.1209V36.9336C9.53807 35.4806 10.7197 34.2999 12.1737 34.2999C13.6278 34.2999 14.8094 35.4806 14.8094 36.9336V46.5739C14.8094 48.0269 13.6278 49.2076 12.1737 49.2076ZM19.7008 51.2848C18.2467 51.2848 17.0651 50.104 17.0651 48.6511V34.9657C17.0651 33.5127 18.2467 32.3319 19.7008 32.3319C21.1548 32.3319 22.3365 33.5127 22.3365 34.9657V48.6511C22.3365 50.104 21.1548 51.2848 19.7008 51.2848ZM29.8635 50.1127C29.8635 51.5657 28.6819 52.7465 27.2278 52.7465C25.7738 52.7465 24.5921 51.5657 24.5921 50.1127V31.9886C24.5921 30.5356 25.7738 29.3549 27.2278 29.3549C28.6819 29.3549 29.8635 30.5356 29.8635 31.9886V50.1127ZM37.3905 46.5722C37.3905 48.0251 36.2089 49.2059 34.7549 49.2059C33.3008 49.2059 32.1192 48.0251 32.1192 46.5722V36.1828C32.1192 34.7298 33.3008 33.5491 34.7549 33.5491C36.2089 33.5491 37.3905 34.7298 37.3905 36.1828V46.5722ZM48.7453 40.2037C48.7453 41.2717 47.8343 41.83 46.9355 41.83H39.648V37.4815H48.0252C48.4746 37.8231 48.747 38.3554 48.747 38.9275V40.2054L48.7453 40.2037ZM51.5718 20.5416H51.0322C51.0322 20.5416 51.0253 20.5416 51.0218 20.5416H27.1654C26.5424 20.5416 26.0375 21.0462 26.0375 21.6686C26.0375 22.2911 26.5424 22.7956 27.1654 22.7956H50.7476C51.5875 23.2534 52.1184 24.1359 52.1184 25.1034V25.4346C52.1184 26.8078 51.0478 27.9608 49.6753 28.0614C49.6129 28.0666 49.5504 28.0683 49.4862 28.0683H34.3645C33.7415 28.0683 33.2366 28.5729 33.2366 29.1953C33.2366 29.8178 33.7415 30.3224 34.3645 30.3224H49.4758C50.1022 30.742 50.4822 31.4424 50.4822 32.2053V32.9613C50.4822 34.1819 49.5261 35.1755 48.3046 35.2223H48.2629C48.2456 35.2257 48.2282 35.2257 48.2126 35.2257H39.5525C39.1066 32.9873 37.1251 31.2951 34.7549 31.2951C33.7849 31.2951 32.8809 31.5794 32.1192 32.0684V31.9869C32.1192 29.2924 29.9242 27.0991 27.2278 27.0991C24.8958 27.0991 22.9403 28.7393 22.4527 30.9257C21.6684 30.39 20.7193 30.0762 19.699 30.0762C17.6672 30.0762 15.9216 31.3193 15.1842 33.0844C14.3531 32.4325 13.3068 32.0441 12.172 32.0441C9.4756 32.0441 7.28065 34.2374 7.28065 36.9319V38.9952C4.14004 36.514 2.25395 32.7047 2.25395 28.6422V28.4585C2.25395 24.1671 4.31182 20.2208 7.73005 17.764V23.2655C7.73005 24.5104 8.21589 25.6808 9.09387 26.5599C9.97359 27.4441 11.1465 27.9314 12.3958 27.9314C14.9708 27.9314 17.0651 25.8386 17.0651 23.2655V15.2793H38.305V15.2741H51.5736C52.2763 15.2741 52.9391 15.5481 53.4371 16.0422C53.9351 16.5433 54.211 17.2057 54.211 17.9079C54.211 19.3591 53.0276 20.5399 51.5736 20.5399L51.5718 20.5416Z" fill="black"/>
</g>
<defs>
<clipPath id="clip0_434_3301">
<rect width="56.4667" height="55" fill="white" transform="translate(0 0.000488281)"/>
</clipPath>
</defs>
</svg>
