<svg width="65" height="45" viewBox="0 0 65 45" fill="none" xmlns="http://www.w3.org/2000/svg">
<g clip-path="url(#clip0_434_3342)">
<path d="M14.5828 11.3658H11.1126V16.0802H14.2566V18.0584H11.1362V25.6024H8.94727V9.36426H14.5828V11.3658Z" fill="black"/>
<path d="M23.0358 25.6023H20.7774C20.5595 24.422 20.4512 23.2869 20.4512 22.1984V20.7261C20.4512 20.3587 20.4429 20.0667 20.4276 19.8515C20.4123 19.6362 20.3776 19.3716 20.3235 19.0577C20.2694 18.7438 20.1639 18.5094 20.0098 18.3558C19.8543 18.2023 19.6531 18.1255 19.4046 18.1255H18.3802V25.601H16.2148V9.36279H19.778C20.3374 9.36279 20.7788 9.39707 21.105 9.46561C21.4312 9.53415 21.7254 9.67673 21.9906 9.89058C22.2543 10.1058 22.4403 10.4239 22.5499 10.8447C22.6582 11.267 22.7123 11.8222 22.7123 12.5117V14.5352C22.7123 15.1644 22.6665 15.673 22.5722 16.0651C22.4792 16.4558 22.3168 16.7395 22.0836 16.9164C21.8504 17.0932 21.656 17.2002 21.502 17.2385C21.3465 17.2769 21.0911 17.3194 20.733 17.3647C21.4784 17.3948 21.9795 17.6251 22.2349 18.0542C22.4916 18.4833 22.6193 19.2195 22.6193 20.2627V22.4013C22.6193 23.3212 22.6429 23.9573 22.6887 24.3096C22.7359 24.6619 22.8512 25.091 23.0385 25.5982L23.0358 25.6023ZM18.401 11.319V16.3324H19.4948C19.9293 16.3324 20.2166 16.1788 20.3568 15.8718C20.497 15.5647 20.5664 15.1205 20.5664 14.5379V12.9285C20.5664 12.5145 20.5581 12.2156 20.5428 12.0319C20.5275 11.8482 20.4609 11.6837 20.3443 11.537C20.2277 11.3917 20.0445 11.319 19.7974 11.319H18.3996H18.401Z" fill="black"/>
<path d="M30.6271 25.6024H25.2012V9.36426H30.6271V11.3877H27.3901V16.1488H30.2773V18.1722H27.4123V23.5543H30.6257V25.601L30.6271 25.6024Z" fill="black"/>
<path d="M38.4044 25.6024H32.9785V9.36426H38.4044V11.3877H35.1675V16.1488H38.0546V18.1722H35.1897V23.5543H38.403V25.601L38.4044 25.6024Z" fill="black"/>
<path d="M62.5168 15.5798H47.2176V14.0855C47.2176 6.59496 41.0463 0.5 33.4619 0.5H3.37021C1.5116 0.5 0 1.9929 0 3.82851V37.9019H4.46122C5.00256 41.628 8.25478 44.5 12.1733 44.5C16.0918 44.5 19.344 41.628 19.8853 37.9019H46.382C46.9233 41.628 50.1755 44.5 54.094 44.5C58.0125 44.5 61.2647 41.628 61.8061 37.9019H65V18.0323C65 16.6806 63.8854 15.5798 62.5168 15.5798ZM12.1733 42.3066C9.48183 42.3066 7.2304 40.412 6.71404 37.9019C6.64186 37.5469 6.60299 37.1808 6.60299 36.8052C6.60299 36.4296 6.64186 36.0636 6.71404 35.7085C7.2304 33.1984 9.48183 31.3038 12.1733 31.3038C14.8647 31.3038 17.1161 33.1984 17.6325 35.7085C17.7047 36.0636 17.7436 36.4296 17.7436 36.8052C17.7436 37.1808 17.7047 37.5469 17.6325 37.9019C17.1161 40.412 14.8647 42.3066 12.1733 42.3066ZM44.9967 35.7085H19.8853C19.344 31.9824 16.0918 29.1104 12.1733 29.1104C8.25478 29.1104 5.00256 31.9824 4.46122 35.7085H2.22089V3.82851C2.22089 3.20202 2.73586 2.69342 3.37021 2.69342H33.4619C39.822 2.69342 44.9967 7.80409 44.9967 14.0855V35.7085ZM54.094 42.3066C51.4026 42.3066 49.1511 40.412 48.6348 37.9019C48.5626 37.5469 48.5237 37.1808 48.5237 36.8052C48.5237 36.4296 48.5626 36.0636 48.6348 35.7085C49.1511 33.1984 51.4026 31.3038 54.094 31.3038C56.7855 31.3038 59.0369 33.1984 59.5533 35.7085C59.6254 36.0636 59.6643 36.4296 59.6643 36.8052C59.6643 37.1808 59.6254 37.5469 59.5533 37.9019C59.0369 40.412 56.7855 42.3066 54.094 42.3066ZM62.7791 35.7085H61.8061C61.2647 31.9824 58.0125 29.1104 54.094 29.1104C51.1194 29.1104 48.5279 30.7651 47.2176 33.1929V17.7732H62.5168C62.6611 17.7732 62.7791 17.8897 62.7791 18.0323V35.7085Z" fill="black"/>
</g>
<defs>
<clipPath id="clip0_434_3342">
<rect width="65" height="44" fill="white" transform="translate(0 0.5)"/>
</clipPath>
</defs>
</svg>
