<svg width="54" height="55" viewBox="0 0 54 55" fill="none" xmlns="http://www.w3.org/2000/svg">
<g clip-path="url(#clip0_434_3334)">
<path d="M8.80879 51.0265C8.60557 51.0265 8.39984 50.9647 8.22171 50.8347C1.69353 46.0848 -0.703736 39.5804 0.673655 30.366L1.03117 27.9741L2.47003 29.9116C3.11357 30.7788 3.76338 31.4213 4.42949 31.8479C4.11588 29.6226 4.36301 27.5146 5.17213 25.5594C6.06906 23.3908 7.6409 21.3788 9.98045 19.4084L10.0683 19.3428C14.5956 16.3033 16.8473 12.0142 16.9502 6.22801L16.9803 4.50757L18.4581 5.37347C21.9379 7.412 23.6164 10.2268 23.5925 13.9782C23.5825 15.5005 23.2313 17.0442 22.5476 18.569C21.7861 20.268 21.8539 21.8534 22.7546 23.4135C23.0331 23.8957 22.87 24.5142 22.3908 24.7944C21.9116 25.0747 21.2969 24.9106 21.0184 24.4284C19.7865 22.2939 19.6849 20.0433 20.7173 17.7397C21.2843 16.4737 21.5766 15.2039 21.5854 13.9656C21.6017 11.5093 20.7261 9.60706 18.8532 8.08478C18.3151 13.5996 15.756 17.9354 11.2286 20.9925C6.90704 24.6518 5.48449 28.5244 6.75274 33.177L7.1642 34.6892L5.62624 34.4418C4.47465 34.2563 3.40837 33.7261 2.40229 32.8337C1.78008 40.156 3.98416 45.2606 9.39839 49.2013C9.84748 49.5282 9.94784 50.1594 9.62293 50.6112C9.42724 50.8839 9.1199 51.029 8.80879 51.029V51.0265Z" fill="black"/>
<path d="M28.0482 55.0001C25.8166 55.0001 23.5134 54.7085 21.2177 54.114C15.6304 52.665 11.2824 49.7391 9.59018 46.2868L9.55506 46.2149L9.53123 46.1379C6.43272 36.0348 13.4 31.5349 26.4839 27.1827C27.7421 26.674 28.7445 25.7046 29.2375 24.5218C29.7154 23.3732 29.6828 22.0882 29.1434 20.8045C28.4083 19.0563 28.0068 17.4848 27.914 16.0017C27.6242 11.3364 29.0204 6.80869 32.0625 2.54608L33.8789 0.00264337C33.8789 0.00264337 33.8877 0.00138112 33.8877 0.00516786L33.884 3.13555C33.8752 9.49097 34.3205 14.7369 40.0233 19.589C43.0427 22.0238 44.6735 24.8412 44.8868 27.9791C44.8868 27.9829 44.8918 27.9855 44.8943 27.9829C46.1061 27.0198 46.505 24.8147 46.2504 20.8916L45.9355 16.0408C45.9355 16.0408 45.9418 16.0332 45.9443 16.0383L48.1446 20.3665C51.7098 27.3758 53.3644 33.4813 53.0646 38.5101C52.7723 43.4051 50.646 47.4266 46.7434 50.4661C46.3043 50.8082 45.6583 50.7653 45.3095 50.3311C44.9558 49.888 45.0336 49.2417 45.4789 48.8971C48.975 46.1896 50.8003 42.7525 51.0612 38.3902C51.2832 34.6766 50.3248 30.2714 48.2086 25.2565C48.2073 25.2527 48.1998 25.2527 48.1998 25.2565C47.8686 27.6396 46.8475 29.9798 44.0538 30.4961L42.7718 30.7334C42.7718 30.7334 42.7655 30.7308 42.7668 30.7283L42.8734 29.4206C43.1268 26.294 41.7807 23.5916 38.7588 21.1579L38.7387 21.1415C33.2768 16.5002 32.1578 11.2922 31.9333 6.63072C31.9333 6.62567 31.927 6.6244 31.9245 6.62945C30.3978 9.62351 29.7254 12.7223 29.9211 15.878C29.9989 17.1301 30.3502 18.4845 30.9949 20.0194C31.7501 21.8156 31.7827 23.6433 31.0915 25.3044C30.3878 26.9946 28.969 28.3679 27.2002 29.0735L27.145 29.0937C19.9219 31.4945 15.6304 33.6466 13.2331 36.0727C10.7756 38.5581 10.2174 41.4587 11.428 45.4663C12.8743 48.3266 16.8083 50.8877 21.722 52.1613C28.0407 53.7997 34.392 52.9717 38.7124 49.9461C40.7935 48.4882 42.3302 46.3764 43.0402 43.9996C43.7716 41.5458 43.4605 39.4025 42.0868 37.4473C40.5087 35.1992 37.4717 33.1493 33.061 31.3531C32.5467 31.1436 32.2996 30.5554 32.5066 30.0379C32.7148 29.5203 33.2994 29.2717 33.8137 29.4812C38.6534 31.4516 41.8962 33.6769 43.7264 36.281C45.455 38.7423 45.8715 41.5344 44.9633 44.579C44.1253 47.39 42.3126 49.8855 39.8602 51.6021C36.6663 53.8388 32.5066 55.0026 28.0532 55.0026L28.0482 55.0001Z" fill="black"/>
<path d="M22.3024 44.44C21.7906 44.44 21.2813 44.4084 20.7733 44.3453C18.4939 44.0613 16.2309 43.1209 13.8537 41.4687C13.3971 41.1518 13.2829 40.5232 13.5978 40.0638C13.9126 39.6043 14.5374 39.4894 14.994 39.8063C19.5514 42.9732 23.5732 43.256 28.4392 40.753L28.4568 40.7441C32.5576 38.7371 36.5819 38.65 40.4205 40.4866C40.921 40.7264 41.1343 41.3285 40.896 41.8322C40.6576 42.3358 40.0592 42.5504 39.5587 42.3106C36.2557 40.7302 32.9151 40.811 29.3437 42.5554C26.8875 43.8177 24.5692 44.44 22.3024 44.44Z" fill="black"/>
</g>
<defs>
<clipPath id="clip0_434_3334">
<rect width="52.8" height="55" fill="white" transform="translate(0.298828)"/>
</clipPath>
</defs>
</svg>
