<svg width="53" height="55" viewBox="0 0 53 55" fill="none" xmlns="http://www.w3.org/2000/svg">
<g clip-path="url(#clip0_434_3310)">
<path d="M6.03609 52.2297C5.89908 52.2297 5.76038 52.188 5.64029 52.1003C1.23911 48.8981 -0.377082 44.5129 0.551529 38.3007L0.792563 36.6881L1.76262 37.9944C2.19647 38.579 2.63456 39.0122 3.08365 39.2998C2.87221 37.7995 3.03882 36.3784 3.58432 35.0602C4.18902 33.5982 5.24872 32.2417 6.826 30.9133L6.8852 30.8691C9.93744 28.8199 11.4555 25.9282 11.5249 22.0273L11.5452 20.8674L12.5414 21.4512C14.8875 22.8256 16.0191 24.7232 16.003 27.2524C15.9963 28.2787 15.7595 29.3194 15.2985 30.3474C14.7852 31.4928 14.8308 32.5617 15.4381 33.6135C15.6258 33.9386 15.5159 34.3556 15.1928 34.5445C14.8697 34.7334 14.4553 34.6228 14.2676 34.2977C13.4371 32.8587 13.3686 31.3414 14.0646 29.7883C14.4469 28.9348 14.6439 28.0787 14.6499 27.2439C14.6608 25.5879 14.0705 24.3054 12.8079 23.2791C12.445 26.9971 10.7197 29.9202 7.6675 31.9813C4.75396 34.4483 3.7949 37.0591 4.64994 40.1959L4.92734 41.2154L3.89047 41.0486C3.11409 40.9235 2.39522 40.5661 1.71695 39.9644C1.29746 44.901 2.78341 48.3424 6.43358 50.9991C6.73635 51.2195 6.80401 51.645 6.58497 51.9497C6.45304 52.1335 6.24583 52.2314 6.03609 52.2314V52.2297Z" fill="black"/>
<path d="M19.0075 54.9088C17.503 54.9088 15.9502 54.7122 14.4025 54.3114C10.6356 53.3344 7.70434 51.3619 6.56345 49.0344L6.53977 48.9859L6.5237 48.934C4.43475 42.1227 9.13193 39.0889 17.9529 36.1547C18.8012 35.8118 19.4769 35.1582 19.8093 34.3609C20.1315 33.5865 20.1095 32.7202 19.7458 31.8547C19.2503 30.6761 18.9796 29.6166 18.917 28.6167C18.7217 25.4715 19.663 22.419 21.7139 19.5452L22.9385 17.8305C22.9385 17.8305 22.9444 17.8296 22.9444 17.8322L22.9419 19.9426C22.9359 24.2273 23.2362 27.764 27.0809 31.0352C29.1165 32.6768 30.216 34.5762 30.3598 36.6917C30.3598 36.6943 30.3631 36.696 30.3648 36.6943C31.1818 36.045 31.4508 34.5583 31.2791 31.9134L31.0668 28.6431C31.0668 28.6431 31.071 28.638 31.0727 28.6414L32.5561 31.5594C34.9597 36.2849 36.0752 40.4012 35.8731 43.7915C35.676 47.0916 34.2425 49.8028 31.6114 51.852C31.3154 52.0826 30.8799 52.0537 30.6448 51.761C30.4063 51.4623 30.4587 51.0266 30.7589 50.7942C33.116 48.9689 34.3465 46.6516 34.5224 43.7106C34.6721 41.207 34.026 38.2371 32.5993 34.8561C32.5984 34.8536 32.5933 34.8536 32.5933 34.8561C32.3701 36.4628 31.6816 38.0405 29.7982 38.3886L28.9339 38.5486C28.9339 38.5486 28.9296 38.5469 28.9305 38.5452L29.0024 37.6635C29.1732 35.5556 28.2657 33.7337 26.2284 32.093L26.2148 32.0819C22.5325 28.9528 21.7781 25.4417 21.6268 22.299C21.6268 22.2956 21.6225 22.2947 21.6208 22.2981C20.5916 24.3167 20.1383 26.4058 20.2702 28.5333C20.3226 29.3775 20.5594 30.2906 20.9941 31.3254C21.5033 32.5363 21.5253 33.7686 21.0593 34.8885C20.5848 36.0279 19.6283 36.9538 18.4358 37.4295L18.3986 37.4431C13.5289 39.0617 10.6356 40.5126 9.01945 42.1482C7.36267 43.8238 6.98632 45.7794 7.80245 48.4813C8.77757 50.4096 11.4298 52.1362 14.7425 52.9949C19.0025 54.0995 23.2844 53.5412 26.1971 51.5014C27.6001 50.5185 28.6362 49.0948 29.1148 47.4924C29.6079 45.8381 29.3982 44.3931 28.4721 43.075C27.4082 41.5593 25.3607 40.1773 22.3871 38.9664C22.0403 38.8251 21.8737 38.4286 22.0133 38.0797C22.1536 37.7308 22.5478 37.5631 22.8945 37.7044C26.1573 39.0328 28.3435 40.5331 29.5775 42.2886C30.7429 43.9481 31.0237 45.8304 30.4114 47.883C29.8464 49.7782 28.6243 51.4606 26.9709 52.6179C24.8177 54.1259 22.0133 54.9105 19.0109 54.9105L19.0075 54.9088Z" fill="black"/>
<path d="M15.133 47.7895C14.7879 47.7895 14.4445 47.7682 14.102 47.7256C12.5653 47.5342 11.0396 46.9002 9.43696 45.7862C9.12912 45.5726 9.05216 45.1489 9.26443 44.8391C9.47671 44.5293 9.89789 44.4519 10.2057 44.6655C13.2783 46.8006 15.9897 46.9912 19.2703 45.3037L19.2821 45.2978C22.0468 43.9447 24.7599 43.886 27.3478 45.1242C27.6853 45.2859 27.8291 45.6918 27.6684 46.0313C27.5077 46.3709 27.1043 46.5155 26.7668 46.3539C24.54 45.2884 22.2878 45.3429 19.88 46.5189C18.2241 47.3699 16.6612 47.7895 15.133 47.7895Z" fill="black"/>
</g>
<path d="M49.0588 43.4854L52.0988 43.4854L52.0988 54.3154L49.6288 54.3154C48.8182 53.0741 48.1088 52.0418 47.5008 51.2184C46.7535 50.1798 46.0885 49.3374 45.5058 48.6914C45.2272 48.3874 44.9992 48.1531 44.8218 47.9884C44.6318 47.8111 44.3848 47.6464 44.0808 47.4944C43.7642 47.3424 43.4412 47.2664 43.1118 47.2664C42.6685 47.2664 42.3075 47.3931 42.0288 47.6464C41.7375 47.8998 41.5918 48.2924 41.5918 48.8244C41.5918 49.9391 42.2378 50.4964 43.5298 50.4964C43.8718 50.4964 44.1885 50.4521 44.4798 50.3634L44.0238 54.2204L43.7198 54.2204C40.4772 54.2204 38.8558 52.3141 38.8558 48.5014C38.8558 46.6774 39.2485 45.3601 40.0338 44.5494C40.8065 43.7261 41.8135 43.3144 43.0548 43.3144C44.2328 43.3144 45.2905 43.7514 46.2278 44.6254C46.6585 45.0181 47.0702 45.5058 47.4628 46.0884C47.8555 46.6584 48.3875 47.5324 49.0588 48.7104L49.0588 43.4854Z" fill="black"/>
<path d="M45.4298 28.78C45.9998 28.78 46.5762 28.8307 47.1588 28.932C47.7415 29.0334 48.3622 29.2234 49.0208 29.502C49.6668 29.768 50.2368 30.11 50.7308 30.528C51.2248 30.946 51.6365 31.516 51.9658 32.238C52.2825 32.9474 52.4408 33.7517 52.4408 34.651C52.4408 36.4497 51.8202 37.8304 50.5788 38.793C49.3375 39.7557 47.7352 40.237 45.7718 40.237C44.9105 40.237 44.0872 40.1357 43.3018 39.933C42.5038 39.7177 41.7628 39.3947 41.0788 38.964C40.3822 38.5207 39.8312 37.9127 39.4258 37.14C39.0078 36.3674 38.7988 35.4744 38.7988 34.461C38.7988 32.7637 39.3688 31.3957 40.5088 30.357C41.6362 29.3057 43.2765 28.78 45.4298 28.78ZM45.7338 32.637C44.3152 32.637 43.2385 32.77 42.5038 33.036C41.7565 33.302 41.3828 33.777 41.3828 34.461C41.3828 34.8917 41.5285 35.2464 41.8198 35.525C42.0985 35.8037 42.5102 36 43.0548 36.114C43.5868 36.2154 44.0618 36.285 44.4798 36.323C44.8852 36.3484 45.3982 36.361 46.0188 36.361C46.4875 36.361 46.8802 36.3484 47.1968 36.323C47.5135 36.2977 47.8998 36.2344 48.3558 36.133C48.7992 36.019 49.1475 35.829 49.4008 35.563C49.6415 35.2844 49.7618 34.936 49.7618 34.518C49.7618 33.264 48.4192 32.637 45.7338 32.637Z" fill="black"/>
<path d="M49.0588 15.0626L52.0988 15.0626L52.0988 25.8926L49.6288 25.8926C48.8182 24.6513 48.1088 23.6189 47.5008 22.7956C46.7535 21.757 46.0885 20.9146 45.5058 20.2686C45.2272 19.9646 44.9992 19.7303 44.8218 19.5656C44.6318 19.3883 44.3848 19.2236 44.0808 19.0716C43.7642 18.9196 43.4412 18.8436 43.1118 18.8436C42.6685 18.8436 42.3075 18.9703 42.0288 19.2236C41.7375 19.477 41.5918 19.8696 41.5918 20.4016C41.5918 21.5163 42.2378 22.0736 43.5298 22.0736C43.8718 22.0736 44.1885 22.0293 44.4798 21.9406L44.0238 25.7976L43.7198 25.7976C40.4772 25.7976 38.8558 23.8913 38.8558 20.0786C38.8558 18.2546 39.2485 16.9373 40.0338 16.1266C40.8065 15.3033 41.8135 14.8916 43.0548 14.8916C44.2328 14.8916 45.2905 15.3286 46.2278 16.2026C46.6585 16.5953 47.0702 17.0829 47.4628 17.6656C47.8555 18.2356 48.3875 19.1096 49.0588 20.2876L49.0588 15.0626Z" fill="black"/>
<path d="M46.7598 7.52021L44.1758 7.52021C44.2138 7.16554 44.2328 6.87421 44.2328 6.64621C44.2328 5.22754 43.7578 4.51821 42.8078 4.51821C42.4405 4.51821 42.1238 4.65754 41.8578 4.93621C41.5792 5.20221 41.4398 5.65187 41.4398 6.28521C41.4398 7.36188 42.0858 7.96988 43.3778 8.10921L43.1688 11.7002C40.2682 11.3835 38.8178 9.49621 38.8178 6.03821C38.8178 4.42955 39.1472 3.15654 39.8058 2.21921C40.4645 1.28188 41.3575 0.813209 42.4848 0.813209C43.8908 0.813209 44.8408 1.50988 45.3348 2.90321C45.4362 2.56121 45.5438 2.26987 45.6578 2.02921C45.7718 1.77587 45.9365 1.51621 46.1518 1.25021C46.3672 0.971542 46.6522 0.762542 47.0068 0.623211C47.3615 0.47121 47.7732 0.39521 48.2418 0.39521C49.5718 0.39521 50.5915 0.901878 51.3008 1.91521C52.0102 2.92854 52.3648 4.39154 52.3648 6.30421C52.3648 7.08954 52.3015 7.79254 52.1748 8.41321C52.0482 9.02121 51.8328 9.59121 51.5288 10.1232C51.2248 10.6425 50.7942 11.0732 50.2368 11.4152C49.6795 11.7572 48.9955 11.9979 48.1848 12.1372L47.5008 8.50821C48.9575 8.39421 49.6858 7.68488 49.6858 6.38021C49.6858 5.03754 49.1348 4.36621 48.0328 4.36621C47.1208 4.36621 46.6648 5.07554 46.6648 6.49421C46.6648 6.93754 46.6965 7.27954 46.7598 7.52021Z" fill="black"/>
<path d="M11.0397 3.24231H7.79666V16.6513H3.81766V3.24231H0.597656V0.413308H11.0397V3.24231Z" fill="black"/>
<path d="M22.3323 5.15131V11.5683C22.3323 12.151 22.3093 12.6416 22.2633 13.0403C22.2326 13.4236 22.1176 13.8836 21.9183 14.4203C21.7343 14.9416 21.466 15.3633 21.1133 15.6853C20.776 16.0073 20.27 16.2833 19.5953 16.5133C18.9206 16.7433 18.108 16.8583 17.1573 16.8583C15.348 16.8583 13.9986 16.4826 13.1093 15.7313C12.22 14.98 11.7753 13.7073 11.7753 11.9133V4.89831C11.7753 3.21164 12.2123 1.99264 13.0863 1.24131C13.9756 0.474642 15.302 0.0913086 17.0653 0.0913086C18.9206 0.0913086 20.2623 0.497641 21.0903 1.31031C21.9183 2.10764 22.3323 3.38798 22.3323 5.15131ZM15.7083 4.30031V12.6263C15.7083 12.8716 15.716 13.0556 15.7313 13.1783C15.7466 13.2856 15.7926 13.416 15.8693 13.5693C15.946 13.7226 16.084 13.8376 16.2833 13.9143C16.4826 13.9756 16.7433 14.0063 17.0653 14.0063C17.5713 14.0063 17.924 13.899 18.1233 13.6843C18.3226 13.4696 18.4223 13.117 18.4223 12.6263V4.32331C18.4223 3.80198 18.315 3.44931 18.1003 3.26531C17.901 3.08131 17.533 2.98931 16.9963 2.98931C16.521 2.98931 16.1836 3.08897 15.9843 3.28831C15.8003 3.47231 15.7083 3.80964 15.7083 4.30031Z" fill="black"/>
<path d="M24.9653 0.413308H31.9573C33.2606 0.413308 34.1423 0.704642 34.6023 1.28731C35.0776 1.86997 35.3153 2.66731 35.3153 3.67931V7.54331C35.3153 8.70864 35.0163 9.52898 34.4183 10.0043C33.8356 10.4796 33.0229 10.7173 31.9803 10.7173H28.8753V16.6513H24.9653V0.413308ZM28.8753 3.17331V7.86531H30.3473C30.7459 7.86531 31.0449 7.78864 31.2443 7.63531C31.4436 7.48198 31.5586 7.32098 31.5893 7.15231C31.6199 6.96831 31.6353 6.69231 31.6353 6.32431V4.25431C31.6353 3.82497 31.5279 3.54131 31.3133 3.40331C31.0986 3.24997 30.7689 3.17331 30.3243 3.17331H28.8753Z" fill="black"/>
<defs>
<clipPath id="clip0_434_3310">
<rect width="35.5968" height="37.08" fill="white" transform="translate(0.298828 17.8286)"/>
</clipPath>
</defs>
</svg>
