<svg width="60" height="55" viewBox="0 0 60 55" fill="none" xmlns="http://www.w3.org/2000/svg">
<g clip-path="url(#clip0_434_3290)">
<path d="M41.8347 26.16C37.2485 23.0653 31.1703 21.3623 24.7205 21.3623C18.2707 21.3623 12.1925 23.0666 7.60628 26.16C2.894 29.3401 0.298828 33.6086 0.298828 38.1804C0.298828 42.7523 2.894 47.0208 7.6076 50.2009C12.1938 53.2956 18.272 54.9986 24.7218 54.9986C31.1716 54.9986 37.2498 53.2943 41.836 50.2009C46.5483 47.0208 49.1448 42.7523 49.1448 38.1804C49.1448 33.6086 46.5496 29.3401 41.836 26.16H41.8347ZM24.7205 52.8991C12.4131 52.8991 2.40018 46.2961 2.40018 38.1804C2.40018 30.0648 12.4131 23.4618 24.7205 23.4618C37.0279 23.4618 47.0408 30.0648 47.0408 38.1804C47.0408 46.2961 37.0279 52.8991 24.7205 52.8991Z" fill="#1A1A18"/>
<path d="M26.645 37.252L26.6122 37.2704C20.8926 40.5673 15.3989 40.1078 9.32201 35.8261C8.84789 35.4913 8.19253 35.6055 7.85763 36.0795C7.52404 36.5535 7.63699 37.2087 8.11111 37.5435C11.3012 39.7927 14.3206 41.065 17.34 41.4326C17.9362 41.5048 18.5325 41.5416 19.1301 41.5416C21.9669 41.5416 24.8234 40.7236 27.6458 39.1007C32.19 36.6966 36.9482 36.4918 42.1937 38.4731C42.7362 38.6779 43.3429 38.4048 43.5478 37.8613C43.7527 37.319 43.4795 36.7124 42.9358 36.5076C37.1689 34.3293 31.687 34.5788 26.645 37.2533V37.252Z" fill="#1A1A18"/>
<path d="M59.6822 27.708C59.4471 21.8967 56.7127 15.7322 51.7732 9.87886L51.7325 9.8329C47.3971 5.26631 42.8911 2.2438 38.3403 0.848086C36.2376 0.203406 34.1586 -0.0723223 32.161 0.0169613C31.989 -0.0145506 31.8182 -0.00273363 31.662 0.0471601C29.9362 0.177147 28.2775 0.584175 26.7211 1.26693C20.5011 3.99665 16.8185 10.6982 17.3399 18.3398C17.3793 18.9188 17.8823 19.356 18.4602 19.3167C19.0394 19.2773 19.4767 18.7757 19.4373 18.1967C18.9777 11.4492 22.1678 5.55911 27.5669 3.19047C28.5717 2.7493 29.6118 2.44206 30.6783 2.26218C29.7011 8.33084 31.1721 13.0366 35.1555 16.6119C35.975 17.3472 36.9731 17.9735 38.2983 18.5814C40.418 19.5556 42.237 21.5645 44.0192 24.9021C44.2083 25.2566 44.5721 25.4575 44.9464 25.4575C45.1132 25.4575 45.2827 25.4181 45.4403 25.3341C45.9525 25.061 46.1455 24.4242 45.8724 23.9121C43.8616 20.1491 41.734 17.8487 39.1756 16.6723C38.0474 16.1537 37.2161 15.6376 36.5581 15.0481C32.9937 11.8483 31.8038 7.70979 32.8413 2.07442C38.3508 2.03372 44.4303 5.20197 50.1867 11.2575C59.4379 22.2368 60.0867 33.6637 51.877 41.0848C51.4462 41.4734 51.4134 42.1378 51.8021 42.5685C52.0096 42.7982 52.2946 42.9138 52.5822 42.9138C52.8331 42.9138 53.0853 42.8245 53.2862 42.642C57.703 38.6492 59.9146 33.4852 59.6809 27.708H59.6822Z" fill="#1A1A18"/>
</g>
<defs>
<clipPath id="clip0_434_3290">
<rect width="59.4" height="55" fill="white" transform="translate(0.298828)"/>
</clipPath>
</defs>
</svg>
