<svg width="65" height="55" viewBox="0 0 65 55" fill="none" xmlns="http://www.w3.org/2000/svg">
<g clip-path="url(#clip0_434_3323)">
<path d="M64.5324 23.6519H22.918V27.437H27.8686V55H59.5805V27.437H64.5311V23.6519H64.5324ZM57.5352 52.9563H29.9152V27.437H57.5352V52.9563Z" fill="black"/>
<path d="M41.3164 47.1688C44.4009 47.3398 47.8624 45.8686 50.124 43.096C52.9006 39.6396 52.9006 35.3959 50.3642 33.001C46.9718 35.5337 41.4531 40.7356 41.3164 47.1688Z" fill="black"/>
<path d="M37.9559 46.1415C38.4018 46.4159 38.8464 46.62 39.3269 46.7578C39.6348 40.0848 45.1867 34.7119 48.7862 31.9048C45.2225 30.1593 40.1498 31.5284 37.1343 35.2248C34.0153 39.0921 34.359 43.9852 37.9572 46.1415H37.9559Z" fill="black"/>
<path d="M5.33287 15.3911V18.8886H12.865V21.6096H5.33287V25.9818H2.16076V21.6096H0V18.8886H2.16076V15.3911H0V12.5734H2.16076V0H8.13071C10.2941 0 12.1111 0.265067 13.579 0.796525C16.722 1.91113 18.2934 4.10058 18.2934 7.36488C18.2934 9.98241 17.294 11.9744 15.2939 13.3408C13.2937 14.7072 10.4627 15.3911 6.79815 15.3911H5.33154H5.33287ZM5.41118 12.5734H6.85124C9.76985 12.5734 11.8815 12.1361 13.1862 11.2614C14.4895 10.3866 15.1425 9.08781 15.1425 7.36488C15.1425 6.38015 14.9089 5.56772 14.4418 4.92626C13.9746 4.2848 13.2804 3.7825 12.3593 3.42068C11.3466 3.01911 9.8548 2.81766 7.88384 2.81766H5.41251V12.5734H5.41118Z" fill="black"/>
<path d="M36.8027 5.90824C36.3475 5.59679 35.7661 5.78101 35.5047 6.32174C35.2419 6.86115 35.3985 7.55165 35.8524 7.86311L41.691 11.8643H24.1554C23.6311 11.8643 23.2051 12.3692 23.2051 12.9921C23.2051 13.6151 23.6311 14.12 24.1554 14.12H41.691L35.8524 18.1212C35.3985 18.4326 35.2419 19.1231 35.5047 19.6625C35.6812 20.0244 35.9997 20.2271 36.3289 20.2271C36.4895 20.2271 36.6541 20.1781 36.8027 20.0761L47.138 12.9921L36.8027 5.90824Z" fill="black"/>
<path d="M10.8763 46.0381C11.3315 46.3496 11.9129 46.1654 12.1743 45.6246C12.4371 45.0852 12.2805 44.3947 11.8266 44.0833L5.98803 40.0821H23.5236C24.0479 40.0821 24.4739 39.5771 24.4739 38.9542C24.4739 38.3313 24.0479 37.8264 23.5236 37.8264H5.98936L11.8279 33.8252C12.2818 33.5137 12.4384 32.8232 12.1757 32.2838C11.9991 31.922 11.6806 31.7192 11.3514 31.7192C11.1908 31.7192 11.0263 31.7683 10.8776 31.8703L0.541016 38.9556L10.8763 46.0395V46.0381Z" fill="black"/>
</g>
<defs>
<clipPath id="clip0_434_3323">
<rect width="64.5333" height="55" fill="white"/>
</clipPath>
</defs>
</svg>
