<svg width="22" height="22" viewBox="0 0 22 22" fill="none" xmlns="http://www.w3.org/2000/svg">
<path fill-rule="evenodd" clip-rule="evenodd" d="M10.94 21.88C16.982 21.88 21.88 16.982 21.88 10.94C21.88 4.898 16.982 0 10.94 0C4.898 0 0 4.898 0 10.94C0 16.982 4.898 21.88 10.94 21.88ZM10.1794 14.4059L9.98234 14.4902L9.98171 14.4897C9.55399 14.673 9.07576 14.7247 8.6206 14.6463C8.53019 14.6306 8.43791 14.6665 8.39177 14.7361L6.57986 17.4749C6.51564 17.5718 6.56178 17.6958 6.679 17.7404C9.19173 18.7021 13.1073 16.9245 15.3807 13.4882C17.654 10.052 17.4607 6.2051 15.2491 4.78754C15.1462 4.72172 14.9997 4.74891 14.9361 4.8452L13.1242 7.58405C13.078 7.65422 13.0886 7.74126 13.1497 7.80218C13.4546 8.1068 13.6429 8.49411 13.6747 8.90861L13.6897 9.10008C13.8605 11.326 12.4739 13.4213 10.1794 14.4059ZM11.8698 7.04076C11.6285 6.91945 11.5456 6.65019 11.6852 6.43913L13.1536 4.21976C13.2926 4.00925 13.6013 3.9369 13.8432 4.05875L14.4598 4.36935C14.5627 4.42103 14.5976 4.5358 14.5384 4.62556L12.7795 7.28391C12.7203 7.37366 12.5887 7.40413 12.4858 7.35245L11.8704 7.0413L11.8698 7.04076ZM5.06796 16.4399C4.9283 16.651 5.01122 16.9202 5.25252 17.0415L5.86917 17.3521C5.97205 17.4038 6.10361 17.3734 6.16284 17.2836L7.92175 14.6252C7.98098 14.5355 7.94544 14.4207 7.84256 14.369L7.22592 14.0595C6.984 13.9377 6.67536 14.01 6.53632 14.2205L5.06796 16.4399Z" fill="#ECEFFF"/>
</svg>
