<svg width="304" height="281" viewBox="0 0 304 281" fill="none" xmlns="http://www.w3.org/2000/svg">
<g clip-path="url(#clip0_434_814)">
<path d="M61.6854 53.3547C62.7108 52.3629 64.3936 52.2023 65.2732 53.0917C64.1249 52.8522 63.1616 53.5451 62.8295 54.2807C62.4423 55.055 62.4737 55.98 62.7392 56.8394C63.5549 59.7501 65.2602 61.7807 67.4768 63.7653C68.3728 64.5607 69.4693 65.3719 70.7266 65.3207C71.3786 65.2993 72.0376 65.0177 72.4351 64.5162C72.8327 64.0147 72.9472 63.2507 72.6196 62.6902C73.1679 63.0957 73.8394 64.1229 73.9545 64.7915C74.1008 65.6688 73.7529 66.6049 73.1347 67.2614C72.1563 68.2614 70.5992 68.7537 69.0956 68.2779C66.6175 67.3993 64.7278 65.8687 63.1767 63.9522C61.6725 62.0438 60.5875 59.6764 60.4392 57.1534C60.3328 55.8282 60.6899 54.3421 61.7279 53.3331L61.6854 53.3547Z" fill="#1A1A18"/>
<path d="M85.7533 50.4205C85.1183 50.4547 84.5505 50.3264 84.0639 50.2316C83.5602 50.1242 83.0774 49.9526 82.5775 49.7684C80.65 49.0055 78.9197 47.7254 77.5919 46.0802C76.9344 45.249 76.3746 44.3575 75.9422 43.4011C75.5269 42.4574 75.1275 41.3133 75.243 40.0462C75.3586 38.7792 76.0711 37.5294 77.2869 36.9968C77.9205 36.7495 78.5815 36.7877 79.103 37.0143C79.6245 37.241 80.0624 37.7241 80.1508 38.2138C79.3963 37.5496 78.3834 37.808 78.0239 38.2581C77.5876 38.7044 77.4687 39.4385 77.5749 40.0475C77.8088 41.3079 78.8847 42.8994 79.8862 44.1973C80.9518 45.516 82.2083 46.6842 83.6385 47.6892C84.332 48.1492 85.1842 48.7531 85.7952 48.9664C86.1155 49.0708 86.3674 49.1245 86.5836 48.9398C86.7827 48.7423 86.9925 48.2079 86.5261 47.9425C86.79 47.8725 87.0939 48.0708 87.2406 48.3384C87.3872 48.606 87.4191 48.9213 87.3488 49.2671C87.2912 49.5958 86.9653 49.9647 86.6977 50.1114C86.4047 50.2925 86.0514 50.3759 85.7361 50.4079L85.7533 50.4205Z" fill="#1A1A18"/>
<path d="M174.238 114.527C174.452 114.023 174.808 113.65 175.245 113.416C175.683 113.183 176.228 113.162 176.571 113.416C175.767 113.643 175.588 114.386 175.672 114.846C175.752 115.276 176.116 115.679 176.541 116.072C177.501 116.889 178.674 117.703 179.833 118.322C180.993 118.941 182.279 119.495 183.535 119.841C184.816 120.152 186.122 120.429 187.579 119.677C187.35 120.488 186.655 121.141 185.865 121.564C185.053 121.945 184.185 122.151 183.302 122.162C181.555 122.195 179.915 121.724 178.409 120.928C176.899 120.103 175.639 119.012 174.678 117.479C174.196 116.698 173.835 115.609 174.233 114.498L174.238 114.527Z" fill="#1A1A18"/>
<path d="M150.625 105.918C144.355 108.731 135.972 103.007 136.719 99.1305C137.047 97.862 138.11 97.3219 138.777 97.603C138.059 98.0001 138.016 98.738 138.164 99.2188C138.529 100.231 141.725 102.038 142.67 102.552C143.881 103.209 148.172 105.005 150.612 105.935L150.625 105.918Z" fill="#1A1A18"/>
<path d="M181.343 100.981C182.413 101.614 183.435 102.238 184.5 102.733C185.569 103.259 186.663 103.644 188.097 103.856C187.024 104.84 185.368 105.179 183.892 104.989C182.403 104.815 181.022 104.245 179.837 103.554C179.251 103.2 178.66 102.816 178.142 102.406C177.611 102.013 176.934 101.459 176.472 100.613C176.011 99.7682 175.901 98.6263 176.518 97.7567C177.177 96.8654 178.456 96.8567 178.836 97.5619C178.106 97.473 177.726 98.0938 177.818 98.4002C177.854 98.7453 178.087 99.0762 178.378 99.2917C178.686 99.5198 179.118 99.7599 179.683 100.072C180.248 100.383 180.8 100.712 181.347 101.011L181.343 100.981Z" fill="#1A1A18"/>
<path d="M209.606 122.368C208.646 121.551 207.898 120.52 207.379 119.394C207.111 118.824 206.816 117.969 207.177 117.123C207.425 116.644 207.82 116.432 208.225 116.387C208.613 116.329 209.057 116.552 209.094 116.897C208.533 116.615 208.163 117.295 208.291 117.444C208.349 117.725 208.606 118.021 208.95 118.381C209.675 119.157 210.396 119.902 211.168 120.579C211.939 121.256 212.753 121.911 213.635 122.511C214.509 123.157 215.446 123.718 216.478 124.402C215.256 124.691 214.002 124.559 212.819 124.188C211.636 123.816 210.536 123.188 209.589 122.355L209.606 122.368Z" fill="#1A1A18"/>
<path d="M198.286 107.389L202.664 110.071C212.762 109.107 224.419 123.592 221.48 129.321L222.712 130.737C223.734 130.538 224.703 130.698 225.579 130.948C228.168 131.855 235.546 137.791 237.455 141.59C238.284 143.264 238.909 145.106 238.952 147.126C238.92 148.137 238.706 149.251 238.051 150.172C237.413 151.106 236.466 151.705 235.44 151.981C235.338 152.011 235.249 152.025 235.159 152.038C235.336 152.301 235.512 152.564 235.689 152.827C236.952 154.345 237.969 156.052 238.756 157.855C239.339 157.676 239.991 157.654 240.58 157.825C241.87 158.196 242.873 159.097 243.693 159.996C245.393 161.783 246.643 163.928 247.616 166.16C248.075 167.295 248.475 168.439 248.776 169.643C249.031 170.84 249.316 172.032 249.197 173.375C249.181 173.576 249.152 173.794 249.094 174.016C249.087 174.169 249.079 174.323 249.072 174.476C248.915 175.262 248.473 176.181 247.64 176.626C246.875 177.015 245.797 177.039 245.07 176.661C245.965 177.959 246.678 179.468 247.228 180.91C247.482 181.283 247.723 181.674 247.935 182.069C248.461 183.041 248.864 184.109 249.131 185.181C250.854 187.225 252.468 190.382 253.238 193.497C253.576 195.047 253.843 196.729 253.193 198.396C252.372 200.15 250.945 200.181 250.591 200.158C251.46 202.207 251.851 204.617 251.937 206.829C252.489 209.703 252.085 212.614 251.405 214.286C250.796 215.718 249.842 216.577 248.733 217.002L248.911 218.302C249.477 218.72 250.047 219.274 250.533 219.979C253.853 222.408 253.563 230.468 251.146 234.488C250.698 235.164 250.161 235.748 249.533 236.238C249.193 236.517 248.816 236.742 248.476 236.915C248.158 237.236 247.75 237.465 247.299 237.609L247.236 239.127L246.853 239.108C250.512 239.322 249.362 250.91 243.979 251.807L243.937 253.155C244.054 253.534 244.185 254.002 244.188 254.535C244.886 255.634 244.415 257.381 244.172 258.606C242.56 264.654 239.319 263.768 238.827 263.537C237.158 267.872 234.865 271.903 231.673 275.429C230.877 276.219 228.941 278.872 226.373 278.616C225.384 278.52 224.436 277.687 224.404 275.939C225.528 256.324 225.783 261.498 225.012 253.688C223.489 238.081 220.597 220.958 214.477 206.512C208.158 191.654 200.174 181.663 184.092 170.508C144.251 143.129 113.367 150.621 68.626 135.741C42.1691 126.857 7.05768 108.493 12.3986 75.5811C13.6875 63.0889 19.7366 52.368 28.2237 43.5831C33.3591 35.3156 40.5586 28.522 49.3253 24.1608C53.4813 22.0904 58.2558 20.0798 63.0065 20.3589C65.6035 20.5033 68.8214 21.7435 70.9575 23.8011C72.0203 24.6934 72.7903 25.7669 73.2024 26.8939C74.9037 26.9591 76.1942 27.4364 77.7714 28.0994C81.4354 29.7757 84.5169 32.347 87.0428 35.3825C89.4152 38.4106 91.5669 41.5936 93.2519 45.1209C94.0519 46.9061 94.7416 48.7688 95.1167 50.7701C95.315 51.792 95.4157 52.8742 95.3502 53.9661C97 55.3193 98.6923 56.6508 100.457 57.9563C101.441 57.8089 102.442 57.7808 103.462 57.8719C106.495 58.2863 109.149 59.2148 111.832 60.2454C117.025 62.3633 124.164 66.1862 126.524 71.2735C127.436 72.4782 127.95 73.5747 128.333 74.8128C129.864 75.5741 131.412 76.3481 132.969 77.0751C133.826 76.4895 134.757 76.0909 135.732 75.8839C138.385 74.7702 142.031 75.7176 144.795 76.5686C151.873 78.7548 160.188 84.5351 160.291 84.6112C162.107 85.9546 163.616 87.9994 164.442 90.4666C166.515 91.284 168.57 92.0886 170.638 92.8761C172.072 92.3719 177.027 91.2639 182.963 93.6666C183.331 93.7793 183.711 93.8748 184.078 93.9874C187.274 95.0785 190.286 96.7763 192.908 98.9286C195.467 101.167 198.585 104.083 198.266 107.453L198.286 107.389ZM219.41 128.214C219.455 128.009 219.488 127.821 219.551 127.629C219.655 126.592 219.388 125.413 218.92 124.218C218.492 123.398 218.035 122.583 217.493 121.81C216.186 119.994 214.615 118.355 212.892 116.815C209.783 114.065 207.969 112.325 203.779 112.328C203.26 112.527 202.801 112.824 202.51 113.219C201.795 114.149 201.729 115.85 202.335 117.253C202.954 118.745 204.165 120.119 205.292 121.641C203.577 120.877 201.904 119.878 200.717 118.151C200.484 117.82 200.29 117.437 200.143 117.063C200.178 117.302 200.244 117.536 200.309 117.77C200.755 119.425 201.622 121.048 202.616 122.606C203.167 123.438 203.778 124.261 204.401 125.067C204.572 125.087 204.742 125.107 204.9 125.144C206.71 125.529 208.361 126.272 209.859 127.221C209.979 127.31 210.098 127.399 210.218 127.487C210.629 127.685 211.022 127.87 211.42 128.085C211.071 127.482 210.747 126.844 210.483 126.198C212.169 127.79 213.859 129.518 215.758 129.889C216.715 130.065 217.665 129.999 218.319 129.581C218.641 129.396 218.895 129.053 219.14 128.757C219.22 128.578 219.317 128.411 219.414 128.244L219.41 128.214ZM219.624 135.162C219.577 134.437 219.657 133.648 219.99 132.913C220.187 132.395 220.571 131.911 221.029 131.507L220.402 130.778C220.11 131.066 219.783 131.328 219.384 131.51C218.529 131.912 217.643 131.999 216.795 131.928C217.824 132.902 218.79 133.961 219.65 135.128L219.624 135.162ZM228.107 146.45C228.385 146.576 228.633 146.706 228.911 146.832C228.872 146.777 228.846 146.705 228.807 146.649C228.134 146.019 227.529 145.332 227.051 144.581C227.012 144.526 227.088 144.423 227.127 144.478C228.983 146.09 230.97 147.56 233.29 148.401C236.773 149.678 237.994 149.282 236.517 144.9C235.445 141.906 233.531 139.297 231.151 137.139C229.98 136.034 228.721 135.049 227.381 134.137C226.695 133.63 226.126 133.289 225.46 133.114C224.811 132.952 224.193 132.999 223.744 133.356C222.781 134.156 222.566 135.88 222.9 137.399C223.27 139.371 224.52 142.125 225.922 144.064C224.379 142.71 223.132 140.992 222.284 139.092C221.501 137.319 220.711 135.091 221.776 132.935C221.572 133.102 221.373 133.3 221.23 133.565C220.685 134.409 220.56 135.509 220.58 136.665C220.956 137.34 221.318 138.033 221.596 138.768C221.791 139.364 221.974 139.977 222.097 140.598C222.141 140.683 222.171 140.785 222.231 140.883C223 142.459 223.897 143.971 224.802 145.543C225.992 145.654 227.111 146.004 228.107 146.45ZM222.388 143.359C222.389 143.572 222.391 143.785 222.379 144.016C222.302 144.621 222.178 145.219 221.977 145.813C222.122 145.761 222.266 145.709 222.428 145.669C223.092 145.524 223.74 145.473 224.384 145.498C223.634 144.864 222.994 144.152 222.418 143.354L222.388 143.359ZM234.465 153.514C232.409 150.56 230.749 148.934 226.432 147.889C224.933 148.053 223.873 149.019 223.362 150.391C222.145 153.469 223.832 156.6 224.809 159.471C220.149 154.591 220.662 150.171 222.881 147.888C222.286 148.084 221.785 148.402 221.348 148.849C217.187 153.435 223.05 163.712 226.913 168.559C221.347 164.653 216.083 156.145 218.043 149.984C215.339 151.06 212.7 149.611 210.171 148.191C214.081 148.962 216.625 150.181 219.089 146.886C215.157 149.228 211.074 146.791 208.064 143.371C210.408 144.574 212.757 145.914 215.05 145.86C217.705 145.782 219.172 144.374 219.431 142.339C220.21 137.452 213.978 131.436 210.23 128.583C209.05 128.028 207.27 127.03 203.838 127.727C200.803 128.319 199.759 130.411 200.267 133.306C200.506 134.703 201.138 136.178 201.604 137.77C199.398 135.951 197.762 133.575 197.992 130.721C196.068 136.618 201.589 143.38 206.481 147.159C203.246 145.906 200.367 143.67 198.175 140.828C192.519 133.568 195.617 125.331 202.145 124.856C200.389 122.894 199.016 120.951 198.139 118.339C197.224 115.275 197.494 112.08 200.328 110.65L197.747 109.086C197.162 110.27 195.701 111.815 194.401 112.498C193.314 113.072 192.117 113.327 190.898 113.327C194.202 115.957 198.228 120.368 196.505 124.238C195.99 133.642 181.344 136.705 168.631 126.371C160.671 119.607 163.388 108.41 170.428 106.776C168.35 105 166.311 102.775 165.858 100.054C165.681 98.9681 165.797 97.8077 166.213 96.8157C166.569 95.8327 167.25 94.9839 167.983 94.2798C167.043 93.9024 166.107 93.5549 165.167 93.1775C165.349 94.2933 165.296 95.4747 164.886 96.603C164.266 98.3723 162.682 99.9051 160.345 100.484C166.493 108.692 161.267 118.086 152.22 119.959C147.218 121.059 141.444 119.333 141.303 119.308C125.664 114.899 118.37 102.184 125.861 93.5632C126.791 91.0159 128.363 90.2165 129.819 89.2516C130.265 88.9714 130.732 88.7338 131.209 88.5558C129.136 85.6962 128.812 81.7973 131.129 78.7375C130.342 78.3677 129.585 77.9933 128.811 77.6064C128.993 82.7 125.584 86.3044 121.225 87.323C125.013 94.4216 122.033 102.427 114.212 105.26C108.913 107.227 102.865 106.731 97.2469 104.829C144.708 126.494 206.979 128.963 232.585 181.533C232.031 178.233 232.08 174.583 234.525 172.281C232.186 172.54 230.001 171.48 228.858 169.945C231.206 171.894 234.701 171.828 236.724 170.062C232.865 171.371 230.074 168.193 228.405 164.465C229.873 166.028 231.294 167.69 233.077 168.398C234.76 169.061 236.987 168.666 237.545 167.196C238.324 165.677 237.928 163.13 237.696 161.473C237.58 160.698 237.418 159.914 237.268 159.114C237.228 158.952 237.206 158.803 237.184 158.654C236.473 156.855 235.576 155.131 234.453 153.531L234.465 153.514ZM170.684 121.445C169.472 120.575 168.374 119.551 167.42 118.368C166.793 117.639 166.246 116.73 165.852 115.722C165.904 116.583 166.029 117.418 166.273 118.235C166.991 120.596 168.437 122.727 170.36 124.176C172.442 125.769 174.663 127.174 177.048 128.143C179.395 129.163 181.966 129.845 184.465 130.049C186.965 130.254 189.511 129.858 191.64 128.7C192.587 128.208 193.346 127.47 193.928 126.575C192.793 127.034 191.622 127.255 190.471 127.306C189.018 127.371 187.538 127.257 186.175 126.806C187.6 126.959 189.006 126.778 190.351 126.501C191.692 126.193 193.023 125.719 193.99 124.95C194.508 124.537 194.829 124.032 194.974 123.476C194.986 123.246 195.027 123.011 195.008 122.786C195.011 122.602 194.997 122.406 194.988 122.24C194.962 122.168 194.965 122.091 194.939 122.019C194.651 120.904 193.923 119.808 193.073 118.808C191.321 116.876 189.06 115.203 186.736 113.829C184.383 112.459 181.899 111.337 179.29 110.6C177.983 110.217 176.672 109.91 175.328 109.685C173.984 109.46 172.687 109.349 171.486 109.468C170.284 109.587 169.247 109.986 168.57 110.758C167.901 111.483 167.597 112.611 167.668 113.804C167.727 115.015 168.224 116.099 168.973 117.236C169.675 118.365 170.577 119.404 171.58 120.305C173.566 122.172 176.022 123.618 178.764 124.426C175.894 124.292 173.073 123.16 170.654 121.45L170.684 121.445ZM127.71 94.8254C126.915 101.132 133.516 105.432 136.827 108.015C129.442 106.317 125.762 101.473 125.435 97.0408C120.554 111.092 149.734 124.538 158.853 113.25C153.916 115.91 146.315 114.397 142.507 111.66C147.489 113.992 158.153 114.376 159.597 108.947C162.451 98.5679 132.031 82.5344 127.723 94.8083L127.71 94.8254ZM138.072 87.8783C135.245 85.787 131.793 82.5702 132.743 79.1359C131.057 81.5221 131.239 84.6801 133.061 86.8762C133.349 87.275 133.851 87.779 133.941 87.8721C135.3 87.6839 136.707 87.717 138.072 87.8783ZM51.2016 51.7242C50.9077 49.7564 50.7794 47.6725 51.4439 45.5917C51.6695 44.8568 52.0358 44.1466 52.5221 43.5251C52.4371 43.5683 52.335 43.5988 52.25 43.6421C50.601 44.4377 49.1546 45.5688 48.2176 47.0503C47.656 47.8812 47.2656 48.8389 46.9989 49.8085C47.1821 52.4634 47.6253 55.1251 48.3451 57.6996C49.5153 62.066 51.3028 66.279 53.7611 70.0867C54.3902 71.1355 55.0916 72.1582 55.8056 73.1638C58.0376 75.5576 60.6506 77.5437 63.5406 78.833C65.1781 79.5936 66.9202 80.0337 68.6774 80.1668C69.5604 80.2631 70.4377 80.1165 71.3029 80.0936C72.1459 79.9216 73.0275 79.8048 73.7968 79.4457C74.1159 79.3369 74.426 79.1686 74.7234 79.0173C72.6541 78.7329 70.8541 77.9052 69.1854 76.9359C67.478 75.9114 65.9145 74.7283 64.4695 73.4206C63.0373 72.0959 61.6938 70.6511 60.6731 69.0209C61.957 70.4745 63.4482 71.6838 64.9856 72.7947C66.5358 73.8884 68.162 74.8793 69.8636 75.6608C71.5481 76.4296 73.3512 77.0739 75.0481 77.1094C75.888 77.1207 76.6929 77.0001 77.3258 76.6463C77.6784 76.4563 77.9752 76.1985 78.2206 75.9026C78.4742 75.5598 78.6637 75.1961 78.8659 74.8153C79.4495 73.4172 79.5877 71.6896 79.5299 69.976C79.429 68.1776 79.1618 66.3887 78.5965 64.6445C77.5427 61.1599 75.7823 57.842 73.585 54.864C71.4257 51.8345 68.8378 49.0978 65.9791 46.6912C64.5348 45.4902 63.0994 44.3488 61.5431 43.6217C60.7735 43.2646 59.9792 43.0482 59.2072 42.981C58.465 42.9093 57.5706 43.0432 56.7619 43.2406C55.149 43.6651 53.9023 44.7053 53.2686 46.2785C52.6178 47.8391 52.5189 49.7285 52.6415 51.5695C52.8828 55.3282 53.9723 59.0514 54.9849 62.7708C53.364 59.2644 51.8661 55.6634 51.2016 51.7242ZM83.2734 61.3683C82.0135 60.9931 80.8543 60.3743 79.7839 59.6354C80.3978 60.9913 80.9014 62.4247 81.2985 63.8588C81.8353 65.8206 82.0956 67.8696 82.1256 69.9073C82.0981 70.9478 82.0662 71.9584 81.8852 72.9914C81.6744 74.0289 81.3742 75.0797 80.8265 76.1067C80.6325 76.4405 80.4043 76.749 80.1463 77.062C80.041 77.2759 79.9485 77.4727 79.8262 77.6739C78.6699 79.5235 76.8975 81.0235 74.887 81.9495C71.3342 83.6704 67.3048 83.5272 63.7127 82.4345C70.8825 89.7276 79.2023 95.5378 88.2196 100.405C83.3605 97.1553 79.7151 93.0529 78.5914 89.3044C77.9601 87.2196 78.0479 84.9509 78.7132 82.9766C79.374 80.9726 80.5309 79.2295 81.95 77.813C81.9754 77.7787 82.0007 77.7444 82.0559 77.7057C82.0977 77.5775 82.1566 77.462 82.2029 77.3636C82.6738 76.3329 83.4061 75.5221 84.1645 74.7837C84.9698 74.0534 85.9382 73.4969 86.9334 73.1192C88.3794 72.5978 89.832 72.426 91.2644 72.4248C90.2779 70.8199 89.4772 68.9281 89.4726 66.856C89.4531 65.8074 89.6766 64.7528 90.0372 63.7996C90.2603 63.3547 90.4491 62.8844 90.6893 62.4522C90.9937 62.0408 91.2294 61.5788 91.5896 61.2352C92.9395 59.6614 94.9119 58.7868 96.773 58.4928C96.9391 58.4832 97.0882 58.4608 97.2544 58.4512C96.4276 57.813 95.6306 57.1704 94.8165 56.515C94.7746 56.6432 94.7328 56.7714 94.691 56.8996C94.4597 57.3915 94.2112 57.8707 93.9627 58.3498L92.9648 59.6271C92.2198 60.455 91.2559 61.0414 90.2436 61.4064C88.6656 61.9628 87.029 62.025 85.4798 61.7541C84.7294 61.7294 83.9612 61.5854 83.2436 61.3728L83.2734 61.3683ZM84.5549 78.5201C81.4212 84.4761 93.9875 93.7194 100.217 96.5508C93.4874 94.8612 82.7998 88.095 81.6883 81.5709C78.9219 87.6395 82.6937 92.1801 88.1202 96.168C91.0156 98.31 94.2578 100.019 97.659 101.262C105.437 104.258 116.116 104.335 119.779 97.126C117.621 99.0038 114.359 99.6142 111.576 99.0405C113.414 99.1005 115.197 98.6962 116.787 97.9094C118.984 96.8031 120.277 95.0549 120.447 93.0328C119.029 87.8197 112.291 84.0282 107.385 81.5929C97.9419 76.7283 87.6979 72.0141 84.5549 78.5201ZM241.413 172.789C241.953 173.241 242.451 173.715 242.91 174.241C242.746 173.854 242.598 173.48 242.476 173.071C243.324 174.255 244.222 175.477 245.431 175.814C245.973 175.977 246.532 175.939 246.944 175.74C247.571 175.143 247.864 174.246 247.837 173.351C247.804 172.319 247.499 171.191 247.168 170.098C246.837 169.004 246.464 167.932 246.001 166.874C245.122 164.765 244.014 162.752 242.655 160.898C241.971 159.994 241.262 159.125 240.309 158.658C239.928 158.456 239.441 158.362 238.985 158.369C239.375 159.347 239.693 160.351 239.951 161.364C240.287 162.7 240.452 164.413 240.456 164.443C240.526 164.097 240.704 161.922 242.903 163.787C243.306 164.138 243.615 164.473 243.988 164.828C242.944 164.771 240.536 162.937 242.599 168.176C242.841 168.78 243.263 169.463 243.706 170.083C243.922 170.401 244.149 170.702 244.398 170.939C244.647 171.176 244.946 171.345 245.337 171.104C245.257 171.283 245.114 171.548 244.846 171.589C244.599 171.671 244.305 171.639 244.095 171.564C243.617 171.422 243.244 171.173 242.872 170.924C242.178 170.358 241.543 169.782 241.077 168.907C240.715 168.214 240.514 167.482 240.403 166.737C240.304 167.301 240.111 167.848 239.867 168.357C240.298 169.709 240.826 171.002 241.44 172.358C240.493 171.631 239.716 170.711 239.091 169.692C238.774 170.121 238.406 170.511 237.986 170.863C237.863 170.958 237.74 171.053 237.63 171.13C239.182 171.218 240.406 171.964 241.434 172.725L241.413 172.789ZM252.517 196.73C252.523 195.753 252.317 194.778 252.098 193.82C251.756 192.348 251.252 190.914 250.744 189.451C250.237 188.094 249.746 186.75 249.162 185.39C249.377 186.318 249.532 187.255 249.573 188.24C249.584 188.726 249.536 189.22 249.458 189.72C249.463 190.466 249.408 191.221 249.17 191.973C249.045 192.357 248.872 192.734 248.666 193.085C248.687 193.127 248.709 193.17 248.718 193.229C249.012 193.871 249.297 194.56 249.658 195.039C249.719 195.137 249.792 195.217 249.831 195.273C249.889 195.157 249.969 194.977 249.99 194.807C250.122 194.162 250.186 193.467 249.968 192.722C250.619 193.204 250.901 194.076 250.902 194.899C250.904 195.112 250.905 195.325 250.834 195.564C250.776 195.786 250.68 196.06 250.37 196.335C249.959 196.64 249.395 196.435 249.202 196.266C248.979 196.101 248.799 195.915 248.695 195.732C248.325 195.193 248.104 194.632 247.943 194.062C247.905 194.113 247.854 194.182 247.816 194.233C247.443 194.594 247.027 194.869 246.59 195.103C246.676 195.273 246.775 195.425 246.891 195.591C247.907 196.475 248.748 197.309 249.704 198.096C249.841 198.197 252.51 201.074 252.517 196.73ZM243.113 194.679C244.405 194.866 245.763 194.465 246.734 193.618C246.47 193.688 246.201 193.728 245.958 193.734C244.658 193.7 243.648 193.059 242.888 192.258C242.141 191.441 241.696 190.501 241.311 189.553C242.032 190.299 242.68 191.07 243.477 191.606C244.213 192.151 245.17 192.435 245.903 192.34C246.082 192.314 246.256 192.257 246.383 192.192C246.511 192.127 246.647 192.016 246.795 191.887C247.075 191.616 247.269 191.282 247.424 190.893C247.739 190.145 247.844 189.215 247.812 188.29C247.762 186.423 247.353 184.503 246.673 182.7C245.975 180.884 245.017 179.168 243.809 177.505C243.895 177.568 243.98 177.632 244.049 177.682C242.575 175.876 240.527 174.202 238.966 175.487C237.127 176.54 237.003 179.073 237.491 181.423C237.983 183.803 238.927 186.146 239.834 188.54C238.282 186.517 236.929 184.296 236.142 181.778C235.741 180.527 235.507 179.16 235.672 177.718C235.825 176.293 236.698 174.79 237.968 174.006C238.121 173.907 238.273 173.808 238.456 173.704L239.035 173.495C239.222 173.422 239.413 173.378 239.622 173.347C238.883 173.091 238.149 172.973 237.506 173.054C237.011 173.113 236.651 173.35 236.29 173.587C235.972 173.908 235.646 174.277 235.432 174.782C234.931 175.71 234.729 176.807 234.706 177.984C234.594 180.394 234.942 182.826 235.588 185.213C235.797 185.898 236.006 186.583 236.274 187.26L237.088 188.418C237.715 189.254 238.339 190.059 239 190.814C239.678 191.581 240.382 192.314 241.116 193.042C241.652 193.571 242.231 194.079 242.814 194.617C242.908 194.633 242.989 194.667 243.083 194.683L243.113 194.679ZM237.682 191.987C237.054 191.258 236.525 190.468 236.123 189.614C236.414 190.439 236.756 191.302 237.056 192.187C238.059 195.024 238.9 197.9 239.669 200.803C239.728 200.687 239.769 200.559 239.841 200.427C239.899 200.204 239.941 199.97 240.011 199.73C240.4 198.56 241.097 197.404 242.23 196.624C242.671 196.314 243.203 196.098 243.701 195.962C242.312 195.545 241.093 194.829 239.97 193.945C239.114 193.418 238.36 192.754 237.699 191.999L237.682 191.987ZM247.028 216.404C246.763 216.261 246.506 216.071 246.296 215.889C245.725 215.334 245.282 214.715 244.992 213.996C244.706 213.308 244.561 212.537 244.662 211.79C245.063 212.431 245.408 213.004 245.795 213.556C246.195 214.091 246.62 214.591 247.096 215.022C247.542 215.459 248.06 215.762 248.572 215.823C248.789 215.851 249.04 215.798 249.274 215.732C250.317 214.753 250.653 213.331 250.891 211.863C251.059 210.847 251.134 209.815 251.131 208.779C250.941 207.604 250.72 206.433 250.457 205.283C249.792 202.67 249.503 202.165 249.224 201.719C248.784 201.023 248.222 200.421 247.588 199.952C246.929 199.517 246.228 199.211 245.588 199.215C244.945 199.19 244.452 199.462 244.059 199.993C243.26 201.073 243.105 202.894 242.992 204.588C242.926 206.289 243.065 208.036 243.362 209.821C242.372 208.293 241.798 206.489 241.599 204.644C241.49 203.715 241.489 202.786 241.589 201.826C241.684 201.339 241.702 200.849 241.904 200.361L242.176 199.635C242.294 199.404 242.455 199.151 242.602 198.916C243.257 197.995 244.519 197.364 245.654 197.514C245.778 197.526 245.876 197.572 245.983 197.571C245.902 197.538 245.803 197.491 245.709 197.475C244.851 197.238 243.701 197.395 242.881 197.822C242.006 198.289 241.261 199.117 240.751 200.092C240.629 200.293 240.541 200.52 240.436 200.734C239.762 204.081 240.069 207.464 241.321 210.538C242.062 212.439 243.122 214.231 244.656 215.418C245.272 215.875 246.025 216.219 246.802 216.423C246.849 216.431 246.926 216.435 246.973 216.443L247.028 216.404ZM247.667 217.726L247.614 217.368C245.876 217.567 243.987 216.86 242.538 215.522C242.713 216.898 242.845 218.296 242.96 219.681C244.253 217.826 245.988 217.2 247.637 217.73L247.667 217.726ZM243.748 230.261C244.071 232.728 244.617 236.791 247.08 236.041C248.139 235.685 249.169 234.723 249.772 233.657C250.358 232.579 250.767 231.237 250.997 229.922C251.258 228.603 251.36 227.247 251.326 225.895C251.26 223.619 250.608 220.273 248.332 220.446C247.409 220.691 246.543 221.217 245.997 221.954C245.029 223.227 245.021 225.209 244.754 226.788C243.318 222.995 244.907 220.166 247.569 219.722C247.769 219.631 247.973 219.57 248.194 219.521C245.896 218.113 244.196 220.197 243.445 222.824C243.052 224.071 242.852 225.382 242.715 226.713C242.475 229.081 242.212 231.406 242.994 233.682C243.211 234.32 243.641 234.85 243.986 235.423C243.8 233.668 243.503 231.99 243.756 230.214L243.748 230.261ZM246.15 237.873C245.536 237.843 244.917 237.676 244.377 237.33C244.073 237.132 243.795 236.899 243.554 236.615C243.536 237.715 243.516 238.602 243.463 239.677C245.206 238.288 245.78 238.766 246.114 238.96L246.15 237.873ZM243.305 250.354C243.553 250.484 243.89 250.495 244.273 250.407C244.494 250.359 244.724 250.263 244.936 250.155C246.021 249.155 247.484 247.93 247.845 245.041C248.452 240.637 246.958 240.22 246.122 240.239C245.44 240.265 244.77 240.777 244.625 241.439C244.6 241.579 244.383 241.551 244.39 241.398C244.475 240.638 244.927 239.991 245.62 239.735C245.339 239.686 245.006 239.705 244.7 239.797C244.628 239.823 244.572 239.861 244.5 239.888C244.047 240.321 243.748 240.976 243.361 241.75C242.995 242.567 242.677 243.498 242.496 244.425C242.284 245.356 242.149 246.29 242.164 247.202C242.148 248.119 242.265 249.001 242.64 249.676C242.726 249.846 242.833 249.952 242.932 250.105C243.052 250.194 243.147 250.317 243.275 250.358L243.305 250.354ZM239.83 262.396C240.023 262.459 240.253 262.47 240.487 262.405C242.602 261.768 243.219 258.246 243.463 256.411C243.491 256.087 243.518 255.763 243.448 255.499C243.379 255.235 243.262 254.963 243.142 254.874C242.923 254.633 242.174 254.928 241.674 255.353C241.127 255.77 240.627 256.303 240.282 256.949C240.354 256.206 240.772 255.534 241.262 254.942C241.508 254.647 241.804 254.389 242.182 254.165C242.408 254.039 242.727 253.931 243.063 253.941C242.754 253.5 242.3 253.217 241.921 253.228C241.447 253.223 240.887 253.657 240.435 254.304C239.979 254.921 239.617 255.661 239.319 256.422C238.871 257.602 238.607 258.998 238.657 260.255C238.684 261.044 239.079 262.158 239.848 262.409L239.83 262.396ZM35.0695 42.1767C18.3883 60.8912 -7.84731 104.202 70.0439 131.46C90.0911 137.937 109.431 140.389 123.428 142.682C123.569 142.707 129.923 143.721 129.517 143.66C156.509 148.167 187.753 163.086 204.996 183.745C223.191 205.877 226.778 235.714 227.47 264.019C227.314 272.973 225.834 278.986 228.808 276.651C229.508 276.135 230.082 275.287 230.756 274.591C233.815 270.994 236.017 266.762 237.537 262.343C237.683 261.895 236.911 259.892 236.945 259.201C237.055 256.259 238.623 254.926 239.84 252.458C241.578 248.89 244.49 220.838 234.331 193.327C229.412 179.981 221.411 168.042 210.804 158.551C200.656 149.479 188.651 142.773 176.221 137.396C163.268 131.792 149.783 127.517 136.332 123.268C123.056 119.069 109.716 114.956 96.872 109.564C84.938 104.555 73.3117 98.3404 63.5755 89.679C60.956 87.3434 58.7353 84.7193 56.2642 82.2547C46.1086 72.0102 41.0223 57.8515 42.5663 43.9038C43.2468 38.9706 44.8052 33.9974 47.8103 29.9352C43.4064 33.9173 39.0794 37.9031 35.112 42.1551L35.0695 42.1767ZM66.8029 24.7586C64.9529 24.1061 62.9826 23.9745 61.0441 24.1581C59.0412 24.9306 57.1037 25.9371 55.3851 27.1852C54.477 27.8393 53.6203 28.5316 52.8791 29.2827C52.5062 29.6434 52.155 30.0465 51.8931 30.4362C51.6015 30.8305 51.315 31.3611 51.0196 31.8321C48.6734 35.6126 47.4009 39.9486 47.0284 44.3937C47.0253 44.577 47.0095 44.7775 46.9893 44.9482C48.298 43.6091 49.9248 42.6644 51.6004 42.0477C52.8512 41.647 54.1115 41.4125 55.3815 41.3442C55.6237 41.2317 55.8533 41.1363 56.1 41.0537C57.151 40.7438 58.1811 40.4981 59.3578 40.52C60.5047 40.5463 61.6022 40.8544 62.5939 41.2697C63.812 41.7731 64.8862 42.4352 65.8926 43.1532C65.5263 42.5374 65.1727 41.9045 64.8445 41.2374C64.0572 39.435 63.5419 37.5157 63.5246 35.4608C63.5096 34.4419 63.669 33.3665 64.0803 32.3447C64.4617 31.3275 65.1845 30.3505 65.9346 29.659C67.1337 28.504 68.6589 27.6964 70.289 27.2846C69.3656 26.2036 68.3839 25.3448 66.8245 24.8011L66.8029 24.7586ZM90.7062 46.3404C89.0873 43.1538 87.013 40.0811 84.7314 37.2528C84.5467 37.0366 84.3791 36.8331 84.1945 36.6169C82.9633 35.4144 81.7113 34.276 80.4257 33.2189C78.9777 32.0946 77.4916 31.0218 75.9575 30.4438C75.1968 30.1462 74.454 29.9679 73.8234 30.0319C73.1929 30.0958 72.6957 30.338 72.2341 30.8186C71.7554 31.2866 71.3331 31.9289 70.9928 32.7115C70.6652 33.4768 70.4739 34.237 70.3639 35.0308C70.1438 36.6183 70.5511 38.3252 71.0612 40.1081C72.1366 43.6352 73.7271 47.0395 75.7558 50.3172C72.7943 47.8346 70.4585 44.542 68.9092 40.9029C68.1092 39.1177 67.4778 37.0329 67.5873 34.8066C67.6357 33.702 67.9441 32.6042 68.3427 31.5996C68.4853 31.2277 68.6875 30.8469 68.8897 30.4661C68.4096 30.7209 67.934 31.0055 67.5142 31.3579C66.8655 31.9123 66.4255 32.4354 66.0762 33.1583C65.7397 33.8641 65.57 34.6668 65.4987 35.5157C65.356 37.2135 65.6701 39.0106 66.2265 40.6951C66.7264 42.2053 67.4729 43.6327 68.3343 45.0125C71.2057 47.4019 73.8063 50.1215 76.0297 53.1718C76.679 54.05 77.256 54.9542 77.8247 55.9054C78.1249 56.1805 78.4079 56.4429 78.7081 56.718C79.342 57.1869 79.9587 57.6432 80.5882 58.0823C81.2392 58.564 81.8985 58.9986 82.5533 59.4035C83.2119 59.7316 83.9085 60.0082 84.6298 60.144C86.3287 60.4992 88.1397 60.3803 89.5933 59.7054C90.2777 59.3895 90.8674 58.9507 91.3373 58.4231C90.9421 58.6346 90.5254 58.8038 90.117 58.9259C89.0742 59.1888 87.966 59.2176 86.9459 59.0198C85.8916 58.7968 84.9424 58.3598 84.1118 57.7984C82.4209 56.68 81.175 55.1749 80.1163 53.5961C81.7216 54.6511 83.2084 55.8305 84.8161 56.5956C86.4112 57.3778 88.0967 57.6435 89.6925 57.2063C91.2674 56.8333 92.4024 55.6574 92.6688 53.9715C93.0112 52.1828 92.5358 49.8155 90.8217 46.3993L90.7062 46.3404ZM118.015 66.5433C115.722 65.1647 113.259 63.9791 110.75 62.9984C108.267 61.9835 105.618 61.0848 103.13 60.6497C100.821 60.2944 97.8834 60.826 96.6483 62.3521C96.039 63.0682 95.9443 64.2712 96.3178 65.343C96.6658 66.4492 97.4954 67.5137 98.4263 68.4411C100.31 70.3384 102.673 71.8743 105.098 73.2179C102.395 72.4645 99.7913 71.2543 97.474 69.5134C96.3343 68.6173 95.2276 67.5333 94.5191 66.0544C94.3293 65.7018 94.22 65.2762 94.098 64.8678C94.0357 64.4504 93.9607 64.0501 93.9706 63.6067C93.9481 62.7413 94.2363 61.8142 94.7003 61.0436C94.7257 61.0094 94.7511 60.9751 94.7764 60.9408C94.1226 61.3588 93.5589 61.87 93.1151 62.4698C92.8697 62.7657 92.7271 63.1376 92.516 63.4588C92.3392 63.8053 92.2138 64.1899 92.0712 64.5618C91.8158 65.3011 91.7267 66.0307 91.7784 66.785C91.9924 68.9323 93.1776 70.9495 94.7578 72.755C95.0155 73.0517 95.2903 73.3611 95.5778 73.6533C95.8138 73.9075 96.0455 74.1319 96.2942 74.369C96.4529 74.5129 96.5988 74.6739 96.7575 74.8177C100.887 75.9367 104.722 77.6331 108.429 79.501C111.338 81.0161 114.303 82.7057 116.824 84.9951C123.952 85.7868 127.675 81.3275 127.019 76.0154C126.736 77.0789 126.083 78.3198 125.231 79.0418C122.618 81.1401 119.542 80.0311 116.793 78.7664C118.163 79.0641 119.551 79.3745 120.867 79.3144C122.402 79.2827 124.014 78.645 124.708 77.276C124.763 77.1307 125.42 75.9197 125.284 74.7055C125.239 73.5845 120.933 68.2247 117.998 66.5306L118.015 66.5433ZM144.097 78.8373C141.163 77.9661 136.742 76.5251 135.036 79.082C133.012 81.8542 137.664 86.1714 140.334 88.3319C146.092 89.5421 151.849 92.4747 156.532 96.8941C157.269 97.4391 157.963 98.0057 158.624 98.6535C162.051 98.6431 163.796 96.8577 164.159 94.182C164.006 93.6714 163.828 93.1951 163.65 92.7188C162.759 94.6051 160.276 95.7389 156.586 93.8837C157.357 93.8444 158.12 93.852 158.827 93.7918C160.016 93.6899 161.144 93.3839 161.841 92.4412C162.868 91.0528 161.396 88.8501 160.296 87.506C160.159 87.4046 153.814 81.7559 144.115 78.8499L144.097 78.8373ZM185.768 96.9348C185.002 96.5008 184.194 96.0885 183.39 95.706C183.159 95.5882 177.885 92.1108 171.686 96.1178C170.718 96.6744 170.083 97.4248 170.1 98.0471C170.072 98.3713 170.258 98.8007 170.491 99.2382C170.784 99.6669 171.136 100.087 171.552 100.527C173.29 102.263 175.218 103.849 177.317 105.348C174.802 104.734 172.441 103.518 170.342 101.912C170.068 101.71 169.802 101.46 169.541 101.24C169.275 100.99 169.047 100.689 168.794 100.422C168.557 100.061 168.316 99.6708 168.13 99.2414C168.139 99.4076 168.119 99.5783 168.146 99.7572C168.265 100.456 168.598 101.153 169.003 101.823C169.817 103.195 171.066 104.41 172.365 105.557C172.785 105.921 173.188 106.272 173.62 106.618C174.358 106.66 175.088 106.749 175.787 106.842C177.268 107.063 178.715 107.364 180.15 107.789C182.99 108.644 185.722 109.896 188.213 111.474C188.419 111.626 188.625 111.778 188.843 111.913C189.031 111.946 189.219 111.979 189.389 111.999C190.72 112.135 192.151 111.92 193.358 111.328C193.8 111.125 194.182 110.824 194.546 110.51C194.023 110.68 193.504 110.773 193.009 110.832C190.628 111.112 188.166 110.749 186.105 109.702C188.409 110.027 190.655 109.965 192.775 109.465C197.704 108.284 194.931 105.225 193.29 103.322C192.568 102.47 191.771 101.72 190.969 100.941C189.326 99.4347 187.498 98.1083 185.541 96.8468C185.605 96.8677 185.687 96.9012 185.751 96.9221L185.768 96.9348Z" fill="#1A1A18"/>
<path d="M205.486 136C205.351 135.608 205.259 135.196 205.286 134.765C205.296 134.321 205.425 133.86 205.649 133.522C206.079 132.832 206.98 132.332 207.643 132.69C206.992 132.924 206.757 133.493 206.722 133.971C206.669 134.436 206.893 134.814 207.164 135.2C207.749 135.95 208.743 136.792 209.63 137.528C210.53 138.247 211.558 139.007 212.478 139.555C212.927 139.808 213.385 140.014 213.836 139.976C214.335 139.947 214.884 139.743 215.187 139.119C215.442 139.812 214.945 140.664 214.244 141.074C213.471 141.51 212.571 141.507 211.829 141.329C210.368 140.938 209.217 140.272 208.112 139.401C207.572 138.949 207.074 138.475 206.615 137.949C206.185 137.419 205.729 136.817 205.447 136.051L205.486 136Z" fill="#1A1A18"/>
<path d="M110.651 91.7265C109.602 92.356 108.421 92.4109 107.389 92.3369C106.332 92.2972 105.315 92.0227 104.35 91.7862C103.321 91.5288 102.342 91.0963 101.453 90.6504C99.6521 89.7161 97.9396 88.5553 96.5649 86.9018C96.2253 86.465 95.8858 86.0282 95.6648 85.4669C95.4483 84.9354 95.2989 84.2415 95.5035 83.5707C95.7253 82.9127 96.2256 82.4872 96.7101 82.2622C97.1902 82.0074 97.697 81.9315 98.2039 81.8556C97.4188 82.4151 96.5836 83.1498 96.6518 83.8102C96.6514 84.4199 97.2651 85.0595 97.9123 85.6179C99.2538 86.7429 100.918 87.6824 102.539 88.5369C103.382 88.9746 104.168 89.3445 105.023 89.6584C105.912 89.9977 106.792 90.2774 107.65 90.5146C109.789 91.0629 111.195 90.8829 111.574 88.723C111.553 88.8937 112.327 90.5 110.651 91.7265Z" fill="#1A1A18"/>
<path d="M108.368 73.17C107.987 72.9679 107.632 72.7316 107.264 72.5124L107.007 72.3223L106.835 72.1955L106.681 72.0815C106.505 71.9249 106.364 71.7937 106.205 71.6498C105.613 71.0527 105.026 70.4854 104.514 69.8152C104.007 69.1748 103.521 68.4704 103.166 67.6244C103.088 67.4075 103.009 67.1906 102.957 66.9394C102.921 66.7009 102.885 66.3558 103.083 66.0517C103.299 65.7603 103.614 65.7284 103.844 65.7396C104.075 65.7508 104.254 65.8306 104.463 65.9059C104.093 65.9766 103.609 66.2016 103.665 66.3761C103.696 66.4782 103.894 66.7838 104.142 67.0209C104.632 67.542 105.236 68.0154 105.827 68.5059C106.444 68.9622 107.023 69.4699 107.639 69.9262L108.171 70.3191L108.487 70.5003C108.791 70.6986 109.125 70.8925 109.437 71.0438C111.409 72.1049 113.456 72.8499 115.699 72.9711C116.398 73.0645 117.114 72.9573 117.711 72.3649C117.407 74.8184 112.021 75.1832 108.316 73.132L108.368 73.17Z" fill="#1A1A18"/>
<path d="M154.301 88.6934C151.717 90.5741 143.406 88.1917 141.519 82.2868C144.767 84.3453 147.255 86.1063 152.115 87.4207C152.751 87.5997 153.277 87.7496 153.749 87.6484C154.141 87.6201 154.735 87.1045 154.491 86.3941C155.146 86.6924 155.226 87.9453 154.297 88.6636L154.301 88.6934Z" fill="#1A1A18"/>
<path d="M245.219 186.743C244.487 186.944 243.784 187.034 242.946 186.626C242.185 186.222 241.768 185.675 241.334 185.115C240.917 184.568 240.597 183.961 240.308 183.349C240.031 182.719 239.826 182.064 239.707 181.366C239.617 180.663 239.536 179.913 239.871 179.101C239.981 178.917 240.057 178.707 240.213 178.531C240.387 178.368 240.514 178.197 240.739 178.072C241.172 177.809 241.692 177.822 242.059 177.935C242.803 178.22 243.245 178.733 243.603 179.289C243.013 179.011 242.397 178.768 241.899 178.797C241.656 178.803 241.503 178.902 241.414 179.022C241.376 179.074 241.334 179.202 241.279 179.241C241.246 179.322 241.234 179.445 241.2 179.527C241.103 180.41 241.507 181.584 241.953 182.63C242.169 183.161 242.446 183.684 242.747 184.172C243.031 184.648 243.38 185.144 243.667 185.436C243.916 185.673 244.57 185.865 245.06 185.883C245.32 185.89 245.546 185.871 245.647 185.734C245.761 185.58 245.725 185.235 245.617 184.916C245.861 185.123 246.157 185.368 246.109 185.863C246.018 186.38 245.533 186.605 245.214 186.713L245.219 186.743Z" fill="#1A1A18"/>
<path d="M246.077 231.056C245.886 230.597 245.798 230.107 245.786 229.621C245.733 228.654 245.983 227.672 246.502 226.862C246.991 226.057 247.763 225.408 248.661 225.198C248.231 225.994 247.942 226.708 247.789 227.416C247.635 228.125 247.542 228.825 247.585 229.52C247.591 229.869 247.64 230.197 247.706 230.538C247.772 230.878 247.868 231.215 247.981 231.457C248.093 231.699 248.269 231.856 248.337 231.906C248.495 231.944 248.975 231.689 248.764 231.294C249.011 231.318 249.209 231.623 249.147 231.922C249.128 232.199 248.989 232.495 248.7 232.705C247.97 233.12 247.285 232.719 246.895 232.351C246.47 231.957 246.25 231.503 246.077 231.056Z" fill="#1A1A18"/>
<path d="M246.212 209.516C246.035 209.146 245.896 208.725 245.791 208.329C245.41 206.695 245.624 204.864 246.707 203.544C246.879 204.387 246.973 205.12 247.11 205.831C247.246 206.542 247.379 207.223 247.541 207.9C247.715 208.559 247.891 209.326 248.077 209.755C248.124 209.87 248.197 209.95 248.258 210.048C248.301 210.133 248.387 210.196 248.515 210.238C248.754 210.309 249.125 210.345 249.357 209.959C249.56 210.402 249.125 210.954 248.614 211.107C248.367 211.19 248.048 211.192 247.744 211.1C247.458 211.021 247.235 210.856 247.025 210.674C246.622 210.323 246.39 209.886 246.212 209.516Z" fill="#1A1A18"/>
<path d="M228.507 154.33C228.279 154.639 228.295 155.155 228.443 155.635C228.79 156.635 229.381 157.735 230.065 158.639C230.736 159.559 231.585 160.453 232.459 161.099C232.87 161.404 233.358 161.605 233.822 161.551C234.286 161.496 234.864 161.181 234.979 160.524C235.29 161.178 234.805 162.013 234.113 162.376C233.348 162.765 232.503 162.617 231.806 162.34C230.468 161.748 229.46 160.817 228.609 159.71C227.813 158.564 227.222 157.358 227.059 155.858C226.994 155.121 227.159 154.182 227.948 153.652C228.314 153.445 228.714 153.37 229.107 153.448C229.482 153.514 229.829 153.797 229.895 154.138C229.385 153.681 228.748 154.005 228.494 154.347L228.507 154.33Z" fill="#1A1A18"/>
<path d="M226.72 141.445C226.491 140.931 226.236 140.344 226.227 139.675C226.208 139.343 226.244 138.972 226.378 138.647C226.496 138.309 226.779 137.962 227.059 137.798C227.352 137.617 227.689 137.521 228.013 137.548C228.337 137.576 228.653 137.757 228.783 138.012C228.249 137.803 227.825 138.125 227.631 138.459C227.432 138.763 227.498 139.104 227.586 139.487C227.863 140.223 228.453 141.11 229.038 141.86C229.609 142.628 230.296 143.348 231.004 144.004C231.355 144.317 231.681 144.558 232.056 144.624C232.402 144.694 232.934 144.584 233.161 144.062C233.357 144.658 232.815 145.318 232.139 145.48C231.432 145.647 230.757 145.413 230.226 145.127C229.187 144.596 228.296 143.831 227.595 142.915C227.238 142.465 226.949 141.96 226.69 141.45L226.72 141.445Z" fill="#1A1A18"/>
<path d="M243.189 246.104C243.19 245.707 243.222 245.306 243.283 244.901C243.487 244.124 243.585 243.347 244.326 242.596C245.199 241.81 246.516 242.466 246.534 243.301C246.002 242.695 245.172 242.85 244.987 243.244C244.742 243.646 244.572 244.449 244.457 245.106C244.342 245.763 244.219 246.574 244.333 247.03C244.411 247.247 244.566 247.467 244.788 247.526C244.967 247.605 245.397 247.419 245.399 247.023C245.678 247.362 245.392 247.999 244.83 248.114C244.281 248.211 243.776 247.891 243.508 247.428C243.228 246.982 243.217 246.496 243.189 246.104Z" fill="#1A1A18"/>
<path d="M240.216 260.083C240.204 259.597 240.295 259.187 240.459 258.751C240.795 257.939 241.429 257.188 242.336 256.931C242.107 257.849 241.821 258.486 241.561 259.195L241.12 260.222C241.066 260.367 240.994 260.5 240.982 260.623C240.957 260.764 240.984 260.943 241.19 261.095C240.965 261.22 240.64 261.086 240.455 260.87C240.266 260.624 240.221 260.326 240.216 260.083Z" fill="#1A1A18"/>
<path d="M69.759 104.649C64.8751 101.54 60.1771 98.1442 55.7199 94.4226C53.5719 92.4887 51.356 90.6108 49.3303 88.4757C47.2792 86.3749 45.4444 84.0893 43.7453 81.692C42.0633 79.3073 40.5849 76.755 39.3063 74.1118C38.0701 71.4469 37.106 68.6652 36.4229 65.826C35.8121 62.9609 35.542 60.0294 35.6429 57.1338C35.8035 54.2293 36.429 51.3771 37.3839 48.6889C36.7963 51.4897 36.5032 54.3227 36.6363 57.1527C36.8119 59.9611 37.3027 62.7376 38.1126 65.4053C38.965 68.0514 40.0514 70.632 41.3928 73.0829C42.7767 75.5122 44.2709 77.8641 45.9858 80.0609C47.7134 82.2407 49.5513 84.3429 51.5502 86.2991C53.5194 88.2597 55.7175 90.0184 57.8775 91.8286C62.2737 95.346 66.8645 98.6361 71.6538 101.622C76.443 104.608 81.4053 107.325 86.4728 109.827C91.553 112.312 96.7765 114.532 102.042 116.624C107.353 118.618 112.724 120.496 118.178 122.117C123.632 123.739 129.161 125.151 134.742 126.494C129.034 125.932 123.376 124.981 117.745 123.813C112.149 122.563 106.589 121.049 101.108 119.248C95.627 117.448 90.3014 115.258 85.0259 112.894C79.7966 110.431 74.7062 107.673 69.7761 104.662L69.759 104.649Z" fill="#1A1A18"/>
<path d="M218.163 180.279C214.97 175.53 211.373 171.039 207.395 166.956C203.456 162.822 199.113 159.053 194.513 155.596C189.955 152.118 185.076 149.039 180.061 146.178C169.999 140.537 159.232 136.1 148.017 132.842C159.564 134.648 170.855 138.413 181.371 143.726C186.64 146.351 191.69 149.45 196.516 152.888C201.317 156.36 205.826 160.227 209.955 164.5C214.04 168.796 217.74 173.469 220.969 178.457C224.156 183.466 226.934 188.704 229.114 194.215C233.54 205.18 235.909 216.957 235.719 228.645C234.426 217.027 231.357 205.766 226.58 195.311C224.155 190.096 221.403 185.037 218.168 180.309L218.163 180.279Z" fill="#1A1A18"/>
<path d="M31.7488 62.3954C31.9384 65.3999 32.4858 68.3507 33.4632 71.222C34.3937 74.085 35.6179 76.8735 37.1395 79.5108C40.0724 84.8629 43.876 89.7188 48.3067 93.9779C52.7545 98.2496 57.8377 101.877 63.399 104.931C57.2668 103.258 51.4835 100.147 46.4699 96.0666C43.9291 94.0544 41.6464 91.7293 39.542 89.2707C37.4628 86.7779 35.638 84.0488 34.03 81.2416C32.4601 78.3829 31.1705 75.3603 30.2425 72.2073C29.374 69.0455 28.8328 65.7279 28.978 62.4142C29.0635 59.1094 29.7929 55.8301 31.0826 52.8327C32.3894 49.8479 34.2095 47.1368 36.4458 44.8663C34.8434 47.6058 33.5143 50.4415 32.7232 53.4099C31.8979 56.3531 31.6061 59.3992 31.7615 62.3783L31.7488 62.3954Z" fill="#1A1A18"/>
<path d="M25.1557 75.2855C25.8582 79.1733 27.289 82.9368 29.2423 86.4239C31.2254 89.9065 33.7438 93.0955 36.7416 95.9232C36.4592 95.7674 25.5525 90.0856 22.8139 75.7277C22.0497 71.5291 22.1627 67.1839 23.1512 63.0885C24.1226 58.9805 25.9479 55.0798 28.5791 51.8815C26.8039 55.607 25.571 59.4951 24.9739 63.4556C24.4065 67.4117 24.4107 71.4193 25.1602 75.3153L25.1557 75.2855Z" fill="#1A1A18"/>
<path d="M201.969 164.692C205.468 167.917 208.704 171.425 211.517 175.256C214.342 179.069 216.81 183.15 218.705 187.469C215.952 183.629 213.128 179.922 210.087 176.399C207.034 172.894 203.82 169.535 200.386 166.438C196.977 163.306 193.343 160.406 189.583 157.677C185.81 154.965 181.842 152.481 177.782 150.087C182.271 151.578 186.573 153.647 190.6 156.122C194.67 158.576 198.457 161.484 201.981 164.674L201.969 164.692Z" fill="#1A1A18"/>
<path d="M237.682 243.012C237.914 245.888 237.783 248.788 237.434 251.66C237.039 254.523 236.426 257.358 235.476 260.076C234.543 262.807 233.336 265.442 231.744 267.844C232.426 265.06 233.116 262.335 233.695 259.581C234.262 256.844 234.752 254.104 235.088 251.356C235.454 248.604 235.679 245.827 235.828 243.046C235.959 240.252 235.997 237.442 236.026 234.573C236.951 237.3 237.468 240.148 237.669 243.029L237.682 243.012Z" fill="#1A1A18"/>
<path d="M76.6134 116.775C77.1172 115.556 79.8925 115.567 82.8033 116.793C85.7142 118.018 87.6707 119.996 87.1624 121.184C86.6586 122.403 83.8834 122.392 80.9725 121.167C78.0617 119.941 76.1052 117.964 76.6134 116.775Z" fill="#1A1A18"/>
<path d="M105.728 130.702C106.121 129.455 108.074 128.964 110.043 129.599C112.03 130.246 113.28 131.781 112.887 133.029C112.477 134.263 110.541 134.767 108.572 134.132C106.602 133.497 105.335 131.95 105.728 130.702Z" fill="#1A1A18"/>
<path d="M166.792 145.697C163.932 144.403 162.061 142.382 162.599 141.189C163.137 139.996 165.891 140.071 168.751 141.365C171.611 142.658 173.483 144.679 172.945 145.873C172.407 147.066 169.652 146.991 166.792 145.697Z" fill="#1A1A18"/>
<path d="M222.82 207.884C221.596 208.357 219.76 206.575 218.737 203.908C217.714 201.242 217.881 198.687 219.122 198.227C220.347 197.754 222.183 199.536 223.206 202.203C224.229 204.869 224.062 207.424 222.82 207.884Z" fill="#1A1A18"/>
<path d="M53.4392 109.364C52.7856 110.498 50.068 110.159 47.4278 108.603C44.7579 107.053 43.1369 104.872 43.8031 103.721C44.4566 102.586 47.1743 102.926 49.8144 104.482C52.4844 106.032 54.1054 108.213 53.4392 109.364Z" fill="#1A1A18"/>
<path d="M55.0546 112.521C55.471 111.636 57.0517 111.506 58.5611 112.225C60.0705 112.944 60.9528 114.259 60.5364 115.145C60.12 116.03 58.5392 116.16 57.0298 115.441C55.5204 114.722 54.6382 113.407 55.0546 112.521Z" fill="#1A1A18"/>
<path d="M98.0152 122.424C96.3663 121.894 95.2887 120.699 95.5896 119.755C95.8905 118.811 97.4744 118.497 99.1232 119.028C100.772 119.558 101.85 120.753 101.549 121.697C101.248 122.641 99.664 122.955 98.0152 122.424Z" fill="#1A1A18"/>
<path d="M134.033 137.771C134.368 136.853 136.375 136.72 138.533 137.494C140.691 138.268 142.162 139.648 141.826 140.567C141.491 141.486 139.484 141.619 137.327 140.844C135.169 140.07 133.698 138.69 134.033 137.771Z" fill="#1A1A18"/>
<path d="M219.076 190.263C219.912 189.742 221.238 190.351 222.056 191.646C222.874 192.941 222.849 194.407 222.03 194.942C221.193 195.463 219.868 194.854 219.05 193.559C218.232 192.264 218.256 190.797 219.076 190.263Z" fill="#1A1A18"/>
<path d="M224.313 216.469C223.39 216.82 222.343 216.337 221.97 215.372C221.597 214.406 222.017 213.338 222.952 212.969C223.875 212.617 224.923 213.101 225.308 214.049C225.681 215.014 225.261 216.083 224.326 216.452L224.313 216.469Z" fill="#1A1A18"/>
<path d="M230.841 254.339C229.887 254.589 228.68 253.139 228.134 251.118C227.601 249.079 227.935 247.231 228.888 246.981C229.841 246.732 231.049 248.182 231.594 250.203C232.127 252.242 231.794 254.09 230.841 254.339Z" fill="#1A1A18"/>
</g>
<defs>
<clipPath id="clip0_434_814">
<rect width="125" height="303" fill="white" transform="matrix(0.594732 -0.803924 -0.803924 -0.594732 228.881 280.816)"/>
</clipPath>
</defs>
</svg>
