<svg width="320" height="171" viewBox="0 0 320 171" fill="none" xmlns="http://www.w3.org/2000/svg">
<g clip-path="url(#clip0_434_706)">
<path d="M273.876 124.798C273.428 126.153 272.012 127.076 270.821 126.697C271.949 126.376 272.48 125.315 272.433 124.509C272.416 123.644 271.959 122.839 271.325 122.201C269.251 120.002 266.798 118.995 263.913 118.267C262.75 117.978 261.402 117.769 260.313 118.398C259.745 118.72 259.292 119.275 259.173 119.904C259.054 120.532 259.307 121.262 259.857 121.607C259.184 121.502 258.112 120.904 257.699 120.365C257.163 119.656 257.036 118.666 257.279 117.797C257.681 116.457 258.832 115.298 260.384 115.021C262.987 114.649 265.371 115.127 267.635 116.105C269.853 117.096 271.913 118.689 273.216 120.855C273.926 121.979 274.299 123.461 273.848 124.837L273.876 124.798Z" fill="#1A1A18"/>
<path d="M253.92 138.572C254.467 138.247 255.029 138.097 255.504 137.955C256 137.816 256.507 137.744 257.036 137.675C259.097 137.455 261.224 137.786 263.164 138.626C264.132 139.057 265.042 139.587 265.869 140.233C266.675 140.876 267.56 141.704 268.046 142.88C268.532 144.056 268.481 145.494 267.651 146.53C267.205 147.043 266.602 147.316 266.035 147.357C265.467 147.399 264.855 147.174 264.55 146.782C265.526 147.02 266.304 146.32 266.413 145.755C266.592 145.157 266.357 144.452 265.98 143.962C265.187 142.954 263.496 142.044 262.006 141.359C260.45 140.686 258.795 140.235 257.061 140.009C256.233 139.923 255.198 139.784 254.558 139.879C254.226 139.935 253.978 140.005 253.872 140.269C253.788 140.536 253.85 141.107 254.386 141.125C254.185 141.31 253.824 141.275 253.57 141.106C253.315 140.937 253.141 140.673 253.043 140.334C252.941 140.016 253.058 139.538 253.227 139.284C253.403 138.987 253.677 138.75 253.941 138.575L253.92 138.572Z" fill="#1A1A18"/>
<path d="M145.787 122.876C145.831 123.423 145.69 123.919 145.41 124.328C145.131 124.738 144.658 125.01 144.236 124.944C144.843 124.37 144.656 123.629 144.368 123.26C144.098 122.916 143.588 122.729 143.03 122.578C141.8 122.3 140.383 122.123 139.069 122.113C137.755 122.104 136.358 122.21 135.086 122.487C133.807 122.806 132.521 123.168 131.579 124.51C131.406 123.685 131.718 122.784 132.222 122.042C132.764 121.328 133.437 120.742 134.214 120.324C135.746 119.483 137.417 119.138 139.12 119.144C140.841 119.174 142.464 119.555 144.026 120.467C144.816 120.935 145.641 121.732 145.805 122.901L145.787 122.876Z" fill="#1A1A18"/>
<path d="M170.699 119.539C174.946 114.136 185.029 115.314 186.167 119.094C186.465 120.37 185.775 121.341 185.054 121.402C185.505 120.717 185.2 120.044 184.846 119.687C184.053 118.959 180.383 118.843 179.307 118.827C177.93 118.807 173.295 119.209 170.702 119.518L170.699 119.539Z" fill="#1A1A18"/>
<path d="M145.783 138.173C144.542 138.11 143.346 138.032 142.173 138.087C140.982 138.118 139.835 138.285 138.467 138.763C138.96 137.394 140.269 136.324 141.665 135.807C143.064 135.269 144.551 135.134 145.922 135.195C146.606 135.237 147.307 135.303 147.957 135.425C148.61 135.527 149.466 135.703 150.268 136.237C151.069 136.772 151.696 137.732 151.554 138.789C151.383 139.884 150.255 140.486 149.591 140.037C150.279 139.777 150.327 139.051 150.103 138.822C149.911 138.534 149.552 138.348 149.194 138.293C148.815 138.234 148.32 138.222 147.676 138.208C147.031 138.194 146.389 138.159 145.765 138.149L145.783 138.173Z" fill="#1A1A18"/>
<path d="M110.823 132.354C112.053 132.631 113.194 133.197 114.176 133.954C114.678 134.334 115.337 134.954 115.41 135.871C115.412 136.411 115.16 136.782 114.823 137.01C114.507 137.241 114.009 137.25 113.817 136.962C114.444 136.951 114.457 136.176 114.274 136.105C114.092 135.882 113.726 135.739 113.255 135.58C112.253 135.23 111.268 134.904 110.27 134.663C109.273 134.422 108.247 134.219 107.188 134.098C106.114 133.931 105.024 133.87 103.792 133.743C104.74 132.92 105.912 132.454 107.132 132.234C108.353 132.014 109.618 132.059 110.844 132.357L110.823 132.354Z" fill="#1A1A18"/>
<path d="M127.803 140.364L122.68 140.022C114.185 145.563 97.1347 138.147 97.0779 131.708L95.3291 131.027C94.5164 131.677 93.5842 131.986 92.6928 132.171C89.9783 132.569 80.6872 130.738 77.2333 128.259C75.7216 127.161 74.3124 125.821 73.3364 124.051C72.8954 123.141 72.5681 122.054 72.7205 120.935C72.8518 119.812 73.4123 118.841 74.1927 118.121C74.269 118.047 74.342 117.993 74.4149 117.94C74.1365 117.789 73.858 117.638 73.5796 117.486C71.7563 116.729 70.0631 115.689 68.5289 114.458C68.0957 114.887 67.5281 115.209 66.9268 115.331C65.6123 115.602 64.3053 115.269 63.162 114.854C60.8268 114.06 58.724 112.741 56.8257 111.216C55.892 110.424 55.007 109.596 54.1804 108.67C53.3993 107.728 52.5938 106.805 52.0755 105.559C51.9964 105.374 51.9206 105.168 51.8691 104.945C51.8045 104.805 51.7399 104.666 51.6753 104.526C51.4496 103.758 51.4138 102.738 51.9449 101.957C52.4417 101.258 53.3855 100.736 54.2053 100.734C52.8098 99.9989 51.4778 98.9937 50.3209 97.9726C49.9226 97.7597 49.5276 97.5257 49.1569 97.274C48.2392 96.6568 47.3864 95.8986 46.6521 95.0726C44.1778 94.0626 41.2823 92.0162 39.1536 89.6143C38.1347 88.3989 37.1176 87.0326 36.9193 85.2542C36.8315 83.3203 38.0818 82.6299 38.406 82.4861C36.6842 81.0751 35.2192 79.1215 34.1154 77.2025C32.2928 74.9128 31.2989 72.1478 31.125 70.3515C30.9993 68.8002 31.4451 67.5964 32.2306 66.7044L31.4691 65.6367C30.7742 65.5288 30.0114 65.3025 29.2537 64.9043C25.1861 64.2941 21.7005 57.0211 21.9749 52.3386C22.0571 51.5315 22.2624 50.7651 22.5908 50.0393C22.7616 49.6343 22.9922 49.2602 23.213 48.9493C23.3449 48.5167 23.5999 48.1248 23.9325 47.7881L23.2833 46.4143L23.6319 46.2527C20.2918 47.762 15.9301 36.9655 20.2806 33.6713L19.6927 32.458C19.4128 32.1772 19.0795 31.8234 18.8291 31.353C17.7008 30.7031 17.3065 28.9373 16.9534 27.739C15.5724 21.6343 18.8545 20.9143 19.3974 20.8907C18.8631 16.2768 19.0224 11.6412 20.2121 7.03614C20.5507 5.9668 21.0336 2.71912 23.4266 1.7531C24.3474 1.37831 25.5735 1.67663 26.4138 3.20956C34.5254 21.1044 31.8976 16.64 36.2057 23.1993C44.801 36.3147 55.3135 50.1378 67.4408 60.0908C79.9355 70.3165 91.6455 75.458 111.069 77.8707C159.067 83.6213 182.942 62.6469 229.476 55.052C257.034 50.6372 296.658 50.5993 307.208 82.2284C311.867 93.8909 311.487 106.195 308.049 117.916C307.339 127.623 304.117 136.982 298.378 144.915C295.658 148.679 292.363 152.676 288.026 154.635C285.658 155.713 282.233 156.108 279.385 155.278C278.03 154.981 276.849 154.388 275.961 153.581C274.424 154.313 273.059 154.489 271.355 154.634C267.331 154.851 263.408 154.004 259.762 152.489C256.255 150.908 252.871 149.088 249.741 146.747C248.204 145.537 246.728 144.207 245.466 142.609C244.816 141.796 244.225 140.884 243.776 139.887C241.686 139.454 239.569 139.061 237.4 138.724C236.597 139.311 235.723 139.801 234.778 140.194C231.899 141.235 229.118 141.645 226.262 141.978C220.68 142.513 212.582 142.442 208.13 139.032C206.763 138.388 205.798 137.656 204.884 136.737C203.175 136.774 201.444 136.807 199.728 136.886C199.241 137.803 198.601 138.588 197.834 139.224C196.002 141.442 192.332 142.296 189.489 142.825C182.206 144.175 172.157 142.917 172.031 142.897C169.799 142.55 167.512 141.44 165.636 139.638C163.42 139.877 161.226 140.118 159.029 140.381C157.993 141.493 154.119 144.775 147.746 145.404C147.368 145.474 146.987 145.566 146.61 145.637C143.273 146.154 139.817 146.049 136.495 145.361C133.189 144.567 129.074 143.431 127.792 140.298L127.803 140.364ZM99.4257 131.728C99.4805 131.931 99.5385 132.112 99.5723 132.312C99.9613 133.278 100.746 134.198 101.715 135.039C102.474 135.567 103.258 136.077 104.096 136.509C106.097 137.511 108.25 138.233 110.491 138.797C114.521 139.79 116.936 140.489 120.646 138.541C121.013 138.123 121.281 137.647 121.356 137.162C121.557 136.007 120.825 134.469 119.637 133.508C118.396 132.474 116.686 131.82 114.981 130.994C116.855 130.875 118.8 130.983 120.654 131.961C121.013 132.147 121.363 132.395 121.667 132.658C121.525 132.463 121.358 132.286 121.192 132.109C120.029 130.85 118.507 129.815 116.903 128.897C116.029 128.416 115.106 127.971 114.18 127.547C114.019 127.608 113.859 127.669 113.701 127.71C111.92 128.21 110.113 128.317 108.346 128.172C108.198 128.15 108.051 128.127 107.904 128.104C107.448 128.119 107.014 128.138 106.562 128.133C107.151 128.505 107.734 128.919 108.268 129.369C106.036 128.741 103.736 127.996 101.882 128.549C100.953 128.837 100.142 129.336 99.7572 130.01C99.5574 130.324 99.492 130.746 99.412 131.122C99.4247 131.318 99.4163 131.511 99.4079 131.703L99.4257 131.728ZM96.0095 125.674C96.3878 126.294 96.6832 127.03 96.7306 127.836C96.7962 128.385 96.6802 128.993 96.4622 129.563L97.3561 129.918C97.4814 129.527 97.6489 129.143 97.9184 128.797C98.4882 128.044 99.2327 127.555 100.017 127.224C98.6537 126.84 97.3064 126.35 96.003 125.716L96.0095 125.674ZM83.2558 119.615C82.9512 119.633 82.6709 119.632 82.3663 119.65C82.4262 119.68 82.4828 119.732 82.5427 119.763C83.4319 120.009 84.2869 120.336 85.0591 120.78C85.119 120.811 85.0993 120.937 85.0394 120.906C82.6471 120.34 80.2044 119.961 77.7589 120.293C74.0818 120.779 73.1844 121.697 76.527 124.892C78.8667 127.046 81.7729 128.468 84.8826 129.275C86.4326 129.71 88.0054 129.997 89.6157 130.183C90.458 130.313 91.1207 130.352 91.7917 130.197C92.4416 130.039 92.9671 129.711 93.1996 129.186C93.6809 128.031 93.0709 126.404 92.0698 125.213C90.8261 123.639 88.4407 121.78 86.2987 120.713C88.2941 121.196 90.1965 122.139 91.8294 123.428C93.3458 124.634 95.0803 126.241 95.1382 128.645C95.2407 128.402 95.3253 128.135 95.329 127.834C95.4196 126.834 95.0194 125.801 94.4652 124.787C93.8193 124.363 93.1767 123.918 92.5894 123.395C92.1396 122.958 91.6931 122.501 91.2952 122.007C91.2175 121.952 91.1431 121.876 91.0444 121.817C89.6315 120.778 88.1357 119.855 86.6044 118.884C85.4987 119.338 84.3448 119.547 83.2558 119.615ZM89.7562 119.697C89.656 119.509 89.5559 119.321 89.459 119.111C89.2459 118.539 89.0783 117.952 88.9804 117.333C88.8766 117.446 88.7727 117.559 88.6478 117.669C88.127 118.106 87.5772 118.452 86.9951 118.729C87.954 118.942 88.8511 119.276 89.7319 119.715L89.7562 119.697ZM74.3445 116.311C77.5371 117.972 79.7624 118.641 84.0707 117.562C85.3228 116.721 85.8125 115.373 85.6284 113.921C85.2769 110.63 82.3293 108.64 80.1305 106.551C86.5241 108.709 88.1219 112.863 87.2165 115.915C87.653 115.465 87.9487 114.95 88.1278 114.352C89.6841 108.358 79.7194 101.978 74.0474 99.4786C80.7912 100.353 89.4034 105.445 90.528 111.812C92.4238 109.604 95.4341 109.662 98.3327 109.745C94.512 110.878 91.6926 110.979 91.04 115.042C93.4357 111.142 98.1827 111.405 102.437 113.036C99.8021 113.059 97.0997 112.962 95.0937 114.075C92.778 115.376 92.1335 117.305 92.8484 119.228C94.4276 123.918 102.741 126.353 107.385 127.139C108.688 127.082 110.727 127.14 113.443 124.929C115.857 122.996 115.81 120.658 114.015 118.33C113.155 117.204 111.91 116.191 110.759 114.998C113.558 115.583 116.109 116.929 117.231 119.563C116.197 113.447 108.167 110.021 102.08 108.946C105.527 108.554 109.115 109.197 112.376 110.696C120.756 114.501 121.837 123.234 116.276 126.686C118.742 127.608 120.86 128.692 122.85 130.598C125.082 132.886 126.327 135.841 124.481 138.424L127.493 138.612C127.461 137.29 128.038 135.244 128.872 134.036C129.569 133.022 130.51 132.241 131.59 131.675C127.443 130.88 121.829 128.843 121.558 124.615C117.648 116.046 129.197 106.534 145.255 109.784C155.445 112.078 158.238 123.257 152.761 127.973C155.427 128.581 158.266 129.604 159.929 131.805C160.591 132.684 161.027 133.766 161.119 134.837C161.26 135.873 161.051 136.941 160.729 137.905C161.737 137.803 162.727 137.676 163.735 137.574C163.056 136.67 162.553 135.599 162.393 134.409C162.121 132.555 162.812 130.461 164.613 128.864C155.357 124.449 155.624 113.703 162.767 107.843C166.686 104.547 172.602 103.394 172.738 103.351C188.637 99.9944 201 107.87 198.368 118.982C198.727 121.67 197.706 123.108 196.864 124.639C196.6 125.094 196.296 125.522 195.957 125.9C199.12 127.471 201.217 130.774 200.586 134.559C201.454 134.522 202.299 134.502 203.164 134.485C200.638 130.058 201.984 125.283 205.371 122.357C198.72 117.829 197.642 109.355 203.255 103.214C207.035 99.0115 212.621 96.6429 218.48 95.7189C166.386 98.5666 110.087 125.293 63.0008 90.6213C65.0237 93.2873 66.6747 96.5427 65.5779 99.7166C67.529 98.4015 69.9563 98.3254 71.6823 99.1544C68.6971 98.5182 65.6323 100.2 64.6612 102.703C67.4703 99.7516 71.4182 101.271 74.6274 103.798C72.6015 103.095 70.5709 102.283 68.6636 102.483C66.8648 102.678 65.0756 104.062 65.2644 105.623C65.2797 107.33 66.8125 109.402 67.7875 110.761C68.25 111.394 68.7578 112.012 69.2624 112.652C69.3724 112.777 69.4613 112.898 69.5502 113.02C71.0147 114.283 72.6106 115.394 74.3478 116.29L74.3445 116.311ZM145.724 115.099C147.201 115.307 148.649 115.705 150.043 116.309C150.937 116.664 151.844 117.215 152.661 117.924C152.215 117.186 151.717 116.505 151.121 115.894C149.389 114.137 147.119 112.921 144.743 112.53C142.159 112.086 139.539 111.873 136.977 112.122C134.425 112.309 131.832 112.898 129.523 113.877C127.214 114.857 125.143 116.39 123.795 118.403C123.185 119.279 122.856 120.285 122.755 121.349C123.547 120.414 124.482 119.675 125.477 119.096C126.734 118.364 128.098 117.777 129.514 117.544C128.182 118.071 127.02 118.883 125.958 119.753C124.913 120.648 123.954 121.686 123.455 122.817C123.188 123.422 123.139 124.019 123.267 124.578C123.364 124.788 123.437 125.015 123.558 125.206C123.64 125.37 123.744 125.537 123.829 125.68C123.886 125.732 123.918 125.801 123.975 125.853C124.748 126.707 125.901 127.339 127.119 127.83C129.567 128.728 132.347 129.16 135.043 129.298C137.763 129.419 140.484 129.259 143.137 128.7C144.472 128.433 145.776 128.096 147.071 127.671C148.366 127.247 149.566 126.743 150.575 126.08C151.583 125.416 152.317 124.581 152.558 123.583C152.814 122.63 152.56 121.49 151.942 120.467C151.328 119.422 150.385 118.693 149.193 118.033C148.047 117.359 146.766 116.858 145.459 116.525C142.834 115.794 139.987 115.654 137.183 116.211C139.787 114.997 142.811 114.69 145.748 115.081L145.724 115.099ZM196.144 118.723C193.92 112.768 186.078 112.025 181.946 111.275C189.275 109.35 194.784 111.931 197.131 115.705C194.93 100.993 162.843 102.633 160.007 116.865C163.144 112.217 170.58 110.027 175.223 110.684C169.728 110.931 160.105 115.542 161.346 121.021C163.637 131.539 198.024 131.615 196.141 118.744L196.144 118.723ZM190.193 129.687C193.667 130.227 198.218 131.473 198.972 134.956C199.357 132.06 197.729 129.347 195.096 128.248C194.656 128.028 193.977 127.815 193.854 127.775C192.738 128.572 191.477 129.196 190.193 129.687ZM283.918 121.374C285.092 122.98 286.173 124.767 286.551 126.918C286.692 127.674 286.698 128.473 286.555 129.249C286.611 129.171 286.687 129.097 286.742 129.019C287.833 127.549 288.589 125.875 288.731 124.128C288.843 123.132 288.744 122.102 288.53 121.12C287.135 118.853 285.506 116.702 283.674 114.756C280.61 111.432 277.071 108.53 273.125 106.299C272.081 105.662 270.985 105.082 269.886 104.523C266.798 103.439 263.561 102.894 260.403 103.093C258.6 103.18 256.852 103.599 255.234 104.297C254.407 104.622 253.699 105.159 252.943 105.581C252.276 106.125 251.55 106.638 251.035 107.313C250.803 107.557 250.606 107.85 250.413 108.122C252.378 107.414 254.356 107.311 256.284 107.395C258.272 107.509 260.206 107.831 262.093 108.318C263.977 108.827 265.838 109.482 267.499 110.452C265.686 109.761 263.804 109.382 261.927 109.112C260.046 108.863 258.146 108.741 256.276 108.839C254.427 108.94 252.531 109.206 251.011 109.963C250.262 110.343 249.605 110.823 249.209 111.431C248.985 111.763 248.842 112.129 248.762 112.505C248.696 112.926 248.698 113.336 248.695 113.767C248.827 115.277 249.507 116.871 250.354 118.362C251.278 119.908 252.346 121.368 253.656 122.65C256.207 125.247 259.307 127.369 262.636 128.986C265.955 130.667 269.518 131.889 273.167 132.693C275.004 133.086 276.805 133.431 278.521 133.352C279.368 133.311 280.172 133.134 280.887 132.835C281.578 132.554 282.308 132.02 282.932 131.47C284.164 130.345 284.785 128.845 284.616 127.157C284.468 125.473 283.678 123.753 282.715 122.18C280.756 118.963 278.062 116.171 275.438 113.347C278.502 115.7 281.501 118.194 283.918 121.374ZM251.035 127.723C252.325 127.471 253.639 127.481 254.93 127.638C253.757 126.722 252.645 125.687 251.628 124.601C250.242 123.112 249.06 121.419 248.087 119.628C247.628 118.693 247.187 117.784 246.868 116.785C246.573 115.768 246.351 114.698 246.359 113.534C246.376 113.148 246.435 112.769 246.518 112.372C246.512 112.134 246.503 111.916 246.517 111.681C246.683 109.506 247.556 107.355 248.907 105.601C251.254 102.428 254.89 100.684 258.579 99.9836C248.842 96.8532 238.776 95.5702 228.529 95.4458C234.342 96.0682 239.475 98.009 242.211 100.807C243.738 102.361 244.714 104.411 245.041 106.468C245.386 108.55 245.171 110.631 244.572 112.544C244.565 112.586 244.559 112.629 244.528 112.689C244.55 112.821 244.552 112.951 244.557 113.06C244.618 114.191 244.346 115.249 244.017 116.256C243.643 117.276 243.044 118.219 242.338 119.015C241.299 120.148 240.092 120.975 238.824 121.641C240.443 122.605 242.03 123.908 242.997 125.741C243.501 126.661 243.792 127.699 243.916 128.711C243.925 129.208 243.976 129.712 243.964 130.207C243.885 130.712 243.891 131.231 243.731 131.703C243.267 133.723 241.926 135.414 240.414 136.538C240.271 136.624 240.149 136.713 240.007 136.798C241.035 136.98 242.04 137.179 243.065 137.381C243.042 137.248 243.02 137.115 242.998 136.983C242.974 136.439 242.972 135.9 242.969 135.36L243.26 133.765C243.535 132.686 244.117 131.719 244.844 130.926C245.983 129.701 247.404 128.886 248.902 128.406C249.578 128.08 250.325 127.851 251.059 127.706L251.035 127.723ZM241.936 113.128C241.947 106.397 226.525 104.045 219.694 104.43C226.438 102.802 239.045 103.832 243.059 109.095C242.691 102.435 237.243 100.165 230.585 99.1525C227.026 98.5997 223.361 98.5914 219.771 99.0695C211.492 100.027 201.998 104.918 202.101 113.003C203.14 110.338 205.745 108.283 208.477 107.499C206.821 108.299 205.429 109.485 204.387 110.92C202.955 112.92 202.621 115.069 203.409 116.939C207.086 120.897 214.814 121.127 220.289 121.006C230.912 120.93 242.174 120.349 241.936 113.128ZM59.2418 102.465C58.5534 102.315 57.8926 102.126 57.2416 101.874C57.5669 102.14 57.8711 102.403 58.1688 102.708C56.8687 102.053 55.5054 101.389 54.2785 101.651C53.7226 101.759 53.2458 102.052 52.973 102.419C52.6947 103.239 52.8521 104.17 53.2917 104.95C53.7991 105.849 54.5933 106.706 55.3941 107.52C56.1949 108.335 57.0233 109.111 57.9247 109.834C59.6822 111.293 61.5986 112.562 63.663 113.573C64.6879 114.056 65.7193 114.496 66.7806 114.467C67.2116 114.469 67.6866 114.327 68.0871 114.109C67.2877 113.424 66.5403 112.682 65.8415 111.905C64.9227 110.877 63.9819 109.437 63.9641 109.412C64.0624 109.751 64.9149 111.761 62.1015 111.13C61.5815 111.006 61.1524 110.853 60.6568 110.711C61.6086 110.276 64.5923 110.783 60.3333 107.101C59.8382 106.679 59.1469 106.269 58.4669 105.926C58.1286 105.744 57.7869 105.583 57.4565 105.489C57.1262 105.394 56.7827 105.384 56.5488 105.779C56.5361 105.583 56.5398 105.282 56.7588 105.122C56.9389 104.934 57.2145 104.826 57.4349 104.795C57.9244 104.699 58.3699 104.746 58.8154 104.794C59.6933 104.973 60.5225 105.188 61.3415 105.747C61.9841 106.192 62.5018 106.747 62.9464 107.356C62.7723 106.811 62.6889 106.237 62.6687 105.673C61.6591 104.674 60.5911 103.775 59.4178 102.859C60.5938 103.063 61.7095 103.517 62.7358 104.13C62.8176 103.603 62.9626 103.086 63.1707 102.579C63.2357 102.438 63.3008 102.297 63.3625 102.177C61.9471 102.821 60.5165 102.728 59.253 102.532L59.2418 102.465ZM38.2916 86.4167C38.7391 87.2845 39.3747 88.0521 40.0136 88.7986C41.0002 89.9443 42.1118 90.98 43.2411 92.04C44.3204 93.0059 45.3786 93.9686 46.5276 94.9022C45.9065 94.18 45.334 93.4223 44.8411 92.569C44.6052 92.144 44.418 91.6834 44.255 91.205C43.9044 90.5464 43.6025 89.8522 43.4643 89.0756C43.3969 88.6768 43.3748 88.2634 43.3949 87.8566C43.356 87.829 43.3172 87.8014 43.2816 87.7527C42.7232 87.3208 42.1504 86.8434 41.608 86.5866C41.5092 86.5281 41.4072 86.4907 41.3473 86.4598C41.3487 86.5894 41.3614 86.7856 41.4227 86.9462C41.6049 87.5786 41.8713 88.2241 42.41 88.7824C41.6097 88.6581 40.9545 88.017 40.5716 87.2886C40.4714 87.1005 40.3712 86.9123 40.323 86.6675C40.2715 86.4437 40.2298 86.1567 40.3762 85.7695C40.5989 85.3079 41.1936 85.2277 41.4431 85.288C41.7168 85.3305 41.963 85.4119 42.1394 85.5256C42.7174 85.8311 43.1737 86.2256 43.5814 86.6557C43.5912 86.5925 43.6043 86.5083 43.6141 86.4451C43.7769 85.9525 44.0173 85.5152 44.2966 85.1055C44.1412 84.9951 43.9826 84.9057 43.8029 84.813C42.4926 84.5017 41.3605 84.1532 40.1489 83.9003C39.9805 83.8741 36.2801 82.5658 38.2916 86.4167ZM47.573 83.8668C46.341 84.3011 45.3252 85.2868 44.8584 86.4873C45.0596 86.3028 45.2786 86.1426 45.491 86.0246C46.6584 85.4508 47.8508 85.5497 48.8953 85.9061C49.9366 86.2836 50.7669 86.9088 51.5485 87.5696C50.5638 87.244 49.6311 86.8618 48.677 86.7568C47.7714 86.6161 46.7925 86.8093 46.1875 87.2331C46.0415 87.3399 45.9133 87.471 45.8305 87.5876C45.7477 87.7042 45.6794 87.8662 45.6078 88.0493C45.4858 88.4187 45.469 88.8044 45.5121 89.2211C45.5806 90.03 45.9195 90.9025 46.3768 91.7071C47.2882 93.3374 48.5416 94.8482 49.9818 96.1291C51.4429 97.4133 53.0875 98.4886 54.93 99.4005C54.8247 99.3841 54.7194 99.3678 54.6352 99.3547C56.779 100.27 59.3706 100.802 60.156 98.9392C61.2961 97.1529 60.2302 94.8513 58.7067 92.9965C57.1654 91.1174 55.2414 89.4808 53.3272 87.7811C55.6409 88.8525 57.87 90.1912 59.737 92.0562C60.6721 92.9782 61.5146 94.0799 62.0376 95.4341C62.5638 96.7672 62.4882 98.5032 61.728 99.7875C61.6387 99.9462 61.5493 100.105 61.4356 100.281L61.0202 100.735C60.8887 100.887 60.7394 101.015 60.5691 101.139C61.3422 101.022 62.0473 100.786 62.5793 100.416C62.9897 100.134 63.1993 99.7571 63.4089 99.3797C63.5407 98.9471 63.6581 98.4691 63.6136 97.9228C63.6265 96.8676 63.296 95.8022 62.7693 94.7495C61.7502 92.5631 60.3128 90.5706 58.6321 88.7561C58.129 88.2464 57.6258 87.7368 57.074 87.2627L55.816 86.6142C54.8721 86.1655 53.946 85.7412 53.01 85.3801C52.053 85.0157 51.0894 84.6934 50.1015 84.3889C49.3808 84.1691 48.6325 83.9882 47.8664 83.7829C47.7757 83.8119 47.6881 83.8199 47.5974 83.849L47.573 83.8668ZM53.633 83.7292C54.5269 84.0838 55.3623 84.5372 56.1148 85.1072C55.4741 84.5114 54.7702 83.9058 54.0939 83.2614C51.8885 81.2144 49.8081 79.0573 47.7796 76.8436C47.7811 76.9732 47.8036 77.1062 47.8017 77.2569C47.8532 77.4807 47.9258 77.7077 47.974 77.9525C48.1731 79.1701 48.0933 80.517 47.4515 81.7335C47.2045 82.2129 46.8344 82.6517 46.4564 83.0029C47.8794 82.7277 49.2921 82.7961 50.6965 83.0573C51.6993 83.1268 52.676 83.3648 53.612 83.7259L53.633 83.7292ZM34.0182 66.4426C34.3195 66.4463 34.6354 66.4953 34.9059 66.5589C35.6687 66.7853 36.3487 67.1282 36.9394 67.6299C37.5122 68.1072 37.999 68.7222 38.2555 69.4309C37.6031 69.0491 37.0317 68.7015 36.4327 68.3927C35.8304 68.1049 35.2215 67.8593 34.5996 67.698C34.002 67.5189 33.4025 67.4905 32.921 67.6746C32.7151 67.7505 32.5172 67.914 32.3404 68.0807C31.8717 69.4319 32.2341 70.8475 32.7051 72.2583C33.0277 73.2362 33.4411 74.185 33.9241 75.1015C34.6389 76.0539 35.3779 76.9886 36.1446 77.8844C37.9465 79.8903 38.437 80.2039 38.8919 80.4687C39.6042 80.8814 40.3815 81.1532 41.1607 81.2742C41.9464 81.3531 42.7096 81.299 43.2739 80.9983C43.856 80.7219 44.1662 80.2523 44.2676 79.5992C44.4738 78.2719 43.765 76.5868 43.0787 75.0346C42.3471 73.497 41.4128 72.0142 40.3213 70.5717C41.9078 71.4654 43.2539 72.7964 44.2869 74.3377C44.8139 75.11 45.2469 75.9324 45.6037 76.8292C45.7455 77.3044 45.9571 77.7472 46.0049 78.2724L46.101 79.0425C46.1038 79.3018 46.0791 79.6 46.0576 79.8772C45.9052 80.997 45.0804 82.1419 44.0056 82.5359C43.8905 82.5828 43.7819 82.5875 43.6879 82.6376C43.7754 82.6296 43.8839 82.6249 43.9747 82.5959C44.8451 82.4074 45.7907 81.7344 46.3184 80.9749C46.877 80.1555 47.1525 79.0763 47.1509 77.9757C47.1658 77.7407 47.1387 77.4992 47.1325 77.2609C46.175 73.9837 44.3322 71.1299 41.7965 68.9884C40.2576 67.6491 38.4867 66.5541 36.5769 66.2143C35.8188 66.0966 34.9924 66.1408 34.2096 66.3213C34.1642 66.3358 34.0944 66.3682 34.0491 66.3827L34.0182 66.4426ZM32.8383 65.5689L33.0518 65.861C34.4985 64.8775 36.4999 64.6273 38.4046 65.1389C37.6107 64.0016 36.8445 62.8253 36.0993 61.6524C35.8156 63.8954 34.5692 65.2552 32.8626 65.5511L32.8383 65.5689ZM30.4889 52.6469C29.058 50.6123 26.6878 47.2667 24.8542 49.0748C24.0817 49.8825 23.6163 51.2127 23.5772 52.4364C23.5591 53.6634 23.8196 55.0416 24.2259 56.3129C24.608 57.6021 25.1473 58.851 25.805 60.0319C26.92 62.0174 29.0515 64.6787 30.9863 63.4689C31.6904 62.8231 32.2135 61.955 32.3542 61.0491C32.6207 59.4723 31.7078 57.7124 31.2111 56.1896C34.2434 58.8829 34.1494 62.1263 31.9985 63.7556C31.8638 63.9288 31.7112 64.0778 31.5376 64.2234C34.227 64.4038 34.7657 61.7689 34.2107 59.0936C33.9793 57.8063 33.5486 56.5527 33.0514 55.3104C32.1652 53.1015 31.3179 50.9202 29.5688 49.2676C29.0802 48.8034 28.4536 48.5335 27.8821 48.1858C28.8618 49.6541 29.9032 51.0025 30.5034 52.6923L30.4889 52.6469ZM24.8281 47.021C25.3858 46.7624 26.0115 46.6223 26.6498 46.6783C27.011 46.7128 27.3658 46.7895 27.7107 46.9293C27.2163 45.9464 26.8222 45.1516 26.37 44.1752C25.4709 46.2147 24.7404 46.0581 24.3548 46.0413L24.8281 47.021ZM21.5527 34.6456C21.2724 34.6452 20.9692 34.7923 20.6707 35.048C20.4971 35.1936 20.338 35.3847 20.2 35.579C19.7037 36.9691 18.9768 38.7333 19.9983 41.4595C21.5054 45.6419 23.0224 45.3166 23.7538 44.9123C24.3457 44.5727 24.7017 43.8082 24.5228 43.1547C24.4793 43.0185 24.6851 42.9426 24.7497 43.082C25.0274 43.794 24.9273 44.5768 24.4323 45.1256C24.7047 45.0384 24.9901 44.867 25.2189 44.6436C25.2708 44.587 25.3017 44.5271 25.3536 44.4704C25.5538 43.8758 25.5144 43.1577 25.4979 42.2921C25.4425 41.3989 25.2917 40.4261 25.0224 39.5213C24.7776 38.5986 24.4629 37.7083 24.0267 36.9069C23.6147 36.0878 23.1022 35.3609 22.4564 34.937C22.301 34.8265 22.1568 34.7826 21.9982 34.6932C21.8508 34.6703 21.7099 34.6053 21.577 34.6278L21.5527 34.6456ZM19.0387 22.3669C18.8393 22.4006 18.6302 22.4976 18.4533 22.6643C16.8761 24.2101 17.9647 27.6156 18.6004 29.3541C18.7264 29.6541 18.8523 29.9542 19.0367 30.1554C19.2211 30.3567 19.4509 30.5434 19.5983 30.5663C19.9044 30.6785 20.4302 30.0698 20.6758 29.4607C20.9668 28.837 21.1623 28.1338 21.1682 27.4011C21.4491 28.092 21.3912 28.8814 21.2313 29.6332C21.1514 30.0092 21.0082 30.3753 20.7776 30.7494C20.6363 30.9648 20.4042 31.2093 20.101 31.3564C20.5802 31.6034 21.1133 31.643 21.4441 31.4571C21.8657 31.2421 22.1599 30.5974 22.2599 29.8146C22.3777 29.0562 22.3546 28.2327 22.2651 27.4205C22.1147 26.1673 21.7003 24.8084 21.0717 23.7183C20.6822 23.0321 19.815 22.2285 19.0176 22.3636L19.0387 22.3669ZM302.639 122.34C308.724 98.0199 311.851 47.4789 230.209 59.5025C209.446 63.074 191.179 69.8811 177.717 74.3493C177.581 74.3929 171.483 76.4447 171.87 76.3107C145.871 84.8513 111.272 86.1442 86.4082 75.8528C60.0179 64.6986 42.9873 39.9382 29.2328 15.1905C25.2136 7.18728 23.732 1.17485 22.1827 4.62367C21.8024 5.40605 21.6875 6.42384 21.4139 7.35225C20.3748 11.9591 20.3887 16.7295 21.0947 21.3485C21.1734 21.8138 22.7867 23.2295 23.0774 23.8572C24.3469 26.514 23.576 28.4224 23.6448 31.1732C23.762 35.1398 34.2073 61.337 55.9784 80.9866C66.5315 90.5224 79.1608 97.3817 92.9619 100.863C106.162 104.186 119.908 104.552 133.414 103.543C147.488 102.492 161.416 100.017 175.302 97.535C189.01 95.09 202.734 92.5397 216.614 91.3512C229.509 90.2473 242.692 90.3529 255.336 93.5035C258.741 94.356 261.926 95.649 265.259 96.6845C279.01 101.043 290.089 111.221 295.197 124.291C296.885 128.976 297.814 134.105 297.038 139.098C299.09 133.526 301.072 127.987 302.611 122.379L302.639 122.34ZM282.62 152.501C284.562 152.22 286.368 151.421 288 150.359C289.415 148.745 290.664 146.954 291.606 145.05C292.107 144.049 292.544 143.038 292.852 142.029C293.015 141.536 293.139 141.016 293.19 140.549C293.265 140.065 293.272 139.462 293.315 138.908C293.638 134.47 292.752 130.039 291.018 125.929C290.935 125.765 290.856 125.58 290.795 125.42C290.258 127.213 289.255 128.805 288.058 130.13C287.136 131.065 286.129 131.858 285.036 132.508C284.873 132.72 284.714 132.911 284.534 133.099C283.747 133.862 282.949 134.557 281.896 135.084C280.868 135.594 279.753 135.83 278.682 135.923C277.37 136.043 276.111 135.955 274.886 135.786C275.496 136.162 276.103 136.558 276.704 136.996C278.238 138.227 279.586 139.688 280.555 141.5C281.041 142.395 281.399 143.422 281.51 144.518C281.644 145.596 281.458 146.797 281.114 147.757C280.589 149.337 279.613 150.76 278.36 151.882C279.68 152.411 280.948 152.716 282.582 152.473L282.62 152.501ZM251.429 144.484C254.343 146.555 257.607 148.313 260.941 149.759C261.204 149.865 261.447 149.967 261.711 150.073C263.36 150.566 264.997 150.993 266.627 151.333C268.431 151.656 270.246 151.916 271.873 151.716C272.685 151.626 273.425 151.439 273.954 151.09C274.483 150.74 274.811 150.295 274.997 149.655C275.203 149.018 275.279 148.253 275.217 147.402C275.152 146.572 274.968 145.81 274.697 145.056C274.155 143.548 273.002 142.225 271.722 140.883C269.132 138.258 266.143 135.982 262.824 134.021C266.6 134.845 270.197 136.676 273.259 139.18C274.797 140.39 276.324 141.943 277.26 143.966C277.73 144.966 277.967 146.082 278.08 147.157C278.127 147.552 278.125 147.983 278.122 148.415C278.429 147.966 278.718 147.493 278.926 146.986C279.244 146.194 279.39 145.526 279.364 144.724C279.334 143.942 279.112 143.153 278.781 142.368C278.119 140.798 277.007 139.352 275.732 138.118C274.588 137.013 273.264 136.095 271.86 135.273C268.208 134.49 264.642 133.289 261.256 131.62C260.273 131.143 259.343 130.61 258.397 130.032C258.004 129.928 257.631 129.827 257.238 129.723C256.458 129.601 255.7 129.484 254.939 129.387C254.139 129.263 253.353 129.184 252.585 129.129C251.849 129.145 251.104 129.223 250.402 129.438C248.733 129.912 247.184 130.858 246.21 132.131C245.75 132.728 245.432 133.391 245.261 134.076C245.512 133.705 245.803 133.362 246.108 133.064C246.909 132.347 247.877 131.807 248.873 131.509C249.91 131.217 250.954 131.163 251.95 131.275C253.967 131.48 255.769 132.235 257.44 133.141C255.528 132.952 253.664 132.598 251.885 132.667C250.109 132.715 248.493 133.262 247.282 134.39C246.061 135.452 245.601 137.02 246.148 138.637C246.675 140.38 248.195 142.256 251.3 144.486L251.429 144.484ZM217.862 139.271C220.534 139.427 223.266 139.333 225.943 139.037C228.613 138.783 231.377 138.349 233.782 137.579C235.992 136.822 238.347 134.987 238.732 133.062C238.94 132.145 238.465 131.036 237.636 130.26C236.815 129.442 235.586 128.884 234.331 128.495C231.781 127.689 228.976 127.426 226.203 127.362C228.947 126.774 231.815 126.637 234.676 127.103C236.102 127.367 237.585 127.814 238.899 128.794C239.231 129.019 239.525 129.345 239.823 129.65C240.072 129.991 240.324 130.31 240.521 130.708C240.943 131.464 241.118 132.419 241.065 133.317C241.059 133.359 241.052 133.401 241.046 133.443C241.431 132.769 241.693 132.055 241.807 131.317C241.887 130.941 241.841 130.546 241.878 130.163C241.874 129.774 241.807 129.375 241.76 128.98C241.643 128.207 241.383 127.519 240.987 126.875C239.801 125.072 237.815 123.836 235.577 122.971C235.211 122.828 234.824 122.681 234.433 122.556C234.106 122.44 233.797 122.349 233.467 122.255C233.259 122.201 233.055 122.126 232.848 122.072C228.671 122.999 224.487 123.276 220.336 123.344C217.057 123.352 213.646 123.232 210.35 122.375C203.669 124.984 202.442 130.662 205.49 135.062C205.247 133.989 205.249 132.587 205.668 131.551C207.008 128.48 210.248 128.034 213.27 127.877C211.918 128.25 210.545 128.619 209.406 129.284C208.062 130.024 206.931 131.337 206.951 132.873C206.97 133.027 206.951 134.404 207.634 135.417C208.195 136.388 214.497 139.136 217.883 139.274L217.862 139.271ZM189.054 140.492C192.057 139.901 196.642 139.125 196.966 136.068C197.471 132.673 191.346 131.01 187.978 130.336C182.316 131.937 175.856 132.013 169.657 130.273C168.751 130.133 167.873 129.953 166.987 129.686C163.957 131.286 163.24 133.678 164.161 136.216C164.534 136.597 164.912 136.937 165.291 137.276C165.205 135.191 166.877 133.035 171.007 132.964C170.342 133.357 169.663 133.705 169.064 134.086C168.059 134.729 167.202 135.523 167.022 136.682C166.757 138.388 169.084 139.656 170.682 140.336C170.85 140.362 179.093 142.419 189.033 140.489L189.054 140.492ZM143.744 143.811C144.624 143.84 145.532 143.83 146.421 143.795C146.68 143.792 152.966 144.424 156.595 137.997C157.195 137.054 157.408 136.095 157.105 135.551C156.979 135.251 156.615 134.958 156.205 134.678C155.747 134.434 155.24 134.226 154.667 134.029C152.322 133.298 149.877 132.789 147.323 132.436C149.835 131.812 152.491 131.793 155.096 132.24C155.433 132.293 155.784 132.39 156.118 132.464C156.469 132.562 156.811 132.723 157.159 132.841C157.536 133.051 157.931 133.285 158.295 133.579C158.21 133.436 158.148 133.275 158.042 133.129C157.611 132.566 156.993 132.104 156.323 131.697C154.965 130.861 153.295 130.364 151.612 129.952C151.071 129.825 150.551 129.701 150.007 129.595C149.334 129.9 148.647 130.16 147.984 130.402C146.57 130.895 145.149 131.3 143.68 131.589C140.768 132.151 137.767 132.311 134.828 132.07C134.575 132.031 134.323 131.991 134.067 131.973C133.885 132.031 133.703 132.089 133.543 132.151C132.301 132.648 131.133 133.503 130.339 134.587C130.042 134.973 129.844 135.417 129.667 135.864C130.051 135.47 130.468 135.147 130.878 134.865C132.857 133.511 135.206 132.69 137.518 132.66C135.327 133.442 133.366 134.54 131.721 135.967C127.903 139.301 131.78 140.723 134.117 141.647C135.152 142.067 136.206 142.36 137.278 142.677C139.432 143.249 141.668 143.575 143.986 143.784C143.919 143.795 143.832 143.803 143.765 143.814L143.744 143.811Z" fill="#1A1A18"/>
<path d="M108.143 118.367C108.444 118.651 108.717 118.974 108.893 119.368C109.09 119.766 109.19 120.234 109.149 120.638C109.088 121.448 108.523 122.31 107.769 122.301C108.237 121.791 108.181 121.178 107.99 120.738C107.821 120.302 107.447 120.071 107.028 119.855C106.161 119.462 104.89 119.178 103.763 118.938C102.632 118.719 101.368 118.523 100.299 118.465C99.7839 118.45 99.2832 118.48 98.9005 118.722C98.4723 118.979 98.0812 119.415 98.1028 120.109C97.5543 119.614 97.5996 118.628 98.03 117.94C98.5123 117.195 99.3101 116.779 100.051 116.592C101.526 116.261 102.854 116.316 104.238 116.574C104.926 116.724 105.587 116.913 106.238 117.165C106.864 117.435 107.548 117.757 108.153 118.304L108.143 118.367Z" fill="#1A1A18"/>
<path d="M212.692 113.547C213.329 112.503 214.349 111.906 215.297 111.492C216.252 111.037 217.28 110.808 218.244 110.569C219.275 110.319 220.343 110.248 221.338 110.23C223.366 110.221 225.422 110.454 227.407 111.28C227.911 111.51 228.414 111.739 228.871 112.133C229.309 112.504 229.764 113.049 229.894 113.738C230.003 114.424 229.758 115.033 229.433 115.457C229.126 115.906 228.712 116.208 228.299 116.511C228.734 115.651 229.133 114.612 228.766 114.059C228.483 113.519 227.643 113.237 226.81 113.043C225.1 112.67 223.189 112.61 221.357 112.606C220.407 112.61 219.539 112.647 218.636 112.766C217.691 112.878 216.782 113.039 215.912 113.228C213.763 113.735 212.601 114.547 213.269 116.636C213.208 116.475 211.777 115.412 212.692 113.547Z" fill="#1A1A18"/>
<path d="M223.329 128.923C223.76 128.925 224.184 128.969 224.612 128.992L224.928 129.041L225.138 129.074L225.328 129.104C225.556 129.161 225.743 129.211 225.95 129.265C226.752 129.519 227.535 129.749 228.3 130.105C229.046 130.436 229.804 130.834 230.511 131.419C230.681 131.575 230.851 131.731 231.014 131.929C231.156 132.123 231.349 132.412 231.314 132.774C231.259 133.132 230.994 133.306 230.785 133.403C230.576 133.5 230.38 133.513 230.159 133.543C230.455 133.309 230.779 132.885 230.648 132.756C230.574 132.68 230.257 132.501 229.926 132.407C229.251 132.173 228.496 132.034 227.745 131.874C226.986 131.756 226.238 131.575 225.48 131.457L224.827 131.356L224.463 131.343C224.101 131.308 223.716 131.291 223.369 131.302C221.13 131.278 218.971 131.568 216.928 132.502C216.265 132.745 215.681 133.172 215.427 133.974C214.558 131.66 219.158 128.836 223.392 128.932L223.329 128.923Z" fill="#1A1A18"/>
<path d="M175.441 136.5C176.857 133.635 185.324 131.886 189.737 136.239C185.904 135.924 182.883 135.52 177.969 136.612C177.322 136.749 176.787 136.86 176.416 137.169C176.082 137.376 175.795 138.109 176.341 138.625C175.623 138.664 174.97 137.592 175.459 136.524L175.441 136.5Z" fill="#1A1A18"/>
<path d="M49.3914 91.8732C49.9463 91.3552 50.527 90.9492 51.4587 90.9213C52.3207 90.9257 52.944 91.2167 53.5884 91.511C54.2118 91.802 54.7767 92.1918 55.3172 92.5994C55.8545 93.028 56.3399 93.5134 56.77 94.0764C57.1758 94.6573 57.5962 95.2835 57.6759 96.1589C57.6642 96.3729 57.6946 96.5934 57.6376 96.8218C57.5595 97.047 57.5268 97.2577 57.3855 97.4731C57.124 97.9072 56.657 98.1367 56.2793 98.2075C55.4885 98.3004 54.8586 98.0515 54.2839 97.7249C54.9353 97.6967 55.5932 97.6262 56.0214 97.3691C56.2338 97.2511 56.3232 97.0924 56.3461 96.9449C56.3559 96.8817 56.3334 96.7487 56.3643 96.6888C56.3563 96.6013 56.3095 96.4861 56.3015 96.3986C55.9771 95.5714 55.0743 94.7192 54.1939 93.9999C53.7554 93.6298 53.2682 93.2952 52.7744 93.0027C52.3018 92.7136 51.7626 92.4356 51.3723 92.3103C51.0419 92.2158 50.3742 92.3494 49.9315 92.5612C49.6981 92.6759 49.5067 92.7972 49.4805 92.9658C49.4511 93.1554 49.6434 93.4442 49.8877 93.6763C49.5751 93.6062 49.1994 93.5262 49.0121 93.0656C48.8524 92.5662 49.1771 92.1419 49.4092 91.8975L49.3914 91.8732Z" fill="#1A1A18"/>
<path d="M28.0571 53.0241C28.439 53.3423 28.7447 53.735 28.9806 54.16C29.4768 54.9922 29.7118 55.9781 29.6278 56.9359C29.568 57.876 29.1859 58.8091 28.4882 59.4127C28.4993 58.5083 28.4243 57.7415 28.2309 57.0426C28.0376 56.3437 27.7955 55.6804 27.4351 55.085C27.267 54.7784 27.0714 54.5107 26.8547 54.2397C26.638 53.9687 26.3969 53.7155 26.1849 53.5532C25.9729 53.3908 25.7446 53.3337 25.6603 53.3206C25.5031 53.361 25.1962 53.8095 25.5668 54.0613C25.3366 54.155 25.0193 53.9762 24.9355 53.6827C24.8241 53.4281 24.81 53.1023 24.9677 52.7815C25.4224 52.0754 26.2146 52.1122 26.7313 52.2572C27.2901 52.4087 27.6963 52.7091 28.0571 53.0241Z" fill="#1A1A18"/>
<path d="M37.9389 72.1644C38.2674 72.4096 38.5862 72.718 38.8628 73.0199C39.9594 74.2906 40.6195 76.0113 40.2735 77.6836C39.7301 77.0166 39.3065 76.4114 38.8553 75.8451C38.4041 75.2788 37.9707 74.7368 37.5129 74.2126C37.0519 73.7095 36.5408 73.1123 36.1767 72.8184C36.0812 72.7389 35.9792 72.7014 35.8804 72.6429C35.8028 72.5877 35.6975 72.5714 35.5646 72.5939C35.3198 72.6422 34.9745 72.7827 34.9479 73.2317C34.5627 72.9345 34.6918 72.2426 35.0731 71.8703C35.2532 71.6825 35.5354 71.5321 35.8466 71.4726C36.1367 71.4098 36.4104 71.4523 36.6809 71.5159C37.2008 71.6398 37.6104 71.9191 37.9389 72.1644Z" fill="#1A1A18"/>
<path d="M79.2417 112.821C79.3006 112.442 79.0468 111.992 78.6925 111.635C77.9208 110.911 76.8865 110.211 75.8616 109.728C74.8399 109.224 73.6723 108.827 72.5984 108.66C72.0929 108.582 71.5679 108.63 71.1819 108.893C70.7959 109.157 70.4305 109.705 70.6337 110.34C70.0543 109.905 70.0962 108.941 70.5412 108.298C71.038 107.598 71.855 107.337 72.6005 107.258C74.0605 107.161 75.3853 107.518 76.6531 108.104C77.89 108.749 78.9744 109.543 79.815 110.795C80.2143 111.418 80.5046 112.326 80.0513 113.162C79.8239 113.515 79.5043 113.768 79.1202 113.881C78.757 113.997 78.3181 113.907 78.1014 113.636C78.7654 113.804 79.1795 113.221 79.2449 112.8L79.2417 112.821Z" fill="#1A1A18"/>
<path d="M86.8062 123.403C87.248 123.752 87.7465 124.153 88.0648 124.742C88.2361 125.028 88.3766 125.373 88.4084 125.723C88.4614 126.077 88.3716 126.516 88.1994 126.791C88.024 127.087 87.7709 127.329 87.4709 127.455C87.171 127.581 86.8065 127.567 86.5734 127.402C87.1438 127.339 87.3698 126.856 87.3865 126.471C87.4211 126.109 87.2044 125.838 86.9489 125.54C86.3615 125.017 85.4274 124.505 84.5611 124.112C83.6981 123.697 82.7556 123.378 81.8243 123.126C81.3676 123.011 80.9675 122.949 80.6044 123.066C80.2656 123.164 79.8454 123.509 79.8867 124.076C79.4369 123.639 79.6099 122.803 80.134 122.345C80.6823 121.869 81.3889 121.763 81.9916 121.771C83.1583 121.758 84.3034 122.022 85.3494 122.508C85.874 122.74 86.3644 123.054 86.8306 123.385L86.8062 123.403Z" fill="#1A1A18"/>
<path d="M23.6278 38.3558C23.8104 38.7078 23.9686 39.0776 24.1025 39.4652C24.2828 40.2483 24.5571 40.9814 24.2494 41.9908C23.841 43.0924 22.3698 43.1228 21.9658 42.3912C22.7188 42.6808 23.3823 42.1582 23.3635 41.7237C23.3934 41.2537 23.171 40.464 22.9678 39.8283C22.7646 39.1926 22.4968 38.4175 22.1846 38.0669C22.0147 37.9111 21.7751 37.7876 21.5514 37.8391C21.3553 37.8518 21.0615 38.2161 21.2441 38.5681C20.8393 38.3974 20.7966 37.7003 21.2411 37.3378C21.6823 36.9964 22.2785 37.0459 22.7301 37.3318C23.185 37.5966 23.4209 38.0216 23.6278 38.3558Z" fill="#1A1A18"/>
<path d="M19.7709 24.5949C20.0068 25.0199 20.1163 25.4253 20.174 25.8873C20.2537 26.7628 20.04 27.722 19.3569 28.3711C19.133 27.4517 19.0903 26.7547 18.991 26.0057L18.9052 24.892C18.886 24.738 18.8878 24.5872 18.841 24.4721C18.7975 24.3358 18.6907 24.1898 18.438 24.1506C18.5793 23.9352 18.9294 23.9032 19.1933 24.009C19.475 24.139 19.6529 24.3824 19.7709 24.5949Z" fill="#1A1A18"/>
<path d="M242.909 83.1155C248.678 83.6016 254.415 84.428 260.091 85.6548C262.891 86.3702 265.726 87.0047 268.511 87.9551C271.303 88.8634 273.989 90.0358 276.607 91.3702C279.204 92.7013 281.699 94.2754 284.058 96.0228C286.391 97.809 288.536 99.8251 290.459 102.023C292.331 104.277 293.931 106.747 295.186 109.359C296.392 112.006 297.162 114.822 297.565 117.647C296.785 114.893 295.729 112.248 294.297 109.803C292.838 107.398 291.114 105.166 289.158 103.18C287.175 101.232 285.014 99.4507 282.688 97.9028C280.335 96.3937 277.919 95.0045 275.38 93.855C272.838 92.7266 270.234 91.718 267.556 90.9136C264.901 90.0914 262.138 89.5543 259.384 88.954C253.858 87.8799 248.264 87.0974 242.636 86.6763C237.008 86.2552 231.352 86.1534 225.701 86.2899C220.048 86.4475 214.391 86.9065 208.757 87.4985C203.127 88.1991 197.498 89.0294 191.915 90.1256C186.331 91.2217 180.778 92.5384 175.212 93.9393C180.528 91.7876 185.982 90.0023 191.511 88.423C197.048 86.9313 202.675 85.6909 208.365 84.7408C214.056 83.7906 219.789 83.2571 225.559 82.902C231.334 82.6554 237.123 82.7347 242.888 83.1122L242.909 83.1155Z" fill="#1A1A18"/>
<path d="M76.3542 85.036C81.3875 87.7596 86.658 90.067 92.0768 91.8364C97.4857 93.669 103.082 94.9912 108.761 95.9165C114.413 96.8806 120.164 97.3424 125.933 97.5481C137.464 97.8719 149.06 96.8034 160.506 94.4818C149.441 98.2433 137.693 100.151 125.911 100.328C120.026 100.449 114.115 100.049 108.244 99.2452C102.38 98.3991 96.5911 97.0684 90.9505 95.1999C85.3375 93.2924 79.8906 90.8714 74.715 87.9531C69.567 84.9959 64.674 81.6468 60.1852 77.778C51.1734 70.1213 43.6079 60.7906 38.3496 50.3511C44.889 60.0402 52.8349 68.5886 61.9205 75.631C66.4892 79.1239 71.2755 82.327 76.3364 85.0117L76.3542 85.036Z" fill="#1A1A18"/>
<path d="M296.192 102.891C294.629 100.318 292.775 97.9588 290.576 95.8696C288.422 93.766 286.043 91.8646 283.471 90.2353C278.389 86.8567 272.765 84.322 266.864 82.607C260.941 80.8888 254.754 80.0358 248.411 79.9136C254.619 78.5476 261.186 78.6182 267.521 79.9042C270.705 80.5067 273.807 81.5062 276.812 82.7066C279.811 83.9491 282.694 85.5189 285.422 87.2587C288.139 89.0616 290.685 91.1399 292.971 93.5015C295.208 95.8987 297.228 98.5857 298.638 101.588C300.096 104.555 300.973 107.798 301.222 111.051C301.451 114.302 301.098 117.548 300.171 120.597C300.318 117.427 300.179 114.298 299.501 111.302C298.866 108.312 297.71 105.479 296.189 102.912L296.192 102.891Z" fill="#1A1A18"/>
<path d="M296.047 88.4131C293.62 85.296 290.605 82.627 287.256 80.4455C283.883 78.2818 280.171 76.6266 276.203 75.514C276.526 75.521 288.824 75.4892 297.916 86.9341C300.542 90.2979 302.459 94.1989 303.485 98.285C304.532 102.374 304.727 106.677 303.881 110.731C303.724 106.607 303.01 102.591 301.701 98.8061C300.366 95.0389 298.502 91.4914 296.029 88.3888L296.047 88.4131Z" fill="#1A1A18"/>
<path d="M97.9375 91.3225C93.341 90.0908 88.8456 88.4864 84.5761 86.3992C80.3033 84.3331 76.2224 81.8653 72.5391 78.9199C76.7599 81.0427 80.9826 83.0146 85.311 84.7226C89.6427 86.4094 94.0492 87.8921 98.5291 89.0411C103.002 90.2321 107.567 91.1137 112.164 91.7846C116.765 92.4344 121.432 92.7926 126.14 93.0276C121.471 93.7911 116.701 93.9564 111.985 93.6338C107.241 93.3501 102.537 92.5332 97.9342 91.3436L97.9375 91.3225Z" fill="#1A1A18"/>
<path d="M29.9423 38.5375C28.4019 36.0976 27.1712 33.4683 26.1464 30.7632C25.167 28.0436 24.3935 25.248 23.9733 22.3995C23.532 19.5477 23.3775 16.6541 23.6719 13.7871C24.3612 16.5696 25.0149 19.3033 25.7804 22.0113C26.5493 24.6983 27.3878 27.3529 28.3658 29.9428C29.3194 32.5506 30.4093 35.1148 31.5688 37.6467C32.7494 40.1818 34.0208 42.6879 35.3277 45.2426C33.2422 43.2574 31.4617 40.9743 29.9456 38.5165L29.9423 38.5375Z" fill="#1A1A18"/>
<path d="M231.207 75.5589C231.327 76.872 228.864 78.1508 225.717 78.4172C222.57 78.6835 219.919 77.8402 219.817 76.5515C219.697 75.2384 222.161 73.9596 225.308 73.6932C228.454 73.4269 231.106 74.2701 231.207 75.5589Z" fill="#1A1A18"/>
<path d="M198.954 76.7417C199.185 78.0291 197.683 79.3708 195.644 79.7229C193.584 80.0718 191.764 79.2929 191.533 78.0056C191.322 76.7215 192.804 75.3766 194.843 75.0244C196.881 74.6722 198.722 75.4544 198.954 76.7417Z" fill="#1A1A18"/>
<path d="M137.911 91.813C141.044 91.6309 143.64 92.5519 143.718 93.8585C143.795 95.1651 141.321 96.3774 138.187 96.5595C135.053 96.7416 132.457 95.8205 132.38 94.514C132.302 93.2074 134.777 91.9951 137.911 91.813Z" fill="#1A1A18"/>
<path d="M59.4146 62.7494C60.2797 61.7618 62.7333 62.4882 64.8773 64.3746C67.0213 66.2611 68.0596 68.6015 67.1735 69.5858C66.3084 70.5734 63.8548 69.8471 61.7108 67.9606C59.5667 66.0741 58.5284 63.7337 59.4146 62.7494Z" fill="#1A1A18"/>
<path d="M255.174 71.3629C255.226 70.0549 257.791 69.0939 260.852 69.2456C263.936 69.3796 266.384 70.5581 266.329 71.8872C266.277 73.1952 263.712 74.1561 260.652 74.0044C257.567 73.8705 255.119 72.692 255.174 71.3629Z" fill="#1A1A18"/>
<path d="M252.277 69.3165C252.319 70.294 250.98 71.1431 249.309 71.2073C247.638 71.2714 246.246 70.5158 246.204 69.5383C246.161 68.5608 247.501 67.7117 249.172 67.6475C250.842 67.5834 252.235 68.339 252.277 69.3165Z" fill="#1A1A18"/>
<path d="M209.629 80.4926C211.336 80.1967 212.845 80.7547 213.017 81.7308C213.189 82.7068 211.932 83.7198 210.225 84.0157C208.519 84.3116 207.009 83.7535 206.837 82.7775C206.665 81.8015 207.923 80.7885 209.629 80.4926Z" fill="#1A1A18"/>
<path d="M170.604 83.6224C170.734 84.5919 169.018 85.6416 166.748 85.9578C164.477 86.274 162.534 85.7348 162.404 84.7653C162.274 83.7958 163.99 82.7461 166.261 82.4299C168.531 82.1137 170.475 82.6529 170.604 83.6224Z" fill="#1A1A18"/>
<path d="M70.9118 76.6173C70.4131 77.4676 68.9563 77.5434 67.6305 76.7765C66.3047 76.0096 65.6456 74.699 66.1232 73.8454C66.6219 72.9951 68.0786 72.9193 69.4045 73.6862C70.7303 74.4531 71.3894 75.7638 70.9118 76.6173Z" fill="#1A1A18"/>
<path d="M54.1061 55.8394C54.7602 55.0996 55.9123 55.0412 56.6906 55.723C57.4689 56.4049 57.5936 57.5462 56.9363 58.3071C56.2822 59.047 55.1301 59.1054 54.3485 58.4446C53.5702 57.7627 53.4455 56.6214 54.1029 55.8605L54.1061 55.8394Z" fill="#1A1A18"/>
<path d="M30.7419 25.3281C31.4704 24.6645 33.2127 25.3882 34.6346 26.9252C36.0532 28.4832 36.616 30.2751 35.8875 30.9387C35.159 31.6023 33.4167 30.8786 31.9948 29.3416C30.5762 27.7836 30.0134 25.9917 30.7419 25.3281Z" fill="#1A1A18"/>
</g>
<defs>
<clipPath id="clip0_434_706">
<rect width="125" height="303" fill="white" transform="matrix(-0.15348 0.988152 0.988152 0.15348 20.1836 0.96875)"/>
</clipPath>
</defs>
</svg>
