<svg width="326" height="203" viewBox="0 0 326 203" fill="none" xmlns="http://www.w3.org/2000/svg">
<g clip-path="url(#clip0_446_10009)">
<path d="M54.8023 49.0839C55.4116 47.7941 56.9296 47.0499 58.0664 47.5717C56.9075 47.7528 56.2507 48.7411 56.1995 49.5465C56.1104 50.4077 56.4663 51.262 57.018 51.9725C58.8083 54.4081 61.1205 55.7063 63.8948 56.781C65.0139 57.2091 66.326 57.5811 67.4844 57.0896C68.0869 56.8394 68.6041 56.3434 68.7991 55.7339C68.9941 55.1243 68.8316 54.3691 68.3273 53.9602C68.9834 54.1463 69.9743 54.8704 70.3179 55.4554C70.7643 56.2246 70.7692 57.2232 70.4224 58.0556C69.8598 59.3365 68.5766 60.3467 67.0019 60.432C64.3732 60.4845 62.0649 59.7192 59.9373 58.4733C57.8564 57.2185 56.0057 55.3863 54.9768 53.0779C54.4095 51.8755 54.2192 50.359 54.8344 49.0487L54.8023 49.0839Z" fill="#1A1A18"/>
<path d="M76.2859 37.8455C75.7038 38.1016 75.1273 38.1819 74.6386 38.2649C74.1293 38.3421 73.6171 38.352 73.0843 38.3561C71.0116 38.3224 68.9408 37.7353 67.118 36.6644C66.2094 36.1187 65.371 35.4821 64.629 34.7399C63.9074 34.0034 63.1299 33.0738 62.7909 31.8475C62.4519 30.6212 62.6775 29.2004 63.6272 28.273C64.1327 27.818 64.7647 27.6205 65.3326 27.6486C65.9006 27.6766 66.4808 27.9741 66.7363 28.4011C65.7959 28.0458 64.9394 28.6451 64.7618 29.1931C64.5112 29.7647 64.6589 30.4935 64.9732 31.0258C65.6368 32.1226 67.2051 33.2321 68.6002 34.093C70.0626 34.9508 71.6505 35.6005 73.3433 36.0362C74.1546 36.2219 75.165 36.4862 75.812 36.4702C76.1486 36.4548 76.4032 36.4162 76.5403 36.167C76.6569 35.912 76.6646 35.338 76.1346 35.2542C76.3568 35.0956 76.7111 35.1739 76.9428 35.3725C77.1744 35.5712 77.3155 35.8549 77.3717 36.2033C77.4338 36.5311 77.2591 36.9913 77.0605 37.2231C76.8502 37.4958 76.5491 37.6986 76.2654 37.8397L76.2859 37.8455Z" fill="#1A1A18"/>
<path d="M181.701 66.6037C181.723 66.056 181.924 65.5812 182.251 65.2085C182.578 64.8359 183.081 64.624 183.492 64.7403C182.819 65.2366 182.914 65.9949 183.155 66.3956C183.381 66.7699 183.865 67.0178 184.401 67.2363C185.587 67.6613 186.973 68.0098 188.276 68.1798C189.579 68.3498 190.978 68.4142 192.275 68.2943C193.583 68.1334 194.903 67.9314 196.001 66.7137C196.073 67.5541 195.653 68.4101 195.063 69.0849C194.438 69.7275 193.698 70.227 192.876 70.5479C191.253 71.1956 189.552 71.334 187.863 71.1209C186.158 70.8814 184.594 70.3049 183.155 69.2098C182.428 68.6491 181.706 67.7575 181.686 66.5773L181.701 66.6037Z" fill="#1A1A18"/>
<path d="M156.568 66.8801C151.695 71.7254 141.831 69.3275 141.162 65.437C141.021 64.1341 141.825 63.2539 142.548 63.2816C142.016 63.9065 142.237 64.6118 142.545 65.0094C143.244 65.8279 146.872 66.3912 147.938 66.5383C149.302 66.7257 153.951 66.8915 156.562 66.9006L156.568 66.8801Z" fill="#1A1A18"/>
<path d="M183.568 51.4217C184.792 51.6358 185.97 51.8588 187.141 51.9471C188.326 52.0617 189.486 52.0358 190.902 51.7282C190.246 53.0269 188.816 53.929 187.368 54.2718C185.913 54.6351 184.42 54.5885 183.067 54.36C182.394 54.2355 181.706 54.0847 181.076 53.884C180.44 53.7038 179.611 53.4244 178.881 52.7963C178.151 52.1683 177.646 51.1385 177.916 50.1071C178.218 49.0405 179.412 48.5812 180.016 49.107C179.302 49.2813 179.166 49.9961 179.359 50.2505C179.515 50.5606 179.849 50.7883 180.198 50.8871C180.567 50.9917 181.056 51.0639 181.694 51.1563C182.333 51.2486 182.965 51.3615 183.583 51.448L183.568 51.4217Z" fill="#1A1A18"/>
<path d="M217.56 61.4586C216.374 61.0336 215.31 60.333 214.427 59.4622C213.976 59.0239 213.398 58.3282 213.437 57.4086C213.5 56.8725 213.795 56.5351 214.158 56.3498C214.5 56.1588 214.995 56.2104 215.151 56.5205C214.527 56.4545 214.42 57.222 214.593 57.3153C214.746 57.558 215.091 57.7447 215.54 57.9605C216.492 58.4299 217.43 58.8731 218.391 59.2341C219.351 59.5952 220.344 59.9211 221.381 60.1707C222.427 60.4672 223.502 60.6611 224.708 60.9368C223.667 61.6389 222.447 61.9577 221.209 62.0277C219.971 62.0977 218.721 61.8983 217.54 61.4528L217.56 61.4586Z" fill="#1A1A18"/>
<path d="M201.683 51.438L206.726 52.4025C215.833 47.9377 231.852 57.3771 231.124 63.7744L232.777 64.6641C233.663 64.1175 234.625 63.9251 235.533 63.8499C238.276 63.7855 247.274 66.7358 250.4 69.6166C251.767 70.8905 253.002 72.3931 253.755 74.2686C254.082 75.2255 254.274 76.3438 253.987 77.4367C253.719 78.5355 253.045 79.4301 252.182 80.0498C252.098 80.1144 252.019 80.1585 251.94 80.2026C252.198 80.3866 252.456 80.5705 252.714 80.7545C254.431 81.7289 255.985 82.9673 257.357 84.3759C257.84 84.0029 258.442 83.7527 259.054 83.7046C260.392 83.5963 261.648 84.0856 262.733 84.6367C264.954 85.7097 266.88 87.2752 268.578 89.0199C269.408 89.9201 270.186 90.8497 270.893 91.8702C271.554 92.8996 272.241 93.9143 272.603 95.2138C272.659 95.407 272.71 95.6206 272.733 95.849C272.781 95.9953 272.828 96.1416 272.875 96.288C273.005 97.0784 272.916 98.0947 272.294 98.8048C271.716 99.4385 270.715 99.8419 269.901 99.744C271.197 100.643 272.396 101.803 273.42 102.958C273.79 103.218 274.153 103.498 274.49 103.793C275.326 104.518 276.08 105.374 276.708 106.283C279.041 107.587 281.665 109.971 283.486 112.615C284.349 113.946 285.192 115.426 285.172 117.215C285.023 119.145 283.698 119.678 283.359 119.781C284.896 121.391 286.112 123.509 286.973 125.548C288.503 128.043 289.153 130.909 289.106 132.713C289.042 134.268 288.453 135.408 287.564 136.198L288.19 137.35C288.867 137.542 289.596 137.86 290.3 138.347C294.263 139.449 296.836 147.093 295.993 151.707C295.813 152.498 295.515 153.233 295.101 153.914C294.882 154.295 294.608 154.638 294.351 154.92C294.167 155.333 293.866 155.691 293.495 155.985L293.972 157.427L293.606 157.545C297.105 156.454 300.118 167.702 295.399 170.441L295.835 171.717C296.078 172.03 296.366 172.422 296.557 172.919C297.598 173.702 297.774 175.502 297.978 176.735C298.605 182.962 295.259 183.277 294.718 183.234C294.686 187.879 293.963 192.46 292.22 196.886C291.754 197.906 290.879 201.071 288.386 201.738C287.426 201.998 286.246 201.552 285.599 199.928C279.729 181.178 281.793 185.93 278.316 178.894C271.384 164.829 262.634 149.827 251.811 138.47C240.655 126.798 229.659 120.267 210.675 115.505C163.736 103.947 137.482 121.855 90.369 123.721C62.4787 124.744 23.1459 119.952 16.5293 87.2728C13.327 75.1294 15.2037 62.9635 20.0447 51.749C21.9323 42.2011 26.2713 33.304 32.935 26.1297C36.093 22.7259 39.8509 19.1599 44.3944 17.7445C46.8754 16.9632 50.3238 16.988 53.0486 18.1595C54.358 18.6194 55.4572 19.3521 56.2405 20.2612C57.8554 19.7218 59.2313 19.713 60.941 19.7768C64.9608 20.0522 68.7514 21.3708 72.186 23.3196C75.4743 25.3157 78.6109 27.5346 81.4322 30.2404C82.8107 31.6285 84.1133 33.128 85.1705 34.8682C85.7167 35.7543 86.1928 36.7314 86.5168 37.7762C88.538 38.4601 90.5913 39.1087 92.7031 39.7075C93.5716 39.2225 94.4989 38.8427 95.4849 38.5683C98.4695 37.8854 101.28 37.818 104.154 37.8353C109.761 37.9844 117.79 39.042 121.793 42.9693C123.071 43.7749 123.939 44.6193 124.734 45.6426C126.435 45.8147 128.157 45.9926 129.87 46.1236C130.465 45.2731 131.196 44.5716 132.035 44.034C134.124 42.0557 137.871 41.6553 140.757 41.4764C148.15 41.0243 157.971 43.4984 158.094 43.5333C160.267 44.1495 162.401 45.5301 164.044 47.5473C166.272 47.5806 168.479 47.6081 170.692 47.6151C171.855 46.6374 176.101 43.8522 182.503 44.0055C182.887 43.9812 183.276 43.9365 183.659 43.9122C187.034 43.8055 190.452 44.3312 193.665 45.4196C196.849 46.6105 200.796 48.2391 201.686 51.5054L201.683 51.438ZM228.796 63.4689C228.766 63.2611 228.731 63.0737 228.722 62.8717C228.453 61.8649 227.787 60.856 226.927 59.9031C226.238 59.2867 225.523 58.685 224.743 58.1536C222.879 56.916 220.831 55.9363 218.675 55.1034C214.796 53.6269 212.484 52.6391 208.565 54.1205C208.15 54.4904 207.825 54.9303 207.692 55.4021C207.351 56.5244 207.89 58.1398 208.952 59.2386C210.058 60.4164 211.675 61.2739 213.267 62.3014C211.393 62.1912 209.475 61.8468 207.754 60.6498C207.42 60.422 207.104 60.1328 206.834 59.8347C206.951 60.0453 207.095 60.2412 207.239 60.4371C208.24 61.8289 209.624 63.0412 211.104 64.148C211.913 64.7319 212.775 65.2865 213.642 65.8206C213.809 65.7792 213.976 65.7379 214.137 65.717C215.966 65.4379 217.773 65.5511 219.509 65.9106C219.653 65.9513 219.796 65.9919 219.94 66.0326C220.394 66.0727 220.827 66.1069 221.275 66.1674C220.735 65.7264 220.208 65.2443 219.732 64.7329C221.871 65.6273 224.063 66.6476 225.971 66.3244C226.928 66.1525 227.793 65.7553 228.258 65.1335C228.494 64.846 228.611 64.4357 228.736 64.0723C228.747 63.8761 228.779 63.6857 228.811 63.4953L228.796 63.4689ZM231.449 69.8942C231.149 69.233 230.945 68.4662 230.997 67.6607C230.999 67.1073 231.188 66.5182 231.474 65.9788L230.63 65.5179C230.458 65.8902 230.245 66.2508 229.935 66.5619C229.277 67.2398 228.479 67.6339 227.66 67.867C228.966 68.4148 230.244 69.0651 231.46 69.8532L231.449 69.8942ZM243.369 77.4623C243.673 77.4821 243.952 77.5167 244.256 77.5365C244.2 77.4986 244.15 77.4401 244.095 77.4022C243.242 77.0496 242.433 76.6209 241.721 76.0865C241.665 76.0485 241.7 75.9255 241.756 75.9634C244.061 76.8165 246.44 77.4909 248.908 77.4593C252.616 77.425 253.619 76.6234 250.691 73.0452C248.631 70.6219 245.92 68.856 242.932 67.6763C241.446 67.0557 239.92 66.5787 238.345 66.1984C237.524 65.9659 236.871 65.8472 236.187 65.919C235.522 65.9965 234.961 66.2584 234.666 66.751C234.047 67.8387 234.455 69.5276 235.303 70.8319C236.346 72.5457 238.487 74.6819 240.483 76.0013C238.561 75.2791 236.788 74.1115 235.324 72.6328C233.966 71.2506 232.44 69.444 232.676 67.051C232.544 67.2797 232.428 67.5347 232.387 67.8335C232.176 68.815 232.447 69.8891 232.874 70.963C233.463 71.4625 234.046 71.9825 234.566 72.5729C234.959 73.0612 235.346 73.5699 235.681 74.108C235.751 74.1723 235.816 74.2571 235.907 74.3272C237.183 75.531 238.555 76.6291 239.956 77.78C241.109 77.4642 242.28 77.3972 243.369 77.4623ZM236.927 76.5887C237.003 76.7877 237.08 76.9866 237.151 77.2061C237.292 77.8003 237.387 78.4034 237.409 79.03C237.526 78.9302 237.643 78.8304 237.78 78.7364C238.35 78.3662 238.938 78.0896 239.549 77.8863C238.624 77.5573 237.774 77.1169 236.953 76.574L236.927 76.5887ZM251.811 81.8282C248.845 79.7905 246.718 78.855 242.31 79.4003C240.965 80.0825 240.314 81.3607 240.32 82.8249C240.268 86.1342 242.951 88.4683 244.879 90.8099C238.796 87.8886 237.716 83.5714 238.987 80.6519C238.499 81.0454 238.142 81.5205 237.892 82.0921C235.616 87.8514 244.729 95.3991 250.054 98.571C243.467 96.8807 235.54 90.7771 235.2 84.3206C233.049 86.2814 230.068 85.8572 227.201 85.4211C231.132 84.7627 233.942 85.0056 235.085 81.0527C232.232 84.6315 227.553 83.7922 223.529 81.6542C226.147 81.9532 228.817 82.378 230.944 81.5183C233.401 80.5086 234.276 78.6735 233.801 76.6773C232.805 71.8299 224.851 68.4001 220.337 67.0538C219.037 66.9512 217.019 66.6451 214.054 68.508C211.423 70.1331 211.184 72.4588 212.682 74.9887C213.399 76.2113 214.51 77.3686 215.508 78.693C212.802 77.7705 210.433 76.1239 209.64 73.3728C209.922 79.5688 217.474 83.9484 223.385 85.7573C219.916 85.7266 216.433 84.6505 213.379 82.7652C205.525 77.9675 205.517 69.1676 211.457 66.4197C209.121 65.2035 207.152 63.8694 205.409 61.7354C203.472 59.1917 202.596 56.107 204.744 53.7684L201.777 53.2154C201.648 54.5306 200.826 56.4915 199.85 57.5888C199.035 58.5101 198.006 59.1712 196.865 59.6011C200.884 60.8957 206.209 63.602 205.962 67.8312C208.798 76.8126 196.176 84.8459 180.633 79.6635C170.799 76.1439 169.39 64.7084 175.401 60.6953C172.829 59.7666 170.136 58.4047 168.753 56.018C168.203 55.0645 167.903 53.9377 167.942 52.8629C167.928 51.8175 168.266 50.783 168.703 49.8655C167.69 49.8442 166.692 49.8492 165.679 49.828C166.243 50.8078 166.611 51.9315 166.625 53.1322C166.669 55.0063 165.728 56.9997 163.745 58.3656C172.395 63.8761 170.82 74.5098 163.016 79.455C158.724 82.2491 152.712 82.6719 152.571 82.6986C136.382 84.0919 125.071 74.7683 129.037 64.0593C129.009 61.3476 130.198 60.0448 131.22 58.6282C131.538 58.2088 131.891 57.8214 132.274 57.4868C129.326 55.5427 127.647 52.0087 128.735 48.3283C127.869 48.2598 127.028 48.1767 126.167 48.0877C128.135 52.7896 126.217 57.365 122.498 59.8562C128.548 65.1614 128.585 73.7037 122.266 79.1143C118.002 82.8249 112.168 84.4949 106.24 84.6979C158.293 88.2212 217.43 68.5565 259.939 108.709C258.256 105.816 257.014 102.384 258.49 99.3672C256.393 100.435 253.974 100.214 252.362 99.1811C255.248 100.176 258.495 98.881 259.763 96.515C256.616 99.1017 252.882 97.1125 250.005 94.2136C251.93 95.1583 253.847 96.2114 255.764 96.2454C257.573 96.2708 259.518 95.1158 259.521 93.5432C259.714 91.8472 258.445 89.6038 257.643 88.1354C257.261 87.4509 256.832 86.7754 256.409 86.0793C256.315 85.9419 256.242 85.8102 256.168 85.6786C254.869 84.2464 253.42 82.9493 251.805 81.8487L251.811 81.8282ZM180.816 74.3303C179.375 73.9439 177.987 73.3729 176.677 72.6026C175.833 72.1417 175 71.4846 174.275 70.6808C174.628 71.4678 175.039 72.2049 175.556 72.8832C177.061 74.8391 179.166 76.3223 181.477 76.9997C183.987 77.7557 186.561 78.2862 189.135 78.351C191.691 78.4773 194.336 78.2081 196.747 77.5177C199.158 76.8273 201.401 75.5574 202.984 73.7238C203.697 72.9286 204.146 71.9701 204.375 70.9271C203.475 71.7577 202.458 72.3778 201.399 72.831C200.062 73.4049 198.637 73.8209 197.203 73.8796C198.59 73.5194 199.842 72.8549 201.002 72.1203C202.148 71.3594 203.227 70.4463 203.86 69.3849C204.199 68.816 204.32 68.2301 204.261 67.6591C204.19 67.4397 204.146 67.2055 204.049 67.0007C203.987 66.828 203.905 66.6496 203.837 66.4974C203.787 66.439 203.764 66.3658 203.714 66.3074C203.05 65.3658 201.983 64.5979 200.835 63.9619C198.514 62.7721 195.807 62.0047 193.148 61.5389C190.463 61.0878 187.743 60.915 185.042 61.1462C183.684 61.2487 182.349 61.4243 181.012 61.6878C179.674 61.9513 178.422 62.3053 177.34 62.8406C176.258 63.3759 175.428 64.1157 175.067 65.077C174.697 65.9914 174.81 67.1538 175.298 68.2451C175.78 69.3568 176.628 70.1955 177.73 70.9955C178.786 71.8045 179.996 72.4579 181.253 72.9472C183.769 73.9931 186.578 74.4791 189.429 74.2681C186.696 75.1554 183.657 75.0916 180.79 74.345L180.816 74.3303ZM131.214 64.5876C132.695 70.7694 140.388 72.4632 144.398 73.711C136.889 74.7285 131.736 71.4948 129.867 67.4633C130.258 82.3332 162.305 84.6165 166.855 70.8372C163.174 75.0678 155.527 76.3346 150.999 75.1172C156.483 75.5419 166.597 72.1379 166.033 66.5487C165.04 55.8297 130.919 51.5625 131.219 64.5671L131.214 64.5876ZM138.457 54.4309C135.074 53.4718 130.709 51.6801 130.386 48.1315C129.651 50.959 130.935 53.8496 133.415 55.2617C133.825 55.5331 134.473 55.8275 134.59 55.8829C135.795 55.2273 137.123 54.7618 138.457 54.4309ZM44.4172 51.2577C43.4479 49.5203 42.5924 47.6157 42.4799 45.4342C42.4316 44.6671 42.5238 43.8733 42.7595 43.1202C42.6952 43.1906 42.6104 43.2552 42.5462 43.3256C41.2841 44.652 40.3298 46.2207 39.9759 47.9376C39.7436 48.9132 39.7163 49.947 39.809 50.9484C40.9172 53.3678 42.2712 55.7019 43.8531 57.8568C46.4889 61.5293 49.648 64.8405 53.2919 67.5357C54.2506 68.2951 55.2678 69.0045 56.2908 69.6935C59.2239 71.1456 62.3697 72.0818 65.5287 72.2684C67.3293 72.4022 69.1146 72.1992 70.8057 71.7037C71.6659 71.4822 72.435 71.0354 73.2364 70.7087C73.9645 70.2503 74.7482 69.8298 75.3413 69.2224C75.6015 69.008 75.8322 68.7411 76.0572 68.4946C74.0206 68.9587 72.0443 68.8194 70.1409 68.5013C68.1818 68.1453 66.3014 67.59 64.4879 66.8764C62.6803 66.1423 60.9135 65.2646 59.3832 64.0994C61.0974 65.0065 62.9194 65.6117 64.75 66.1086C66.5863 66.5849 68.4576 66.9382 70.3255 67.0689C72.173 67.1938 74.0874 67.1605 75.6876 66.5948C76.4775 66.3091 77.1881 65.9122 77.6554 65.3577C77.9183 65.0555 78.105 64.7096 78.2302 64.3462C78.3465 63.936 78.3955 63.5288 78.4503 63.1011C78.503 61.587 78.0227 59.9217 77.3639 58.3388C76.6348 56.6917 75.7536 55.1122 74.6092 53.6797C72.3935 50.7911 69.5755 48.3079 66.4687 46.2968C63.3792 44.2242 59.992 42.5768 56.468 41.3339C54.6928 40.7198 52.947 40.1583 51.2342 40.0272C50.3881 39.9646 49.5686 40.0425 48.8225 40.252C48.1027 40.4468 47.3132 40.8878 46.6261 41.3578C45.2668 42.3241 44.4674 43.7374 44.4296 45.433C44.3713 47.1229 44.9456 48.9256 45.7099 50.6049C47.2621 54.0366 49.5953 57.1358 51.8554 60.2586C49.1014 57.5498 46.4291 54.709 44.4172 51.2577ZM77.8291 48.9638C76.5178 49.0574 75.2148 48.8874 73.9525 48.5738C75.0054 49.6258 75.9825 50.7893 76.86 51.991C78.0546 53.6372 79.0212 55.4625 79.7684 57.3585C80.1098 58.3418 80.4366 59.2987 80.6318 60.3291C80.8006 61.3742 80.8905 62.4634 80.7405 63.6175C80.6768 63.9983 80.5721 64.3676 80.4411 64.7515C80.4182 64.9887 80.401 65.2055 80.3575 65.4369C79.9284 67.5756 78.7993 69.6045 77.245 71.1804C74.5279 74.0444 70.7072 75.3322 66.9606 75.5774C76.2428 79.8713 86.0777 82.3717 96.2325 83.744C90.5391 82.4178 85.6807 79.8658 83.3065 76.755C81.98 75.0271 81.2616 72.8733 81.1874 70.7913C81.0985 68.683 81.5659 66.6438 82.3938 64.8176C82.4055 64.7766 82.4171 64.7355 82.455 64.6798C82.4489 64.5451 82.4633 64.4162 82.4719 64.3079C82.5488 63.1773 82.9479 62.1603 83.3969 61.2017C83.8927 60.2343 84.6024 59.3718 85.4002 58.6673C86.5693 57.6691 87.8678 56.9957 89.2076 56.4892C87.7183 55.3356 86.3015 53.848 85.566 51.911C85.1777 50.9366 85.0146 49.871 85.0156 48.8519C85.0674 48.3569 85.0781 47.8502 85.1504 47.361C85.29 46.8687 85.3475 46.3532 85.5633 45.9047C86.2709 43.9558 87.8079 42.4414 89.4454 41.5096C89.5975 41.4419 89.7291 41.3684 89.8812 41.3007C88.8824 40.9954 87.9099 40.6753 86.9169 40.3495C86.923 40.4842 86.9291 40.6189 86.9352 40.7535C86.8923 41.2954 86.829 41.8314 86.7656 42.3675L86.2826 43.9147C85.8776 44.9523 85.1826 45.8411 84.3643 46.5398C83.0841 47.6173 81.5748 48.253 80.0297 48.5462C79.3188 48.7879 78.5492 48.9242 77.8028 48.9786L77.8291 48.9638ZM85.0807 64.56C84.2503 71.2387 99.27 75.4529 106.098 75.904C99.205 76.6977 86.8173 74.1382 83.4751 68.4261C83.0281 75.0805 88.1596 77.998 94.6443 79.8145C98.1092 80.7969 101.746 81.2519 105.367 81.2149C113.701 81.2732 123.721 77.5767 124.604 69.5391C123.248 72.0575 120.411 73.7797 117.605 74.2249C119.346 73.6326 120.872 72.6249 122.081 71.3279C123.746 69.5175 124.34 67.4253 123.785 65.4732C120.618 61.0961 112.976 59.9263 107.527 59.3786C96.9742 58.1594 85.7256 57.3634 85.0807 64.56ZM265.114 97.4115C265.778 97.6443 266.411 97.9124 267.027 98.242C266.736 97.9381 266.466 97.6399 266.208 97.3008C267.419 98.1094 268.691 98.9354 269.941 98.8244C270.505 98.7851 271.014 98.5527 271.33 98.2211C271.706 97.4413 271.663 96.4985 271.322 95.6704C270.928 94.7166 270.244 93.7692 269.549 92.8629C268.853 91.9566 268.125 91.0854 267.319 90.2584C265.752 88.5954 264.005 87.1027 262.079 85.8476C261.121 85.2434 260.151 84.6803 259.094 84.5801C258.666 84.5253 258.178 84.6084 257.753 84.7762C258.463 85.5537 259.115 86.381 259.714 87.2378C260.5 88.3694 261.258 89.914 261.273 89.9404C261.217 89.592 260.616 87.4936 263.331 88.463C263.832 88.6493 264.239 88.8534 264.714 89.0545C263.716 89.37 260.817 88.5035 264.595 92.6773C265.035 93.1566 265.671 93.6472 266.304 94.0705C266.618 94.2924 266.938 94.4938 267.254 94.6278C267.57 94.7618 267.91 94.8138 268.19 94.4501C268.179 94.6463 268.139 94.9451 267.902 95.0774C267.7 95.2418 267.413 95.3156 267.191 95.3191C266.693 95.3552 266.257 95.2537 265.821 95.1521C264.971 94.8669 264.174 94.5524 263.429 93.898C262.846 93.378 262.4 92.7639 262.033 92.1058C262.139 92.6678 262.152 93.2476 262.103 93.81C262.983 94.9239 263.934 95.9468 264.987 96.9988C263.845 96.6528 262.792 96.0664 261.848 95.3334C261.703 95.8462 261.496 96.3415 261.228 96.8194C261.146 96.9514 261.064 97.0833 260.988 97.1948C262.472 96.7289 263.88 96.9953 265.11 97.3441L265.114 97.4115ZM283.951 115.894C283.613 114.978 283.076 114.139 282.533 113.32C281.693 112.062 280.716 110.899 279.724 109.709C278.771 108.619 277.838 107.534 276.811 106.468C277.34 107.26 277.815 108.082 278.201 108.989C278.383 109.44 278.513 109.92 278.616 110.414C278.884 111.111 279.099 111.837 279.141 112.624C279.16 113.028 279.131 113.441 279.062 113.843C279.097 113.875 279.132 113.907 279.161 113.96C279.663 114.456 280.173 115 280.68 115.321C280.771 115.391 280.868 115.441 280.924 115.479C280.938 115.35 280.949 115.153 280.908 114.987C280.804 114.337 280.619 113.664 280.152 113.044C280.931 113.265 281.503 113.981 281.795 114.75C281.871 114.949 281.948 115.148 281.966 115.397C281.989 115.626 281.996 115.916 281.803 116.282C281.526 116.713 280.926 116.72 280.686 116.63C280.419 116.554 280.185 116.444 280.024 116.309C279.487 115.936 279.082 115.488 278.73 115.012C278.713 115.073 278.689 115.155 278.672 115.217C278.45 115.686 278.158 116.091 277.831 116.463C277.972 116.592 278.119 116.7 278.286 116.814C279.548 117.283 280.629 117.766 281.801 118.165C281.965 118.212 285.478 119.961 283.951 115.894ZM274.428 117.293C275.704 117.012 276.832 116.158 277.442 115.023C277.22 115.182 276.983 115.314 276.758 115.405C275.529 115.833 274.358 115.589 273.364 115.108C272.377 114.607 271.629 113.885 270.934 113.134C271.871 113.577 272.751 114.07 273.685 114.29C274.566 114.54 275.562 114.468 276.214 114.121C276.372 114.033 276.515 113.918 276.611 113.813C276.708 113.707 276.795 113.555 276.889 113.382C277.055 113.03 277.119 112.649 277.126 112.23C277.157 111.419 276.927 110.512 276.571 109.657C275.865 107.928 274.805 106.276 273.532 104.829C272.238 103.376 270.737 102.108 269.02 100.979C269.122 101.008 269.225 101.037 269.307 101.06C267.29 99.8902 264.783 99.0463 263.776 100.8C262.427 102.434 263.204 104.848 264.49 106.875C265.791 108.928 267.501 110.787 269.194 112.707C267.028 111.361 264.979 109.761 263.353 107.682C262.537 106.653 261.836 105.457 261.482 104.049C261.122 102.662 261.408 100.948 262.319 99.766C262.427 99.6194 262.535 99.4727 262.67 99.3114L263.137 98.9121C263.286 98.7771 263.45 98.6684 263.634 98.5655C262.853 98.5877 262.124 98.7356 261.551 99.0385C261.109 99.2679 260.855 99.6169 260.601 99.9659C260.418 100.379 260.243 100.839 260.221 101.387C260.079 102.433 260.277 103.531 260.672 104.64C261.417 106.934 262.601 109.087 264.048 111.093C264.485 111.66 264.922 112.227 265.412 112.765L266.582 113.562C267.464 114.122 268.331 114.656 269.216 115.129C270.122 115.607 271.039 116.044 271.982 116.467C272.671 116.773 273.392 117.044 274.127 117.341C274.221 117.323 274.308 117.326 274.402 117.308L274.428 117.293ZM268.397 116.691C267.553 116.23 266.779 115.679 266.101 115.021C266.665 115.691 267.29 116.377 267.882 117.099C269.822 119.4 271.624 121.795 273.367 124.239C273.382 124.11 273.375 123.975 273.396 123.826C273.372 123.598 273.327 123.364 273.309 123.115C273.26 121.882 273.504 120.555 274.289 119.426C274.593 118.98 275.013 118.589 275.431 118.287C273.985 118.387 272.592 118.147 271.229 117.716C270.243 117.525 269.302 117.17 268.417 116.697L268.397 116.691ZM285.758 136.24C285.46 136.199 285.152 136.112 284.891 136.016C284.162 135.699 283.529 135.275 283.004 134.705C282.493 134.162 282.085 133.492 281.917 132.757C282.518 133.216 283.043 133.631 283.599 134.01C284.162 134.369 284.737 134.687 285.334 134.923C285.906 135.174 286.497 135.275 286.997 135.151C287.211 135.1 287.427 134.962 287.623 134.818C288.253 133.534 288.066 132.085 287.77 130.628C287.569 129.618 287.275 128.626 286.907 127.657C286.314 126.625 285.694 125.607 285.042 124.624C283.498 122.414 283.05 122.043 282.631 121.724C281.974 121.228 281.235 120.863 280.477 120.648C279.707 120.474 278.942 120.435 278.346 120.665C277.734 120.868 277.369 121.296 277.189 121.932C276.822 123.224 277.321 124.983 277.813 126.607C278.351 128.223 279.098 129.808 280.005 131.373C278.54 130.293 277.366 128.808 276.528 127.152C276.099 126.321 275.77 125.452 275.525 124.519C275.442 124.03 275.286 123.564 275.303 123.037L275.301 122.261C275.33 122.003 275.391 121.71 275.446 121.438C275.734 120.345 276.692 119.309 277.807 119.049C277.927 119.017 278.035 119.025 278.135 118.987C278.047 118.984 277.939 118.976 277.845 118.993C276.958 119.074 275.937 119.627 275.321 120.317C274.667 121.062 274.262 122.099 274.129 123.192C274.086 123.423 274.083 123.666 274.06 123.904C274.611 127.273 276.092 130.33 278.348 132.765C279.712 134.282 281.337 135.584 283.191 136.155C283.929 136.364 284.755 136.421 285.554 136.337C285.6 136.328 285.673 136.304 285.72 136.296L285.758 136.24ZM286.823 137.251L286.647 136.935C285.091 137.735 283.074 137.739 281.246 136.999C281.895 138.225 282.512 139.486 283.109 140.741C283.664 138.549 285.067 137.351 286.797 137.266L286.823 137.251ZM287.58 150.363C288.752 152.557 290.697 156.166 292.737 154.595C293.602 153.888 294.226 152.624 294.414 151.414C294.582 150.199 294.491 148.799 294.243 147.488C294.021 146.161 293.638 144.856 293.129 143.604C292.264 141.497 290.473 138.596 288.405 139.561C287.627 140.116 287.003 140.914 286.752 141.796C286.296 143.328 286.987 145.187 287.295 146.759C284.613 143.716 285.102 140.508 287.435 139.153C287.59 138.997 287.76 138.868 287.95 138.745C285.302 138.238 284.447 140.788 284.671 143.511C284.744 144.817 285.019 146.113 285.361 147.407C285.971 149.707 286.546 151.976 288.081 153.829C288.509 154.349 289.098 154.694 289.623 155.108C288.83 153.532 287.961 152.066 287.571 150.316L287.58 150.363ZM292.513 156.637C291.927 156.825 291.289 156.888 290.663 156.755C290.308 156.677 289.966 156.557 289.64 156.376C290.011 157.412 290.305 158.249 290.635 159.273C291.776 157.359 292.482 157.603 292.863 157.667L292.513 156.637ZM294.255 169.319C294.533 169.354 294.852 169.245 295.18 169.027C295.37 168.904 295.551 168.734 295.711 168.558C296.373 167.238 297.31 165.576 296.628 162.746C295.642 158.411 294.097 158.549 293.322 158.861C292.693 159.126 292.246 159.841 292.344 160.512C292.371 160.652 292.157 160.702 292.11 160.556C291.921 159.815 292.116 159.051 292.674 158.566C292.393 158.62 292.089 158.755 291.835 158.949C291.776 158.999 291.738 159.054 291.68 159.104C291.409 159.67 291.36 160.388 291.271 161.249C291.217 162.142 291.249 163.126 291.405 164.057C291.536 165.003 291.74 165.925 292.075 166.773C292.384 167.636 292.804 168.42 293.394 168.92C293.534 169.048 293.672 169.11 293.819 169.218C293.962 169.258 294.094 169.34 294.229 169.334L294.255 169.319ZM295.254 181.813C295.456 181.804 295.675 181.733 295.871 181.589C297.625 180.247 296.959 176.734 296.54 174.931C296.452 174.618 296.364 174.305 296.205 174.083C296.047 173.86 295.841 173.647 295.698 173.606C295.408 173.458 294.811 173.998 294.493 174.572C294.129 175.156 293.849 175.83 293.754 176.556C293.559 175.836 293.713 175.06 293.963 174.333C294.088 173.97 294.275 173.624 294.55 173.281C294.716 173.084 294.976 172.87 295.295 172.761C294.849 172.457 294.325 172.353 293.974 172.497C293.53 172.659 293.159 173.263 292.964 174.028C292.755 174.766 292.677 175.587 292.667 176.404C292.664 177.666 292.909 179.065 293.401 180.224C293.703 180.952 294.466 181.855 295.274 181.819L295.254 181.813ZM25.9539 48.0172C16.9498 71.4143 7.68581 121.197 90.1848 119.215C111.228 118.201 130.189 113.671 144.094 110.877C144.235 110.85 150.538 109.557 150.137 109.643C176.983 104.335 211.482 107.269 234.906 120.514C259.74 134.802 273.625 161.453 284.261 187.693C287.275 196.127 288.012 202.275 289.97 199.04C290.443 198.31 290.681 197.314 291.066 196.426C292.659 191.98 293.227 187.244 293.089 182.573C293.067 182.102 291.639 180.5 291.427 179.841C290.491 177.05 291.488 175.249 291.755 172.511C292.122 168.559 284.948 141.284 265.734 119.128C256.422 108.377 244.723 100.029 231.45 94.8915C218.753 89.9841 205.154 87.9456 191.625 87.3009C177.529 86.6281 163.403 87.3874 149.318 88.1583C135.414 88.9142 121.481 89.7726 107.56 89.2605C94.6262 88.7844 81.5551 87.0727 69.3887 82.4043C66.1135 81.1433 63.1097 79.4717 59.9278 78.0377C46.8105 72.0359 37.0551 60.583 33.5778 46.9877C32.4737 42.1318 32.1769 36.9285 33.5552 32.0673C30.8398 37.3472 28.1977 42.6036 25.986 47.982L25.9539 48.0172ZM49.4992 20.5215C47.5379 20.5638 45.6479 21.1359 43.899 21.9918C42.2975 23.4214 40.8398 25.0469 39.6723 26.8211C39.0534 27.7536 38.4961 28.7037 38.0676 29.668C37.846 30.1371 37.6596 30.6382 37.5522 31.0953C37.4184 31.5671 37.3376 32.1646 37.2274 32.7096C36.3662 37.0748 36.7056 41.581 37.9258 45.8715C37.9875 46.0441 38.0435 46.2373 38.0848 46.4041C38.8368 44.6894 40.0255 43.2314 41.3758 42.063C42.4046 41.2467 43.5012 40.5825 44.6653 40.0705C44.8523 39.8797 45.0335 39.7095 45.2351 39.5451C46.1092 38.8843 46.9862 38.2909 48.095 37.8961C49.1774 37.5161 50.313 37.417 51.3874 37.4557C52.7048 37.4968 53.9436 37.7372 55.1386 38.0539C54.5786 37.607 54.0244 37.1397 53.4819 36.6313C52.1092 35.2227 50.9498 33.6086 50.2084 31.6921C49.8348 30.744 49.6045 29.6815 49.6287 28.5804C49.6267 27.4939 49.9582 26.3248 50.416 25.413C51.1304 23.9092 52.2725 22.6153 53.6524 21.6548C52.407 20.9692 51.1854 20.5121 49.5344 20.5537L49.4992 20.5215ZM79.4806 32.2798C76.8413 29.8695 73.8162 27.7264 70.6833 25.8852C70.4342 25.7481 70.2056 25.6168 69.9565 25.4797C68.3803 24.789 66.8071 24.1657 65.2311 23.6302C63.4795 23.0893 61.7105 22.6099 60.0711 22.6104C59.2543 22.6004 58.4963 22.6958 57.9289 22.9781C57.3616 23.2604 56.9818 23.6625 56.7195 24.2751C56.4367 24.8819 56.2683 25.6319 56.226 26.4842C56.1895 27.3159 56.2788 28.0947 56.456 28.8762C56.8102 30.4393 57.7937 31.8926 58.9002 33.3809C61.151 36.3016 63.8405 38.9256 66.8953 41.2765C63.2483 39.9987 59.9009 37.7421 57.1671 34.8839C55.7886 33.4958 54.4621 31.7679 53.7789 29.6463C53.4344 28.5957 53.3356 27.4597 53.354 26.379C53.3562 25.9807 53.411 25.5531 53.4658 25.1254C53.1065 25.5332 52.7619 25.9674 52.4935 26.4453C52.0822 27.1929 51.8551 27.8376 51.7834 28.6373C51.7176 29.4164 51.8421 30.2273 52.0749 31.0468C52.5405 32.6857 53.4686 34.2563 54.5836 35.6362C55.5842 36.8728 56.7865 37.945 58.0794 38.932C61.6092 40.1545 65.0022 41.7813 68.159 43.8509C69.0764 44.4434 69.9353 45.0858 70.8031 45.7751C71.181 45.9266 71.5385 46.0722 71.9164 46.2237C72.675 46.4388 73.4131 46.6481 74.157 46.8368C74.9361 47.0577 75.7064 47.2318 76.4619 47.3795C77.1939 47.4541 77.9433 47.4672 78.6662 47.3397C80.3811 47.0725 82.0337 46.3222 83.1556 45.1777C83.6844 44.6407 84.0814 44.0219 84.3348 43.3625C84.0398 43.6999 83.7096 44.0052 83.3705 44.2636C82.4876 44.8775 81.4609 45.2955 80.4366 45.4705C79.3713 45.6338 78.3291 45.5599 77.3538 45.3277C75.3769 44.878 73.6801 43.9094 72.1324 42.8057C74.0067 43.2264 75.814 43.8053 77.5883 43.9538C79.3568 44.1228 81.0276 43.7766 82.3665 42.8044C83.7085 41.8996 84.3555 40.3988 84.0098 38.7274C83.699 36.9329 82.4188 34.8858 79.6094 32.2942L79.4806 32.2798ZM112.162 41.5461C109.529 41.0656 106.806 40.8254 104.113 40.7931C101.432 40.7197 98.6361 40.8135 96.1546 41.2845C93.8692 41.7667 91.3077 43.3008 90.6907 45.1646C90.3733 46.0497 90.7092 47.2086 91.4369 48.0797C92.1529 48.9919 93.3047 49.6952 94.503 50.2344C96.9349 51.345 99.6878 51.9482 102.432 52.3494C99.6363 52.5985 96.7729 52.3849 93.9903 51.5738C92.6078 51.1375 91.1897 50.5138 90.0049 49.3801C89.7029 49.1172 89.4504 48.7575 89.1922 48.4184C88.9866 48.0498 88.7751 47.7018 88.628 47.2833C88.3015 46.4816 88.244 45.5124 88.4063 44.6277C88.4179 44.5867 88.4296 44.5456 88.4412 44.5046C87.9769 45.1265 87.6298 45.8037 87.4263 46.5216C87.3011 46.885 87.2989 47.2832 87.2148 47.6583C87.1716 48.0449 87.1899 48.449 87.1878 48.8473C87.2097 49.6291 87.3838 50.3433 87.6984 51.0308C88.6564 52.9645 90.4771 54.4336 92.5928 55.5653C92.9386 55.752 93.3049 55.9445 93.677 56.1165C93.9876 56.2711 94.2835 56.3993 94.5999 56.5333C94.7991 56.612 94.9925 56.7111 95.1917 56.7898C99.4503 56.3795 103.637 56.6136 107.765 57.0529C111.021 57.4442 114.392 57.9788 117.559 59.2313C124.508 57.4565 126.418 51.9703 123.929 47.2315C124.04 48.3265 123.867 49.7179 123.324 50.6943C121.62 53.5795 118.35 53.6275 115.332 53.4143C116.719 53.2092 118.127 53.01 119.337 52.4891C120.762 51.918 122.045 50.7526 122.212 49.2266C122.212 49.0713 122.399 47.7063 121.844 46.6181C121.406 45.5853 115.486 42.0896 112.142 41.5403L112.162 41.5461ZM140.905 43.8452C137.852 44.0655 133.206 44.2775 132.513 47.2718C131.597 50.58 137.474 52.9776 140.734 54.0571C146.549 53.1574 152.97 53.87 158.911 56.3524C159.793 56.6023 160.643 56.8875 161.489 57.2605C164.692 56.0413 165.695 53.755 165.09 51.1236C164.767 50.6997 164.433 50.3168 164.098 49.9338C163.93 52.0134 162.007 53.9503 157.899 53.5168C158.607 53.2078 159.324 52.9457 159.964 52.6398C161.04 52.125 161.988 51.4406 162.307 50.3125C162.779 48.6511 160.624 47.1094 159.121 46.2399C158.957 46.1934 151.026 43.1472 140.925 43.851L140.905 43.8452ZM186.281 46.0737C185.411 45.9379 184.509 45.8374 183.622 45.7631C183.364 45.7344 177.202 44.3418 172.817 50.2784C172.107 51.1409 171.778 52.067 172.013 52.6434C172.102 52.9565 172.427 53.2926 172.8 53.6198C173.225 53.9176 173.702 54.186 174.247 54.4513C176.486 55.4627 178.85 56.2659 181.342 56.9283C178.773 57.2413 176.134 56.9365 173.604 56.1746C173.276 56.0816 172.939 55.9418 172.617 55.8282C172.28 55.6884 171.96 55.487 171.629 55.3267C171.28 55.0726 170.917 54.7923 170.591 54.4562C170.659 54.6083 170.7 54.7751 170.788 54.9331C171.146 55.5444 171.704 56.0791 172.319 56.5639C173.565 57.5599 175.162 58.2564 176.782 58.8708C177.304 59.063 177.805 59.2493 178.332 59.421C179.037 59.1999 179.751 59.0256 180.438 58.866C181.902 58.5495 183.362 58.3209 184.855 58.2123C187.814 58.0098 190.812 58.2172 193.699 58.8143C193.945 58.884 194.191 58.9538 194.443 59.003C194.631 58.9675 194.818 58.932 194.985 58.8906C196.278 58.5481 197.541 57.8426 198.462 56.8626C198.803 56.5163 199.054 56.0999 199.285 55.6777C198.855 56.0213 198.402 56.2916 197.96 56.521C195.831 57.6237 193.4 58.1531 191.101 57.9003C193.372 57.3917 195.452 56.541 197.258 55.3247C201.454 52.4811 197.779 50.5971 195.573 49.3953C194.597 48.8527 193.586 48.4331 192.561 47.9873C190.492 47.1571 188.313 46.5614 186.038 46.0713C186.105 46.0682 186.193 46.071 186.26 46.0679L186.281 46.0737Z" fill="#1A1A18"/>
<path d="M218.516 75.6678C218.251 75.3491 218.02 74.9953 217.893 74.5827C217.746 74.1642 217.704 73.6869 217.794 73.2914C217.953 72.4945 218.619 71.7083 219.366 71.8092C218.84 72.2584 218.821 72.8734 218.956 73.3329C219.071 73.7865 219.414 74.0611 219.804 74.3267C220.616 74.8228 221.843 75.2595 222.933 75.6349C224.028 75.9899 225.259 76.3387 226.313 76.5268C226.822 76.6048 227.323 76.6359 227.732 76.4418C228.189 76.2387 228.63 75.8542 228.693 75.1629C229.177 75.7212 229.012 76.6938 228.501 77.3245C227.932 78.0051 227.089 78.3203 226.331 78.4156C224.827 78.5652 223.515 78.3484 222.173 77.9237C221.508 77.6908 220.875 77.4228 220.26 77.0932C219.671 76.7489 219.032 76.3461 218.498 75.7293L218.516 75.6678Z" fill="#1A1A18"/>
<path d="M114.158 67.7084C113.398 68.6677 112.313 69.1356 111.321 69.4306C110.318 69.7665 109.27 69.8683 108.284 69.9876C107.23 70.1099 106.162 70.0507 105.172 69.9474C103.157 69.7086 101.145 69.2267 99.2757 68.1648C98.8038 67.8759 98.332 67.5869 97.9272 67.1398C97.537 66.7189 97.1524 66.1223 97.1071 65.4225C97.0824 64.7285 97.4004 64.1539 97.7744 63.7724C98.1337 63.3645 98.5811 63.1147 99.0285 62.8648C98.4914 63.6654 97.9692 64.6475 98.266 65.2414C98.4808 65.812 99.2807 66.1939 100.083 66.488C101.736 67.0672 103.624 67.359 105.443 67.5864C106.385 67.6986 107.252 67.7671 108.162 67.7593C109.114 67.7631 110.036 67.7143 110.923 67.6333C113.118 67.3915 114.37 66.7269 113.961 64.5725C114.003 64.7393 115.293 65.9694 114.158 67.7084Z" fill="#1A1A18"/>
<path d="M105.474 51.151C105.047 51.0963 104.631 51.0006 104.209 50.9253L103.901 50.8381L103.696 50.78L103.512 50.7277C103.292 50.6432 103.113 50.5704 102.914 50.4917C102.15 50.142 101.399 49.8185 100.684 49.372C99.9839 48.9518 99.2804 48.4642 98.6497 47.7979C98.5001 47.6225 98.3505 47.4471 98.2125 47.2307C98.095 47.0201 97.9392 46.71 98.0176 46.3555C98.1165 46.0068 98.4002 45.8656 98.6196 45.7949C98.839 45.7241 99.0352 45.7354 99.2576 45.732C98.936 45.9289 98.562 46.3104 98.6765 46.4536C98.741 46.5384 99.0342 46.7545 99.3506 46.8885C99.9923 47.2035 100.725 47.4332 101.451 47.6835C102.189 47.8928 102.91 48.1636 103.648 48.3729L104.283 48.5531L104.644 48.6109C104.998 48.6892 105.379 48.7528 105.724 48.7843C107.944 49.0812 110.122 49.0561 112.263 48.378C112.951 48.2184 113.583 47.8656 113.932 47.1005C114.514 49.5036 109.603 51.7455 105.413 51.1336L105.474 51.151Z" fill="#1A1A18"/>
<path d="M153.931 49.4667C152.176 52.1382 143.559 52.8418 139.709 47.9829C143.476 48.7627 146.425 49.5324 151.436 49.0474C152.094 48.9903 152.639 48.9452 153.045 48.6837C153.402 48.519 153.775 47.8271 153.297 47.2482C154.014 47.2965 154.532 48.4404 153.916 49.4403L153.931 49.4667Z" fill="#1A1A18"/>
<path d="M273.599 109.125C272.985 109.572 272.359 109.904 271.431 109.818C270.576 109.709 269.993 109.344 269.389 108.973C268.806 108.608 268.293 108.153 267.806 107.682C267.325 107.191 266.902 106.65 266.544 106.039C266.212 105.413 265.871 104.74 265.899 103.862C265.937 103.651 265.933 103.428 266.018 103.208C266.123 102.994 266.181 102.789 266.347 102.593C266.66 102.194 267.151 102.023 267.535 101.999C268.331 102.003 268.926 102.326 269.456 102.721C268.806 102.669 268.145 102.659 267.689 102.862C267.463 102.953 267.355 103.1 267.315 103.244C267.297 103.305 267.303 103.44 267.265 103.496C267.263 103.583 267.295 103.703 267.292 103.791C267.513 104.652 268.306 105.608 269.092 106.429C269.482 106.85 269.925 107.241 270.379 107.592C270.813 107.936 271.314 108.278 271.686 108.45C272.003 108.584 272.682 108.533 273.147 108.376C273.393 108.291 273.597 108.194 273.644 108.03C273.696 107.845 273.541 107.535 273.326 107.275C273.628 107.383 273.991 107.508 274.121 107.988C274.219 108.503 273.845 108.885 273.584 109.099L273.599 109.125Z" fill="#1A1A18"/>
<path d="M290.039 150.285C289.699 149.922 289.444 149.495 289.261 149.045C288.87 148.158 288.757 147.151 288.957 146.211C289.131 145.285 289.624 144.405 290.39 143.891C290.269 144.788 290.25 145.558 290.357 146.275C290.463 146.992 290.623 147.68 290.908 148.315C291.037 148.64 291.199 148.929 291.381 149.225C291.563 149.52 291.771 149.801 291.962 149.988C292.153 150.175 292.372 150.259 292.454 150.283C292.615 150.262 292.975 149.854 292.637 149.559C292.877 149.494 293.17 149.71 293.218 150.012C293.297 150.278 293.272 150.603 293.076 150.902C292.539 151.548 291.757 151.414 291.262 151.208C290.726 150.989 290.359 150.641 290.039 150.285Z" fill="#1A1A18"/>
<path d="M282.564 130.082C282.268 129.799 281.989 129.454 281.752 129.121C280.818 127.726 280.373 125.938 280.92 124.32C281.378 125.048 281.725 125.7 282.103 126.317C282.482 126.935 282.846 127.525 283.237 128.101C283.633 128.657 284.067 129.312 284.393 129.648C284.478 129.739 284.575 129.788 284.666 129.858C284.736 129.923 284.839 129.952 284.973 129.946C285.222 129.927 285.582 129.83 285.663 129.388C286.009 129.73 285.797 130.401 285.373 130.724C285.171 130.888 284.873 131.003 284.557 131.024C284.261 131.051 283.995 130.976 283.734 130.879C283.233 130.693 282.86 130.366 282.564 130.082Z" fill="#1A1A18"/>
<path d="M246.524 84.6952C246.42 85.0645 246.617 85.5414 246.925 85.939C247.603 86.7517 248.544 87.5725 249.502 88.1767C250.455 88.8013 251.565 89.3378 252.611 89.6343C253.103 89.7738 253.63 89.7903 254.045 89.5756C254.461 89.3609 254.89 88.8622 254.766 88.2065C255.288 88.7091 255.129 89.6611 254.609 90.245C254.03 90.8788 253.188 91.0387 252.438 91.0257C250.977 90.9439 249.706 90.4282 248.519 89.6928C247.37 88.9016 246.39 87.9813 245.708 86.6356C245.388 85.9686 245.211 85.0319 245.762 84.2576C246.031 83.9349 246.379 83.7233 246.774 83.658C247.149 83.587 247.573 83.7295 247.756 84.0249C247.117 83.7774 246.635 84.3055 246.519 84.7158L246.524 84.6952Z" fill="#1A1A18"/>
<path d="M240.306 73.2699C239.91 72.8695 239.464 72.4107 239.22 71.7875C239.085 71.4832 238.987 71.1232 238.999 70.7718C238.989 70.4145 239.132 69.9896 239.336 69.7373C239.546 69.4645 239.827 69.256 240.14 69.1675C240.453 69.079 240.813 69.1368 241.024 69.3296C240.451 69.322 240.168 69.7736 240.104 70.1544C240.026 70.5089 240.208 70.8043 240.425 71.1319C240.944 71.7223 241.809 72.3442 242.621 72.8403C243.427 73.3569 244.323 73.7884 245.217 74.1526C245.656 74.3215 246.046 74.432 246.42 74.3609C246.769 74.3045 247.228 74.0136 247.256 73.4454C247.649 73.9336 247.375 74.7425 246.8 75.1332C246.197 75.5386 245.483 75.5577 244.886 75.477C243.726 75.3477 242.622 74.9459 241.643 74.3359C241.151 74.0412 240.702 73.6702 240.28 73.2846L240.306 73.2699Z" fill="#1A1A18"/>
<path d="M292.647 165.383C292.509 165.012 292.397 164.626 292.311 164.225C292.227 163.425 292.045 162.664 292.473 161.7C293.013 160.656 294.477 160.805 294.788 161.581C294.076 161.202 293.354 161.639 293.32 162.073C293.233 162.536 293.357 163.347 293.481 164.002C293.606 164.658 293.777 165.46 294.044 165.846C294.194 166.022 294.417 166.173 294.645 166.149C294.841 166.161 295.177 165.835 295.039 165.463C295.42 165.682 295.377 166.379 294.892 166.685C294.412 166.97 293.826 166.848 293.413 166.509C292.994 166.191 292.811 165.74 292.647 165.383Z" fill="#1A1A18"/>
<path d="M294.798 179.512C294.616 179.062 294.556 178.646 294.555 178.18C294.583 177.302 294.912 176.376 295.669 175.815C295.779 176.755 295.737 177.452 295.744 178.207L295.693 179.323C295.694 179.478 295.673 179.628 295.706 179.748C295.732 179.888 295.821 180.046 296.067 180.116C295.9 180.312 295.549 180.302 295.3 180.164C295.036 180.001 294.889 179.738 294.798 179.512Z" fill="#1A1A18"/>
<path d="M80.457 94.2299C74.7902 93.0442 69.196 91.5246 63.7123 89.6152C61.02 88.5638 58.284 87.5885 55.6352 86.3057C52.9747 85.0638 50.4514 83.5727 48.0156 81.9292C45.6003 80.2915 43.3163 78.4251 41.1872 76.4031C39.0902 74.346 37.2065 72.0833 35.5655 69.6679C33.9829 67.2026 32.6957 64.5551 31.7683 61.8102C30.8936 59.0359 30.4724 56.1464 30.4172 53.2942C30.8558 56.1221 31.5812 58.8763 32.7044 61.4773C33.8598 64.0431 35.2988 66.4677 36.998 68.678C38.7293 70.8531 40.6565 72.8842 42.7765 74.7042C44.9286 76.4889 47.1566 78.1621 49.5364 79.6125C51.922 81.0424 54.3835 82.3608 56.9442 83.4857C59.4786 84.6253 62.1559 85.4952 64.8157 86.4267C70.1703 88.1665 75.6268 89.6249 81.1617 90.7289C86.6966 91.8328 92.2982 92.6233 97.9227 93.1765C103.553 93.7092 109.224 93.9431 114.889 94.0423C120.562 94.0332 126.25 93.8951 131.925 93.4877C137.6 93.0802 143.273 92.4503 148.968 91.7382C143.429 93.226 137.799 94.3332 132.119 95.2268C126.441 96.0325 120.704 96.5777 114.941 96.8272C109.177 97.0767 103.422 96.9074 97.6511 96.5565C91.8891 96.0973 86.1528 95.313 80.4775 94.2357L80.457 94.2299Z" fill="#1A1A18"/>
<path d="M246.003 112.625C241.339 109.308 236.389 106.376 231.226 103.959C226.081 101.481 220.688 99.4861 215.164 97.8755C209.672 96.2297 204.02 95.0704 198.318 94.163C186.913 92.4361 175.273 92.0831 163.629 92.9923C175.071 90.6076 186.964 90.1459 198.679 91.4066C204.535 92.0032 210.354 93.1212 216.083 94.6347C221.8 96.1892 227.383 98.2156 232.754 100.758C238.093 103.335 243.204 106.402 247.985 109.929C252.734 113.492 257.183 117.413 261.166 121.8C269.178 130.498 275.55 140.681 279.496 151.684C274.186 141.27 267.342 131.816 259.182 123.719C255.073 119.695 250.713 115.933 246.017 112.651L246.003 112.625Z" fill="#1A1A18"/>
<path d="M29.9812 68.1071C31.2189 70.8513 32.7724 73.4192 34.7001 75.7608C36.5811 78.1113 38.7105 80.2885 41.0649 82.2191C45.6977 86.192 50.9702 89.3933 56.6188 91.8148C62.288 94.2421 68.3244 95.8428 74.6053 96.7373C68.2775 97.3364 61.7682 96.4659 55.6373 94.4173C52.5499 93.4312 49.5936 92.0611 46.7569 90.5033C43.9318 88.9046 41.2613 86.995 38.7662 84.9358C36.2885 82.815 34.0153 80.442 32.0343 77.8193C30.1059 75.1673 28.4288 72.2542 27.3953 69.1024C26.3092 65.9801 25.8344 62.6543 25.9834 59.3947C26.1528 56.1408 26.8991 52.9618 28.1904 50.0482C27.6577 53.1769 27.4148 56.2992 27.7222 59.3558C27.9885 62.4008 28.7904 65.3539 29.987 68.0866L29.9812 68.1071Z" fill="#1A1A18"/>
<path d="M28.3614 82.4946C30.3907 85.8843 33.0574 88.9008 36.1156 91.4743C39.2001 94.033 42.6818 96.1282 46.4846 97.7161C46.1654 97.67 33.9554 96.2025 26.3263 83.7347C24.1296 80.0759 22.7021 75.9703 22.1818 71.7896C21.641 67.603 21.9724 63.3092 23.3057 59.3881C22.9593 63.5004 23.1778 67.5734 24.0167 71.4899C24.8818 75.3917 26.3 79.14 28.3761 82.5209L28.3614 82.4946Z" fill="#1A1A18"/>
<path d="M225.35 103.755C229.762 105.538 234.028 107.678 238.011 110.27C242 112.841 245.75 115.788 249.047 119.161C245.116 116.539 241.165 114.067 237.077 111.845C232.984 109.642 228.791 107.633 224.484 105.947C220.189 104.22 215.766 102.788 211.285 101.562C206.798 100.356 202.209 99.4319 197.565 98.6247C202.292 98.436 207.047 98.8534 211.689 99.7484C216.362 100.608 220.932 101.992 225.355 103.734L225.35 103.755Z" fill="#1A1A18"/>
<path d="M286.403 164.434C287.635 167.044 288.536 169.803 289.223 172.613C289.864 175.432 290.291 178.301 290.361 181.179C290.451 184.064 290.252 186.954 289.61 189.764C289.265 186.918 288.95 184.125 288.52 181.344C288.084 178.584 287.576 175.847 286.921 173.157C286.292 170.452 285.523 167.774 284.681 165.12C283.818 162.46 282.861 159.817 281.875 157.122C283.703 159.347 285.192 161.83 286.398 164.454L286.403 164.434Z" fill="#1A1A18"/>
<path d="M91.1499 103.157C91.1913 101.839 93.7919 100.87 96.9479 100.989C100.104 101.108 102.632 102.268 102.576 103.56C102.535 104.878 99.9343 105.847 96.7784 105.728C93.6224 105.608 91.0938 104.448 91.1499 103.157Z" fill="#1A1A18"/>
<path d="M123.306 105.914C123.233 104.608 124.888 103.459 126.954 103.358C129.041 103.263 130.753 104.258 130.826 105.564C130.878 106.864 129.244 108.019 127.177 108.12C125.111 108.221 123.379 107.22 123.306 105.914Z" fill="#1A1A18"/>
<path d="M185.733 98.3949C182.6 98.1937 180.136 96.9631 180.218 95.6568C180.301 94.3506 182.904 93.4489 186.037 93.6501C189.17 93.8514 191.634 95.082 191.552 96.3882C191.469 97.6945 188.865 98.5961 185.733 98.3949Z" fill="#1A1A18"/>
<path d="M260.102 136.811C259.123 137.685 256.776 136.665 254.878 134.532C252.98 132.398 252.234 129.948 253.234 129.079C254.213 128.205 256.56 129.225 258.458 131.358C260.356 133.492 261.101 135.942 260.102 136.811Z" fill="#1A1A18"/>
<path d="M66.851 104.4C66.6398 105.692 63.9771 106.333 60.9579 105.81C57.9125 105.301 55.6263 103.833 55.8434 102.52C56.0546 101.228 58.7173 100.587 61.7364 101.111C64.7819 101.62 67.0681 103.088 66.851 104.4Z" fill="#1A1A18"/>
<path d="M69.4766 106.784C69.5537 105.809 70.9869 105.13 72.6528 105.27C74.3188 105.409 75.6086 106.329 75.5314 107.305C75.4542 108.28 74.0211 108.959 72.3551 108.819C70.6892 108.679 69.3994 107.76 69.4766 106.784Z" fill="#1A1A18"/>
<path d="M113.169 100.89C111.439 100.976 110.009 100.238 109.957 99.2481C109.905 98.2584 111.277 97.4062 113.007 97.3206C114.737 97.2349 116.167 97.9727 116.218 98.9624C116.27 99.9521 114.899 100.804 113.169 100.89Z" fill="#1A1A18"/>
<path d="M152.284 102.54C152.274 101.562 154.105 100.729 156.397 100.692C158.689 100.655 160.552 101.427 160.563 102.405C160.573 103.383 158.742 104.216 156.45 104.253C154.158 104.29 152.295 103.518 152.284 102.54Z" fill="#1A1A18"/>
<path d="M250.38 121.644C250.978 120.861 252.433 120.963 253.656 121.886C254.878 122.809 255.373 124.19 254.795 124.979C254.196 125.762 252.741 125.66 251.518 124.737C250.296 123.814 249.801 122.433 250.38 121.644Z" fill="#1A1A18"/>
<path d="M264.528 144.316C263.789 144.971 262.638 144.888 261.949 144.117C261.259 143.345 261.275 142.197 262.02 141.522C262.759 140.867 263.91 140.95 264.605 141.701C265.294 142.473 265.279 143.62 264.534 144.296L264.528 144.316Z" fill="#1A1A18"/>
<path d="M284 177.447C283.196 178.017 281.555 177.087 280.331 175.388C279.113 173.668 278.772 171.821 279.576 171.251C280.38 170.682 282.021 171.612 283.245 173.311C284.463 175.03 284.804 176.878 284 177.447Z" fill="#1A1A18"/>
</g>
<defs>
<clipPath id="clip0_446_10009">
<rect width="125" height="303" fill="white" transform="matrix(0.27278 -0.962076 -0.962076 -0.27278 291.509 202.912)"/>
</clipPath>
</defs>
</svg>
