<svg width="327" height="258" viewBox="0 0 327 258" fill="none" xmlns="http://www.w3.org/2000/svg">
<g clip-path="url(#clip0_434_6018)">
<path d="M256.383 204.785C255.494 205.901 253.846 206.277 252.859 205.508C254.029 205.598 254.895 204.786 255.13 204.014C255.414 203.197 255.264 202.283 254.89 201.465C253.707 198.684 251.755 196.889 249.301 195.206C248.311 194.532 247.119 193.869 245.879 194.081C245.235 194.186 244.617 194.55 244.288 195.099C243.958 195.647 243.943 196.42 244.34 196.934C243.744 196.602 242.946 195.669 242.746 195.021C242.488 194.17 242.712 193.197 243.241 192.466C244.083 191.349 245.564 190.661 247.116 190.939C249.686 191.492 251.757 192.767 253.542 194.468C255.279 196.167 256.659 198.375 257.131 200.858C257.407 202.159 257.244 203.678 256.344 204.812L256.383 204.785Z" fill="white" fill-opacity="0.5"/>
<path d="M232.892 210.79C233.518 210.674 234.097 210.729 234.592 210.76C235.105 210.802 235.606 210.91 236.126 211.028C238.135 211.537 240.016 212.584 241.544 214.045C242.303 214.784 242.973 215.597 243.525 216.489C244.058 217.372 244.601 218.455 244.649 219.727C244.698 220.998 244.152 222.329 243.015 223.013C242.418 223.34 241.758 223.387 241.211 223.23C240.665 223.072 240.169 222.649 240.018 222.175C240.852 222.737 241.823 222.35 242.121 221.857C242.497 221.359 242.52 220.615 242.337 220.025C241.943 218.805 240.671 217.365 239.511 216.207C238.285 215.036 236.888 214.039 235.341 213.227C234.594 212.86 233.671 212.37 233.038 212.237C232.707 212.175 232.45 212.154 232.259 212.365C232.087 212.587 231.948 213.143 232.445 213.347C232.192 213.45 231.865 213.292 231.685 213.046C231.505 212.799 231.433 212.491 231.458 212.139C231.473 211.805 231.749 211.398 231.996 211.218C232.263 211.001 232.602 210.872 232.911 210.8L232.892 210.79Z" fill="white" fill-opacity="0.5"/>
<path d="M136.901 158.593C136.753 159.121 136.449 159.537 136.045 159.824C135.641 160.112 135.102 160.202 134.73 159.995C135.498 159.666 135.58 158.907 135.438 158.461C135.303 158.045 134.89 157.693 134.418 157.357C133.361 156.671 132.093 156.014 130.864 155.549C129.635 155.084 128.287 154.7 126.998 154.519C125.688 154.375 124.357 154.269 123.008 155.202C123.131 154.367 123.736 153.631 124.465 153.109C125.222 152.627 126.056 152.311 126.93 152.188C128.659 151.93 130.346 152.186 131.941 152.781C133.545 153.406 134.935 154.326 136.084 155.722C136.663 156.435 137.161 157.469 136.909 158.622L136.901 158.593Z" fill="white" fill-opacity="0.5"/>
<path d="M161.424 164.095C167.28 160.499 176.33 165.098 176.088 169.038C175.925 170.338 174.941 171.01 174.244 170.817C174.905 170.331 174.851 169.594 174.643 169.136C174.151 168.179 170.749 166.798 169.746 166.41C168.461 165.914 163.974 164.685 161.435 164.077L161.424 164.095Z" fill="white" fill-opacity="0.5"/>
<path d="M131.596 172.94C130.454 172.451 129.359 171.963 128.239 171.608C127.112 171.225 125.977 170.984 124.528 170.958C125.465 169.844 127.064 169.295 128.552 169.294C130.051 169.274 131.494 169.662 132.758 170.195C133.385 170.471 134.02 170.776 134.587 171.116C135.164 171.437 135.907 171.9 136.473 172.679C137.04 173.457 137.295 174.576 136.795 175.518C136.256 176.486 134.989 176.659 134.522 176.009C135.257 176.003 135.553 175.339 135.423 175.047C135.343 174.709 135.07 174.411 134.753 174.234C134.418 174.048 133.959 173.865 133.359 173.629C132.759 173.392 132.169 173.137 131.588 172.911L131.596 172.94Z" fill="white" fill-opacity="0.5"/>
<path d="M100.819 155.366C101.876 156.052 102.751 156.978 103.41 158.028C103.749 158.559 104.152 159.369 103.902 160.255C103.717 160.762 103.353 161.022 102.957 161.119C102.58 161.227 102.111 161.063 102.03 160.725C102.622 160.933 102.902 160.21 102.756 160.08C102.663 159.809 102.369 159.547 101.982 159.235C101.163 158.559 100.352 157.912 99.5002 157.34C98.6479 156.768 97.7562 156.223 96.8045 155.742C95.8549 155.213 94.8534 154.778 93.7424 154.232C94.9166 153.788 96.1773 153.758 97.3985 153.974C98.6196 154.19 99.7908 154.671 100.837 155.376L100.819 155.366Z" fill="white" fill-opacity="0.5"/>
<path d="M113.97 168.764L109.283 166.667C99.3937 168.922 85.9704 156.056 88.1484 149.997L86.7442 148.751C85.7564 149.08 84.7752 149.046 83.8748 148.911C81.1905 148.344 73.1099 143.406 70.7289 139.884C69.6913 138.33 68.8341 136.584 68.5319 134.586C68.4337 133.58 68.5032 132.447 69.0342 131.449C69.5466 130.441 70.4085 129.726 71.3902 129.32C71.4876 129.277 71.5745 129.252 71.6615 129.227C71.4527 128.989 71.2438 128.751 71.035 128.513C69.5874 127.17 68.3594 125.608 67.3468 123.922C66.7918 124.174 66.1479 124.279 65.5414 124.185C64.2147 123.984 63.1039 123.219 62.1752 122.433C60.2599 120.879 58.7447 118.913 57.4924 116.825C56.8911 115.758 56.3479 114.675 55.8937 113.519C55.4871 112.366 55.0515 111.22 54.9971 109.872C54.9869 109.671 54.9872 109.452 55.0164 109.224C55.0041 109.071 54.9919 108.918 54.9796 108.764C55.0343 107.965 55.3541 106.996 56.1228 106.448C56.8313 105.964 57.8975 105.801 58.6673 106.084C57.6128 104.911 56.7117 103.506 55.9804 102.148C55.6806 101.81 55.3911 101.453 55.1307 101.089C54.4837 100.192 53.9466 99.1851 53.544 98.1558C51.5731 96.3509 49.5661 93.4279 48.4018 90.4371C47.8672 88.9439 47.3867 87.3098 47.817 85.5729C48.4048 83.7284 49.8169 83.5141 50.1709 83.4916C49.0448 81.5713 48.3476 79.2311 47.9773 77.0484C47.0611 74.2691 47.0871 71.3309 47.5464 69.5857C47.9662 68.0869 48.8015 67.1123 49.8475 66.5477L49.5032 65.2824C48.8887 64.9403 48.2516 64.4636 47.6789 63.8275C44.0748 61.8455 43.3258 53.8152 45.2059 49.518C45.5628 48.7894 46.0209 48.1416 46.5805 47.5747C46.881 47.254 47.227 46.983 47.5419 46.7679C47.8155 46.4078 48.1905 46.1285 48.6192 45.928L48.4863 44.4143L48.8693 44.3835C45.2132 44.6418 44.8634 33.0028 50.0859 31.4204L49.9549 30.0786C49.7897 29.7182 49.5997 29.2708 49.5278 28.7427C48.6946 27.742 48.9367 25.9491 49.0208 24.7027C49.841 18.4977 53.1693 18.9597 53.6866 19.1257C54.7845 14.6126 56.5404 10.3195 59.2523 6.41213C59.9406 5.5264 61.519 2.64733 64.0984 2.57048C65.0921 2.53805 66.1389 3.24279 66.3958 4.97191C67.8032 24.5689 66.8854 19.4705 68.6533 27.1164C72.1706 42.3977 77.2412 59.0074 85.1677 72.5464C93.3442 86.4686 102.547 95.3496 119.93 104.344C162.961 126.373 192.626 114.972 238.908 123.975C266.288 129.384 303.469 143.08 302.404 176.406C302.733 188.96 298.112 200.37 290.825 210.173C286.796 219.032 280.529 226.695 272.396 232.147C268.541 234.735 264.065 237.343 259.317 237.677C256.723 237.868 253.373 237.051 250.99 235.286C249.821 234.537 248.92 233.572 248.366 232.507C246.67 232.661 245.329 232.354 243.68 231.899C239.831 230.708 236.444 228.554 233.549 225.869C230.807 223.171 228.264 220.291 226.139 217.01C225.116 215.342 224.193 213.583 223.563 211.647C223.235 210.659 222.996 209.599 222.921 208.508C221.111 207.378 219.261 206.275 217.343 205.207C216.387 205.48 215.397 205.637 214.374 205.677C211.313 205.656 208.562 205.077 205.768 204.4C200.346 202.967 192.774 200.094 189.78 195.352C188.721 194.275 188.07 193.254 187.531 192.075C185.915 191.517 184.28 190.949 182.643 190.428C181.868 191.119 180.996 191.634 180.056 191.964C177.568 193.41 173.83 192.939 170.98 192.451C163.68 191.193 154.691 186.53 154.579 186.467C152.605 185.369 150.845 183.535 149.709 181.194C147.549 180.65 145.407 180.117 143.254 179.602C141.898 180.286 137.126 182.022 130.93 180.403C130.551 180.338 130.162 180.292 129.783 180.228C126.474 179.557 123.269 178.26 120.391 176.463C117.565 174.573 114.099 172.081 113.982 168.698L113.97 168.764ZM90.3439 150.829C90.3251 151.038 90.3166 151.228 90.2791 151.427C90.3091 152.468 90.726 153.603 91.3438 154.728C91.8729 155.486 92.431 156.236 93.0679 156.933C94.598 158.565 96.3665 159.989 98.2737 161.295C101.71 163.623 103.733 165.115 107.888 164.573C108.377 164.308 108.793 163.955 109.032 163.526C109.621 162.512 109.467 160.816 108.686 159.503C107.88 158.103 106.503 156.896 105.19 155.531C106.988 156.069 108.776 156.844 110.176 158.404C110.449 158.703 110.691 159.057 110.885 159.409C110.819 159.177 110.724 158.953 110.629 158.73C109.974 157.145 108.906 155.648 107.719 154.23C107.066 153.476 106.354 152.739 105.633 152.02C105.461 152.022 105.289 152.024 105.127 152.007C103.283 151.859 101.551 151.333 99.9433 150.585C99.813 150.512 99.6827 150.44 99.5523 150.367C99.1198 150.224 98.7059 150.091 98.2838 149.929C98.7076 150.483 99.1106 151.073 99.4557 151.68C97.5796 150.318 95.6808 148.822 93.7495 148.698C92.7787 148.646 91.8448 148.834 91.2502 149.332C90.9539 149.558 90.7465 149.93 90.5412 150.255C90.4851 150.444 90.4104 150.622 90.3357 150.8L90.3439 150.829ZM89.2376 143.966C89.3776 144.678 89.3995 145.471 89.1647 146.243C89.0358 146.782 88.7165 147.312 88.3144 147.771L89.0299 148.413C89.2828 148.091 89.573 147.788 89.9458 147.557C90.7413 147.048 91.6089 146.848 92.4598 146.809C91.3138 145.976 90.2197 145.049 89.2168 144.003L89.2376 143.966ZM79.3739 133.863C79.0821 133.773 78.8193 133.676 78.5276 133.587C78.573 133.636 78.6082 133.705 78.6537 133.755C79.4025 134.293 80.0912 134.896 80.6618 135.58C80.7073 135.63 80.645 135.742 80.5996 135.692C78.5516 134.332 76.3917 133.13 73.9826 132.594C70.3649 131.775 69.2051 132.325 71.2335 136.48C72.6816 139.312 74.9148 141.653 77.5523 143.488C78.8554 144.433 80.2312 145.247 81.6774 145.979C82.4222 146.394 83.0305 146.659 83.7136 146.747C84.378 146.824 84.9847 146.698 85.3847 146.286C86.2365 145.37 86.228 143.632 85.7017 142.168C85.0806 140.261 83.4873 137.69 81.8476 135.947C83.5521 137.092 85.0099 138.635 86.0948 140.411C87.0991 142.068 88.1692 144.176 87.3904 146.451C87.5707 146.259 87.7428 146.037 87.8507 145.756C88.2823 144.849 88.2649 143.742 88.0963 142.598C87.6374 141.977 87.1889 141.337 86.8191 140.643C86.5485 140.077 86.2883 139.493 86.0861 138.893C86.0323 138.814 85.989 138.717 85.9166 138.628C84.9514 137.163 83.8682 135.779 82.7684 134.337C81.5739 134.38 80.419 134.176 79.3739 133.863ZM85.4431 136.192C85.4143 135.981 85.3856 135.77 85.3672 135.54C85.3658 134.929 85.412 134.32 85.5348 133.706C85.3981 133.776 85.2614 133.846 85.106 133.906C84.4661 134.135 83.8305 134.27 83.1887 134.327C84.0141 134.86 84.74 135.484 85.4141 136.201L85.4431 136.192ZM72.16 127.675C74.5792 130.339 76.4346 131.738 80.8496 132.22C82.3156 131.865 83.2422 130.77 83.5728 129.344C84.3836 126.135 82.3083 123.247 80.9698 120.525C86.2192 124.765 86.2786 129.215 84.3714 131.765C84.9368 131.494 85.3926 131.113 85.7679 130.614C89.3049 125.531 82.169 116.093 77.7146 111.783C83.7373 114.941 90.0511 122.702 88.8996 129.064C91.4432 127.649 94.247 128.746 96.937 129.829C92.9606 129.568 90.2807 128.686 88.2606 132.271C91.8594 129.443 96.2212 131.334 99.6461 134.339C97.1671 133.447 94.6654 132.42 92.3982 132.768C89.7749 133.187 88.5022 134.772 88.5062 136.824C88.3622 141.77 95.3164 146.935 99.4003 149.282C100.642 149.68 102.535 150.442 105.849 149.309C108.783 148.332 109.549 146.123 108.673 143.317C108.256 141.963 107.44 140.581 106.773 139.063C109.195 140.582 111.122 142.729 111.262 145.588C112.411 139.493 106.066 133.496 100.729 130.379C104.098 131.205 107.241 133.052 109.78 135.588C116.323 142.061 114.31 150.628 107.897 151.938C109.891 153.658 111.502 155.409 112.708 157.886C114.009 160.807 114.153 164.01 111.526 165.793L114.286 167.013C114.714 165.762 115.964 164.043 117.166 163.199C118.17 162.489 119.324 162.082 120.533 161.926C116.919 159.743 112.358 155.886 113.57 151.826C112.872 142.434 127.001 137.514 140.939 146.127C149.701 151.811 148.447 163.264 141.675 165.79C143.965 167.284 146.273 169.228 147.072 171.869C147.387 172.923 147.421 174.089 147.136 175.126C146.91 176.146 146.344 177.076 145.707 177.868C146.688 178.122 147.661 178.346 148.642 178.599C148.318 177.516 148.218 176.338 148.48 175.166C148.867 173.332 150.241 171.608 152.484 170.734C145.331 163.384 149.306 153.396 158.037 150.375C162.856 148.642 168.805 149.611 168.948 149.617C185.024 151.979 193.892 163.65 187.572 173.162C186.977 175.808 185.521 176.803 184.201 177.947C183.795 178.282 183.362 178.578 182.912 178.816C185.336 181.385 186.158 185.21 184.254 188.542C185.082 188.808 185.88 189.082 186.698 189.366C185.863 184.338 188.78 180.325 192.971 178.755C188.302 172.202 190.228 163.88 197.62 160.065C202.622 157.432 208.684 157.147 214.5 158.311C164.647 142.928 102.575 148.487 70.4221 99.6461C71.3958 102.848 71.8163 106.474 69.6875 109.071C71.9735 108.513 74.2767 109.283 75.6084 110.659C73.0287 109.028 69.5711 109.543 67.7928 111.554C71.4505 109.76 74.6272 112.553 76.7619 116.035C75.1052 114.674 73.4817 113.209 71.6233 112.735C69.8683 112.295 67.7105 112.973 67.3466 114.502C66.7694 116.109 67.4892 118.584 67.9325 120.197C68.147 120.951 68.4091 121.707 68.6608 122.481C68.7207 122.637 68.762 122.782 68.8032 122.927C69.7392 124.619 70.8512 126.214 72.1704 127.656L72.16 127.675ZM139.536 151.275C140.849 151.982 142.07 152.857 143.168 153.908C143.884 154.55 144.543 155.381 145.064 156.33C144.901 155.483 144.67 154.671 144.323 153.892C143.307 151.643 141.599 149.716 139.506 148.526C137.236 147.213 134.852 146.106 132.363 145.452C129.904 144.742 127.267 144.397 124.762 144.515C122.257 144.633 119.783 145.354 117.821 146.775C116.945 147.385 116.287 148.215 115.825 149.178C116.891 148.576 118.024 148.206 119.159 148.008C120.592 147.757 122.074 147.679 123.483 147.951C122.051 147.983 120.68 148.343 119.382 148.791C118.091 149.268 116.832 149.909 115.972 150.797C115.512 151.273 115.259 151.815 115.186 152.385C115.204 152.614 115.194 152.853 115.241 153.074C115.261 153.256 115.301 153.449 115.331 153.613C115.367 153.681 115.373 153.758 115.408 153.826C115.837 154.895 116.699 155.887 117.671 156.77C119.657 158.461 122.115 159.829 124.596 160.893C127.106 161.949 129.713 162.742 132.396 163.137C133.741 163.349 135.08 163.485 136.442 163.535C137.804 163.586 139.104 163.529 140.281 163.256C141.457 162.984 142.434 162.455 143.007 161.602C143.577 160.797 143.733 159.639 143.509 158.465C143.295 157.272 142.662 156.262 141.773 155.23C140.932 154.2 139.904 153.286 138.793 152.521C136.584 150.926 133.962 149.808 131.139 149.358C134.003 149.122 136.945 149.882 139.565 151.267L139.536 151.275ZM185.576 172.149C185.553 165.792 178.454 162.377 174.838 160.241C182.381 160.975 186.653 165.306 187.547 169.659C190.581 155.097 159.914 145.515 152.322 157.881C156.876 154.609 164.609 155.132 168.736 157.357C163.497 155.684 152.872 156.675 152.137 162.244C150.641 172.904 182.871 184.893 185.565 172.167L185.576 172.149ZM176.193 180.37C179.266 182.081 183.103 184.827 182.602 188.355C183.967 185.772 183.38 182.663 181.292 180.72C180.955 180.361 180.392 179.926 180.291 179.845C178.967 180.207 177.568 180.355 176.193 180.37ZM266.991 205.054C267.536 206.968 267.931 209.018 267.539 211.167C267.41 211.924 267.138 212.676 266.736 213.355C266.815 213.301 266.912 213.258 266.991 213.204C268.524 212.203 269.813 210.895 270.551 209.305C271.002 208.409 271.266 207.409 271.405 206.413C270.882 203.804 270.1 201.221 269.056 198.761C267.334 194.581 265.019 190.633 262.092 187.173C261.333 186.214 260.506 185.29 259.669 184.384C257.147 182.297 254.301 180.664 251.269 179.757C249.547 179.213 247.763 179.001 246.003 179.095C245.115 179.113 244.264 179.371 243.409 179.505C242.595 179.784 241.736 180.013 241.019 180.468C240.717 180.617 240.431 180.824 240.155 181.012C242.244 181.028 244.135 181.617 245.915 182.364C247.74 183.16 249.442 184.133 251.044 185.244C252.634 186.373 254.152 187.633 255.374 189.119C253.914 187.842 252.28 186.835 250.612 185.931C248.934 185.046 247.194 184.272 245.406 183.716C243.637 183.17 241.766 182.763 240.078 182.946C239.244 183.043 238.461 183.266 237.879 183.698C237.554 183.932 237.293 184.226 237.088 184.551C236.88 184.923 236.739 185.308 236.587 185.712C236.188 187.173 236.273 188.904 236.551 190.596C236.882 192.367 237.377 194.106 238.162 195.764C239.655 199.084 241.828 202.148 244.39 204.818C246.921 207.545 249.839 209.926 252.984 211.945C254.57 212.951 256.141 213.898 257.777 214.419C258.587 214.674 259.402 214.787 260.176 214.754C260.922 214.73 261.791 214.482 262.568 214.182C264.113 213.554 265.215 212.362 265.642 210.72C266.086 209.089 265.941 207.202 265.583 205.393C264.861 201.696 263.301 198.144 261.819 194.586C263.877 197.854 265.826 201.233 266.991 205.054ZM233.946 199.614C235.243 199.824 236.472 200.289 237.629 200.884C236.846 199.618 236.162 198.261 235.584 196.89C234.799 195.014 234.278 193.015 233.986 190.998C233.879 189.963 233.781 188.956 233.828 187.909C233.903 186.853 234.066 185.772 234.477 184.683C234.626 184.327 234.813 183.992 235.029 183.648C235.106 183.423 235.172 183.216 235.267 183C236.176 181.017 237.741 179.302 239.616 178.125C242.918 175.962 246.932 175.586 250.635 176.207C242.587 169.897 233.589 165.205 224.021 161.537C229.257 164.135 233.4 167.735 234.996 171.308C235.891 173.294 236.095 175.555 235.689 177.599C235.292 179.671 234.369 181.548 233.143 183.136C233.123 183.173 233.102 183.21 233.052 183.256C233.027 183.388 232.984 183.51 232.95 183.614C232.616 184.696 231.994 185.595 231.337 186.424C230.632 187.252 229.743 187.929 228.805 188.431C227.438 189.134 226.02 189.491 224.599 189.677C225.784 191.141 226.821 192.915 227.092 194.969C227.246 196.006 227.16 197.081 226.925 198.073C226.761 198.542 226.634 199.033 226.452 199.493C226.203 199.94 226.029 200.428 225.715 200.815C224.579 202.55 222.736 203.671 220.928 204.201C220.764 204.232 220.619 204.274 220.456 204.305C221.358 204.831 222.231 205.366 223.122 205.911C223.147 205.779 223.172 205.646 223.197 205.514C223.363 204.996 223.548 204.489 223.733 203.982L224.558 202.587C225.191 201.67 226.071 200.965 227.028 200.472C228.522 199.718 230.137 199.446 231.708 199.515C232.455 199.443 233.236 199.487 233.975 199.606L233.946 199.614ZM230.469 182.769C232.811 176.46 219.16 168.909 212.619 166.902C219.51 167.712 230.979 173.048 232.92 179.375C234.883 173.001 230.558 168.983 224.664 165.726C221.517 163.974 218.082 162.697 214.55 161.901C206.451 159.93 195.851 161.227 193.145 168.847C195.044 166.707 198.2 165.683 201.034 165.894C199.203 166.071 197.487 166.701 196.012 167.686C193.975 169.065 192.917 170.965 193.008 172.992C195.086 177.98 202.256 180.873 207.433 182.658C217.424 186.268 228.189 189.625 230.469 182.769ZM62.7915 109.453C62.1978 109.074 61.6435 108.668 61.1202 108.206C61.333 108.568 61.5273 108.92 61.7007 109.31C60.7082 108.245 59.6598 107.149 58.418 106.97C57.8591 106.878 57.3104 106.987 56.9272 107.238C56.382 107.91 56.2071 108.838 56.349 109.722C56.5135 110.741 56.9616 111.82 57.4304 112.862C57.8992 113.904 58.4074 114.919 59.0025 115.909C60.1452 117.887 61.5032 119.741 63.0892 121.405C63.8833 122.213 64.6981 122.984 65.7038 123.324C66.1073 123.476 66.602 123.507 67.0534 123.441C66.541 122.521 66.0969 121.566 65.7109 120.595C65.2051 119.313 64.8218 117.636 64.8136 117.607C64.7884 117.959 64.8916 120.139 62.4712 118.572C62.0265 118.275 61.6769 117.983 61.2612 117.679C62.3046 117.601 64.9279 119.11 62.2089 114.18C61.8907 113.612 61.3842 112.989 60.8652 112.431C60.6109 112.143 60.3462 111.874 60.069 111.671C59.7918 111.468 59.4732 111.339 59.1168 111.629C59.1729 111.441 59.2808 111.159 59.5418 111.085C59.7758 110.971 60.0718 110.965 60.2892 111.013C60.7818 111.092 61.1831 111.291 61.5845 111.49C62.3458 111.962 63.0491 112.452 63.6238 113.26C64.0723 113.9 64.3655 114.6 64.5717 115.325C64.5972 114.753 64.7179 114.186 64.8944 113.65C64.2934 112.363 63.6033 111.15 62.82 109.884C63.8524 110.483 64.7417 111.295 65.4921 112.226C65.7514 111.76 66.0665 111.325 66.4375 110.922C66.5473 110.812 66.6572 110.702 66.7566 110.611C65.206 110.724 63.8962 110.141 62.779 109.519L62.7915 109.453ZM48.7014 87.1389C48.8204 88.108 49.1506 89.0483 49.4912 89.97C50.0196 91.3866 50.7034 92.7433 51.3954 94.129C52.073 95.4091 52.732 96.6789 53.4862 97.9528C53.1539 97.0602 52.8796 96.151 52.7129 95.1798C52.6389 94.6993 52.6229 94.2024 52.6358 93.6972C52.5352 92.9579 52.4925 92.2021 52.6321 91.4257C52.707 91.0282 52.8296 90.6328 52.9894 90.2582C52.9625 90.2188 52.9356 90.1795 52.9191 90.1215C52.5451 89.5228 52.1732 88.8765 51.7534 88.4476C51.681 88.3585 51.5983 88.2881 51.5528 88.2383C51.5092 88.3605 51.4531 88.5489 51.455 88.7207C51.4067 89.3771 51.4328 90.0749 51.7447 90.7853C51.0371 90.3914 50.6447 89.5629 50.5379 88.747C50.5092 88.5358 50.4804 88.3245 50.52 88.0782C50.5492 87.8504 50.6096 87.5668 50.8811 87.2543C51.2499 86.8985 51.8356 87.0293 52.0487 87.1723C52.2908 87.3071 52.4935 87.4687 52.6196 87.6366C53.0558 88.1234 53.3472 88.6516 53.5805 89.1964C53.6116 89.1405 53.6531 89.066 53.6842 89.0101C54.0076 88.6045 54.3847 88.2776 54.7887 87.9901C54.6812 87.8326 54.5633 87.6938 54.4269 87.5447C53.3057 86.7984 52.3645 86.0793 51.3157 85.4222C51.1667 85.3392 48.1491 82.8296 48.7014 87.1389ZM58.2913 87.9636C56.9851 87.944 55.6907 88.5167 54.8368 89.4809C55.0894 89.3776 55.3503 89.3032 55.5905 89.2661C56.8845 89.1325 57.9687 89.6385 58.825 90.3348C59.6709 91.0497 60.233 91.9239 60.7372 92.8146C59.9264 92.168 59.1839 91.4863 58.3253 91.0571C57.5246 90.6113 56.5394 90.4533 55.825 90.6412C55.6511 90.6907 55.4854 90.7693 55.3673 90.85C55.2492 90.9306 55.129 91.0589 54.9984 91.2059C54.7559 91.5101 54.6065 91.8661 54.5025 92.2719C54.2864 93.0544 54.302 93.9903 54.4521 94.9035C54.742 96.7486 55.3942 98.6002 56.3012 100.301C57.2267 102.012 58.3967 103.59 59.809 105.084C59.7159 105.032 59.6228 104.981 59.5483 104.939C61.2421 106.541 63.4887 107.938 64.8711 106.463C66.5596 105.182 66.3573 102.654 65.5711 100.386C64.7765 98.0892 63.5389 95.8873 62.3324 93.6295C64.1314 95.4363 65.7584 97.4646 66.8634 99.861C67.421 101.05 67.8295 102.375 67.8507 103.827C67.8823 105.26 67.2099 106.862 66.0517 107.803C65.9128 107.921 65.774 108.039 65.6062 108.165L65.0594 108.446C64.8833 108.544 64.699 108.612 64.4961 108.67C65.2618 108.828 66.005 108.851 66.6324 108.688C67.1149 108.566 67.4423 108.285 67.7696 108.003C68.0433 107.643 68.319 107.235 68.4666 106.708C68.8444 105.722 68.9036 104.608 68.7744 103.438C68.5762 101.034 67.9184 98.667 66.9706 96.3825C66.6753 95.7301 66.38 95.0776 66.0266 94.4417L65.0714 93.3975C64.3414 92.6495 63.6197 91.9305 62.8669 91.2673C62.0955 90.5938 61.3033 89.9576 60.4821 89.3296C59.8823 88.8737 59.2431 88.4446 58.5956 87.9866C58.5004 87.9824 58.4156 87.9595 58.3203 87.9553L58.2913 87.9636ZM64.0235 89.9347C64.739 90.5771 65.3655 91.2919 65.8739 92.0873C65.4794 91.3065 65.0289 90.4945 64.6179 89.6556C63.2586 86.9711 62.0547 84.2268 60.9191 81.4472C60.8755 81.5694 60.8505 81.7019 60.7965 81.8426C60.7673 82.0704 60.7567 82.3085 60.7171 82.5549C60.4819 83.766 59.9403 85.0017 58.9166 85.9204C58.5188 86.2845 58.0196 86.5678 57.5432 86.7663C58.9734 87.0012 60.275 87.555 61.5018 88.2868C62.4184 88.6995 63.252 89.2612 64.0048 89.9243L64.0235 89.9347ZM51.615 66.9217C51.8964 67.0296 52.1757 67.1851 52.4074 67.3384C53.0445 67.8151 53.5635 68.3725 53.9437 69.0478C54.3156 69.694 54.5591 70.4396 54.5541 71.1933C54.0745 70.6091 53.6589 70.0849 53.2041 69.5877C52.7388 69.109 52.2528 68.6676 51.7253 68.3008C51.2268 67.9256 50.6743 67.6913 50.1589 67.6971C49.9394 67.697 49.6971 67.7817 49.4735 67.8768C48.5656 68.9818 48.415 70.4353 48.3678 71.9219C48.3315 72.951 48.3905 73.9842 48.526 75.0114C48.8663 76.1525 49.2357 77.2854 49.6444 78.3913C50.6395 80.8975 50.9909 81.3615 51.3258 81.7676C51.851 82.4016 52.4859 82.9259 53.1749 83.3094C53.8845 83.6557 54.6192 83.8695 55.2527 83.783C55.8945 83.7255 56.3483 83.3924 56.6697 82.8149C57.3231 81.6414 57.2422 79.8151 57.1364 78.1213C56.983 76.4253 56.6205 74.7106 56.0965 72.9793C57.275 74.3674 58.0764 76.0824 58.5112 77.8862C58.738 78.7933 58.8591 79.7148 58.8829 80.6797C58.8513 81.1745 58.8964 81.6632 58.7592 82.1725L58.5824 82.9281C58.4952 83.1724 58.3686 83.4435 58.2524 83.6961C57.7214 84.6937 56.551 85.4818 55.4062 85.4789C55.282 85.483 55.1785 85.4498 55.0729 85.4642C55.1578 85.487 55.2612 85.5202 55.3565 85.5244C56.2382 85.6493 57.3585 85.3457 58.1167 84.8162C58.9246 84.2411 59.557 83.3243 59.937 82.2913C60.0324 82.0761 60.0906 81.8401 60.1675 81.6144C60.405 78.2085 59.6654 74.8929 58.029 72.0054C57.0497 70.2157 55.7679 68.5749 54.0943 67.5943C53.4239 67.2211 52.6334 66.9762 51.8365 66.8742C51.7889 66.8721 51.7123 66.8783 51.6647 66.8762L51.615 66.9217ZM50.811 65.6933L50.91 66.0412C52.608 65.62 54.572 66.079 56.1813 67.2189C55.8309 65.877 55.5197 64.5081 55.2272 63.1496C54.1838 65.1552 52.5434 65.9989 50.84 65.685L50.811 65.6933ZM53.0855 52.7578C52.4484 50.3534 51.3844 46.3937 49.0378 47.4543C48.0333 47.9443 47.1358 49.0307 46.675 50.1651C46.2328 51.3098 45.9995 52.6928 45.9401 54.0262C45.8517 55.3679 45.9248 56.7262 46.1325 58.0619C46.4902 60.3108 47.5674 63.5458 49.8015 63.0815C50.6859 62.7198 51.4773 62.0868 51.9233 61.2858C52.7197 59.899 52.4734 57.9318 52.5351 56.3313C54.4461 59.9085 53.234 62.9183 50.6517 63.7012C50.4653 63.8171 50.2706 63.9039 50.0573 63.9804C52.5175 65.0816 53.9359 62.7967 54.3424 60.0948C54.5715 58.8071 54.6019 57.4819 54.5661 56.1443C54.5003 53.7652 54.4614 51.4254 53.3935 49.2691C53.0961 48.6643 52.6018 48.1939 52.1863 47.6698C52.5964 49.3866 53.106 51.0124 53.0833 52.8055L53.0855 52.7578ZM49.7251 45.5188C50.3379 45.4695 50.9734 45.5548 51.5527 45.8286C51.8796 45.9862 52.1858 46.181 52.4609 46.4318C52.3378 45.3384 52.2435 44.4563 52.1577 43.3836C50.6076 44.9852 49.9766 44.5851 49.6207 44.4358L49.7251 45.5188ZM50.9415 32.7752C50.6787 32.6777 50.3433 32.7106 49.9747 32.847C49.7614 32.9234 49.546 33.0475 49.3492 33.1819C48.4019 34.3139 47.1087 35.7168 47.1221 38.6281C47.0863 43.0736 48.6221 43.2942 49.4482 43.1685C50.1211 43.055 50.72 42.4612 50.7787 41.7862C50.785 41.6434 51.0045 41.6435 51.0167 41.7968C51.0304 42.5608 50.6653 43.2604 50.0108 43.6037C50.2965 43.6163 50.6236 43.5544 50.9156 43.4242C50.984 43.389 51.0337 43.3435 51.1021 43.3084C51.4959 42.82 51.7078 42.1327 51.9923 41.315C52.2499 40.458 52.4455 39.4932 52.5066 38.5511C52.5966 37.6008 52.61 36.6566 52.4785 35.7538C52.376 34.8426 52.1471 33.9832 51.6882 33.3617C51.5807 33.2042 51.4608 33.113 51.3429 32.9742C51.2126 32.9017 51.103 32.7918 50.9705 32.7669L50.9415 32.7752ZM52.8386 20.3861C52.6399 20.3487 52.4101 20.3672 52.1864 20.4623C50.1712 21.3657 50.0122 24.9373 50.006 26.7884C50.0202 27.1135 50.0343 27.4386 50.1376 27.6913C50.2408 27.944 50.3916 28.1988 50.522 28.2713C50.7702 28.4827 51.4744 28.0939 51.9159 27.6077C52.4049 27.1235 52.832 26.5316 53.0915 25.8464C53.1156 26.5919 52.7877 27.3122 52.3771 27.9621C52.1718 28.287 51.9107 28.5808 51.5647 28.8518C51.3575 29.0049 51.0551 29.1538 50.7197 29.1867C51.0836 29.5845 51.5699 29.8064 51.9446 29.7466C52.4146 29.691 52.9141 29.1882 53.2791 28.4886C53.6525 27.818 53.9162 27.0376 54.1137 26.2447C54.4069 25.0171 54.4892 23.5988 54.2773 22.3583C54.1498 21.5797 53.6148 20.5254 52.82 20.3757L52.8386 20.3861ZM284.217 212.448C298.353 191.744 318.802 145.418 238.052 128.403C217.339 124.558 197.844 124.612 183.669 124.139C183.526 124.132 177.094 123.943 177.504 123.952C150.157 122.953 117.253 112.175 97.4972 93.9049C76.6079 74.2962 69.2136 45.1681 64.8881 17.1873C63.8915 8.28722 64.5854 2.13393 61.9369 4.8321C61.309 5.43419 60.8485 6.34907 60.2701 7.12513C57.6989 11.0864 56.0587 15.566 55.1201 20.1434C55.0327 20.6072 56.0554 22.4942 56.1105 23.1837C56.3807 26.1159 54.9962 27.6388 54.1074 30.243C52.8426 34.0044 53.5618 62.198 67.174 88.1748C73.7683 100.777 83.2379 111.588 94.9772 119.636C106.208 127.328 118.975 132.435 131.994 136.169C145.559 140.061 159.482 142.566 173.368 145.05C187.074 147.508 200.831 149.872 214.262 153.567C226.742 157 239.07 161.668 249.84 169.005C252.738 170.985 255.277 173.301 258.045 175.428C269.433 184.281 276.298 197.669 276.56 211.699C276.52 216.679 275.614 221.811 273.156 226.226C277.011 221.711 280.79 217.201 284.178 212.475L284.217 212.448ZM254.987 233.802C256.905 234.211 258.876 234.088 260.775 233.657C262.662 232.633 264.454 231.386 265.998 229.927C266.814 229.162 267.575 228.365 268.213 227.525C268.537 227.119 268.833 226.674 269.043 226.254C269.281 225.826 269.497 225.263 269.73 224.758C271.57 220.707 272.275 216.243 272.072 211.787C272.052 211.605 272.042 211.404 272.04 211.232C270.914 212.728 269.422 213.874 267.84 214.701C266.651 215.26 265.431 215.654 264.181 215.885C263.955 216.028 263.74 216.152 263.506 216.266C262.503 216.708 261.513 217.084 260.343 217.214C259.203 217.335 258.075 217.171 257.038 216.887C255.765 216.544 254.615 216.026 253.524 215.443C253.967 216.006 254.399 216.589 254.81 217.208C255.823 218.894 256.58 220.731 256.862 222.767C257.008 223.775 256.988 224.862 256.711 225.929C256.464 226.986 255.873 228.048 255.218 228.83C254.177 230.13 252.768 231.127 251.205 231.745C252.26 232.698 253.344 233.424 254.96 233.762L254.987 233.802ZM228.507 215.473C230.522 218.425 232.974 221.205 235.601 223.717C235.812 223.907 236.004 224.088 236.215 224.278C237.59 225.312 238.978 226.28 240.389 227.163C241.97 228.092 243.581 228.965 245.177 229.341C245.97 229.538 246.729 229.62 247.347 229.475C247.964 229.331 248.426 229.026 248.821 228.49C249.236 227.965 249.572 227.274 249.809 226.454C250.036 225.653 250.127 224.874 250.135 224.073C250.149 222.47 249.525 220.83 248.79 219.127C247.27 215.768 245.255 212.596 242.822 209.607C246.078 211.688 248.818 214.653 250.822 218.062C251.845 219.73 252.739 221.716 252.917 223.938C253.011 225.04 252.846 226.168 252.58 227.216C252.487 227.603 252.335 228.006 252.183 228.41C252.627 228.096 253.062 227.752 253.433 227.349C254.005 226.716 254.374 226.14 254.627 225.378C254.87 224.635 254.935 223.817 254.897 222.966C254.82 221.264 254.278 219.522 253.509 217.923C252.819 216.49 251.895 215.17 250.864 213.913C247.709 211.913 244.78 209.55 242.183 206.811C241.426 206.024 240.738 205.201 240.051 204.331C239.718 204.097 239.404 203.873 239.071 203.639C238.382 203.255 237.712 202.882 237.031 202.527C236.323 202.133 235.614 201.787 234.912 201.47C234.217 201.229 233.491 201.044 232.758 201.002C231.027 200.869 229.247 201.219 227.892 202.076C227.254 202.477 226.725 202.988 226.327 203.572C226.692 203.311 227.083 203.09 227.473 202.916C228.473 202.521 229.568 202.35 230.605 202.415C231.68 202.501 232.677 202.812 233.573 203.262C235.394 204.154 236.823 205.486 238.076 206.916C236.348 206.076 234.722 205.097 233.029 204.545C231.347 203.975 229.641 203.928 228.115 204.567C226.601 205.139 225.627 206.451 225.579 208.157C225.47 209.975 226.246 212.262 228.385 215.429L228.507 215.473ZM198.827 198.949C201.279 200.021 203.874 200.881 206.487 201.53C209.081 202.218 211.823 202.768 214.346 202.88C216.681 202.935 219.527 202.03 220.555 200.358C221.067 199.57 221.007 198.364 220.498 197.35C220.011 196.297 219.051 195.348 218.009 194.548C215.897 192.909 213.356 191.69 210.778 190.669C213.556 191.069 216.294 191.934 218.815 193.362C220.061 194.105 221.298 195.037 222.191 196.413C222.424 196.738 222.587 197.146 222.761 197.535C222.876 197.941 223.002 198.329 223.049 198.77C223.183 199.625 223.016 200.581 222.655 201.405C222.634 201.442 222.614 201.48 222.593 201.517C223.188 201.018 223.681 200.439 224.044 199.787C224.249 199.462 224.343 199.075 224.511 198.729C224.642 198.363 224.717 197.965 224.81 197.578C224.968 196.812 224.963 196.077 224.815 195.336C224.326 193.234 222.892 191.386 221.092 189.798C220.799 189.537 220.486 189.266 220.164 189.013C219.897 188.791 219.638 188.599 219.361 188.395C219.185 188.273 219.02 188.132 218.844 188.01C214.605 187.431 210.584 186.242 206.667 184.866C203.588 183.738 200.43 182.444 197.635 180.497C190.464 180.629 187.346 185.53 188.679 190.714C188.823 189.622 189.311 188.308 190.064 187.482C192.385 185.066 195.578 185.77 198.467 186.67C197.07 186.551 195.654 186.422 194.356 186.651C192.838 186.88 191.322 187.719 190.809 189.166C190.774 189.317 190.278 190.603 190.568 191.789C190.758 192.895 195.717 197.657 198.845 198.96L198.827 198.949ZM171.38 190.111C174.402 190.598 178.972 191.458 180.335 188.703C181.986 185.694 176.817 182.011 173.891 180.211C168.025 179.752 161.939 177.584 156.727 173.803C155.926 173.357 155.165 172.885 154.426 172.327C151.029 172.778 149.528 174.773 149.513 177.473C149.729 177.96 149.967 178.41 150.205 178.859C150.846 176.874 153.162 175.43 157.061 176.795C156.301 176.934 155.543 177.024 154.85 177.175C153.684 177.429 152.605 177.877 152.034 178.902C151.194 180.411 152.937 182.406 154.201 183.597C154.35 183.68 161.369 188.466 171.362 190.101L171.38 190.111ZM127.729 177.522C128.544 177.854 129.398 178.159 130.245 178.435C130.489 178.522 136.167 181.292 141.798 176.522C142.687 175.845 143.22 175.019 143.123 174.404C143.109 174.079 142.869 173.677 142.582 173.273C142.237 172.886 141.834 172.515 141.364 172.132C139.418 170.633 137.301 169.309 135.028 168.092C137.6 168.377 140.098 169.28 142.386 170.602C142.684 170.768 142.98 170.982 143.268 171.166C143.563 171.38 143.828 171.649 144.113 171.881C144.395 172.208 144.684 172.565 144.924 172.967C144.893 172.803 144.891 172.631 144.841 172.457C144.633 171.78 144.214 171.132 143.726 170.518C142.742 169.263 141.348 168.218 139.912 167.248C139.449 166.941 139.004 166.645 138.53 166.357C137.793 166.41 137.058 166.416 136.352 166.413C134.856 166.385 133.382 166.272 131.904 166.035C128.977 165.553 126.107 164.663 123.434 163.418C123.21 163.294 122.987 163.17 122.753 163.064C122.563 163.055 122.372 163.047 122.2 163.049C120.863 163.085 119.471 163.482 118.351 164.224C117.938 164.483 117.599 164.831 117.277 165.189C117.774 164.953 118.278 164.794 118.76 164.672C121.085 164.088 123.574 164.131 125.753 164.905C123.426 164.878 121.206 165.229 119.169 165.997C114.432 167.802 117.576 170.479 119.448 172.156C120.273 172.908 121.16 173.548 122.056 174.218C123.878 175.501 125.862 176.581 127.965 177.58C127.898 177.568 127.813 177.545 127.747 177.532L127.729 177.522Z" fill="white" fill-opacity="0.5"/>
<path d="M103.152 141.317C103.335 141.688 103.48 142.085 103.508 142.516C103.555 142.957 103.487 143.431 103.308 143.795C102.97 144.534 102.141 145.147 101.438 144.877C102.053 144.561 102.213 143.967 102.187 143.488C102.179 143.02 101.908 142.674 101.59 142.326C100.913 141.657 99.819 140.95 98.8446 140.334C97.8599 139.737 96.7427 139.115 95.7599 138.69C95.2819 138.497 94.8017 138.352 94.3586 138.447C93.8679 138.54 93.3501 138.813 93.13 139.471C92.787 138.816 93.171 137.908 93.8132 137.411C94.5239 136.88 95.4162 136.766 96.1759 136.848C97.6744 137.048 98.9014 137.56 100.11 138.281C100.703 138.661 101.258 139.067 101.781 139.529C102.275 139.999 102.805 140.538 103.183 141.261L103.152 141.317Z" fill="white" fill-opacity="0.5"/>
<path d="M202.89 173.028C203.849 172.269 205.013 172.063 206.046 172.003C207.1 171.907 208.143 172.048 209.13 172.159C210.184 172.282 211.21 172.585 212.15 172.913C214.056 173.608 215.903 174.539 217.479 176.002C217.872 176.391 218.265 176.781 218.556 177.309C218.839 177.808 219.077 178.477 218.96 179.169C218.825 179.85 218.383 180.336 217.932 180.621C217.488 180.936 216.996 181.076 216.503 181.217C217.209 180.561 217.943 179.725 217.791 179.079C217.713 178.474 217.022 177.919 216.308 177.448C214.833 176.505 213.062 175.787 211.344 175.148C210.452 174.823 209.625 174.557 208.737 174.355C207.812 174.133 206.903 173.969 206.021 173.844C203.829 173.575 202.459 173.935 202.361 176.125C202.359 175.954 201.386 174.46 202.89 173.028Z" fill="white" fill-opacity="0.5"/>
<path d="M207.541 191.137C207.944 191.288 208.327 191.477 208.72 191.647L209 191.802L209.186 191.906L209.353 191.999C209.548 192.132 209.705 192.244 209.881 192.366C210.545 192.882 211.2 193.369 211.794 193.968C212.379 194.538 212.952 195.174 213.413 195.967C213.518 196.173 213.623 196.378 213.708 196.62C213.774 196.852 213.854 197.189 213.697 197.516C213.52 197.833 213.212 197.905 212.982 197.924C212.752 197.942 212.564 197.886 212.347 197.839C212.705 197.721 213.157 197.435 213.078 197.27C213.035 197.172 212.799 196.895 212.522 196.692C211.97 196.238 211.31 195.846 210.66 195.435C209.99 195.062 209.35 194.633 208.68 194.26L208.103 193.939L207.766 193.8C207.439 193.642 207.083 193.493 206.754 193.383C204.662 192.584 202.536 192.108 200.296 192.277C199.59 192.274 198.895 192.472 198.378 193.137C198.364 190.664 203.659 189.61 207.597 191.168L207.541 191.137Z" fill="white" fill-opacity="0.5"/>
<path d="M159.994 181.649C162.315 179.451 170.864 180.745 173.495 186.358C170.008 184.735 167.315 183.308 162.326 182.63C161.672 182.534 161.132 182.453 160.677 182.614C160.291 182.692 159.769 183.28 160.102 183.953C159.415 183.742 159.174 182.509 160.003 181.678L159.994 181.649Z" fill="white" fill-opacity="0.5"/>
<path d="M57.223 96.1042C57.923 95.8107 58.6084 95.6311 59.492 95.9278C60.2991 96.2307 60.783 96.7197 61.2855 97.219C61.7693 97.708 62.1641 98.2694 62.5299 98.8391C62.8854 99.4274 63.1724 100.051 63.3808 100.728C63.5602 101.414 63.7374 102.147 63.5088 102.995C63.4237 103.192 63.3759 103.409 63.2432 103.604C63.0918 103.788 62.9881 103.974 62.781 104.128C62.3852 104.444 61.8676 104.498 61.4889 104.433C60.7149 104.246 60.2102 103.794 59.7843 103.289C60.4052 103.488 61.0467 103.65 61.5374 103.557C61.7776 103.52 61.9164 103.402 61.989 103.272C62.0201 103.216 62.0451 103.083 62.0949 103.038C62.1177 102.953 62.1137 102.829 62.1366 102.744C62.1189 101.856 61.5674 100.743 60.9908 99.7636C60.7078 99.2644 60.3667 98.7817 60.0049 98.3362C59.6618 97.9012 59.2524 97.4536 58.9297 97.2008C58.6525 96.9977 57.9798 96.8916 57.4912 96.9368C57.2324 96.9636 57.0109 97.011 56.9279 97.16C56.8346 97.3277 56.915 97.6653 57.0637 97.9677C56.7948 97.7935 56.47 97.5883 56.4539 97.0914C56.4773 96.5675 56.9289 96.2821 57.2313 96.1332L57.223 96.1042Z" fill="white" fill-opacity="0.5"/>
<path d="M50.6752 52.2693C50.9232 52.7001 51.0738 53.1744 51.1478 53.6548C51.3248 54.6074 51.2037 55.6137 50.7928 56.483C50.411 57.3441 49.7291 58.087 48.8656 58.4114C49.1894 57.5669 49.3848 56.8216 49.4456 56.099C49.5064 55.3764 49.5092 54.6703 49.3775 53.987C49.3261 53.6411 49.2354 53.3222 49.126 52.9929C49.0166 52.6636 48.8783 52.3426 48.7357 52.1168C48.5931 51.891 48.3986 51.7583 48.3242 51.7168C48.1627 51.7002 47.7194 52.0146 47.9798 52.3792C47.7314 52.3873 47.4957 52.1097 47.5188 51.8053C47.5025 51.5278 47.6022 51.2173 47.8612 50.9711C48.5325 50.4664 49.2629 50.7754 49.6973 51.0904C50.1689 51.4262 50.4459 51.8488 50.6752 52.2693Z" fill="white" fill-opacity="0.5"/>
<path d="M53.3086 73.6479C53.5318 73.9917 53.7239 74.3915 53.8788 74.7705C54.4671 76.3425 54.49 78.1853 53.5858 79.6341C53.3072 78.8202 53.1196 78.1057 52.8926 77.4181C52.6657 76.7305 52.4469 76.0719 52.1992 75.4216C51.9411 74.7899 51.6687 74.0525 51.429 73.6507C51.367 73.543 51.2842 73.4725 51.2119 73.3834C51.1582 73.3047 51.0651 73.2529 50.9326 73.2279C50.6863 73.1884 50.3137 73.2006 50.1331 73.6125C49.8748 73.2002 50.2356 72.5959 50.7223 72.3788C50.9564 72.2651 51.2732 72.2218 51.5857 72.2738C51.8796 72.3155 52.1217 72.4502 52.3534 72.6036C52.7981 72.9 53.0854 73.304 53.3086 73.6479Z" fill="white" fill-opacity="0.5"/>
<path d="M77.9635 126.099C78.1501 125.763 78.0679 125.254 77.8593 124.796C77.3862 123.85 76.6586 122.835 75.8646 122.026C75.0809 121.2 74.1233 120.423 73.1736 119.894C72.7268 119.645 72.2177 119.508 71.7642 119.622C71.3107 119.735 70.7783 120.122 70.7486 120.789C70.3559 120.18 70.7295 119.29 71.3696 118.841C72.0781 118.357 72.9351 118.395 73.6615 118.579C75.0646 118.995 76.1837 119.788 77.1701 120.777C78.1068 121.811 78.8487 122.931 79.2032 124.398C79.3618 125.12 79.3194 126.073 78.6046 126.7C78.2689 126.952 77.8817 127.078 77.4822 127.051C77.1013 127.034 76.7206 126.798 76.6113 126.468C77.176 126.856 77.7664 126.453 77.9738 126.08L77.9635 126.099Z" fill="white" fill-opacity="0.5"/>
<path d="M81.3931 138.647C81.6865 139.127 82.0151 139.676 82.1096 140.339C82.1713 140.666 82.1834 141.039 82.0919 141.378C82.0191 141.728 81.7827 142.109 81.5258 142.307C81.2585 142.525 80.9375 142.663 80.6125 142.677C80.2874 142.692 79.9502 142.553 79.7889 142.317C80.3457 142.456 80.7249 142.081 80.8743 141.725C81.032 141.398 80.9226 141.069 80.7864 140.7C80.4166 140.006 79.7178 139.202 79.0415 138.533C78.3757 137.845 77.6021 137.219 76.8161 136.66C76.4272 136.394 76.0734 136.197 75.6925 136.181C75.3406 136.156 74.8271 136.333 74.6692 136.88C74.3986 136.314 74.8506 135.59 75.5009 135.342C76.1802 135.086 76.8797 135.231 77.4426 135.447C78.5414 135.839 79.524 136.484 80.3367 137.302C80.7482 137.702 81.0996 138.166 81.4221 138.638L81.3931 138.647Z" fill="white" fill-opacity="0.5"/>
<path d="M51.6028 36.9749C51.652 37.3683 51.6723 37.77 51.6636 38.18C51.5613 38.9771 51.5646 39.7598 50.9261 40.6C50.1613 41.4919 48.7706 41.0105 48.6453 40.1843C49.2512 40.7168 50.0547 40.4565 50.1876 40.0425C50.3786 39.6119 50.4436 38.7941 50.4733 38.1274C50.503 37.4607 50.5204 36.6407 50.3491 36.2037C50.2437 35.9987 50.0618 35.7998 49.8341 35.7706C49.6458 35.7146 49.2439 35.9545 49.2932 36.3479C48.9726 36.0475 49.1741 35.3788 49.7167 35.1928C50.2489 35.0255 50.791 35.2785 51.1156 35.7032C51.4505 36.1093 51.5245 36.5897 51.6028 36.9749Z" fill="white" fill-opacity="0.5"/>
<path d="M52.7528 22.7301C52.8268 23.2105 52.7891 23.6287 52.683 24.0821C52.4544 24.9309 51.9215 25.7567 51.0558 26.1288C51.1644 25.1888 51.366 24.5201 51.5324 23.7831L51.8378 22.7087C51.8732 22.5576 51.9271 22.4168 51.9231 22.2926C51.9295 22.1497 51.88 21.9758 51.6566 21.8514C51.8637 21.6983 52.2031 21.7896 52.4141 21.9803C52.6333 22.1999 52.7158 22.4899 52.7528 22.7301Z" fill="white" fill-opacity="0.5"/>
<path d="M241.783 154.955C247.026 157.41 252.122 160.174 257.021 163.291C259.4 164.933 261.839 166.51 264.122 168.367C266.426 170.187 268.54 172.217 270.533 174.376C272.508 176.525 274.302 178.866 275.91 181.323C277.478 183.807 278.792 186.441 279.835 189.169C280.809 191.932 281.454 194.804 281.726 197.689C281.94 200.59 281.687 203.499 281.085 206.287C281.308 203.434 281.234 200.587 280.738 197.798C280.203 195.035 279.359 192.345 278.213 189.803C277.028 187.289 275.618 184.869 273.973 182.611C272.288 180.38 270.504 178.24 268.521 176.282C266.527 174.342 264.434 172.494 262.2 170.811C259.995 169.12 257.59 167.658 255.215 166.141C250.403 163.218 245.427 160.546 240.293 158.2C235.16 155.855 229.89 153.799 224.542 151.969C219.185 150.158 213.719 148.628 208.229 147.23C202.705 145.936 197.138 144.765 191.52 143.858C185.903 142.951 180.238 142.262 174.531 141.647C180.263 141.471 185.997 141.686 191.731 142.121C197.442 142.64 203.151 143.427 208.817 144.508C214.484 145.589 220.047 147.075 225.583 148.742C231.086 150.512 236.488 152.592 241.765 154.944L241.783 154.955Z" fill="white" fill-opacity="0.5"/>
<path d="M84.8849 99.0354C88.6624 103.335 92.8066 107.325 97.2764 110.863C101.715 114.457 106.506 117.636 111.513 120.472C116.48 123.335 121.715 125.762 127.055 127.954C137.759 132.254 149.007 135.271 160.548 137.059C148.865 136.753 137.184 134.471 126.071 130.554C120.509 128.629 115.102 126.204 109.874 123.416C104.667 120.59 99.6977 117.335 95.0542 113.628C90.4502 109.893 86.1798 105.735 82.3363 101.204C78.5322 96.6456 75.1031 91.8083 72.2332 86.6236C66.4334 76.3184 62.5704 64.944 61.2559 53.3291C64.0321 64.6841 68.5231 75.4564 74.605 85.2111C77.6801 90.0709 81.0598 94.7342 84.8766 99.0064L84.8849 99.0354Z" fill="white" fill-opacity="0.5"/>
<path d="M284.909 191.97C284.335 189.015 283.413 186.159 282.074 183.437C280.783 180.717 279.211 178.109 277.363 175.69C273.766 170.759 269.369 166.433 264.428 162.779C259.468 159.114 253.96 156.17 248.052 153.857C254.349 154.727 260.484 157.069 265.981 160.471C268.759 162.14 271.322 164.152 273.725 166.32C276.108 168.525 278.268 170.996 280.224 173.574C282.148 176.207 283.816 179.038 285.142 182.046C286.409 185.07 287.373 188.29 287.655 191.595C287.995 194.883 287.693 198.229 286.8 201.368C285.888 204.496 284.431 207.418 282.505 209.957C283.742 207.035 284.696 204.052 285.098 201.006C285.539 197.981 285.436 194.923 284.899 191.989L284.909 191.97Z" fill="white" fill-opacity="0.5"/>
<path d="M289.792 178.339C288.595 174.574 286.693 171.026 284.307 167.819C281.893 164.62 278.985 161.781 275.649 159.363C275.949 159.481 287.495 163.713 292.058 177.599C293.355 181.665 293.802 185.989 293.348 190.177C292.913 194.376 291.605 198.479 289.406 201.989C290.688 198.066 291.411 194.052 291.494 190.047C291.548 186.051 291.028 182.077 289.784 178.31L289.792 178.339Z" fill="white" fill-opacity="0.5"/>
<path d="M102.95 112.411C99.0653 109.663 95.4045 106.6 92.1229 103.162C88.8309 99.7436 85.8581 96.0145 83.4238 91.9751C86.6474 95.429 89.925 98.7422 93.3933 101.844C96.8719 104.928 100.492 107.846 104.296 110.476C108.079 113.144 112.055 115.552 116.135 117.775C120.225 119.979 124.479 121.932 128.814 123.785C124.17 122.883 119.638 121.384 115.326 119.447C110.975 117.537 106.845 115.141 102.94 112.43L102.95 112.411Z" fill="white" fill-opacity="0.5"/>
<path d="M57.4607 39.3331C56.8613 36.5104 56.618 33.6176 56.5942 30.725C56.618 27.8345 56.8613 24.9441 57.4543 22.1265C58.0286 19.2985 58.8866 16.5307 60.1562 13.9434C59.8385 16.7923 59.5043 19.5832 59.284 22.3887C59.074 25.1755 58.9406 27.9562 58.9604 30.7246C58.9512 33.5013 59.0848 36.2842 59.2951 39.061C59.5239 41.8482 59.848 44.6396 60.1886 47.489C58.9203 44.904 58.0414 42.1453 57.471 39.3144L57.4607 39.3331Z" fill="white" fill-opacity="0.5"/>
<path d="M233.424 143.811C233.081 145.084 230.328 145.43 227.283 144.589C224.239 143.749 222.045 142.039 222.396 140.795C222.739 139.522 225.492 139.176 228.537 140.016C231.581 140.857 233.775 142.567 233.424 143.811Z" fill="white" fill-opacity="0.5"/>
<path d="M202.761 133.743C202.532 135.031 200.658 135.769 198.623 135.392C196.57 135.006 195.133 133.644 195.362 132.357C195.61 131.079 197.465 130.331 199.5 130.707C201.534 131.084 202.99 132.455 202.761 133.743Z" fill="white" fill-opacity="0.5"/>
<path d="M140.277 126.725C143.279 127.64 145.395 129.403 145.015 130.656C144.635 131.908 141.894 132.188 138.891 131.273C135.888 130.357 133.772 128.594 134.153 127.341C134.533 126.089 137.274 125.809 140.277 126.725Z" fill="white" fill-opacity="0.5"/>
<path d="M76.7168 72.2586C77.8706 71.632 79.9204 73.1636 81.2778 75.6762C82.6352 78.1888 82.798 80.744 81.6257 81.3602C80.472 81.9868 78.4221 80.4552 77.0647 77.9426C75.7074 75.43 75.5445 72.8748 76.7168 72.2586Z" fill="white" fill-opacity="0.5"/>
<path d="M257.36 148.18C257.862 146.972 260.601 146.959 263.419 148.162C266.266 149.357 268.154 151.311 267.641 152.538C267.139 153.747 264.4 153.759 261.582 152.557C258.735 151.362 256.847 149.408 257.36 148.18Z" fill="white" fill-opacity="0.5"/>
<path d="M255.352 145.257C255.053 146.189 253.502 146.521 251.913 146.002C250.323 145.484 249.279 144.292 249.578 143.361C249.877 142.429 251.428 142.097 253.018 142.616C254.607 143.135 255.651 144.326 255.352 145.257Z" fill="white" fill-opacity="0.5"/>
<path d="M211.473 140.96C213.177 141.274 214.399 142.321 214.222 143.296C214.045 144.271 212.515 144.786 210.811 144.472C209.108 144.158 207.886 143.111 208.063 142.136C208.24 141.161 209.77 140.647 211.473 140.96Z" fill="white" fill-opacity="0.5"/>
<path d="M173.783 130.372C173.569 131.327 171.595 131.717 169.356 131.226C167.117 130.736 165.48 129.557 165.695 128.602C165.909 127.648 167.882 127.258 170.121 127.748C172.361 128.239 173.997 129.418 173.783 130.372Z" fill="white" fill-opacity="0.5"/>
<path d="M82.6962 89.2515C81.9337 89.8763 80.541 89.4425 79.5631 88.2637C78.5852 87.0848 78.4212 85.627 79.165 84.9919C79.9275 84.3671 81.3202 84.8008 82.2981 85.9797C83.276 87.1585 83.4401 88.6164 82.6962 89.2515Z" fill="white" fill-opacity="0.5"/>
<path d="M74.1314 63.9368C75.0013 63.4695 76.1022 63.8139 76.596 64.7233C77.0898 65.6326 76.8112 66.7464 75.9309 67.2324C75.0609 67.6997 73.96 67.3552 73.4559 66.4645C72.9621 65.5552 73.2407 64.4414 74.121 63.9554L74.1314 63.9368Z" fill="white" fill-opacity="0.5"/>
<path d="M62.7906 27.2198C63.704 26.8498 65.0875 28.1325 65.8886 30.067C66.6794 32.0201 66.5863 33.896 65.673 34.266C64.7597 34.636 63.3761 33.3533 62.575 31.4188C61.7842 29.4657 61.8773 27.5898 62.7906 27.2198Z" fill="white" fill-opacity="0.5"/>
</g>
<defs>
<clipPath id="clip0_434_6018">
<rect width="125" height="303" fill="white" transform="matrix(-0.486421 0.873725 0.873725 0.486421 61.3281 0.710938)"/>
</clipPath>
</defs>
</svg>
