<svg width="269" height="220" viewBox="0 0 269 220" fill="none" xmlns="http://www.w3.org/2000/svg">
<path d="M79.9363 57.6842L75.0919 59.3847C65.4238 56.3175 50.9789 68.0247 52.6465 74.2437L51.1437 75.3682C50.1866 74.9589 49.2059 74.9111 48.2975 74.9711C45.5753 75.3136 37.1127 79.5637 34.4476 82.8756C33.2847 84.3378 32.2855 86.0067 31.8185 87.973C31.6371 88.9678 31.6123 90.1022 32.0587 91.1405C32.4857 92.1876 33.2852 92.9724 34.2299 93.4577C34.3233 93.509 34.4079 93.5409 34.4925 93.5728C34.2646 93.793 34.0368 94.0131 33.8089 94.2332C32.2548 95.4511 30.9014 96.9059 29.7523 98.5022C29.2201 98.2048 28.5872 98.0466 27.975 98.0895C26.6361 98.1805 25.4657 98.8505 24.475 99.5561C22.4374 100.946 20.7641 102.78 19.3429 104.756C18.6551 105.77 18.0238 106.804 17.4753 107.918C16.9743 109.034 16.4452 110.139 16.2791 111.478C16.2523 111.677 16.2343 111.896 16.2445 112.126C16.2196 112.277 16.1947 112.429 16.1697 112.581C16.1579 113.382 16.3962 114.374 17.1166 114.984C17.7825 115.525 18.8316 115.776 19.6222 115.558C18.474 116.639 17.4594 117.964 16.6178 119.258C16.291 119.569 15.973 119.9 15.6832 120.242C14.964 121.082 14.3451 122.041 13.8585 123.033C11.7446 124.669 9.50193 127.415 8.09337 130.299C7.43671 131.742 6.82215 133.331 7.10687 135.098C7.53956 136.984 8.92895 137.315 9.27987 137.367C7.99822 139.187 7.10918 141.462 6.55901 143.606C5.41532 146.3 5.19728 149.23 5.5102 151.007C5.80412 152.536 6.55564 153.576 7.55119 154.226L7.10299 155.458C6.46226 155.748 5.78781 156.17 5.16424 156.756C1.40814 158.432 -0.00486979 166.373 1.51209 170.811C1.80723 171.567 2.21007 172.251 2.72062 172.862C2.99347 173.207 3.31579 173.505 3.61173 173.746C3.85454 174.127 4.20506 174.437 4.61566 174.672L4.35754 176.17L4.73667 176.232C1.11462 175.671 -0.200043 187.241 4.87313 189.252L4.63116 190.578C4.43659 190.923 4.21014 191.353 4.09467 191.874C3.1813 192.802 3.2737 194.609 3.25409 195.858C3.55643 202.109 6.91155 201.925 7.4409 201.803C8.16037 206.391 9.55389 210.815 11.9321 214.934C12.5444 215.874 13.8785 218.874 16.4426 219.165C17.4302 219.28 18.5318 218.664 18.9314 216.963C21.9605 197.55 20.6227 202.555 23.0192 195.082C27.7928 180.145 34.2245 164.014 43.2474 151.179C52.5513 137.984 62.4592 129.897 80.5293 122.377C125.24 103.996 153.856 117.819 200.726 112.689C228.46 109.572 266.65 99.0086 268.355 65.7099C269.724 53.2263 266.067 41.4723 259.619 31.0981C256.338 21.9349 250.73 13.7783 243.077 7.66975C239.45 4.77111 235.206 1.80073 230.503 1.07371C227.933 0.668318 224.527 1.20349 222.005 2.76545C220.778 3.41415 219.8 4.30154 219.16 5.31658C217.483 5.02228 216.121 5.2173 214.439 5.53345C210.505 6.40109 206.951 8.26631 203.843 10.7022C200.886 13.1632 198.113 15.8221 195.723 18.9157C194.565 20.4926 193.499 22.1685 192.711 24.046C192.302 25.0033 191.976 26.0401 191.81 27.1213C189.913 28.0969 187.978 29.0424 185.978 29.9473C185.047 29.5962 184.074 29.3579 183.058 29.2325C180.006 28.9991 177.216 29.3484 174.376 29.7912C168.854 30.7687 161.07 33.0035 157.692 37.4802C156.547 38.4661 155.814 39.4298 155.179 40.5595C153.522 40.9816 151.846 41.4124 150.171 41.7956C149.456 41.0427 148.63 40.4571 147.72 40.0496C145.361 38.4025 141.597 38.5612 138.716 38.8115C131.337 39.4592 121.991 43.36 121.875 43.4127C119.817 44.3439 117.911 46.0253 116.584 48.2634C114.386 48.6263 112.207 48.9803 110.02 49.3149C108.724 48.5202 104.114 46.3943 97.8043 47.4938C97.4215 47.5266 97.0299 47.54 96.647 47.5728C93.2934 47.9669 89.9916 48.9928 86.9747 50.545C84.0018 52.1943 80.3402 54.3892 79.9433 57.7513L79.9363 57.6842ZM54.9035 73.5969C54.902 73.387 54.9094 73.1964 54.8885 72.9953C55.0048 71.9598 55.5145 70.8633 56.2235 69.7937C56.8138 69.0821 57.4322 68.381 58.1247 67.7401C59.785 66.2401 61.6655 64.968 63.6746 63.825C67.2919 61.7905 69.4318 60.4713 73.5278 61.356C73.993 61.6604 74.3786 62.0475 74.5808 62.4942C75.0836 63.5538 74.7899 65.2311 73.9025 66.4751C72.9832 67.8036 71.5104 68.8912 70.0885 70.143C71.9253 69.7565 73.7713 69.1319 75.2957 67.6934C75.5925 67.4187 75.8629 67.0857 76.0857 66.7509C76.0006 66.9766 75.8874 67.1916 75.7742 67.4067C74.9904 68.9313 73.8011 70.3353 72.5009 71.649C71.7872 72.3463 71.0171 73.0224 70.2382 73.679C70.0671 73.6628 69.8961 73.6466 69.7338 73.6498C67.8835 73.6445 66.1138 74.024 64.4495 74.6366C64.3136 74.6981 64.1777 74.7596 64.0418 74.8211C63.5989 74.9279 63.1754 75.0259 62.7413 75.1521C63.2095 74.636 63.6602 74.0811 64.0544 73.5049C62.0717 74.7062 60.0553 76.0397 58.1204 76.0025C57.1486 75.9742 56.2336 75.7096 55.6824 75.1634C55.4058 74.9141 55.2301 74.5256 55.0525 74.1847C55.0122 73.9923 54.9525 73.8087 54.8928 73.6251L54.9035 73.5969ZM53.2313 80.3441C53.4299 79.6458 53.5176 78.8573 53.3478 78.0683C53.264 77.5212 52.9897 76.9667 52.6271 76.4755L53.3935 75.8948C53.6187 76.2375 53.8828 76.5626 54.2352 76.8244C54.9857 77.3975 55.8336 77.669 56.6784 77.7783C55.4672 78.5134 54.3 79.3458 53.2137 80.3053L53.2313 80.3441ZM42.5631 89.5937C42.2649 89.6584 41.9949 89.7338 41.6967 89.7985C41.7462 89.7527 41.7868 89.6875 41.8363 89.6417C42.6273 89.1669 43.3636 88.6231 43.989 87.9891C44.0385 87.9433 43.9858 87.8268 43.9363 87.8726C41.7825 89.0576 39.5303 90.0767 37.0851 90.4108C33.4119 90.926 32.3017 90.2817 34.668 86.3094C36.3461 83.6078 38.766 81.4599 41.5466 79.8508C42.9237 79.0172 44.3623 78.3194 45.8643 77.7101C46.641 77.3587 47.2692 77.1446 47.9572 77.1142C48.6257 77.0925 49.2199 77.2683 49.5843 77.7119C50.3571 78.6961 50.2044 80.4266 49.5584 81.8421C48.7811 83.6914 46.9799 86.121 45.2012 87.7215C46.9949 86.7227 48.5757 85.3054 49.8043 83.6263C50.9426 82.0582 52.184 80.0457 51.5968 77.7139C51.7605 77.9206 51.9136 78.1556 51.9978 78.4451C52.3526 79.3844 52.2433 80.4869 51.9805 81.6121C51.4716 82.1933 50.9715 82.794 50.5453 83.4548C50.2288 83.9959 49.921 84.5564 49.6696 85.1381C49.6095 85.2121 49.5582 85.3055 49.4787 85.3883C48.3953 86.7677 47.2009 88.057 45.9852 89.4026C44.7984 89.261 43.6306 89.3681 42.5631 89.5937ZM48.8047 87.7759C48.7585 87.984 48.7123 88.1921 48.6749 88.4197C48.6228 89.0283 48.6183 89.6387 48.6896 90.2617C48.5592 90.1803 48.4288 90.0989 48.279 90.0262C47.6604 89.7445 47.038 89.5581 46.4032 89.4475C47.27 88.9851 48.0452 88.4238 48.7765 87.7653L48.8047 87.7759ZM34.8604 95.1615C37.4924 92.707 39.4575 91.4668 43.8973 91.3535C45.3288 91.8291 46.1612 92.9969 46.3724 94.4458C46.914 97.7109 44.6062 100.417 43.0464 103.018C48.6296 99.2279 49.0582 94.7985 47.3691 92.0994C47.9101 92.4162 48.3328 92.8334 48.6653 93.3616C51.7683 98.7205 43.8736 107.534 39.0768 111.46C45.3408 108.813 52.277 101.603 51.6575 95.1669C54.0749 96.7876 56.9602 95.9268 59.7308 95.0711C55.7463 95.0017 53.0025 95.6582 51.2869 91.918C54.6386 95.0349 59.1423 93.512 62.8048 90.8019C60.2603 91.4852 57.682 92.3007 55.4516 91.7654C52.8721 91.1306 51.7353 89.4453 51.9096 87.4007C52.1767 82.4593 59.5356 77.8895 63.8002 75.8898C65.0706 75.5958 67.0206 74.9944 70.2286 76.3978C73.0718 77.6153 73.652 79.8801 72.5453 82.6039C72.0176 83.9191 71.0896 85.2282 70.2988 86.6858C72.8391 85.3727 74.9376 83.3935 75.3143 80.5554C75.9536 86.7248 69.1331 92.1742 63.5551 94.8384C66.9814 94.2944 70.2664 92.7145 73.0075 90.3978C80.0652 84.4901 78.7701 75.7859 72.4884 73.9479C74.6181 72.3993 76.3686 70.7883 77.7763 68.4197C79.3153 65.6173 79.7242 62.437 77.2545 60.4421L80.1064 59.456C80.4289 60.7375 81.532 62.5551 82.6594 63.4958C83.6018 64.2863 84.7175 64.7877 85.9094 65.0441C82.1266 66.9194 77.2617 70.3842 78.1318 74.5303C76.6567 83.8326 90.3292 89.9085 104.933 82.4819C114.138 77.5451 113.838 66.0269 107.299 62.9481C109.706 61.6488 112.167 59.9032 113.182 57.338C113.584 56.3137 113.714 55.1548 113.517 54.0976C113.375 53.0617 112.888 52.0886 112.32 51.2459C113.319 51.0749 114.307 50.9321 115.305 50.7611C114.893 51.8136 114.695 52.9795 114.859 54.1689C115.092 56.029 116.319 57.861 118.481 58.9184C110.743 65.6488 113.876 75.932 122.326 79.6673C126.984 81.7951 132.993 81.3231 133.135 81.3286C149.352 80.3097 159.159 69.4141 153.65 59.4104C153.277 56.7243 151.908 55.612 150.688 54.3623C150.311 53.9946 149.904 53.6639 149.476 53.3896C152.104 51.0303 153.24 47.2868 151.62 43.808C152.467 43.612 153.285 43.4053 154.124 43.1899C152.874 48.1312 155.448 52.3723 159.495 54.2855C154.297 60.4279 155.526 68.8814 162.576 73.2968C167.342 76.3352 173.359 77.123 179.252 76.4461C128.294 87.6376 66.8976 76.9455 30.8021 122.949C32.0382 119.839 32.7582 116.261 30.8523 113.496C33.0841 114.241 35.4433 113.665 36.8846 112.405C34.1784 113.816 30.7754 113.016 29.1702 110.864C32.6664 112.956 36.064 110.436 38.4803 107.143C36.7163 108.362 34.9769 109.687 33.0855 110.005C31.3 110.298 29.206 109.444 28.9703 107.889C28.5284 106.24 29.4511 103.834 30.0269 102.263C30.3032 101.529 30.6271 100.798 30.9423 100.047C31.0148 99.8967 31.068 99.7556 31.1211 99.6146C32.1943 98.0058 33.4349 96.5085 34.8692 95.1809L34.8604 95.1615ZM103.963 77.2347C105.33 76.6391 106.619 75.8688 107.801 74.913C108.567 74.3322 109.293 73.5591 109.891 72.6569C109.659 73.4874 109.361 74.2773 108.951 75.0246C107.751 77.1819 105.889 78.9603 103.704 79.9724C101.334 81.0918 98.8664 81.9975 96.331 82.4426C93.822 82.946 91.1655 83.0715 88.679 82.7457C86.1925 82.4198 83.7863 81.496 81.9491 79.917C81.1265 79.2362 80.5405 78.3546 80.1593 77.3571C81.1724 78.0453 82.2706 78.5079 83.3849 78.7994C84.7918 79.169 86.2626 79.3694 87.6897 79.2151C86.2648 79.0642 84.9285 78.5923 83.6718 78.0377C82.4257 77.4549 81.2239 76.7116 80.4405 75.7556C80.0215 75.2431 79.8143 74.6817 79.7887 74.1082C79.8261 73.8807 79.8353 73.6425 79.9009 73.4256C79.9365 73.2457 79.9915 73.057 80.0358 72.8966C80.0765 72.8314 80.0889 72.7555 80.1296 72.6903C80.6463 71.6609 81.5879 70.7435 82.6298 69.9445C84.7488 68.4241 87.3117 67.2645 89.8724 66.4101C92.4613 65.5664 95.1256 64.9928 97.8316 64.8215C99.1899 64.7217 100.536 64.6978 101.897 64.7604C103.259 64.8229 104.55 64.9877 105.699 65.3569C106.849 65.726 107.779 66.3348 108.279 67.232C108.78 68.0816 108.84 69.2479 108.519 70.3994C108.206 71.5704 107.492 72.5253 106.521 73.4797C105.597 74.436 104.497 75.2614 103.326 75.9314C100.992 77.3384 98.2867 78.2348 95.436 78.4482C98.2697 78.9211 101.266 78.4081 103.991 77.2453L103.963 77.2347ZM151.576 60.2551C151.026 66.588 143.668 69.4023 139.887 71.23C147.465 71.1244 152.082 67.1634 153.334 62.8996C155.149 77.6636 123.792 84.6667 117.253 71.7128C121.519 75.3519 129.269 75.4725 133.567 73.5981C128.207 74.83 117.701 72.9611 117.431 67.3499C116.825 56.6022 149.938 47.3299 151.567 60.2357L151.576 60.2551ZM142.909 51.2828C146.112 49.8333 150.164 47.4151 149.958 43.8577C151.104 46.5453 150.261 49.5942 148.018 51.3578C147.653 51.687 147.056 52.0741 146.948 52.1462C145.66 51.6762 144.277 51.4125 142.909 51.2828ZM235.442 34.2209C236.143 32.3591 236.708 30.3488 236.496 28.1748C236.43 27.4089 236.221 26.6375 235.877 25.9276C235.951 25.9877 236.044 26.0391 236.118 26.0992C237.563 27.2241 238.739 28.6342 239.343 30.2798C239.717 31.2103 239.897 32.2286 239.954 33.2327C239.216 35.7896 238.222 38.2983 236.977 40.6637C234.914 44.686 232.28 48.4285 229.075 51.6335C228.24 52.5264 227.339 53.3787 226.429 54.2115C223.743 56.0819 220.771 57.4736 217.674 58.1258C215.913 58.5247 214.118 58.5884 212.372 58.3486C211.488 58.2569 210.661 57.929 209.82 57.7245C209.033 57.3789 208.195 57.0792 207.519 56.5662C207.23 56.3928 206.962 56.1629 206.703 55.9524C208.786 56.1099 210.72 55.6796 212.555 55.0832C214.44 54.441 216.217 53.6134 217.905 52.6391C219.584 51.6455 221.202 50.5158 222.542 49.1369C220.981 50.2878 219.269 51.1561 217.532 51.9186C215.787 52.6616 213.988 53.288 212.16 53.6939C210.352 54.0909 208.453 54.3414 206.787 54.0189C205.964 53.8532 205.202 53.566 204.658 53.0868C204.353 52.8269 204.117 52.5124 203.94 52.1715C203.764 51.783 203.655 51.3876 203.538 50.9728C203.261 49.4831 203.49 47.7651 203.907 46.1021C204.384 44.3652 205.022 42.6726 205.941 41.0864C207.705 37.9016 210.124 35.0286 212.899 32.5796C215.648 30.0724 218.754 27.9417 222.055 26.1907C223.719 25.3205 225.363 24.5067 227.037 24.1235C227.865 23.9363 228.687 23.892 229.456 23.9887C230.197 24.0748 231.043 24.394 231.792 24.7571C233.279 25.5116 234.279 26.7909 234.567 28.4622C234.875 30.1248 234.574 31.9927 234.067 33.7667C233.04 37.3904 231.191 40.8009 229.419 44.2239C231.741 41.1372 233.963 37.9321 235.442 34.2209ZM202.059 36.8993C203.37 36.7977 204.633 36.4367 205.835 35.9396C204.949 37.1359 204.155 38.4312 203.465 39.7497C202.528 41.5546 201.842 43.5028 201.384 45.4886C201.192 46.5116 201.01 47.5063 200.97 48.5543C200.958 49.6129 201.03 50.7033 201.349 51.8225C201.469 52.1898 201.627 52.5394 201.813 52.8997C201.871 53.1309 201.92 53.3427 201.997 53.5652C202.738 55.6168 204.155 57.4561 205.926 58.7845C209.037 61.2146 213.006 61.9226 216.748 61.6104C208.204 67.2312 198.848 71.1603 189.008 74.021C194.442 71.8665 198.869 68.6232 200.757 65.1951C201.813 63.2899 202.204 61.0534 201.969 58.9834C201.745 56.8852 200.981 54.9377 199.892 53.2542C199.874 53.2153 199.857 53.1765 199.811 53.127C199.797 52.9929 199.764 52.8676 199.739 52.7616C199.496 51.6549 198.95 50.7082 198.364 49.8267C197.731 48.9433 196.901 48.1954 196.008 47.6168C194.704 46.8027 193.32 46.329 191.92 46.0264C193.222 44.6651 194.403 42.9841 194.844 40.9595C195.083 39.9384 195.087 38.8604 194.935 37.8527C194.81 37.3708 194.725 36.8713 194.581 36.3982C194.37 35.932 194.237 35.4307 193.957 35.019C192.969 33.1964 191.224 31.9263 189.467 31.2472C189.306 31.2028 189.165 31.1496 189.005 31.1051C189.948 30.6553 190.862 30.1947 191.796 29.7254C191.81 29.8596 191.824 29.9937 191.837 30.1278C191.96 30.6573 192.102 31.1781 192.244 31.6988L192.951 33.1575C193.505 34.1237 194.324 34.8998 195.237 35.4696C196.662 36.3457 198.249 36.751 199.821 36.8122C200.559 36.9459 201.341 36.9668 202.087 36.91L202.059 36.8993ZM197.196 53.3973C199.006 59.8794 184.776 66.271 178.091 67.728C185.025 67.4924 196.897 63.1271 199.357 56.983C200.784 63.4979 196.141 67.143 189.997 69.8996C186.715 71.3842 183.186 72.3726 179.6 72.8722C171.366 74.1639 160.909 71.9916 158.846 64.1734C160.56 66.4632 163.62 67.7464 166.462 67.7712C164.652 67.4431 162.994 66.6725 161.606 65.5689C159.691 64.025 158.794 62.0437 159.053 60.0311C161.537 55.2333 168.923 52.9448 174.23 51.5964C184.486 48.8282 195.493 46.3755 197.196 53.3973ZM24.0118 112.543C23.3887 112.871 22.8025 113.23 22.2427 113.647C22.4849 113.304 22.7077 112.969 22.9129 112.595C21.8354 113.574 20.6997 114.579 19.4472 114.655C18.8827 114.699 18.345 114.545 17.9838 114.264C17.4964 113.548 17.3991 112.609 17.6139 111.74C17.8624 110.738 18.3985 109.7 18.9521 108.701C19.5058 107.701 20.0964 106.732 20.7717 105.795C22.0746 103.918 23.5819 102.183 25.3005 100.657C26.1589 99.9175 27.0349 99.2169 28.0654 98.9613C28.4801 98.8439 28.9757 98.8536 29.42 98.9568C28.8331 99.8308 28.3113 100.746 27.8459 101.681C27.2354 102.917 26.7143 104.557 26.7037 104.585C26.7077 104.232 26.9916 102.068 24.4495 103.429C23.9817 103.687 23.6091 103.949 23.1695 104.219C24.2028 104.383 26.9424 103.097 23.8235 107.784C23.4593 108.323 22.9028 108.902 22.3393 109.415C22.062 109.681 21.7759 109.927 21.4828 110.106C21.1897 110.286 20.8615 110.388 20.5304 110.069C20.5706 110.262 20.6548 110.551 20.9087 110.647C21.1325 110.78 21.427 110.81 21.6475 110.781C22.145 110.743 22.5615 110.578 22.978 110.413C23.7759 110.005 24.5174 109.576 25.1571 108.818C25.6573 108.218 26.0076 107.544 26.2733 106.839C26.2512 107.411 26.3244 107.986 26.4558 108.535C25.7501 109.767 24.9616 110.919 24.076 112.116C25.1545 111.604 26.1082 110.869 26.9332 110.004C27.1529 110.49 27.4309 110.949 27.7671 111.382C27.8675 111.5 27.9678 111.618 28.0594 111.717C26.5235 111.476 25.1699 111.948 24.0049 112.475L24.0118 112.543ZM8.11814 133.61C8.31719 132.654 8.72431 131.745 9.14022 130.855C9.78441 129.487 10.5784 128.191 11.3831 126.868C12.1646 125.649 12.9267 124.438 13.7841 123.231C13.3788 124.093 13.0299 124.976 12.7833 125.93C12.6696 126.403 12.6124 126.897 12.5834 127.401C12.4217 128.13 12.3165 128.879 12.3911 129.665C12.4328 130.067 12.5221 130.471 12.6503 130.858C12.6202 130.895 12.5902 130.932 12.5689 130.988C12.1465 131.554 11.7222 132.167 11.2683 132.559C11.1887 132.642 11.1005 132.706 11.051 132.751C11.0177 132.626 10.9774 132.434 10.9936 132.263C10.9999 131.604 11.0839 130.911 11.4536 130.229C10.7158 130.563 10.2559 131.356 10.0818 132.16C10.0356 132.368 9.98944 132.576 10.0084 132.825C10.0187 133.055 10.0553 133.342 10.2999 133.676C10.638 134.062 11.2325 133.98 11.4567 133.855C11.7091 133.741 11.9245 133.596 12.0641 133.44C12.5393 132.991 12.8735 132.488 13.1512 131.965C13.1776 132.023 13.2127 132.101 13.2391 132.159C13.5277 132.59 13.8764 132.947 14.2551 133.267C14.1349 133.415 14.0059 133.544 13.8576 133.681C12.6783 134.332 11.6807 134.97 10.5809 135.538C10.4256 135.608 7.21011 137.859 8.11814 133.61ZM17.7435 133.585C16.4401 133.496 15.1977 132.817 14.4268 131.786C14.67 131.91 14.9238 132.005 15.1601 132.062C16.4385 132.303 17.5609 131.889 18.4721 131.266C19.3744 130.624 20.0072 129.799 20.5835 128.953C19.7218 129.53 18.9254 130.148 18.0341 130.505C17.1992 130.882 16.2042 130.958 15.5079 130.711C15.3387 130.648 15.1801 130.556 15.0691 130.465C14.9581 130.375 14.849 130.237 14.7311 130.08C14.5146 129.757 14.3953 129.39 14.3254 128.977C14.1749 128.179 14.2681 127.247 14.4935 126.35C14.9356 124.535 15.7392 122.744 16.7842 121.125C17.8486 119.496 19.1456 118.02 20.677 116.649C20.5799 116.693 20.4828 116.737 20.4052 116.772C22.226 115.316 24.5808 114.11 25.836 115.695C27.4124 117.112 27.001 119.614 26.0292 121.809C25.0467 124.032 23.6306 126.124 22.2408 128.274C24.1837 126.622 25.9734 124.736 27.2735 122.44C27.9279 121.301 28.4449 120.014 28.5866 118.569C28.737 117.144 28.1998 115.492 27.1238 114.457C26.9952 114.328 26.8666 114.199 26.7099 114.06L26.1883 113.734C26.0209 113.623 25.8429 113.539 25.6455 113.465C26.4217 113.371 27.1642 113.41 27.7759 113.624C28.2466 113.786 28.5495 114.093 28.8524 114.401C29.0952 114.782 29.3362 115.212 29.4394 115.75C29.7341 116.763 29.7006 117.878 29.4748 119.033C29.0777 121.413 28.2257 123.717 27.0916 125.915C26.7431 126.541 26.3947 127.166 25.9898 127.771L24.9511 128.732C24.1616 129.417 23.3827 130.074 22.5775 130.672C21.7528 131.279 20.9105 131.847 20.0401 132.405C19.4045 132.81 18.7319 133.184 18.0486 133.587C17.9534 133.583 17.8669 133.599 17.7717 133.595L17.7435 133.585ZM23.6194 132.096C24.3858 131.515 25.0695 130.855 25.6422 130.104C25.1841 130.85 24.6679 131.622 24.1886 132.423C22.6112 134.986 21.1837 137.621 19.8213 140.297C19.788 140.171 19.7741 140.037 19.732 139.892C19.7217 139.663 19.7309 139.425 19.7119 139.176C19.578 137.949 19.1409 136.673 18.197 135.673C17.8308 135.277 17.3568 134.953 16.8986 134.716C18.3433 134.6 19.6863 134.156 20.9696 133.529C21.9173 133.194 22.7947 132.703 23.6 132.105L23.6194 132.096ZM9.34361 154C9.63301 153.916 9.92425 153.784 10.1679 153.65C10.8423 153.228 11.4058 152.716 11.8407 152.074C12.265 151.461 12.5695 150.738 12.6272 149.987C12.1007 150.529 11.6431 151.017 11.1485 151.475C10.6451 151.913 10.1241 152.313 9.568 152.634C9.04009 152.967 8.47007 153.155 7.95687 153.106C7.73818 153.088 7.50376 152.983 7.28875 152.87C6.47571 151.694 6.44626 150.233 6.52269 148.747C6.57193 147.719 6.71642 146.694 6.93673 145.682C7.37062 144.573 7.83271 143.474 8.3318 142.406C9.53149 139.991 9.92022 139.558 10.2877 139.181C10.8636 138.593 11.5399 138.123 12.2583 137.798C12.9943 137.512 13.7442 137.36 14.3684 137.498C15.0032 137.609 15.4277 137.979 15.7001 138.581C16.2538 139.805 16.0216 141.618 15.7756 143.297C15.4819 144.974 14.9783 146.653 14.3125 148.335C15.6021 147.049 16.5431 145.407 17.1261 143.645C17.4274 142.76 17.6246 141.852 17.7284 140.892C17.738 140.397 17.8235 139.913 17.729 139.394L17.6156 138.627C17.5489 138.376 17.4453 138.095 17.3505 137.834C16.9041 136.796 15.8031 135.913 14.662 135.821C14.5386 135.807 14.4327 135.831 14.3287 135.808C14.4151 135.792 14.521 135.768 14.6163 135.772C15.5053 135.72 16.5965 136.116 17.3082 136.707C18.0656 137.347 18.6197 138.313 18.9126 139.374C18.9898 139.596 19.0283 139.836 19.0861 140.068C19.0402 143.481 18.0279 146.724 16.1574 149.466C15.0329 151.168 13.6195 152.697 11.8702 153.535C11.1712 153.851 10.3631 154.03 9.56046 154.065C9.51284 154.063 9.43701 154.051 9.38939 154.049L9.34361 154ZM8.44046 155.157L8.56799 154.819C10.2251 155.379 12.2205 155.085 13.9189 154.082C13.4582 155.391 13.0346 156.729 12.6303 158.059C11.757 155.973 10.1922 154.996 8.46866 155.168L8.44046 155.157ZM9.63336 168.237C8.7989 170.58 7.40996 174.438 5.15951 173.186C4.19911 172.614 3.39486 171.457 3.02982 170.288C2.6842 169.111 2.56646 167.713 2.61796 166.38C2.64124 165.035 2.82681 163.688 3.14461 162.374C3.68783 160.162 5.02976 157.028 7.21767 157.676C8.06892 158.11 8.80511 158.806 9.18302 159.642C9.86158 161.09 9.45284 163.03 9.38153 164.63C11.5829 161.224 10.6247 158.124 8.11633 157.129C7.94015 156.998 7.75335 156.895 7.54712 156.802C10.0902 155.908 11.3141 158.303 11.495 161.029C11.6164 162.332 11.5367 163.655 11.39 164.985C11.127 167.35 10.894 169.679 9.65077 171.739C9.30415 172.317 8.77255 172.745 8.31495 173.233C8.86615 171.556 9.50891 169.978 9.6352 168.189L9.63336 168.237ZM5.68376 175.172C6.29037 175.272 6.9307 175.24 7.53076 175.015C7.86962 174.885 8.19091 174.716 8.48583 174.489C8.27246 175.568 8.10529 176.44 7.93076 177.502C6.51887 175.777 5.85688 176.123 5.48982 176.242L5.68376 175.172ZM5.8382 187.972C5.56822 188.048 5.23671 187.987 4.88068 187.821C4.67446 187.727 4.47007 187.585 4.2851 187.435C3.43507 186.228 2.26272 184.723 2.51776 181.823C2.85106 177.39 4.39986 177.297 5.21269 177.491C5.87386 177.66 6.42141 178.301 6.42387 178.979C6.41835 179.122 6.63704 179.14 6.66197 178.988C6.73902 178.228 6.43325 177.5 5.80948 177.104C6.0952 177.115 6.41608 177.204 6.69629 177.358C6.76149 177.399 6.80727 177.448 6.87247 177.489C7.22442 178.008 7.37853 178.711 7.59416 179.549C7.77975 180.425 7.89462 181.402 7.87726 182.346C7.8881 183.301 7.82312 184.243 7.61711 185.132C7.43931 186.031 7.1399 186.869 6.63099 187.45C6.51082 187.598 6.38369 187.679 6.25473 187.807C6.11882 187.869 6.00048 187.969 5.86641 187.983L5.8382 187.972ZM6.70041 200.476C6.4993 200.497 6.27183 200.46 6.05682 200.346C4.12356 199.279 4.26148 195.706 4.40903 193.861C4.4501 193.538 4.49118 193.215 4.61503 192.972C4.73889 192.729 4.91036 192.487 5.04627 192.426C5.31115 192.236 5.98071 192.682 6.38028 193.203C6.82747 193.726 7.20395 194.351 7.40568 195.056C7.49151 194.315 7.22458 193.57 6.86936 192.888C6.69175 192.547 6.45589 192.233 6.13358 191.934C5.93982 191.764 5.65082 191.591 5.31932 191.53C5.715 191.164 6.21798 190.983 6.58648 191.074C7.05022 191.168 7.5062 191.711 7.81196 192.438C8.12835 193.137 8.3264 193.937 8.45742 194.744C8.64771 195.991 8.61196 197.412 8.29784 198.63C8.10614 199.396 7.48544 200.402 6.681 200.485L6.70041 200.476ZM253.222 28.2824C265.591 50.0885 282.124 97.9512 200.241 108.205C179.279 110.318 159.857 108.646 145.691 107.941C145.548 107.936 139.123 107.59 139.532 107.615C112.196 106.341 78.5117 114.35 57.3072 130.918C34.8624 148.725 25.0759 177.139 18.4428 204.664C16.7109 213.451 16.8917 219.64 14.4763 216.732C13.9005 216.08 13.5175 215.13 13.0055 214.308C10.772 210.147 9.50928 205.547 8.95393 200.907C8.90528 200.438 10.0811 198.642 10.1933 197.96C10.7058 195.06 9.45254 193.428 8.78296 190.759C7.83479 186.905 10.8916 158.869 26.613 134.111C34.2306 122.1 44.5648 112.112 56.9316 105.066C68.7618 98.3328 81.9088 94.3034 95.1929 91.6627C109.035 88.9101 123.117 87.5695 137.162 86.2465C151.024 84.9354 164.93 83.7215 178.622 81.1539C191.343 78.768 204.016 75.1399 215.357 68.7216C218.41 66.9895 221.133 64.8915 224.067 63.0022C236.152 55.1245 244.104 42.3534 245.53 28.3931C245.903 23.4272 245.426 18.2373 243.343 13.6337C246.81 18.4534 250.202 23.2607 253.185 28.2524L253.222 28.2824ZM225.865 4.57593C227.811 4.32733 229.765 4.61333 231.621 5.20085C233.417 6.37755 235.099 7.76928 236.517 9.35107C237.267 10.1817 237.959 11.0387 238.525 11.9291C238.814 12.3601 239.072 12.8281 239.246 13.2643C239.448 13.711 239.617 14.29 239.806 14.8127C241.304 19.0023 241.636 23.509 241.065 27.9329C241.029 28.1128 241.002 28.3121 240.986 28.4832C239.988 26.8987 238.597 25.6328 237.089 24.6772C235.95 24.0222 234.767 23.5278 233.54 23.1937C233.327 23.0328 233.123 22.8912 232.899 22.7585C231.937 22.2344 230.981 21.7774 229.827 21.5511C228.7 21.3355 227.562 21.4057 226.505 21.603C225.208 21.8388 224.019 22.2599 222.884 22.7501C223.372 22.2252 223.85 21.6809 224.312 21.0978C225.461 19.5015 226.368 17.7336 226.818 15.7284C227.047 14.7355 227.117 13.6506 226.93 12.5651C226.772 11.4903 226.271 10.3832 225.683 9.54927C224.754 8.16779 223.433 7.05727 221.926 6.31162C223.056 5.44924 224.196 4.81623 225.835 4.61293L225.865 4.57593ZM197.955 20.6437C200.209 17.8692 202.883 15.3018 205.709 13.0171C205.935 12.8446 206.142 12.6809 206.368 12.5084C207.824 11.592 209.288 10.7426 210.767 9.97967C212.419 9.18533 214.098 8.44926 215.719 8.20709C216.525 8.0763 217.289 8.05833 217.892 8.25356C218.495 8.44878 218.93 8.79013 219.28 9.35714C219.65 9.91537 219.927 10.6322 220.095 11.4688C220.255 12.286 220.282 13.0695 220.222 13.8686C220.103 15.4669 219.346 17.0498 218.472 18.6854C216.678 21.9073 214.407 24.9006 211.734 27.6779C215.152 25.8741 218.128 23.1468 220.408 19.9153C221.566 18.3385 222.622 16.4332 222.984 14.2338C223.169 13.1437 223.098 12.0056 222.92 10.9396C222.859 10.5461 222.742 10.1312 222.624 9.71636C223.04 10.0665 223.445 10.4448 223.781 10.8777C224.299 11.5562 224.619 12.1602 224.808 12.9404C224.988 13.7012 224.985 14.5216 224.876 15.3665C224.659 17.0564 223.973 18.7471 223.075 20.2768C222.268 21.6479 221.238 22.8863 220.106 24.0539C216.796 25.7855 213.681 27.8968 210.865 30.4109C210.046 31.1328 209.291 31.8953 208.535 32.7054C208.184 32.9112 207.852 33.1082 207.501 33.3139C206.782 33.639 206.083 33.9552 205.375 34.2521C204.638 34.5859 203.902 34.8721 203.176 35.1301C202.463 35.3122 201.724 35.4361 200.991 35.417C199.255 35.4067 197.509 34.9093 196.23 33.9436C195.628 33.4908 195.144 32.9376 194.795 32.3229C195.137 32.6129 195.509 32.866 195.883 33.0713C196.847 33.5478 197.924 33.8092 198.963 33.8305C200.041 33.8344 201.06 33.6069 201.991 33.2329C203.879 32.4955 205.414 31.2863 206.781 29.9656C204.99 30.6591 203.288 31.4993 201.555 31.9088C199.831 32.3378 198.128 32.2428 196.659 31.4796C195.198 30.7834 194.336 29.395 194.431 27.6909C194.472 25.8701 195.435 23.656 197.83 20.677L197.955 20.6437ZM167.006 34.6467C169.538 33.7817 172.196 33.141 174.855 32.7103C177.496 32.2407 180.274 31.9196 182.798 32.0179C185.13 32.1564 187.89 33.2943 188.776 35.0462C189.221 35.8746 189.061 37.0705 188.47 38.0398C187.897 39.0479 186.862 39.914 185.757 40.6247C183.516 42.083 180.883 43.0872 178.229 43.8903C181.03 43.7227 183.83 43.0875 186.462 41.8734C187.765 41.2372 189.075 40.4104 190.079 39.1138C190.339 38.809 190.535 38.4159 190.74 38.0423C190.889 37.6474 191.047 37.2719 191.13 36.8362C191.334 35.995 191.248 35.028 190.956 34.177C190.939 34.1382 190.921 34.0993 190.903 34.0605C191.455 34.6067 191.898 35.2251 192.206 35.9049C192.383 36.2458 192.445 36.6394 192.583 36.9978C192.683 37.3738 192.725 37.7761 192.786 38.1697C192.88 38.9462 192.814 39.6783 192.604 40.4048C191.943 42.459 190.36 44.1815 188.435 45.614C188.121 45.8498 187.787 46.0944 187.445 46.3196C187.16 46.5185 186.887 46.6891 186.594 46.8685C186.408 46.9758 186.232 47.1025 186.046 47.2097C181.774 47.4345 177.668 48.2859 173.65 49.3316C170.488 50.2007 167.234 51.2285 164.287 52.936C157.152 52.2097 154.451 47.0668 156.21 42.0118C156.263 43.1111 156.64 44.4615 157.322 45.3467C159.434 47.9478 162.675 47.5112 165.629 46.8534C164.226 46.856 162.805 46.8674 161.53 46.5315C160.036 46.1776 158.595 45.2151 158.204 43.7305C158.182 43.577 157.794 42.2547 158.182 41.0963C158.462 40.01 163.799 35.6763 167.025 34.638L167.006 34.6467ZM138.921 41.1762C141.972 40.942 146.598 40.4638 147.728 43.3224C149.123 46.4586 143.666 49.6999 140.602 51.2502C134.717 51.2214 128.473 52.8768 122.964 56.2116C122.129 56.5893 121.331 56.9971 120.549 57.4914C117.201 56.7599 115.871 54.6472 116.079 51.9552C116.336 51.4882 116.61 51.06 116.884 50.6318C117.359 52.6634 119.547 54.2943 123.546 53.2574C122.8 53.0566 122.052 52.9035 121.373 52.6957C120.233 52.346 119.195 51.8094 118.711 50.7411C117.999 49.1677 119.902 47.3241 121.26 46.2416C121.415 46.1713 128.807 41.9844 138.901 41.185L138.921 41.1762ZM94.3748 50.0985C95.2148 49.8355 96.0918 49.6025 96.9581 49.3977C97.2087 49.3311 103.097 47.0416 108.313 52.2634C109.142 53.0113 109.605 53.8784 109.458 54.4833C109.416 54.8061 109.144 55.1867 108.824 55.5654C108.448 55.9229 108.015 56.259 107.516 56.6021C105.452 57.9338 103.233 59.0782 100.866 60.1023C103.453 60.0314 106.017 59.3393 108.407 58.2111C108.718 58.0706 109.031 57.8824 109.332 57.7224C109.645 57.5342 109.931 57.2878 110.235 57.0801C110.542 56.7773 110.86 56.4462 111.132 56.0656C111.088 56.2261 111.072 56.3972 111.008 56.5664C110.744 57.224 110.272 57.8354 109.735 58.406C108.65 59.5754 107.174 60.5007 105.663 61.3482C105.176 61.6155 104.708 61.874 104.212 62.1218C103.482 62.0075 102.75 61.9408 102.047 61.8848C100.553 61.7884 99.0746 61.7786 97.5822 61.8922C94.6256 62.13 91.6914 62.779 88.9241 63.7971C88.6911 63.9025 88.4581 64.0079 88.2163 64.0939C88.0258 64.0865 87.8353 64.0791 87.6642 64.0629C86.3345 63.9157 84.9807 63.405 83.9255 62.572C83.5361 62.2801 83.2263 61.9055 82.9359 61.5221C83.4117 61.7982 83.8999 61.9985 84.3706 62.16C86.6395 62.9353 89.1227 63.0988 91.3584 62.5085C89.0375 62.3417 86.8547 61.8083 84.8877 60.873C80.3175 58.6818 83.6726 56.2746 85.677 54.7593C86.5617 54.0782 87.4992 53.5136 88.4473 52.9208C90.3699 51.7935 92.4368 50.8817 94.6147 50.0602C94.5477 50.0671 94.4612 50.0828 94.3942 50.0897L94.3748 50.0985Z" fill="#1A1A18"/>
</svg>
