<svg width="232" height="328" viewBox="0 0 232 328" fill="none" xmlns="http://www.w3.org/2000/svg">
<g clip-path="url(#clip0_434_778)">
<path d="M141.864 281.059C140.475 281.383 138.949 280.655 138.652 279.44C139.514 280.236 140.696 280.137 141.359 279.677C142.09 279.212 142.538 278.403 142.752 277.529C143.55 274.613 143.131 271.995 142.251 269.153C141.891 268.01 141.368 266.75 140.263 266.148C139.693 265.831 138.983 265.733 138.384 265.959C137.785 266.185 137.294 266.781 137.287 267.43C137.025 266.801 136.978 265.574 137.223 264.942C137.548 264.114 138.328 263.49 139.196 263.245C140.549 262.89 142.138 263.269 143.183 264.45C144.856 266.478 145.69 268.762 146.035 271.204C146.344 273.614 146.057 276.202 144.887 278.442C144.296 279.634 143.226 280.725 141.817 281.056L141.864 281.059Z" fill="#1A1A18"/>
<path d="M119.714 271.2C120.276 271.497 120.697 271.899 121.066 272.231C121.443 272.582 121.768 272.977 122.103 273.392C123.363 275.038 124.189 277.026 124.482 279.119C124.618 280.17 124.64 281.223 124.519 282.265C124.39 283.288 124.144 284.475 123.394 285.502C122.643 286.529 121.389 287.235 120.073 287.067C119.402 286.953 118.855 286.58 118.524 286.118C118.193 285.655 118.066 285.016 118.242 284.55C118.548 285.508 119.549 285.807 120.089 285.606C120.693 285.447 121.172 284.879 121.394 284.302C121.842 283.101 121.738 281.183 121.546 279.554C121.31 277.875 120.833 276.227 120.123 274.63C119.765 273.879 119.345 272.923 118.93 272.426C118.709 272.171 118.521 271.996 118.241 272.043C117.968 272.11 117.514 272.46 117.777 272.928C117.515 272.852 117.356 272.526 117.368 272.221C117.38 271.916 117.515 271.629 117.753 271.369C117.971 271.117 118.44 270.968 118.745 270.98C119.09 270.975 119.435 271.085 119.722 271.22L119.714 271.2Z" fill="#1A1A18"/>
<path d="M76.791 170.718C76.3478 171.04 75.8507 171.177 75.3555 171.152C74.8603 171.127 74.3818 170.865 74.2182 170.471C75.0248 170.69 75.5601 170.144 75.7246 169.707C75.8776 169.297 75.7716 168.764 75.6099 168.208C75.2062 167.014 74.619 165.712 73.9431 164.585C73.2671 163.459 72.4485 162.322 71.5493 161.38C70.6107 160.454 69.6328 159.545 67.9963 159.441C68.6103 158.862 69.542 158.66 70.4373 158.703C71.3293 158.794 72.1801 159.064 72.9422 159.509C74.4581 160.379 75.6226 161.626 76.5048 163.083C77.3754 164.567 77.8951 166.151 77.9307 167.96C77.9427 168.878 77.6921 169.997 76.7794 170.746L76.791 170.718Z" fill="#1A1A18"/>
<path d="M92.6137 190.244C99.4381 191.055 103.684 200.276 101.051 203.216C100.116 204.135 98.9275 204.052 98.5002 203.468C99.3201 203.496 99.7357 202.885 99.856 202.397C100.064 201.341 98.2523 198.148 97.7056 197.221C97.0051 196.035 94.2479 192.288 92.6334 190.236L92.6137 190.244Z" fill="#1A1A18"/>
<path d="M63.7291 178.682C63.1367 177.59 62.5804 176.528 61.9223 175.556C61.2757 174.555 60.5355 173.663 59.4149 172.743C60.8403 172.451 62.4353 173.012 63.6035 173.934C64.7913 174.848 65.682 176.047 66.3431 177.25C66.6638 177.855 66.973 178.488 67.2068 179.106C67.4603 179.716 67.7561 180.54 67.7173 181.502C67.6784 182.464 67.1852 183.5 66.209 183.929C65.1852 184.354 64.0839 183.704 64.1209 182.904C64.7009 183.355 65.3458 183.018 65.4249 182.708C65.5712 182.394 65.5422 181.99 65.4032 181.656C65.256 181.301 65.0089 180.873 64.6848 180.316C64.3608 179.758 64.0564 179.192 63.7406 178.654L63.7291 178.682Z" fill="#1A1A18"/>
<path d="M50.4885 145.807C50.8922 147.001 51.0038 148.27 50.8695 149.503C50.8065 150.129 50.6201 151.014 49.875 151.554C49.4155 151.837 48.9678 151.816 48.5974 151.647C48.2351 151.497 47.9683 151.077 48.1147 150.763C48.4502 151.292 49.1181 150.899 49.0839 150.706C49.1793 150.436 49.1109 150.049 49.0016 149.563C48.7782 148.525 48.5432 147.515 48.2295 146.538C47.9158 145.56 47.5545 144.58 47.1063 143.612C46.6893 142.608 46.1739 141.646 45.6406 140.529C46.8373 140.909 47.8449 141.667 48.6687 142.594C49.4925 143.521 50.1127 144.625 50.4967 145.827L50.4885 145.807Z" fill="#1A1A18"/>
<path d="M52.4934 164.474L50.1176 159.922C40.9622 155.557 38.4125 137.139 43.879 133.737L43.55 131.889C42.5714 131.534 41.8227 130.899 41.2003 130.235C39.4464 128.125 36.1705 119.24 36.4871 115C36.6369 113.138 37.0474 111.237 38.0498 109.482C38.5969 108.631 39.3539 107.786 40.3892 107.333C41.4164 106.86 42.5365 106.833 43.5578 107.124C43.6611 107.151 43.7447 107.185 43.8282 107.22C43.8122 106.903 43.7962 106.587 43.7802 106.27C43.4774 104.319 43.4831 102.332 43.7346 100.381C43.1428 100.235 42.5725 99.9181 42.1548 99.4685C41.2393 98.4874 40.8423 97.1984 40.601 96.0064C40.0627 93.5993 40.0935 91.1172 40.4062 88.7026C40.5963 87.4929 40.842 86.3062 41.2025 85.1179C41.5991 83.9609 41.9678 82.7923 42.7612 81.7011C42.8778 81.5373 43.0141 81.3653 43.1783 81.2047C43.2637 81.0769 43.3492 80.9491 43.4346 80.8213C43.9732 80.2283 44.8249 79.6668 45.7678 79.7135C46.6238 79.7733 47.5612 80.3069 47.99 81.0056C47.8902 79.4317 48.0545 77.7711 48.3236 76.2516C48.2979 75.8008 48.2919 75.3417 48.3137 74.8942C48.3626 73.7893 48.5656 72.6664 48.8883 71.6093C48.4617 68.9711 48.7004 65.4335 49.642 62.3653C50.1489 60.8624 50.7854 59.2826 52.2003 58.187C53.8054 57.1048 55.046 57.8125 55.3376 58.0144C55.6453 55.8096 56.5499 53.5415 57.6132 51.5997C58.6184 48.8513 60.4611 46.5626 61.9038 45.4786C63.1627 44.5633 64.4224 44.3168 65.5931 44.5227L66.1078 43.3166C65.838 42.6671 65.6339 41.8981 65.5792 41.0439C63.9814 37.2538 68.3745 30.4902 72.5146 28.2855C73.2464 27.9353 74.0076 27.7114 74.7981 27.6137C75.2328 27.5485 75.6723 27.5505 76.0527 27.5771C76.4907 27.4643 76.958 27.4779 77.4187 27.5865L78.2533 26.3166L78.5728 26.53C75.5447 24.465 82.4892 15.1182 87.5673 17.1162L88.2968 15.9823C88.3907 15.5972 88.5192 15.1284 88.7903 14.6696C88.7574 13.3679 90.0593 12.1116 90.8984 11.1861C95.3903 6.82749 97.7145 9.25421 98.0173 9.70532C101.678 6.8461 105.718 4.56756 110.269 3.18459C111.358 2.91667 114.382 1.63729 116.453 3.17687C117.252 3.76776 117.636 4.96978 116.765 6.48548C105.715 22.7306 108.157 18.1621 104.801 25.2562C98.0824 39.4247 91.7579 55.5985 89.5782 71.135C87.357 87.1271 89.0673 99.8013 97.1245 117.639C117.216 161.607 147.556 171.064 178.277 206.831C196.399 228.056 217.07 261.861 195.565 287.342C188.036 297.393 177.335 303.477 165.539 306.647C156.883 311.097 147.215 313.222 137.453 312.454C132.824 312.093 127.696 311.362 123.765 308.68C121.612 307.22 119.489 304.502 118.715 301.639C118.263 300.327 118.154 299.01 118.38 297.832C116.955 296.901 116.094 295.828 115.082 294.449C112.801 291.127 111.481 287.337 110.875 283.435C110.398 279.618 110.189 275.781 110.557 271.89C110.789 269.947 111.156 267.995 111.863 266.086C112.218 265.107 112.689 264.127 113.306 263.224C112.587 261.216 111.82 259.203 110.978 257.176C110.059 256.797 109.185 256.306 108.358 255.703C105.969 253.788 104.171 251.627 102.399 249.364C99.0345 244.877 94.8773 237.927 95.4693 232.35C95.3071 230.848 95.4298 229.643 95.738 228.385C94.8164 226.944 93.8867 225.485 92.9257 224.061C91.8892 224.122 90.8858 223.985 89.9432 223.661C87.0951 223.252 84.4548 220.565 82.5222 218.414C77.5762 212.899 73.4168 203.666 73.3677 203.548C72.501 201.462 72.258 198.932 72.8186 196.391C71.4612 194.624 70.1119 192.877 68.743 191.138C67.2543 190.834 62.4349 189.236 58.5789 184.123C58.3218 183.837 58.045 183.56 57.7878 183.274C55.6082 180.695 53.898 177.69 52.7555 174.496C51.7114 171.26 50.5371 167.156 52.5443 164.43L52.4934 164.474ZM45.0853 135.751C44.9408 135.904 44.816 136.048 44.6633 136.18C44.0408 137.016 43.6639 138.165 43.4509 139.43C43.3957 140.353 43.3683 141.288 43.4361 142.229C43.6237 144.459 44.1278 146.672 44.814 148.88C46.0655 152.837 46.7268 155.262 50.3223 157.414C50.8699 157.51 51.416 157.491 51.8688 157.302C52.9599 156.872 53.8914 155.447 54.0932 153.932C54.3296 152.334 53.9972 150.533 53.8141 148.648C54.8914 150.185 55.8126 151.902 55.943 153.994C55.972 154.398 55.942 154.826 55.8759 155.222C55.968 154.999 56.0323 154.765 56.0965 154.531C56.5658 152.882 56.6565 151.044 56.6046 149.196C56.5598 148.2 56.4594 147.18 56.3392 146.168C56.2032 146.063 56.0672 145.958 55.9509 145.845C54.5962 144.585 53.5632 143.098 52.7664 141.514C52.7092 141.376 52.6519 141.238 52.5947 141.101C52.3442 140.72 52.102 140.359 51.8712 139.971C51.8605 140.667 51.8105 141.38 51.7047 142.07C51.0776 139.839 50.5163 137.487 49.0779 136.193C48.3489 135.549 47.5 135.117 46.7243 135.14C46.352 135.133 45.9583 135.296 45.5957 135.424C45.4348 135.537 45.2658 135.63 45.0968 135.723L45.0853 135.751ZM48.4739 129.682C48.1419 130.328 47.6672 130.963 47.0041 131.423C46.5692 131.766 45.99 131.983 45.3897 132.094L45.5526 133.042C45.9512 132.945 46.3661 132.888 46.8023 132.938C47.7418 133.032 48.5466 133.413 49.2381 133.911C48.8559 132.546 48.5722 131.141 48.4345 129.698L48.4739 129.682ZM47.003 115.639C46.8295 115.388 46.6838 115.149 46.5103 114.898C46.5152 114.965 46.5003 115.04 46.5051 115.107C46.7583 115.995 46.9245 116.895 46.948 117.785C46.9529 117.852 46.8348 117.901 46.8299 117.834C46.0668 115.497 45.1184 113.214 43.5611 111.3C41.2309 108.414 39.98 108.126 38.994 112.643C38.3737 115.763 38.6733 118.984 39.6044 122.059C40.0405 123.609 40.6143 125.101 41.2948 126.572C41.6218 127.359 41.9344 127.945 42.4159 128.437C42.8893 128.91 43.4433 129.187 44.0124 129.112C45.2491 128.922 46.3199 127.554 46.8153 126.079C47.5112 124.197 47.8558 121.192 47.6504 118.809C48.2778 120.763 48.4639 122.878 48.2138 124.944C47.9738 126.867 47.5053 129.184 45.4834 130.486C45.7442 130.447 46.0165 130.38 46.2758 130.226C47.1766 129.782 47.85 128.903 48.4268 127.901C48.4523 127.129 48.4975 126.349 48.6378 125.575C48.7763 124.964 48.9345 124.344 49.1483 123.748C49.155 123.653 49.1814 123.549 49.1799 123.435C49.3312 121.687 49.3398 119.93 49.3714 118.117C48.408 117.409 47.6284 116.533 47.003 115.639ZM50.3189 121.231C50.4274 121.047 50.5358 120.864 50.664 120.672C51.0417 120.192 51.4555 119.743 51.9332 119.337C51.7823 119.307 51.6315 119.278 51.4725 119.228C50.8283 119.011 50.2464 118.722 49.7073 118.369C50.0244 119.299 50.2069 120.239 50.2911 121.219L50.3189 121.231ZM45.1822 106.311C45.4273 109.901 46.015 112.149 49.1796 115.266C50.5499 115.896 51.9556 115.612 53.0997 114.698C55.7259 112.684 55.8892 109.132 56.5273 106.167C58.0152 112.749 55.3019 116.276 52.2244 117.093C52.836 117.231 53.4296 117.215 54.0333 117.057C59.9604 115.263 60.217 103.434 59.3961 97.2901C62.1619 103.503 62.301 113.506 57.4517 117.783C60.3242 118.251 61.843 120.851 63.2815 123.368C60.3246 120.697 58.7695 118.343 54.9614 119.902C59.5384 119.916 61.7867 124.105 62.6096 128.586C61.2183 126.349 59.8927 123.992 57.8983 122.859C55.581 121.56 53.5994 122.014 52.3299 123.626C49.1489 127.417 51.4005 135.781 53.1485 140.155C53.8753 141.238 54.8883 143.009 58.1897 144.176C61.0977 145.23 63.0687 143.972 64.1215 141.227C64.6347 139.906 64.8514 138.316 65.2698 136.712C66.2276 139.406 66.4079 142.285 64.7439 144.615C69.4257 140.547 68.1682 131.907 65.9152 126.151C68.0455 128.889 69.3649 132.287 69.7838 135.852C70.9013 144.987 64.0089 150.459 58.1661 147.509C58.6632 150.095 58.8408 152.467 58.2506 155.159C57.4598 158.257 55.5856 160.858 52.4192 160.628L53.828 163.296C54.9391 162.581 56.9864 162.007 58.4523 162.09C59.6806 162.157 60.8379 162.553 61.8834 163.18C60.4023 159.226 59.217 153.373 62.6849 150.939C67.9632 143.139 82.0983 148.043 87.6887 163.444C91.0372 173.337 82.9494 181.544 76.0709 179.324C76.9403 181.917 77.5452 184.874 76.5336 187.44C76.1274 188.463 75.431 189.398 74.5643 190.035C73.7535 190.695 72.733 191.073 71.7422 191.3C72.3546 192.107 72.9785 192.886 73.5909 193.693C74.0086 192.643 74.6608 191.657 75.5932 190.9C77.0344 189.701 79.1817 189.201 81.4833 189.907C80.431 179.705 89.7438 174.336 98.4661 177.382C103.322 179.011 107.387 183.46 107.495 183.554C118.64 195.377 118.358 210.033 107.5 213.575C105.393 215.281 103.633 215.158 101.888 215.237C101.362 215.248 100.839 215.212 100.339 215.119C100.646 218.638 98.9185 222.148 95.3583 223.581C95.8428 224.303 96.2995 225.013 96.7644 225.743C99.2279 221.281 104.005 219.942 108.267 221.31C108.668 213.274 115.341 207.94 123.506 209.533C129.062 210.57 133.994 214.106 137.834 218.626C108.27 175.639 56.1315 141.501 61.2034 83.2468C59.9813 86.3622 58.0622 89.4673 54.7816 90.1841C56.9205 91.1647 58.2497 93.1971 58.441 95.1023C57.4293 92.2226 54.3975 90.4821 51.755 90.9569C55.7374 91.8178 56.4967 95.9793 56.0114 100.035C55.5563 97.9392 55.1915 95.7831 54.0273 94.259C52.9237 92.8252 50.8108 92.0184 49.5765 92.9928C48.1274 93.8948 47.157 96.2826 46.5042 97.8231C46.2048 98.5474 45.9416 99.303 45.6586 100.067C45.6092 100.226 45.5517 100.365 45.4941 100.504C45.1786 102.412 45.0616 104.353 45.2019 106.303L45.1822 106.311ZM83.3949 166.612C83.987 167.982 84.4018 169.425 84.6116 170.93C84.7745 171.878 84.7765 172.938 84.5965 174.005C84.9943 173.24 85.3166 172.46 85.5275 171.634C86.1256 169.239 85.981 166.669 85.0768 164.437C84.1104 162 82.9276 159.653 81.3803 157.595C79.892 155.514 78.0379 153.607 75.9996 152.146C73.9613 150.685 71.573 149.716 69.1527 149.614C68.0868 149.549 67.0566 149.792 66.0968 150.26C67.3068 150.45 68.4247 150.862 69.4375 151.411C70.7175 152.102 71.9284 152.961 72.8651 154.048C71.7215 153.185 70.4233 152.617 69.1267 152.163C67.8186 151.737 66.4332 151.459 65.208 151.622C64.5519 151.71 64.017 151.978 63.6065 152.38C63.4784 152.571 63.3224 152.752 63.2221 152.955C63.1252 153.11 63.0364 153.286 62.9592 153.433C62.9443 153.509 62.9016 153.573 62.8867 153.648C62.5607 154.753 62.6215 156.066 62.8365 157.361C63.3451 159.919 64.4244 162.517 65.7106 164.89C67.0246 167.275 68.5782 169.514 70.4372 171.488C71.3609 172.489 72.3274 173.426 73.3644 174.31C74.4014 175.195 75.4566 175.957 76.5482 176.472C77.6398 176.988 78.735 177.179 79.7128 176.865C80.6593 176.587 81.4999 175.777 82.0521 174.716C82.6241 173.648 82.755 172.463 82.6976 171.102C82.6762 169.772 82.4367 168.418 82.0398 167.129C81.2967 164.507 79.9336 162.004 77.9977 159.901C80.3901 161.491 82.2272 163.913 83.4228 166.624L83.3949 166.612ZM106.563 211.541C110.488 206.541 107.038 199.459 105.526 195.541C110.987 200.795 111.652 206.842 109.654 210.811C121.065 201.27 102.953 174.733 89.3275 179.725C94.9291 179.982 100.671 185.189 102.529 189.494C99.456 184.932 90.5073 179.119 86.4767 183.032C78.6915 190.467 96.5368 219.86 106.543 211.549L106.563 211.541ZM94.104 212.171C95.4531 215.418 96.7597 219.952 94.1789 222.409C96.8517 221.23 98.3194 218.427 97.8865 215.607C97.8445 215.117 97.6731 214.427 97.6437 214.301C96.3816 213.763 95.192 213.011 94.104 212.171ZM150.018 287.849C149.258 289.688 148.297 291.541 146.657 292.984C146.085 293.499 145.406 293.919 144.669 294.202C144.764 294.209 144.868 294.235 144.963 294.242C146.786 294.407 148.608 294.181 150.174 293.392C151.083 292.968 151.91 292.348 152.637 291.653C153.845 289.282 154.834 286.772 155.54 284.193C156.782 279.847 157.415 275.314 157.265 270.784C157.265 269.561 157.189 268.324 157.094 267.094C156.411 263.893 155.191 260.846 153.375 258.254C152.362 256.76 151.094 255.487 149.655 254.469C148.948 253.932 148.12 253.607 147.366 253.182C146.554 252.896 145.738 252.542 144.894 252.455C144.564 252.384 144.212 252.369 143.879 252.346C145.507 253.654 146.625 255.289 147.558 256.979C148.496 258.735 149.228 260.554 149.795 262.419C150.342 264.291 150.752 266.221 150.789 268.144C150.435 266.237 149.778 264.433 149.031 262.69C148.264 260.955 147.378 259.269 146.321 257.723C145.271 256.198 144.056 254.718 142.619 253.815C141.905 253.374 141.152 253.063 140.428 253.041C140.028 253.023 139.64 253.091 139.278 253.219C138.884 253.382 138.535 253.597 138.165 253.82C136.946 254.718 135.939 256.129 135.107 257.628C134.269 259.223 133.578 260.894 133.166 262.681C132.278 266.212 132.082 269.962 132.435 273.646C132.729 277.355 133.542 281.033 134.756 284.567C135.377 286.34 136.021 288.057 136.982 289.481C137.458 290.183 138.028 290.777 138.656 291.231C139.256 291.675 140.092 292.02 140.887 292.266C142.488 292.731 144.092 292.48 145.445 291.457C146.805 290.453 147.862 288.884 148.703 287.242C150.429 283.894 151.409 280.14 152.453 276.43C152.041 280.27 151.474 284.129 150.018 287.849ZM127.47 263.086C128.358 264.056 129.034 265.182 129.572 266.367C129.743 264.888 130.048 263.4 130.445 261.966C130.993 260.007 131.824 258.116 132.846 256.353C133.404 255.474 133.951 254.624 134.638 253.831C135.352 253.05 136.15 252.303 137.148 251.704C137.486 251.517 137.84 251.37 138.222 251.234C138.423 251.105 138.603 250.984 138.812 250.874C140.754 249.882 143.046 249.507 145.246 249.747C149.178 250.098 152.561 252.293 155.079 255.077C152.68 245.135 148.533 235.874 143.302 227.062C145.798 232.348 146.815 237.741 145.851 241.534C145.321 243.647 144.079 245.547 142.493 246.898C140.896 248.277 139.007 249.177 137.062 249.663C137.022 249.679 136.983 249.695 136.916 249.7C136.814 249.789 136.704 249.857 136.614 249.918C135.68 250.56 134.635 250.879 133.605 251.122C132.538 251.334 131.422 251.314 130.374 251.126C128.866 250.829 127.531 250.23 126.302 249.494C126.323 251.378 126.037 253.412 124.976 255.192C124.453 256.101 123.719 256.891 122.92 257.523C122.499 257.79 122.096 258.096 121.667 258.343C121.195 258.539 120.755 258.814 120.27 258.924C118.302 259.579 116.161 259.315 114.414 258.61C114.266 258.533 114.127 258.476 113.979 258.399C114.36 259.371 114.713 260.332 115.075 261.313C115.177 261.224 115.278 261.136 115.38 261.047C115.831 260.745 116.291 260.461 116.75 260.178L118.263 259.596C119.328 259.269 120.456 259.262 121.512 259.469C123.151 259.803 124.587 260.592 125.776 261.62C126.407 262.028 126.992 262.546 127.498 263.097L127.47 263.086ZM135.191 247.717C140.941 244.22 134.917 229.83 131.03 224.199C135.933 229.108 141.62 240.407 139.218 246.574C144.712 242.792 143.812 236.958 141.208 230.747C139.826 227.421 137.925 224.289 135.647 221.473C130.517 214.905 121.397 209.347 114.549 213.646C117.365 213.146 120.476 214.299 122.568 216.222C121.023 215.226 119.285 214.655 117.518 214.513C115.064 214.332 113.056 215.166 111.87 216.813C110.406 222.014 114.236 228.73 117.19 233.341C122.788 242.37 129.15 251.68 135.191 247.717ZM49.1351 86.2069C48.9047 85.5411 48.7218 84.8786 48.598 84.1916C48.5401 84.6079 48.474 85.0046 48.3686 85.4176C48.2506 83.9667 48.108 82.4566 47.2449 81.546C46.8633 81.1276 46.365 80.8731 45.9092 80.8317C45.0644 81.0211 44.352 81.6402 43.9148 82.4218C43.412 83.3231 43.0941 84.4474 42.8157 85.5554C42.5372 86.6634 42.3063 87.7747 42.159 88.9206C41.8284 91.181 41.7437 93.4778 41.9558 95.7666C42.0775 96.893 42.2386 98.003 42.8164 98.8937C43.039 99.2628 43.4076 99.5942 43.8025 99.8225C43.971 98.7832 44.2149 97.7588 44.5146 96.7574C44.913 95.438 45.6528 93.8845 45.6643 93.8566C45.4262 94.1171 44.1548 95.8915 43.2282 93.161C43.0632 92.6527 42.9702 92.2067 42.833 91.7098C43.6999 92.2958 44.8215 95.1068 45.7464 89.5532C45.8488 88.9107 45.8383 88.1073 45.7769 87.3482C45.756 86.9646 45.7155 86.5891 45.624 86.2579C45.5326 85.9267 45.3624 85.6281 44.9032 85.6343C45.064 85.5213 45.3233 85.3674 45.5741 85.4709C45.8282 85.5269 46.0642 85.7058 46.205 85.8781C46.5424 86.2456 46.7338 86.6507 46.9252 87.0558C47.2292 87.8987 47.4775 88.7186 47.4271 89.7088C47.382 90.4891 47.1777 91.2201 46.8899 91.9166C47.2643 91.4841 47.7108 91.114 48.1819 90.8029C48.5082 89.4212 48.7197 88.041 48.8904 86.5624C49.3285 87.6727 49.5223 88.8614 49.534 90.0566C50.0262 89.8521 50.543 89.7066 51.0842 89.6202C51.2384 89.6023 51.3926 89.5844 51.5271 89.5747C50.2408 88.7014 49.5748 87.4319 49.0842 86.2511L49.1351 86.2069ZM51.9227 59.9639C51.415 60.7979 51.0908 61.7403 50.7863 62.6745C50.3222 64.1135 50.0171 65.6018 49.7004 67.118C49.438 68.5424 49.1674 69.9472 48.9689 71.4143C49.2618 70.508 49.6105 69.6246 50.0822 68.7594C50.3221 68.3367 50.6178 67.9369 50.9413 67.5486C51.3209 66.9063 51.7562 66.287 52.3472 65.7645C52.6525 65.4992 52.9939 65.2651 53.3516 65.0703C53.3549 65.0228 53.3583 64.9752 53.3813 64.9195C53.4592 64.2179 53.5683 63.4803 53.5051 62.8835C53.5035 62.7687 53.4824 62.6621 53.4775 62.5949C53.3676 62.6637 53.2067 62.7766 53.1016 62.9126C52.6566 63.3975 52.2443 63.9611 52.0483 64.7118C51.7376 63.9639 51.9436 63.0706 52.3659 62.3644C52.4744 62.1809 52.5828 61.9974 52.7667 61.8287C52.9309 61.6682 53.1541 61.4831 53.5609 61.4064C54.071 61.356 54.4493 61.822 54.5277 62.0663C54.634 62.3221 54.6927 62.5747 54.6875 62.7845C54.7278 63.437 54.6287 64.032 54.4739 64.6041C54.5329 64.5795 54.6117 64.5468 54.6707 64.5223C55.176 64.4047 55.6745 64.3821 56.1698 64.4072C56.1831 64.217 56.1767 64.035 56.1622 63.8334C55.7456 62.5526 55.4534 61.4048 55.0382 60.2388C54.9728 60.0813 54.1623 56.2411 51.9227 59.9639ZM58.9337 66.5589C57.9212 65.7333 56.5507 65.3797 55.2828 65.6064C55.5451 65.6821 55.7959 65.7856 56.0073 65.9054C57.1052 66.6032 57.6418 67.6725 57.8816 68.7498C58.1017 69.8353 58.0005 70.8697 57.8435 71.8811C57.6085 70.871 57.449 69.8757 57.0417 69.0065C56.6901 68.1602 56.0153 67.4252 55.3384 67.1295C55.1712 67.0605 54.9925 67.0194 54.8498 67.0094C54.7072 66.9994 54.5333 67.0255 54.3398 67.0598C53.9608 67.148 53.6228 67.3346 53.2896 67.5884C52.6347 68.0682 52.0664 68.812 51.6178 69.6214C50.7008 71.2486 50.064 73.1055 49.7206 75.002C49.3855 76.9182 49.3241 78.8821 49.5054 80.9299C49.4645 80.8315 49.4236 80.7331 49.3909 80.6544C49.726 82.9613 50.6218 85.4508 52.6212 85.1508C54.7399 85.1937 56.1494 83.085 56.9392 80.8184C57.7406 78.5239 58.1354 76.029 58.5894 73.5097C58.8799 76.0428 58.8982 78.6429 58.2786 81.2081C57.9786 82.4866 57.4769 83.7796 56.5933 84.9314C55.7294 86.0749 54.2082 86.9146 52.7158 86.9346C52.5338 86.941 52.3518 86.9474 52.1419 86.9423L51.5385 86.8237C51.3401 86.7908 51.1532 86.73 50.9582 86.6495C51.4609 87.2483 52.0294 87.7275 52.6228 87.9887C53.0768 88.1924 53.5081 88.1747 53.9394 88.157C54.3774 88.0443 54.8466 87.8955 55.2897 87.573C56.1972 87.0344 56.9345 86.1973 57.5589 85.1994C58.8945 83.1907 59.8467 80.9258 60.5202 78.546C60.6932 77.851 60.8662 77.1561 60.9835 76.4381L60.8818 75.0265C60.7732 73.987 60.653 72.9754 60.4738 71.9883C60.2864 70.9815 60.0596 69.9911 59.805 68.9892C59.6172 68.2595 59.3819 67.5265 59.1582 66.7656C59.0861 66.7033 59.0337 66.6327 58.9616 66.5704L58.9337 66.5589ZM62.2076 71.6603C62.3704 72.608 62.4185 73.5573 62.3239 74.4966C62.4988 73.6393 62.6491 72.723 62.8469 71.81C63.4457 68.8612 64.2035 65.9618 65.0367 63.0771C64.9267 63.1459 64.8249 63.2343 64.6953 63.3113C64.5311 63.4718 64.3751 63.652 64.1912 63.8207C63.2555 64.6248 62.0642 65.2583 60.6915 65.3439C60.1536 65.3828 59.5863 65.2954 59.0895 65.1556C60.0657 66.227 60.7431 67.4687 61.2516 68.8036C61.7146 69.6958 62.0201 70.6535 62.1994 71.6406L62.2076 71.6603ZM66.7476 45.9123C66.9015 46.1715 67.0241 46.4667 67.1107 46.7307C67.3148 47.4998 67.3762 48.2589 67.2556 49.0244C67.1465 49.762 66.875 50.4979 66.4037 51.086C66.3898 50.3302 66.389 49.6614 66.3406 48.9892C66.2725 48.3251 66.165 47.6775 65.9788 47.0625C65.8204 46.4591 65.5324 45.9326 65.1244 45.6175C64.9524 45.4812 64.7098 45.3974 64.4754 45.3333C63.0778 45.637 62.0582 46.6837 61.0992 47.8206C60.4324 48.6053 59.8378 49.4524 59.307 50.3421C58.8663 51.4483 58.4533 52.566 58.0879 53.6871C57.3141 56.2701 57.302 56.8521 57.3128 57.3784C57.3316 58.2014 57.5044 59.0065 57.807 59.7346C58.1489 60.4464 58.5925 61.0698 59.1432 61.3949C59.6823 61.7478 60.2447 61.768 60.8551 61.5144C62.0955 60.9991 63.1648 59.5163 64.1323 58.122C65.0638 56.6966 65.843 55.1267 66.5059 53.4436C66.5693 55.2634 66.1342 57.1057 65.3566 58.7904C64.9718 59.6425 64.4953 60.4405 63.9155 61.2122C63.5838 61.5807 63.316 61.992 62.8926 62.3064L62.2852 62.7895C62.0653 62.927 61.7979 63.0612 61.5501 63.1872C60.5148 63.6404 59.1079 63.5326 58.2117 62.8204C58.1117 62.7465 58.0511 62.6563 57.9594 62.6021C58.0118 62.6726 58.0723 62.7629 58.1444 62.8252C58.7586 63.47 59.8257 63.9267 60.7489 63.9816C61.7393 64.0317 62.804 63.7047 63.7427 63.1301C63.9511 63.0205 64.1432 62.8714 64.3434 62.7421C66.6422 60.2178 68.1185 57.1583 68.6258 53.8782C68.9676 51.867 68.9799 49.7849 68.2752 47.9777C67.9809 47.2692 67.5126 46.5868 66.9508 46.0125C66.9148 45.9813 66.8509 45.9387 66.8148 45.9075L66.7476 45.9123ZM66.8789 44.4501L66.7407 44.7844C68.3339 45.5072 69.5898 47.0854 70.1452 48.9777C70.7026 47.7077 71.3076 46.4409 71.9207 45.1939C69.8583 46.12 68.0482 45.7643 66.9067 44.4616L66.8789 44.4501ZM76.686 35.714C77.6775 33.4328 79.2989 29.6669 76.8004 29.0434C75.7085 28.8047 74.3306 29.1002 73.2656 29.7042C72.2088 30.3279 71.168 31.268 70.2944 32.2772C69.3929 33.2748 68.6077 34.3856 67.9422 35.5621C66.828 37.5481 65.6664 40.7538 67.7069 41.7753C68.6249 42.04 69.6384 42.0344 70.485 41.6826C71.9698 41.0888 72.9968 39.3929 74.0379 38.1758C73.3182 42.1671 70.5006 43.7762 67.9894 42.7887C67.7713 42.7639 67.5648 42.7113 67.35 42.639C68.5968 45.0287 71.1266 44.1161 73.1213 42.2489C74.0997 41.3809 74.9455 40.3602 75.747 39.2888C77.1711 37.3817 78.5918 35.5222 79.0914 33.1685C79.2332 32.5096 79.1373 31.834 79.1364 31.1652C78.3933 32.7662 77.7847 34.3576 76.6548 35.7501L76.686 35.714ZM78.54 27.9514C79.0512 28.2928 79.4968 28.7539 79.7814 29.3279C79.9401 29.6543 80.0594 29.9971 80.1197 30.3643C80.7013 29.4304 81.1745 28.6799 81.7725 27.7853C79.5632 28.0801 79.3164 27.375 79.1298 27.0371L78.54 27.9514ZM87.3982 18.7095C87.2525 18.4701 86.969 18.2878 86.5953 18.1662C86.3805 18.0939 86.1346 18.0576 85.8968 18.041C84.4517 18.3414 82.5671 18.6398 80.772 20.9317C77.9866 24.3967 79.0545 25.5222 79.7805 25.936C80.3787 26.2644 81.2168 26.17 81.6815 25.677C81.7751 25.5689 81.9471 25.7051 81.8617 25.8329C81.3985 26.4407 80.6782 26.763 79.9519 26.6263C80.1681 26.8134 80.4631 26.9678 80.773 27.0467C80.8484 27.0616 80.9156 27.0567 80.9911 27.0715C81.6029 26.9327 82.1954 26.525 82.9257 26.06C83.6593 25.5476 84.4112 24.9121 85.0434 24.211C85.7034 23.5214 86.2996 22.7891 86.7564 21.9993C87.2411 21.221 87.5946 20.4049 87.6201 19.6327C87.6335 19.4426 87.5959 19.2966 87.5896 19.1146C87.5323 18.9769 87.5145 18.8228 87.426 18.721L87.3982 18.7095ZM96.5704 10.168C96.4378 10.0154 96.246 9.88739 96.0116 9.82324C93.8705 9.28201 91.5305 11.985 90.3775 13.4332C90.187 13.697 89.9965 13.9608 89.9207 14.223C89.845 14.4853 89.8053 14.7787 89.8625 14.9165C89.9261 15.2362 90.7197 15.368 91.3675 15.2604C92.0515 15.1839 92.7536 14.9846 93.3821 14.608C92.9386 15.2077 92.2347 15.5694 91.5096 15.8245C91.147 15.952 90.7599 16.0206 90.3204 16.0185C90.0629 16.0101 89.7334 15.9393 89.4499 15.7571C89.4886 16.2949 89.7324 16.7705 90.0635 16.9561C90.4666 17.204 91.1702 17.1193 91.8905 16.797C92.5993 16.5025 93.2902 16.0539 93.9369 15.5545C94.9284 14.7733 95.8726 13.7118 96.4757 12.6074C96.8586 11.9175 97.0928 10.7587 96.5622 10.1483L96.5704 10.168ZM158.944 304.333C182.874 296.86 227.647 273.205 174.859 209.774C160.996 193.911 145.671 181.862 134.845 172.698C134.737 172.605 129.809 168.468 130.125 168.729C109.293 150.983 90.1676 122.121 86.0024 95.5362C81.7785 67.1985 94.0446 39.7638 108.006 15.1323C112.745 7.53283 117.105 3.13645 113.354 3.61025C112.488 3.6931 111.56 4.1251 110.625 4.37511C106.151 5.88766 102.086 8.38422 98.5106 11.3927C98.1544 11.7022 97.7862 13.8168 97.4018 14.3919C95.7951 16.8594 93.7645 17.1954 91.4521 18.6869C88.1271 20.8529 71.2045 43.4145 65.7704 72.2339C63.1268 86.2092 63.8495 100.563 68.0661 114.157C72.1047 127.157 78.952 139.081 86.8484 150.085C95.0754 161.552 104.443 172.152 113.795 182.713C123.022 193.141 132.347 203.529 140.591 214.758C148.25 225.191 155.026 236.499 158.922 248.934C159.968 252.284 160.523 255.677 161.375 259.061C164.817 273.07 161.899 287.829 153.403 298.997C150.282 302.878 146.388 306.342 141.722 308.281C147.547 307.13 153.308 305.937 158.897 304.33L158.944 304.333ZM122.771 302.954C124.022 304.465 125.644 305.591 127.401 306.43C129.516 306.798 131.696 306.931 133.811 306.744C134.927 306.65 136.017 306.497 137.039 306.234C137.545 306.116 138.053 305.951 138.478 305.751C138.931 305.563 139.449 305.256 139.945 305.004C143.901 302.968 147.222 299.903 149.828 296.282C149.924 296.127 150.041 295.963 150.146 295.827C148.335 296.302 146.454 296.276 144.7 295.943C143.421 295.644 142.22 295.197 141.095 294.602C140.83 294.574 140.584 294.538 140.33 294.482C139.269 294.207 138.259 293.888 137.261 293.265C136.291 292.652 135.508 291.824 134.871 290.958C134.085 289.899 133.505 288.779 133.011 287.646C133.008 288.362 132.986 289.087 132.924 289.828C132.673 291.779 132.128 293.69 131.086 295.461C130.575 296.343 129.885 297.183 129.007 297.848C128.157 298.524 127.035 298.99 126.036 299.198C124.413 299.572 122.69 299.48 121.08 298.995C121.316 300.397 121.716 301.638 122.774 302.907L122.771 302.954ZM113.368 272.153C113.118 275.718 113.317 279.42 113.819 283.019C113.866 283.3 113.906 283.56 113.953 283.841C114.39 285.505 114.879 287.125 115.438 288.693C116.102 290.402 116.824 292.086 117.843 293.371C118.342 294.017 118.888 294.552 119.461 294.821C120.035 295.091 120.586 295.139 121.229 294.964C121.88 294.809 122.573 294.475 123.267 293.979C123.942 293.491 124.497 292.937 124.999 292.313C126.004 291.065 126.533 289.391 127.012 287.6C127.903 284.022 128.29 280.284 128.235 276.43C129.499 280.082 129.809 284.107 129.266 288.025C129.034 289.967 128.504 292.08 127.265 293.933C126.656 294.855 125.827 295.638 124.968 296.295C124.655 296.541 124.285 296.763 123.916 296.986C124.459 297.014 125.013 297.015 125.555 296.928C126.396 296.786 127.042 296.564 127.714 296.124C128.365 295.691 128.923 295.09 129.421 294.399C130.417 293.016 131.071 291.313 131.46 289.582C131.808 288.03 131.902 286.422 131.873 284.796C130.639 281.27 129.807 277.6 129.468 273.841C129.363 272.754 129.333 271.681 129.334 270.573C129.218 270.183 129.111 269.812 128.995 269.422C128.692 268.694 128.398 267.985 128.084 267.285C127.773 266.537 127.431 265.825 127.078 265.141C126.682 264.521 126.226 263.926 125.678 263.439C124.403 262.26 122.789 261.431 121.195 261.262C120.446 261.181 119.714 261.255 119.04 261.465C119.488 261.487 119.932 261.556 120.345 261.662C121.375 261.972 122.34 262.518 123.113 263.212C123.903 263.945 124.492 264.808 124.916 265.717C125.791 267.545 126.085 269.477 126.181 271.375C125.347 269.645 124.679 267.869 123.693 266.386C122.727 264.895 121.418 263.8 119.825 263.355C118.282 262.865 116.704 263.29 115.609 264.599C114.395 265.957 113.586 268.231 113.299 272.043L113.368 272.153ZM100.335 240.783C101.593 243.145 103.096 245.428 104.743 247.559C106.351 249.706 108.161 251.839 110.071 253.492C111.868 254.983 114.661 256.038 116.505 255.365C117.396 255.064 118.096 254.081 118.327 252.969C118.597 251.842 118.433 250.502 118.111 249.228C117.472 246.632 116.235 244.1 114.845 241.7C116.776 243.736 118.387 246.113 119.48 248.798C119.996 250.153 120.388 251.651 120.235 253.284C120.217 253.684 120.092 254.105 119.986 254.518C119.825 254.908 119.683 255.29 119.447 255.666C119.021 256.419 118.297 257.066 117.503 257.488C117.464 257.505 117.424 257.521 117.385 257.538C118.161 257.515 118.907 257.367 119.596 257.08C119.959 256.953 120.272 256.707 120.618 256.54C120.948 256.334 121.254 256.069 121.567 255.823C122.166 255.32 122.618 254.74 122.961 254.067C123.882 252.115 123.903 249.776 123.476 247.415C123.408 247.028 123.331 246.621 123.235 246.223C123.163 245.883 123.08 245.572 122.988 245.24C122.926 245.035 122.884 244.822 122.822 244.617C119.855 241.534 117.439 238.107 115.219 234.599C113.504 231.804 111.83 228.83 110.845 225.57C105.138 221.225 99.6521 223.135 97.4833 228.029C98.273 227.262 99.471 226.534 100.573 226.353C103.893 225.897 105.961 228.43 107.669 230.928C106.646 229.968 105.616 228.988 104.456 228.363C103.123 227.601 101.413 227.319 100.114 228.136C99.9921 228.233 98.8056 228.933 98.2976 230.044C97.7602 231.029 98.6967 237.84 100.343 240.802L100.335 240.783ZM84.287 216.827C86.3555 219.083 89.4066 222.592 92.1845 221.276C95.3461 219.94 93.5757 213.844 92.3971 210.619C88.0806 206.62 84.6515 201.144 82.9073 194.946C82.5558 194.1 82.2517 193.257 82.0183 192.361C79.0734 190.608 76.6587 191.242 74.9721 193.35C74.8403 193.867 74.7478 194.367 74.6554 194.866C76.3902 193.707 79.1022 194.011 81.3136 197.5C80.6318 197.137 79.9813 196.738 79.3437 196.426C78.2718 195.902 77.1472 195.585 76.0644 196.035C74.4696 196.698 74.5993 199.344 74.8515 201.062C74.9169 201.219 77.4541 209.327 84.2788 216.807L84.287 216.827ZM57.8542 179.877C58.2878 180.643 58.769 181.413 59.2618 182.154C59.3993 182.374 62.1345 188.068 69.5111 187.819C70.6279 187.84 71.5581 187.523 71.8637 186.98C72.0543 186.716 72.1155 186.252 72.1407 185.757C72.1101 185.239 72.0238 184.698 71.8934 184.106C71.2959 181.724 70.4574 179.372 69.4287 177.007C71.2698 178.827 72.6693 181.084 73.6438 183.541C73.7746 183.855 73.8742 184.206 73.9854 184.529C74.085 184.88 74.1256 185.256 74.2055 185.615C74.223 186.046 74.229 186.505 74.1678 186.969C74.2451 186.822 74.3502 186.686 74.4193 186.518C74.6759 185.858 74.7489 185.089 74.7466 184.305C74.7534 182.71 74.3076 181.026 73.7832 179.375C73.61 178.847 73.4449 178.339 73.252 177.819C72.6408 177.403 72.0608 176.952 71.5087 176.512C70.3521 175.562 69.266 174.559 68.2538 173.457C66.2573 171.263 64.558 168.784 63.2328 166.15C63.1347 165.914 63.0366 165.678 62.9188 165.45C62.7746 165.325 62.6304 165.201 62.4945 165.096C61.4229 164.295 60.0854 163.743 58.7457 163.63C58.262 163.577 57.7798 163.639 57.3058 163.721C57.8419 163.844 58.3353 164.031 58.7893 164.235C60.9758 165.219 62.9008 166.796 64.1301 168.755C62.3213 167.291 60.3629 166.189 58.2876 165.528C53.4533 164.006 54.2586 168.056 54.687 170.532C54.8677 171.633 55.1666 172.686 55.454 173.767C56.0877 175.904 56.9741 177.982 58.0032 180.069C57.9589 180.019 57.9065 179.948 57.8623 179.897L57.8542 179.877Z" fill="#1A1A18"/>
<path d="M61.0308 136.234C60.945 136.639 60.8117 137.04 60.567 137.396C60.3304 137.771 59.9823 138.1 59.6164 138.275C58.8928 138.645 57.863 138.611 57.4783 137.963C58.1571 138.097 58.6512 137.73 58.9271 137.338C59.2113 136.967 59.2134 136.527 59.1795 136.057C59.0642 135.112 58.6442 133.879 58.2617 132.792C57.8596 131.713 57.369 130.532 56.8618 129.589C56.6065 129.141 56.32 128.729 55.9135 128.529C55.471 128.297 54.8955 128.19 54.3145 128.57C54.4515 127.844 55.3163 127.369 56.128 127.378C57.0152 127.402 57.7854 127.867 58.3309 128.402C59.3824 129.488 60.0272 130.651 60.5274 131.966C60.7579 132.632 60.9408 133.294 61.0646 133.981C61.1605 134.657 61.2417 135.408 61.0898 136.209L61.0308 136.234Z" fill="#1A1A18"/>
<path d="M119.601 222.971C120.824 222.97 121.865 223.53 122.712 224.124C123.598 224.702 124.329 225.46 125.035 226.159C125.785 226.909 126.402 227.783 126.936 228.623C128 230.35 128.872 232.227 129.2 234.352C129.267 234.901 129.333 235.45 129.234 236.045C129.147 236.612 128.918 237.284 128.398 237.754C127.869 238.205 127.221 238.312 126.69 238.256C126.147 238.228 125.673 238.032 125.2 237.837C126.161 237.761 127.255 237.56 127.536 236.959C127.85 236.436 127.652 235.572 127.384 234.76C126.812 233.105 125.868 231.444 124.917 229.877C124.42 229.069 123.935 228.347 123.364 227.638C122.776 226.89 122.165 226.198 121.551 225.553C119.998 223.983 118.7 223.414 117.265 225.072C117.37 224.936 117.532 223.161 119.601 222.971Z" fill="#1A1A18"/>
<path d="M112.017 240.059C112.239 240.428 112.422 240.814 112.625 241.191L112.748 241.486L112.83 241.683L112.903 241.86C112.974 242.085 113.027 242.27 113.089 242.475C113.29 243.292 113.502 244.08 113.597 244.918C113.702 245.728 113.757 246.582 113.626 247.491C113.582 247.717 113.537 247.943 113.453 248.186C113.361 248.408 113.215 248.723 112.888 248.882C112.554 249.021 112.267 248.886 112.075 248.758C111.883 248.63 111.771 248.469 111.63 248.297C111.984 248.427 112.515 248.483 112.556 248.304C112.583 248.201 112.57 247.837 112.478 247.506C112.327 246.807 112.052 246.091 111.797 245.366C111.503 244.657 111.267 243.924 110.973 243.216L110.72 242.606L110.541 242.288C110.383 241.961 110.196 241.623 110.006 241.333C108.86 239.409 107.488 237.718 105.627 236.46C105.075 236.02 104.406 235.744 103.589 235.945C105.111 233.997 109.918 236.454 112.041 240.118L112.017 240.059Z" fill="#1A1A18"/>
<path d="M80.6051 203.126C83.7885 202.842 89.6913 209.159 88.2739 215.194C86.5462 211.758 85.3179 208.968 81.8259 205.342C81.3722 204.862 80.9987 204.463 80.5414 204.307C80.1907 204.129 79.4165 204.266 79.2598 205.001C78.8522 204.409 79.4274 203.293 80.5936 203.154L80.6051 203.126Z" fill="#1A1A18"/>
<path d="M53.0464 72.2814C53.7776 72.4854 54.4267 72.7695 54.9357 73.5503C55.3809 74.2885 55.4572 74.9722 55.5416 75.6756C55.6179 76.3593 55.5794 77.0445 55.513 77.7182C55.4269 78.4002 55.2654 79.0673 55.0088 79.7277C54.7244 80.3767 54.4087 81.0617 53.7029 81.5857C53.5142 81.6872 53.3419 81.828 53.1171 81.8983C52.8842 81.9489 52.6873 82.0307 52.4298 82.0223C51.9231 82.0251 51.4839 81.746 51.2268 81.4606C50.7356 80.8339 50.6199 80.1665 50.5994 79.5058C50.9628 80.0472 51.3656 80.5721 51.8081 80.8037C52.0195 80.9235 52.2015 80.9171 52.3394 80.8599C52.3984 80.8353 52.5002 80.7469 52.5675 80.742C52.638 80.6896 52.7119 80.5897 52.7825 80.5373C53.3196 79.8295 53.5769 78.6149 53.7323 77.4888C53.8199 76.9216 53.8518 76.3315 53.8442 75.7577C53.8449 75.2036 53.8013 74.5986 53.7051 74.2001C53.6136 73.8689 53.1517 73.3685 52.7404 73.1009C52.5209 72.9613 52.3176 72.8611 52.1601 72.9266C51.9829 73.0002 51.8366 73.3148 51.7657 73.6443C51.6627 73.3409 51.5352 72.9785 51.8309 72.5787C52.1741 72.1823 52.7054 72.2385 53.0349 72.3093L53.0464 72.2814Z" fill="#1A1A18"/>
<path d="M75.0981 33.8352C75.0254 34.327 74.8494 34.7924 74.6094 35.2152C74.1575 36.0722 73.4383 36.7863 72.5769 37.2135C71.7433 37.6521 70.7477 37.8119 69.869 37.5308C70.6469 37.0692 71.2624 36.6057 71.7583 36.0766C72.2541 35.5476 72.6943 34.9955 73.0148 34.3777C73.189 34.0745 73.3156 33.7681 73.4341 33.4419C73.5525 33.1158 73.6431 32.7782 73.6713 32.5126C73.6995 32.247 73.6293 32.0224 73.5966 31.9437C73.4803 31.8304 72.9375 31.8021 72.9156 32.2496C72.7157 32.1019 72.703 31.7379 72.9099 31.5135C73.0693 31.2858 73.3401 31.104 73.696 31.0716C74.5356 31.092 74.9169 31.7874 75.0622 32.304C75.2239 32.8599 75.179 33.3631 75.0981 33.8352Z" fill="#1A1A18"/>
<path d="M63.906 52.2393C63.8678 52.6475 63.7705 53.0802 63.6569 53.4736C63.1434 55.0715 62.0183 56.5313 60.4105 57.1069C60.6968 56.2957 60.9928 55.6189 61.2412 54.9387C61.4897 54.2586 61.7266 53.6063 61.9356 52.9425C62.125 52.2869 62.3686 51.5396 62.4298 51.0757C62.448 50.9527 62.4268 50.8461 62.4253 50.7314C62.432 50.6363 62.3911 50.5379 62.3026 50.4362C62.1339 50.2524 61.8341 50.0308 61.437 50.242C61.49 49.7584 62.1479 49.5081 62.6644 49.6397C62.9185 49.6957 63.1938 49.8582 63.4067 50.0929C63.6114 50.3078 63.7177 50.5636 63.8043 50.8277C63.9694 51.336 63.9442 51.8311 63.906 52.2393Z" fill="#1A1A18"/>
<path d="M50.7116 108.674C51.066 108.527 51.3174 108.077 51.4377 107.588C51.6537 106.552 51.7126 105.305 51.5909 104.178C51.4889 103.044 51.2198 101.84 50.8028 100.836C50.6065 100.364 50.2922 99.9409 49.866 99.7487C49.4399 99.5565 48.7823 99.5297 48.3455 100.034C48.4152 99.313 49.2603 98.8465 50.0409 98.8914C50.8968 98.9512 51.5456 99.5124 52.0008 100.108C52.8439 101.304 53.2294 102.621 53.3901 104.008C53.4836 105.4 53.3705 106.739 52.7392 108.109C52.4153 108.774 51.7913 109.495 50.8417 109.543C50.4219 109.533 50.04 109.392 49.7435 109.123C49.4552 108.873 49.3031 108.452 49.4216 108.126C49.6242 108.78 50.3375 108.83 50.7312 108.666L50.7116 108.674Z" fill="#1A1A18"/>
<path d="M45.6198 120.644C45.5519 121.203 45.4692 121.837 45.1323 122.415C44.9778 122.71 44.7561 123.01 44.4738 123.22C44.1996 123.449 43.778 123.601 43.4533 123.598C43.1089 123.602 42.7712 123.512 42.5074 123.321C42.2436 123.131 42.0652 122.813 42.0852 122.528C42.4356 122.982 42.9654 122.923 43.3034 122.737C43.63 122.578 43.7484 122.252 43.8702 121.878C44.0105 121.105 43.9609 120.041 43.8456 119.096C43.75 118.144 43.5314 117.173 43.2619 116.246C43.1214 115.797 42.966 115.423 42.6777 115.174C42.4172 114.936 41.9041 114.757 41.4413 115.087C41.5798 114.476 42.3837 114.188 43.0476 114.397C43.7394 114.617 44.1979 115.165 44.5056 115.684C45.1243 116.673 45.4953 117.788 45.6251 118.934C45.6999 119.503 45.6877 120.085 45.6477 120.655L45.6198 120.644Z" fill="#1A1A18"/>
<path d="M85.3131 22.4143C85.1077 22.7535 84.8745 23.0812 84.6134 23.3974C84.0387 23.9592 83.5559 24.5752 82.5339 24.8382C81.3808 25.0635 80.5885 23.8234 81.0027 23.0975C81.1477 23.8911 81.9394 24.1852 82.3005 23.9429C82.7173 23.7236 83.2755 23.1224 83.7123 22.6178C84.1492 22.1133 84.6714 21.4809 84.808 21.0319C84.8526 20.8057 84.8332 20.5368 84.6727 20.3727C84.5597 20.2119 84.0957 20.1509 83.8903 20.49C83.8252 20.0555 84.398 19.656 84.939 19.8467C85.4602 20.0455 85.7285 20.5802 85.7197 21.1146C85.7306 21.6409 85.4907 22.0636 85.3131 22.4143Z" fill="#1A1A18"/>
<path d="M95.0499 11.9535C94.81 12.3763 94.521 12.6809 94.1566 12.9708C93.4508 13.4948 92.5206 13.812 91.6107 13.567C92.279 12.897 92.8518 12.4975 93.4394 12.0226L94.3454 11.3693C94.4669 11.2726 94.5965 11.1957 94.6704 11.0958C94.764 10.9876 94.8331 10.8205 94.735 10.5843C94.9924 10.5927 95.202 10.8749 95.2492 11.1553C95.285 11.4635 95.1698 11.7421 95.0499 11.9535Z" fill="#1A1A18"/>
<path d="M161.317 232.915C163.907 238.093 166.19 243.422 168.099 248.906C168.947 251.669 169.882 254.419 170.521 257.292C171.2 260.148 171.599 263.052 171.823 265.982C172.04 268.892 171.995 271.841 171.732 274.766C171.422 277.687 170.819 280.568 169.945 283.355C168.995 286.126 167.72 288.779 166.144 291.211C164.513 293.619 162.51 295.744 160.308 297.558C162.252 295.458 163.961 293.179 165.302 290.684C166.595 288.185 167.602 285.551 168.279 282.846C168.909 280.139 169.304 277.367 169.414 274.575C169.476 271.78 169.404 268.994 169.063 266.228C168.702 263.471 168.207 260.723 167.498 258.017C166.818 255.323 165.837 252.684 164.915 250.021C162.953 244.743 160.708 239.561 158.136 234.537C155.564 229.513 152.705 224.632 149.645 219.88C146.566 215.136 143.228 210.546 139.788 206.045C136.257 201.604 132.617 197.231 128.773 193.036C124.929 188.841 120.913 184.786 116.818 180.764C121.423 184.182 125.788 187.907 130.016 191.804C134.173 195.754 138.163 199.912 141.938 204.274C145.713 208.637 149.154 213.253 152.463 217.994C155.682 222.795 158.629 227.778 161.309 232.896L161.317 232.915Z" fill="#1A1A18"/>
<path d="M72.9266 91.7376C73.2233 97.4528 73.9988 103.154 75.3108 108.701C76.5637 114.273 78.3496 119.739 80.5179 125.069C82.6386 130.395 85.24 135.545 88.0694 140.577C93.799 150.589 100.751 159.932 108.695 168.493C99.7199 161.006 91.9721 151.971 85.685 142.007C82.516 137.046 79.7786 131.791 77.4071 126.361C75.075 120.914 73.1957 115.28 71.8529 109.491C70.5576 103.706 69.7873 97.7957 69.5827 91.8576C69.4257 85.9228 69.736 80.0015 70.7006 74.1546C72.5429 62.4737 76.5674 51.1554 82.7402 41.2292C77.8752 51.8582 74.7167 63.0937 73.4372 74.5176C72.8352 80.237 72.5939 85.9911 72.9381 91.7097L72.9266 91.7376Z" fill="#1A1A18"/>
<path d="M172.189 288.7C173.572 286.026 174.62 283.213 175.258 280.248C175.932 277.314 176.316 274.293 176.367 271.249C176.604 265.15 175.839 259.03 174.229 253.099C172.611 247.148 170.116 241.422 166.917 235.944C171.316 240.532 174.676 246.174 176.878 252.252C178.023 255.284 178.785 258.452 179.325 261.643C179.827 264.85 179.988 268.129 179.924 271.363C179.8 274.622 179.352 277.878 178.527 281.059C177.646 284.218 176.404 287.341 174.575 290.109C172.803 292.899 170.491 295.337 167.843 297.244C165.188 299.132 162.233 300.521 159.147 301.319C161.93 299.793 164.528 298.045 166.733 295.905C168.954 293.806 170.771 291.343 172.17 288.708L172.189 288.7Z" fill="#1A1A18"/>
<path d="M184.474 281.035C185.871 277.339 186.579 273.376 186.697 269.381C186.787 265.374 186.267 261.344 185.15 257.377C185.312 257.656 191.744 268.138 186.71 281.86C185.206 285.854 182.875 289.522 179.921 292.527C176.976 295.55 173.404 297.957 169.503 299.347C172.941 297.065 175.998 294.364 178.547 291.275C181.068 288.173 183.125 284.734 184.486 281.007L184.474 281.035Z" fill="#1A1A18"/>
<path d="M78.8017 113.435C77.4591 108.869 76.4872 104.196 76.0451 99.4646C75.5833 94.741 75.5643 89.9719 76.1602 85.2936C76.5466 90.0023 77.0626 94.6341 77.8591 99.2186C78.6753 103.795 79.7048 108.329 81.0574 112.751C82.3707 117.191 83.9956 121.546 85.8174 125.82C87.659 130.086 89.7843 134.257 92.0359 138.398C88.9522 134.81 86.3265 130.824 84.1454 126.63C81.9168 122.433 80.1641 117.992 78.782 113.443L78.8017 113.435Z" fill="#1A1A18"/>
<path d="M88.4466 27.8976C89.7271 25.3118 91.3305 22.8917 93.1059 20.608C94.9174 18.3553 96.9009 16.239 99.1137 14.3965C101.318 12.5345 103.708 10.8955 106.309 9.65344C104.292 11.6911 102.299 13.6731 100.386 15.7371C98.4931 17.7929 96.6637 19.8914 94.9622 22.0752C93.2328 24.2476 91.6116 26.5135 90.0542 28.822C88.5051 31.1503 87.028 33.5409 85.5278 35.9872C86.1363 33.1729 87.1579 30.4638 88.4662 27.8895L88.4466 27.8976Z" fill="#1A1A18"/>
<path d="M161.673 218.991C160.614 219.777 158.24 218.34 156.373 215.792C154.507 213.245 153.846 210.542 154.893 209.784C155.952 208.998 158.326 210.435 160.193 212.983C162.059 215.53 162.72 218.232 161.673 218.991Z" fill="#1A1A18"/>
<path d="M143.865 192.074C142.886 192.942 140.959 192.358 139.596 190.801C138.225 189.224 137.942 187.265 138.921 186.397C139.907 185.549 141.827 186.113 143.19 187.67C144.552 189.227 144.843 191.206 143.865 192.074Z" fill="#1A1A18"/>
<path d="M99.203 147.814C100.991 150.394 101.557 153.09 100.482 153.837C99.4066 154.583 97.0829 153.102 95.2952 150.522C93.5074 147.942 92.9416 145.246 94.0166 144.499C95.0916 143.753 97.4153 145.233 99.203 147.814Z" fill="#1A1A18"/>
<path d="M83.129 65.668C84.4226 65.8921 85.0806 68.3649 84.587 71.1777C84.0933 73.9905 82.6362 76.0959 81.3344 75.8521C80.0408 75.628 79.3829 73.1552 79.8765 70.3424C80.3701 67.5296 81.8272 65.4242 83.129 65.668Z" fill="#1A1A18"/>
<path d="M177.737 237.263C178.881 236.626 181.037 238.315 182.502 241.006C183.994 243.71 184.263 246.413 183.1 247.058C181.956 247.695 179.8 246.006 178.335 243.314C176.843 240.611 176.574 237.908 177.737 237.263Z" fill="#1A1A18"/>
<path d="M177.976 233.725C177.164 234.27 175.741 233.569 174.816 232.176C173.891 230.784 173.811 229.202 174.624 228.656C175.436 228.111 176.859 228.812 177.783 230.205C178.708 231.598 178.788 233.18 177.976 233.725Z" fill="#1A1A18"/>
<path d="M146.223 203.14C147.365 204.442 147.674 206.021 146.931 206.677C146.187 207.332 144.667 206.786 143.526 205.483C142.384 204.181 142.075 202.602 142.818 201.946C143.562 201.291 145.082 201.837 146.223 203.14Z" fill="#1A1A18"/>
<path d="M123.224 171.457C122.464 172.072 120.675 171.154 119.222 169.381C117.77 167.607 117.218 165.668 117.978 165.052C118.738 164.436 120.527 165.354 121.98 167.127C123.432 168.901 123.984 170.841 123.224 171.457Z" fill="#1A1A18"/>
<path d="M77.2791 82.7059C76.2935 82.7231 75.47 81.5191 75.4341 79.9878C75.3982 78.4566 76.1737 77.2113 77.1511 77.1744C78.1367 77.1573 78.9602 78.3613 78.9961 79.8926C79.032 81.4238 78.2565 82.6691 77.2791 82.7059Z" fill="#1A1A18"/>
<path d="M86.2614 57.5368C87.2337 57.7097 87.8836 58.6628 87.7069 59.6824C87.5302 60.7019 86.6209 61.4028 85.6289 61.238C84.6567 61.065 84.0068 60.1119 84.1637 59.1006C84.3404 58.081 85.2498 57.3801 86.2417 57.5449L86.2614 57.5368Z" fill="#1A1A18"/>
<path d="M100.14 21.7007C101.085 21.977 101.375 23.8412 100.804 25.8556C100.213 27.8781 98.9761 29.2918 98.0302 29.0156C97.0843 28.7393 96.7946 26.8751 97.366 24.8607C97.9571 22.8382 99.1936 21.4245 100.14 21.7007Z" fill="#1A1A18"/>
</g>
<defs>
<clipPath id="clip0_434_778">
<rect width="125" height="303" fill="white" transform="matrix(-0.923471 0.383669 0.383669 0.923471 115.434 0)"/>
</clipPath>
</defs>
</svg>
