<svg width="328" height="244" viewBox="0 0 328 244" fill="none" xmlns="http://www.w3.org/2000/svg">
<g clip-path="url(#clip0_434_6054)">
<path d="M65.9115 51.8501C66.7275 50.6801 68.3483 50.1996 69.3822 50.9038C68.2093 50.889 67.3968 51.7538 67.212 52.5394C66.9804 53.3737 67.1887 54.2754 67.6142 55.0679C68.973 57.7681 71.0362 59.4339 73.5923 60.9565C74.6243 61.5653 75.856 62.151 77.08 61.8597C77.7159 61.7135 78.3086 61.3108 78.6026 60.7423C78.8965 60.1738 78.8624 59.4021 78.4334 58.9148C79.0492 59.2077 79.9053 60.087 80.1465 60.7211C80.4584 61.554 80.2965 62.5394 79.8157 63.3023C79.0473 64.4714 77.6136 65.2533 76.0466 65.0747C73.446 64.6878 71.2978 63.5482 69.4079 61.9647C67.5656 60.3803 66.0465 58.265 65.4171 55.8173C65.0584 54.5371 65.1239 53.0101 65.9491 51.8208L65.9115 51.8501Z" fill="white" fill-opacity="0.5"/>
<path d="M88.9693 44.3535C88.3527 44.5088 87.7708 44.4918 87.2751 44.4921C86.7602 44.4833 86.2534 44.4076 85.7274 44.3227C83.6895 43.9437 81.7457 43.0193 80.127 41.6593C79.3223 40.9696 78.6018 40.2021 77.994 39.3464C77.4054 38.4999 76.7939 37.4536 76.6643 36.1879C76.5346 34.9223 76.9942 33.559 78.0852 32.8031C78.6596 32.4388 79.3157 32.3495 79.871 32.4719C80.4263 32.5944 80.9488 32.9845 81.1294 33.4481C80.2615 32.9409 79.317 33.3888 79.0505 33.8995C78.708 34.4213 78.732 35.1646 78.9531 35.7419C79.4244 36.934 80.7856 38.2896 82.0175 39.3712C83.3163 40.461 84.7735 41.3665 86.3699 42.0785C87.1388 42.397 88.091 42.8262 88.7315 42.9183C89.066 42.9594 89.3235 42.9638 89.5003 42.7409C89.6578 42.5089 89.7611 41.9443 89.2525 41.7732C89.498 41.6539 89.8344 41.7902 90.0296 42.0248C90.2249 42.2593 90.3166 42.5626 90.314 42.9154C90.3205 43.2491 90.0714 43.6736 89.8369 43.869C89.5841 44.1029 89.2534 44.2525 88.9501 44.3443L88.9693 44.3535Z" fill="white" fill-opacity="0.5"/>
<path d="M188.106 90.2973C188.22 89.761 188.497 89.3264 188.882 89.0136C189.267 88.7008 189.798 88.5758 190.183 88.7588C189.437 89.136 189.404 89.8995 189.575 90.3348C189.735 90.7416 190.171 91.0667 190.663 91.3716C191.762 91.9886 193.07 92.5633 194.326 92.9483C195.582 93.3334 196.951 93.6303 198.25 93.7284C199.567 93.7881 200.902 93.8092 202.188 92.7918C202.118 93.6324 201.562 94.4063 200.867 94.9732C200.143 95.5025 199.331 95.8715 198.467 96.0508C196.758 96.4186 195.058 96.2713 193.428 95.7793C191.788 95.2588 190.341 94.4294 189.105 93.1095C188.482 92.4353 187.919 91.4357 188.096 90.2688L188.106 90.2973Z" fill="white" fill-opacity="0.5"/>
<path d="M163.282 86.3762C157.668 90.3404 148.342 86.3303 148.332 82.3827C148.411 81.0748 149.35 80.3409 150.059 80.4889C149.43 81.0163 149.53 81.7486 149.768 82.192C150.32 83.1156 153.803 84.2763 154.829 84.5992C156.143 85.0117 160.7 85.9508 163.273 86.3955L163.282 86.3762Z" fill="white" fill-opacity="0.5"/>
<path d="M192.482 75.6399C193.653 76.0553 194.776 76.4715 195.916 76.754C197.066 77.0648 198.214 77.2327 199.661 77.1658C198.798 78.3368 197.238 78.9877 195.752 79.084C194.258 79.1995 192.793 78.9045 191.498 78.4535C190.854 78.2184 190.201 77.9548 189.613 77.6518C189.017 77.3681 188.246 76.9543 187.631 76.2133C187.016 75.4722 186.689 74.3726 187.128 73.4007C187.604 72.3995 188.857 72.1457 189.365 72.765C188.632 72.8177 188.379 73.4998 188.527 73.7829C188.629 74.1146 188.921 74.3949 189.248 74.5505C189.594 74.7152 190.064 74.868 190.678 75.0655C191.292 75.2631 191.897 75.4799 192.492 75.6683L192.482 75.6399Z" fill="white" fill-opacity="0.5"/>
<path d="M224.321 91.2076C223.223 90.5905 222.29 89.7223 221.565 88.7164C221.193 88.2089 220.739 87.4264 220.931 86.5263C221.083 86.0083 221.43 85.7249 221.819 85.6027C222.188 85.4714 222.667 85.6049 222.769 85.9366C222.165 85.7674 221.932 86.5063 222.087 86.6272C222.197 86.892 222.507 87.1338 222.913 87.4213C223.773 88.0431 224.624 88.6364 225.511 89.1528C226.398 89.6691 227.323 90.1561 228.303 90.5752C229.285 91.042 230.312 91.4125 231.456 91.8856C230.313 92.4042 229.056 92.5151 227.824 92.3775C226.591 92.2399 225.392 91.8347 224.302 91.1984L224.321 91.2076Z" fill="white" fill-opacity="0.5"/>
<path d="M210.339 78.6788L215.151 80.4711C224.875 77.5885 239.095 89.5684 237.309 95.7545L238.79 96.9074C239.755 96.5163 240.736 96.4873 241.644 96.5645C244.359 96.9587 252.739 101.369 255.34 104.731C256.475 106.215 257.443 107.903 257.872 109.878C258.035 110.876 258.038 112.01 257.572 113.04C257.125 114.079 256.311 114.848 255.357 115.315C255.263 115.365 255.177 115.395 255.092 115.426C255.316 115.65 255.539 115.874 255.763 116.099C257.294 117.346 258.619 118.826 259.738 120.444C260.275 120.157 260.911 120.011 261.522 120.065C262.859 120.182 264.017 120.874 264.994 121.598C267.005 123.027 268.643 124.892 270.026 126.895C270.695 127.921 271.306 128.968 271.833 130.092C272.313 131.217 272.821 132.332 272.962 133.674C272.985 133.874 272.998 134.093 272.984 134.322C273.006 134.474 273.028 134.626 273.05 134.778C273.047 135.579 272.789 136.567 272.057 137.163C271.381 137.691 270.328 137.922 269.541 137.69C270.669 138.793 271.658 140.137 272.475 141.446C272.796 141.764 273.107 142.101 273.391 142.448C274.094 143.302 274.694 144.272 275.162 145.273C277.244 146.948 279.434 149.737 280.788 152.647C281.417 154.103 282.001 155.703 281.683 157.464C281.214 159.342 279.819 159.646 279.467 159.692C280.714 161.536 281.559 163.827 282.069 165.981C283.161 168.696 283.323 171.63 282.976 173.401C282.654 174.923 281.882 175.95 280.875 176.58L281.299 177.821C281.934 178.123 282.601 178.558 283.213 179.156C286.937 180.903 288.198 188.869 286.597 193.277C286.288 194.027 285.872 194.703 285.35 195.305C285.07 195.644 284.742 195.937 284.442 196.172C284.192 196.548 283.836 196.851 283.421 197.079L283.65 198.581L283.27 198.636C286.902 198.144 287.996 209.737 282.886 211.65L283.103 212.981C283.29 213.33 283.509 213.764 283.614 214.287C284.51 215.232 284.383 217.037 284.379 218.286C283.958 224.531 280.607 224.283 280.08 224.15C279.273 228.725 277.796 233.121 275.34 237.194C274.709 238.122 273.319 241.096 270.749 241.338C269.76 241.434 268.67 240.798 268.303 239.089C265.644 219.622 266.886 224.651 264.632 217.134C260.144 202.11 254.02 185.859 245.243 172.855C236.192 159.485 226.439 151.211 208.516 143.348C164.163 124.12 135.289 137.397 88.5252 131.376C60.8552 127.731 22.8733 116.443 21.8019 83.1184C20.6707 70.6109 24.551 58.9287 31.1953 48.6791C34.6494 39.58 40.4121 31.5315 48.1794 25.5696C51.8611 22.7405 56.1613 19.8514 60.8773 19.214C63.4538 18.8576 66.8498 19.4575 69.3409 21.0671C70.5552 21.7391 71.5167 22.6449 72.1374 23.6719C73.8197 23.4096 75.1777 23.6305 76.8528 23.9786C80.7704 24.9209 84.2878 26.8534 87.3491 29.348C90.2583 31.8648 92.9806 34.5759 95.3109 37.7145C96.4385 39.3131 97.4727 41.009 98.2247 42.9011C98.6154 43.866 98.9218 44.9088 99.0669 45.993C100.946 47.0046 102.862 47.9867 104.844 48.9295C105.782 48.5961 106.759 48.3764 107.777 48.2703C110.834 48.095 113.616 48.4974 116.447 48.9941C121.95 50.0765 129.69 52.459 132.982 56.9992C134.108 58.0066 134.823 58.9841 135.436 60.1257C137.085 60.5792 138.753 61.0419 140.419 61.4569C141.149 60.7177 141.986 60.1479 142.903 59.7578C145.293 58.1559 149.054 58.3862 151.929 58.6913C159.295 59.4792 168.564 63.5571 168.68 63.612C170.72 64.5822 172.593 66.2995 173.877 68.5625C176.068 68.9671 178.24 69.3625 180.421 69.7387C181.731 68.9688 186.381 66.9309 192.668 68.1503C193.051 68.1904 193.442 68.2112 193.824 68.2513C197.17 68.7092 200.451 69.7976 203.438 71.4069C206.379 73.1125 209.998 75.3767 210.331 78.7457L210.339 78.6788ZM235.065 95.0649C235.07 94.855 235.067 94.6644 235.091 94.4636C234.995 93.4261 234.506 92.3202 233.817 91.2373C233.241 90.5145 232.636 89.8018 231.956 89.1479C230.324 87.6165 228.468 86.3089 226.481 85.1279C222.903 83.025 220.789 81.6653 216.677 82.4719C216.206 82.7673 215.813 83.147 215.602 83.5899C215.08 84.6397 215.341 86.3223 216.205 87.5829C217.099 88.9287 218.55 90.0441 219.948 91.3227C218.119 90.9013 216.285 90.2417 214.789 88.7744C214.497 88.4942 214.233 88.1561 214.017 87.8171C214.097 88.0444 214.207 88.2615 214.316 88.4787C215.07 90.018 216.233 91.4443 217.508 92.7825C218.208 93.4933 218.965 94.1839 219.731 94.8552C219.903 94.8422 220.074 94.8293 220.236 94.8356C222.086 94.8655 223.848 95.2786 225.501 95.9228C225.636 95.9868 225.77 96.0509 225.905 96.115C226.346 96.2302 226.767 96.3362 227.199 96.4706C226.741 95.9458 226.301 95.3824 225.917 94.7988C227.877 96.0376 229.867 97.4093 231.803 97.4089C232.775 97.3991 233.695 97.1519 234.256 96.6162C234.538 96.3722 234.721 95.9872 234.905 95.6498C234.949 95.4582 235.012 95.2757 235.075 95.0933L235.065 95.0649ZM236.608 101.843C236.423 101.141 236.35 100.351 236.535 99.5651C236.629 99.0197 236.914 98.4705 237.286 97.9863L236.531 97.391C236.299 97.7294 236.029 98.0495 235.672 98.3045C234.91 98.8632 234.057 99.1186 233.211 99.2117C234.408 99.9698 235.559 100.824 236.627 101.804L236.608 101.843ZM247.099 111.294C247.396 111.364 247.664 111.444 247.961 111.515C247.912 111.468 247.873 111.402 247.824 111.355C247.043 110.866 246.317 110.308 245.704 109.662C245.655 109.615 245.71 109.5 245.758 109.547C247.889 110.772 250.122 111.834 252.56 112.215C256.223 112.8 257.345 112.177 255.055 108.16C253.428 105.427 251.05 103.233 248.3 101.572C246.939 100.712 245.514 99.9871 244.024 99.3493C243.254 98.9832 242.63 98.7572 241.943 98.7137C241.275 98.6793 240.678 98.8438 240.305 99.2803C239.513 100.25 239.633 101.983 240.252 103.41C240.994 105.274 242.749 107.737 244.497 109.371C242.722 108.339 241.169 106.892 239.972 105.19C238.864 103.6 237.661 101.564 238.293 99.244C238.125 99.4476 237.967 99.6796 237.878 99.9675C237.505 100.9 237.593 102.004 237.835 103.134C238.333 103.725 238.821 104.335 239.235 105.004C239.541 105.551 239.838 106.117 240.078 106.704C240.137 106.779 240.186 106.873 240.264 106.957C241.321 108.357 242.491 109.669 243.681 111.037C244.87 110.918 246.036 111.048 247.099 111.294ZM240.893 109.357C240.935 109.566 240.977 109.775 241.01 110.003C241.051 110.613 241.044 111.223 240.961 111.845C241.092 111.766 241.224 111.687 241.376 111.617C241.999 111.347 242.625 111.173 243.262 111.074C242.404 110.596 241.64 110.02 240.921 109.347L240.893 109.357ZM254.694 117.007C252.109 114.503 250.168 113.225 245.731 113.028C244.291 113.476 243.436 114.628 243.198 116.072C242.594 119.326 244.85 122.076 246.36 124.706C240.85 120.811 240.506 116.374 242.246 113.707C241.699 114.014 241.268 114.423 240.926 114.945C237.722 120.244 245.447 129.206 250.168 133.222C243.956 130.456 237.158 123.115 237.9 116.693C235.452 118.267 232.584 117.352 229.83 116.443C233.815 116.45 236.546 117.158 238.332 113.451C234.922 116.504 230.448 114.896 226.838 112.116C229.369 112.848 231.931 113.712 234.171 113.22C236.762 112.634 237.931 110.971 237.796 108.923C237.623 103.978 230.352 99.2686 226.126 97.1881C224.862 96.87 222.923 96.2315 219.689 97.5737C216.823 98.7369 216.2 100.99 217.255 103.735C217.757 105.06 218.66 106.386 219.423 107.859C216.909 106.497 214.848 104.479 214.525 101.634C213.769 107.79 220.484 113.368 226.011 116.138C222.595 115.529 219.341 113.887 216.644 111.518C209.701 105.477 211.161 96.7994 217.476 95.0813C215.377 93.4924 213.657 91.8484 212.295 89.4534C210.809 86.6223 210.461 83.4347 212.968 81.4872L210.136 80.447C209.789 81.7222 208.651 83.5184 207.506 84.4376C206.549 85.21 205.424 85.6901 204.227 85.9237C207.974 87.8707 212.772 91.4274 211.823 95.5561C213.121 104.885 199.335 110.7 184.875 102.996C175.766 97.8854 176.285 86.375 182.881 83.4211C180.5 82.0763 178.072 80.2842 177.106 77.7002C176.724 76.6684 176.615 75.5072 176.833 74.454C176.994 73.4209 177.5 72.4573 178.084 71.6256C177.089 71.4356 176.104 71.274 175.108 71.084C175.501 72.1442 175.676 73.3136 175.49 74.4998C175.221 76.3551 173.96 78.1633 171.778 79.1794C179.386 86.0558 176.059 96.2776 167.539 99.8514C162.841 101.89 156.843 101.304 156.7 101.307C140.506 99.9795 130.908 88.8993 136.606 79.0023C137.03 76.3238 138.42 75.2377 139.664 74.0114C140.048 73.651 140.461 73.3281 140.894 73.062C138.311 70.6532 137.246 66.8887 138.933 63.4413C138.09 63.2292 137.275 63.0071 136.441 62.7757C137.597 67.7399 134.943 71.9313 130.86 73.7671C135.939 80.0072 134.55 88.4359 127.418 92.7164C122.594 95.6636 116.563 96.3367 110.685 95.5478C161.42 107.707 223.009 98.1847 258.223 144.867C257.046 141.734 256.395 138.142 258.353 135.414C256.107 136.117 253.759 135.496 252.342 134.208C255.021 135.671 258.439 134.936 260.084 132.815C256.549 134.84 253.2 132.256 250.847 128.917C252.587 130.17 254.301 131.528 256.186 131.881C257.966 132.208 260.076 131.394 260.341 129.844C260.814 128.204 259.937 125.78 259.392 124.199C259.129 123.46 258.819 122.722 258.519 121.966C258.449 121.814 258.398 121.672 258.348 121.53C257.306 119.901 256.094 118.381 254.685 117.026L254.694 117.007ZM185.945 97.7686C184.589 97.1472 183.315 96.3525 182.152 95.3744C181.397 94.7791 180.686 93.9923 180.105 93.0789C180.322 93.9137 180.604 94.7091 181 95.4641C182.158 97.6438 183.986 99.4573 186.152 100.511C188.501 101.675 190.95 102.628 193.477 103.121C195.975 103.672 198.629 103.848 201.121 103.569C203.614 103.291 206.037 102.413 207.904 100.869C208.739 100.204 209.342 99.334 209.742 98.3439C208.716 99.0127 207.609 99.4543 206.49 99.7245C205.076 100.067 203.602 100.24 202.178 100.058C203.605 99.9345 204.95 99.4882 206.217 98.9576C207.474 98.3985 208.69 97.6782 209.491 96.7373C209.92 96.2329 210.138 95.6755 210.174 95.1026C210.141 94.8744 210.137 94.6361 210.075 94.418C210.043 94.2375 209.992 94.0478 209.95 93.8865C209.911 93.8206 209.9 93.7445 209.861 93.6785C209.364 92.6395 208.44 91.7043 207.413 90.8856C205.323 89.3252 202.783 88.117 200.239 87.2141C197.667 86.3213 195.014 85.6971 192.311 85.4743C190.955 85.3487 189.61 85.2992 188.248 85.3359C186.885 85.3725 185.591 85.5127 184.435 85.86C183.279 86.2072 182.337 86.7981 181.821 87.6856C181.303 88.5256 181.221 89.6905 181.52 90.848C181.81 92.0246 182.506 92.9929 183.459 93.9657C184.365 94.9394 185.449 95.7855 186.607 96.4777C188.913 97.9289 191.601 98.8766 194.447 99.1442C191.605 99.5631 188.62 98.9932 185.917 97.7787L185.945 97.7686ZM138.664 79.8863C139.093 86.2285 146.396 89.1823 150.141 91.0816C142.567 90.8319 138.026 86.7838 136.856 82.4969C134.761 97.2236 165.978 104.822 172.762 91.9949C168.428 95.5522 160.677 95.5253 156.415 93.5695C161.751 94.9032 172.291 93.2344 172.668 87.6295C173.478 76.8952 140.547 66.9946 138.673 79.867L138.664 79.8863ZM147.5 71.0805C144.325 69.5704 140.32 67.0754 140.593 63.5227C139.397 66.1879 140.181 69.2523 142.39 71.0583C142.749 71.3944 143.339 71.7927 143.445 71.8669C144.742 71.4215 146.129 71.1841 147.5 71.0805ZM55.3081 52.2613C54.6422 50.3865 54.1165 48.3658 54.3696 46.1962C54.45 45.4317 54.6733 44.6644 55.0313 43.9612C54.9562 44.0199 54.8618 44.0694 54.7867 44.1281C53.321 45.2253 52.1184 46.6129 51.483 48.2466C51.0912 49.1698 50.8917 50.1846 50.816 51.1873C51.505 53.7578 52.4506 56.285 53.6509 58.6737C55.637 62.7345 58.1993 66.5264 61.3424 69.7918C62.161 70.7005 63.0455 71.5697 63.9392 72.4197C66.5889 74.3408 69.5344 75.7888 72.618 76.4998C74.371 76.9322 76.1652 77.03 77.9152 76.8235C78.8004 76.7487 79.6332 76.4365 80.4779 76.248C81.2723 75.9175 82.1152 75.6338 82.8013 75.1338C83.0936 74.9659 83.3656 74.7411 83.6285 74.5356C81.5431 74.6534 79.6178 74.1864 77.7941 73.5552C75.9219 72.8772 74.1604 72.016 72.4915 71.0098C70.8317 69.9843 69.236 68.8242 67.9216 67.42C69.4605 68.6004 71.156 69.5011 72.8779 70.2964C74.6091 71.0725 76.3952 71.7331 78.2151 72.1736C80.0158 72.605 81.909 72.8916 83.5812 72.6008C84.4076 72.4509 85.1745 72.1781 85.7278 71.7094C86.0374 71.4553 86.2792 71.1454 86.4633 70.8079C86.6464 70.4229 86.7626 70.0296 86.888 69.6171C87.1926 68.133 86.9969 66.4109 86.6115 64.7403C86.1674 62.9945 85.5621 61.2902 84.6727 59.6868C82.9701 56.469 80.6059 53.5504 77.8781 51.0492C75.1779 48.4901 72.113 46.3007 68.8457 44.4872C67.1979 43.5855 65.5703 42.7406 63.9033 42.3256C63.0795 42.1227 62.2585 42.0627 61.4879 42.1448C60.7457 42.2168 59.8937 42.5199 59.1379 42.8686C57.6363 43.5947 56.6123 44.8547 56.2921 46.5203C55.9527 48.1767 56.2182 50.0499 56.6916 51.8332C57.6494 55.4759 59.4328 58.921 61.1402 62.377C58.8768 59.2467 56.7159 55.9999 55.3081 52.2613ZM88.6343 55.5743C87.3258 55.4478 86.0694 55.0628 84.8771 54.543C85.7398 55.7559 86.509 57.0661 87.1738 58.3974C88.0769 60.2198 88.7254 62.1808 89.1458 64.1749C89.3184 65.2013 89.4809 66.1993 89.5014 67.2479C89.4936 68.3065 89.4004 69.3954 89.0599 70.5083C88.9336 70.8732 88.7688 71.2198 88.5756 71.5764C88.5134 71.8065 88.4603 72.0174 88.3788 72.2383C87.5988 74.2754 86.1471 76.0875 84.3516 77.382C81.1948 79.7524 77.2127 80.3848 73.4777 80.0014C81.9134 85.7838 91.1932 89.8901 100.977 92.9375C95.5844 90.68 91.2199 87.3531 89.398 83.8898C88.3784 81.9648 88.0295 79.7213 88.3037 77.6561C88.5678 75.5625 89.3689 73.6299 90.4899 71.9674C90.5082 71.9289 90.5265 71.8904 90.5732 71.8418C90.5897 71.708 90.6254 71.5833 90.6519 71.4779C90.9163 70.376 91.4796 69.4398 92.0822 68.5696C92.7325 67.6985 93.5761 66.9665 94.4803 66.405C95.7996 65.6158 97.1922 65.1685 98.5977 64.8926C97.3217 63.5068 96.173 61.8037 95.771 59.771C95.5508 58.7455 95.5678 57.6677 95.7388 56.663C95.8724 56.1836 95.9676 55.6858 96.1204 55.2155C96.3402 54.7534 96.483 54.2547 96.7705 53.8485C97.7934 52.045 99.5615 50.8083 101.332 50.1627C101.493 50.1214 101.635 50.0709 101.796 50.0295C100.862 49.5618 99.9568 49.084 99.032 48.597C99.0156 48.7308 98.9991 48.8646 98.9827 48.9984C98.85 49.5256 98.6981 50.0435 98.5461 50.5615L97.8118 52.0064C97.2394 52.9619 96.4058 53.7223 95.4824 54.2746C94.0404 55.1234 92.4461 55.4984 90.8738 55.5297C90.1325 55.6494 89.3509 55.6554 88.6059 55.5844L88.6343 55.5743ZM93.182 72.1618C91.249 78.6083 105.355 85.2695 112.012 86.8534C105.083 86.4859 93.2962 81.8955 90.9539 75.7057C89.4029 82.1923 93.9756 85.9251 100.066 88.7981C103.319 90.3449 106.829 91.4002 110.405 91.9679C118.613 93.4161 129.109 91.4431 131.321 83.6655C129.563 85.9224 126.479 87.1471 123.638 87.1178C125.453 86.8242 127.126 86.0853 128.535 85.0083C130.479 83.5011 131.413 81.5372 131.192 79.5201C128.8 74.6759 121.459 72.2473 116.178 70.7981C105.977 67.8353 95.0187 65.1737 93.182 72.1618ZM265.21 134.591C265.827 134.932 266.406 135.302 266.958 135.729C266.722 135.381 266.506 135.042 266.308 134.665C267.366 135.664 268.483 136.691 269.734 136.79C270.297 136.845 270.838 136.701 271.204 136.427C271.705 135.721 271.82 134.784 271.622 133.91C271.393 132.904 270.876 131.856 270.342 130.846C269.807 129.837 269.235 128.856 268.578 127.906C267.311 126.005 265.837 124.242 264.148 122.683C263.303 121.928 262.441 121.21 261.416 120.935C261.003 120.81 260.507 120.81 260.061 120.905C260.631 121.79 261.136 122.714 261.583 123.659C262.17 124.906 262.66 126.556 262.67 126.584C262.673 126.231 262.43 124.062 264.946 125.471C265.409 125.738 265.776 126.007 266.211 126.285C265.174 126.429 262.46 125.091 265.489 129.837C265.843 130.383 266.388 130.973 266.942 131.496C267.214 131.767 267.495 132.019 267.785 132.204C268.075 132.389 268.401 132.497 268.738 132.185C268.694 132.376 268.604 132.664 268.349 132.755C268.122 132.884 267.827 132.908 267.607 132.875C267.111 132.827 266.697 132.654 266.284 132.481C265.494 132.059 264.761 131.615 264.136 130.846C263.647 130.236 263.31 129.556 263.057 128.846C263.069 129.418 262.985 129.992 262.843 130.538C263.525 131.783 264.291 132.95 265.154 134.163C264.085 133.631 263.146 132.878 262.337 131.997C262.109 132.479 261.822 132.933 261.477 133.359C261.375 133.476 261.272 133.592 261.179 133.689C262.719 133.477 264.063 133.975 265.218 134.524L265.21 134.591ZM280.7 155.958C280.519 154.998 280.129 154.081 279.731 153.183C279.112 151.803 278.343 150.493 277.564 149.154C276.806 147.92 276.067 146.695 275.233 145.472C275.621 146.342 275.953 147.231 276.182 148.19C276.286 148.665 276.334 149.16 276.354 149.665C276.501 150.396 276.592 151.147 276.503 151.931C276.454 152.333 276.357 152.735 276.221 153.119C276.25 153.157 276.28 153.194 276.3 153.251C276.712 153.825 277.124 154.446 277.57 154.847C277.648 154.931 277.735 154.996 277.784 155.043C277.82 154.918 277.864 154.727 277.851 154.555C277.857 153.897 277.786 153.203 277.429 152.514C278.161 152.861 278.605 153.663 278.764 154.47C278.806 154.679 278.849 154.888 278.825 155.137C278.81 155.366 278.768 155.653 278.517 155.982C278.172 156.361 277.579 156.268 277.357 156.139C277.107 156.02 276.895 155.871 276.758 155.712C276.291 155.254 275.967 154.745 275.699 154.217C275.672 154.274 275.635 154.351 275.608 154.409C275.311 154.835 274.955 155.185 274.571 155.498C274.688 155.648 274.815 155.779 274.96 155.919C276.127 156.592 277.112 157.25 278.201 157.838C278.355 157.911 281.527 160.223 280.7 155.958ZM271.077 155.749C272.382 155.684 273.637 155.03 274.427 154.013C274.182 154.132 273.926 154.223 273.689 154.276C272.406 154.492 271.292 154.057 270.393 153.416C269.503 152.757 268.886 151.921 268.325 151.064C269.176 151.657 269.961 152.29 270.845 152.664C271.673 153.057 272.666 153.152 273.367 152.919C273.537 152.858 273.697 152.769 273.81 152.681C273.923 152.593 274.035 152.457 274.155 152.302C274.378 151.983 274.504 151.618 274.582 151.207C274.748 150.412 274.672 149.479 274.464 148.577C274.056 146.754 273.287 144.948 272.273 143.309C271.24 141.661 269.971 140.161 268.466 138.76C268.562 138.806 268.659 138.852 268.736 138.888C266.943 137.398 264.611 136.148 263.326 137.709C261.723 139.095 262.087 141.605 263.017 143.818C263.957 146.059 265.333 148.177 266.681 150.353C264.77 148.665 263.017 146.745 261.761 144.424C261.128 143.274 260.636 141.977 260.521 140.53C260.398 139.102 260.967 137.46 262.062 136.447C262.193 136.32 262.324 136.193 262.484 136.057L263.011 135.741C263.181 135.633 263.36 135.553 263.559 135.482C262.785 135.374 262.042 135.398 261.426 135.601C260.952 135.753 260.644 136.055 260.335 136.357C260.085 136.734 259.836 137.158 259.722 137.695C259.408 138.702 259.421 139.818 259.625 140.977C259.976 143.363 260.784 145.684 261.876 147.903C262.213 148.535 262.549 149.167 262.943 149.779L263.963 150.76C264.739 151.46 265.505 152.131 266.299 152.745C267.112 153.367 267.943 153.952 268.803 154.526C269.431 154.942 270.096 155.329 270.772 155.745C270.867 155.743 270.953 155.761 271.048 155.759L271.077 155.749ZM265.23 154.149C264.475 153.553 263.804 152.88 263.246 152.119C263.69 152.873 264.191 153.654 264.655 154.465C266.183 157.057 267.561 159.719 268.872 162.42C268.907 162.295 268.924 162.161 268.969 162.017C268.983 161.788 268.979 161.55 269.002 161.302C269.16 160.078 269.621 158.81 270.584 157.828C270.957 157.439 271.437 157.124 271.9 156.896C270.458 156.753 269.124 156.283 267.852 155.632C266.911 155.278 266.043 154.771 265.25 154.158L265.23 154.149ZM279.087 176.32C278.799 176.23 278.51 176.093 278.269 175.955C277.603 175.52 277.049 174.997 276.627 174.347C276.214 173.726 275.924 172.998 275.88 172.245C276.396 172.798 276.845 173.294 277.33 173.761C277.825 174.209 278.339 174.618 278.888 174.951C279.41 175.293 279.976 175.492 280.49 175.453C280.709 175.439 280.946 175.339 281.163 175.23C281.998 174.069 282.055 172.609 282.007 171.122C281.978 170.093 281.853 169.065 281.652 168.049C281.239 166.932 280.798 165.825 280.319 164.748C279.165 162.31 278.785 161.87 278.425 161.486C277.86 160.887 277.193 160.404 276.481 160.066C275.75 159.765 275.004 159.599 274.377 159.726C273.74 159.825 273.309 160.186 273.025 160.783C272.448 161.996 272.646 163.813 272.86 165.497C273.121 167.179 273.593 168.867 274.227 170.562C272.962 169.252 272.052 167.592 271.503 165.819C271.218 164.929 271.038 164.017 270.953 163.055C270.953 162.56 270.877 162.075 270.981 161.558L271.109 160.792C271.18 160.543 271.289 160.264 271.389 160.005C271.855 158.975 272.973 158.114 274.115 158.043C274.239 158.031 274.344 158.058 274.449 158.037C274.363 158.019 274.257 157.993 274.162 157.995C273.274 157.927 272.175 158.301 271.453 158.878C270.683 159.504 270.111 160.459 269.798 161.515C269.716 161.736 269.673 161.975 269.611 162.205C269.592 165.619 270.543 168.88 272.361 171.657C273.452 173.381 274.837 174.936 276.57 175.807C277.262 176.137 278.067 176.331 278.869 176.381C278.916 176.38 278.992 176.369 279.04 176.368L279.087 176.32ZM279.968 177.494L279.847 177.153C278.179 177.682 276.19 177.35 274.511 176.316C274.947 177.632 275.345 178.979 275.724 180.316C276.636 178.247 278.219 177.3 279.939 177.504L279.968 177.494ZM278.526 190.549C279.316 192.907 280.631 196.791 282.905 195.582C283.876 195.029 284.702 193.887 285.09 192.726C285.458 191.555 285.602 190.16 285.576 188.826C285.578 187.481 285.418 186.13 285.125 184.81C284.624 182.589 283.342 179.43 281.142 180.036C280.283 180.454 279.534 181.136 279.14 181.964C278.434 183.399 278.806 185.346 278.847 186.947C276.711 183.5 277.728 180.419 280.254 179.472C280.433 179.344 280.622 179.245 280.83 179.155C278.304 178.214 277.035 180.585 276.802 183.307C276.656 184.607 276.71 185.931 276.832 187.264C277.05 189.634 277.238 191.967 278.442 194.05C278.778 194.635 279.301 195.072 279.749 195.569C279.23 193.882 278.618 192.292 278.525 190.501L278.526 190.549ZM282.343 197.558C281.735 197.646 281.095 197.602 280.5 197.366C280.163 197.229 279.845 197.055 279.555 196.822C279.747 197.905 279.898 198.779 280.052 199.844C281.497 198.147 282.152 198.506 282.517 198.632L282.343 197.558ZM281.945 210.353C282.214 210.434 282.546 210.379 282.906 210.22C283.113 210.13 283.321 209.992 283.508 209.845C284.381 208.655 285.582 207.172 285.382 204.268C285.133 199.829 283.586 199.707 282.77 199.886C282.106 200.042 281.546 200.673 281.531 201.35C281.534 201.493 281.315 201.507 281.293 201.355C281.23 200.593 281.55 199.872 282.181 199.487C281.895 199.493 281.572 199.576 281.289 199.724C281.223 199.764 281.177 199.812 281.111 199.852C280.749 200.364 280.581 201.064 280.35 201.898C280.148 202.77 280.014 203.745 280.014 204.689C279.985 205.643 280.032 206.587 280.221 207.479C280.381 208.382 280.665 209.225 281.163 209.816C281.28 209.966 281.405 210.049 281.532 210.18C281.667 210.244 281.783 210.347 281.917 210.363L281.945 210.353ZM280.845 222.838C281.046 222.863 281.274 222.83 281.491 222.721C283.445 221.69 283.375 218.115 283.262 216.268C283.227 215.944 283.192 215.621 283.073 215.375C282.954 215.13 282.787 214.885 282.652 214.821C282.391 214.626 281.713 215.059 281.304 215.572C280.847 216.087 280.458 216.705 280.243 217.405C280.172 216.663 280.453 215.923 280.821 215.248C281.005 214.911 281.247 214.601 281.575 214.308C281.772 214.142 282.064 213.974 282.396 213.92C282.008 213.546 281.508 213.356 281.138 213.44C280.673 213.525 280.206 214.059 279.887 214.781C279.557 215.474 279.344 216.269 279.198 217.073C278.984 218.317 278.992 219.738 279.283 220.962C279.46 221.731 280.062 222.749 280.865 222.847L280.845 222.838ZM37.6442 45.9856C24.8626 67.5523 7.42215 115.092 89.0955 126.902C110.013 129.413 129.464 128.11 143.641 127.676C143.784 127.673 150.214 127.449 149.805 127.467C177.16 126.713 210.686 135.362 231.571 152.33C253.673 170.561 262.917 199.156 269.025 226.802C270.59 235.62 270.291 241.805 272.762 238.943C273.35 238.302 273.751 237.359 274.278 236.548C276.591 232.43 277.941 227.855 278.584 223.227C278.642 222.758 277.5 220.941 277.401 220.256C276.944 217.347 278.228 215.739 278.948 213.083C279.969 209.248 277.446 181.159 262.199 156.107C254.811 143.952 244.669 133.77 232.438 126.49C220.738 119.533 207.671 115.254 194.439 112.361C180.652 109.345 166.597 107.737 152.581 106.147C138.746 104.573 124.865 103.094 111.225 100.267C98.5519 97.6393 85.9496 93.7707 74.7327 87.1378C71.7138 85.3479 69.0311 83.1986 66.133 81.2538C54.201 73.1475 46.4932 60.2275 45.333 46.2426C45.0547 41.2705 45.6301 36.0906 47.8002 31.5275C44.242 36.2804 40.7598 41.0222 37.6818 45.9562L37.6442 45.9856ZM65.4472 22.8038C63.5063 22.5183 61.5474 22.767 59.6801 23.3191C57.8626 24.4615 56.1541 25.8209 54.7069 27.3755C53.9411 28.1917 53.2331 29.0354 52.6497 29.9148C52.353 30.3403 52.0856 30.8033 51.9034 31.236C51.6928 31.6789 51.5134 32.2546 51.3138 32.7735C49.7364 36.9338 49.3192 41.4335 49.8063 45.8674C49.8384 46.048 49.8614 46.2478 49.8743 46.4191C50.9019 44.8539 52.3171 43.6147 53.8434 42.688C54.9941 42.0548 56.186 41.5829 57.4193 41.2723C57.6354 41.1154 57.8425 40.9778 58.0688 40.8493C59.0408 40.3436 60.0046 39.9049 61.1636 39.7006C62.2943 39.5065 63.4306 39.5983 64.4835 39.8157C65.7755 40.0761 66.9568 40.5198 68.0822 41.0314C67.6046 40.4974 67.1362 39.9441 66.6861 39.3523C65.5677 37.7344 64.6938 35.9495 64.2826 33.9361C64.0724 32.9391 64.0226 31.853 64.2303 30.7713C64.4095 29.6998 64.9314 28.6023 65.535 27.7798C66.4902 26.4162 67.8323 25.331 69.3531 24.6142C68.2395 23.7304 67.1113 23.0759 65.4765 22.8414L65.4472 22.8038ZM93.0464 39.3997C90.8463 36.5828 88.2211 33.965 85.4394 31.6269C85.2166 31.4502 85.0132 31.2826 84.7904 31.1059C83.3515 30.1618 81.9044 29.2848 80.4398 28.4938C78.8031 27.6682 77.1388 26.9003 75.5223 26.6274C74.7187 26.4813 73.9554 26.4488 73.3489 26.6325C72.7423 26.8162 72.3008 27.1492 71.9399 27.7095C71.5598 28.2606 71.2687 28.972 71.0848 29.8053C70.9101 30.6193 70.8682 31.4021 70.9124 32.2022C71.0009 33.8024 71.7281 35.3995 72.5708 37.0515C74.3028 40.3068 76.5167 43.3428 79.1364 46.1704C75.7537 44.302 72.8298 41.5186 70.6112 38.2443C69.4836 36.6457 68.464 34.7207 68.1444 32.5147C67.98 31.4214 68.0722 30.2848 68.2706 29.2224C68.3392 28.8301 68.4646 28.4175 68.59 28.005C68.1677 28.3472 67.7555 28.7177 67.4111 29.1442C66.8808 29.8127 66.5493 30.4105 66.3452 31.1869C66.1503 31.9442 66.1378 32.7645 66.2306 33.6113C66.4163 35.305 67.0693 37.0084 67.9384 38.555C68.7187 39.9412 69.7252 41.1989 70.8353 42.3879C74.1116 44.1821 77.1857 46.3523 79.9529 48.9195C80.7585 49.6568 81.4983 50.4336 82.2389 51.258C82.5863 51.4704 82.9144 51.6736 83.2617 51.886C83.9738 52.2247 84.6666 52.5542 85.3686 52.8644C86.1 53.2122 86.8304 53.5124 87.5507 53.7841C88.26 53.9798 88.9967 54.1177 89.7307 54.1126C91.4661 54.1353 93.2207 53.6712 94.5179 52.73C95.1289 52.2887 95.6235 51.7449 95.9834 51.1369C95.6363 51.4204 95.2597 51.6663 94.8823 51.8645C93.9093 52.3225 92.8272 52.5634 91.7882 52.565C90.7106 52.5483 89.6952 52.3015 88.7724 51.9099C86.8983 51.1366 85.3869 49.8984 84.045 48.552C85.8228 49.2795 87.5082 50.1518 89.2328 50.5943C90.9483 51.056 92.6535 50.9934 94.1359 50.2583C95.61 49.59 96.4983 48.2183 96.4364 46.5126C96.4293 44.6914 95.5086 42.4593 93.171 39.4354L93.0464 39.3997ZM123.724 53.989C121.208 53.076 118.563 52.3848 115.913 51.9036C113.282 51.3838 110.51 51.0099 107.984 51.0602C105.65 51.1543 102.869 52.2395 101.95 53.9743C101.489 54.794 101.627 55.9927 102.199 56.9731C102.753 57.9919 103.771 58.8775 104.863 59.6091C107.075 61.1099 109.689 62.164 112.327 63.0173C109.529 62.7965 106.742 62.1082 104.134 60.8442C102.843 60.1833 101.549 59.3318 100.57 58.0163C100.316 57.7066 100.127 57.3099 99.9292 56.9324C99.7879 56.5347 99.6375 56.1563 99.5622 55.7191C99.3741 54.8742 99.4792 53.909 99.7868 53.0637C99.8051 53.0252 99.8234 52.9867 99.8417 52.9482C99.2802 53.4839 98.825 54.0937 98.5045 54.7676C98.3204 55.105 98.2518 55.4973 98.1063 55.853C97.9992 56.227 97.9499 56.6285 97.8813 57.0209C97.7725 57.7954 97.825 58.5286 98.0204 59.259C98.6423 61.3254 100.192 63.0777 102.09 64.5466C102.399 64.7884 102.728 65.0393 103.067 65.2709C103.347 65.4751 103.617 65.6509 103.907 65.8359C104.09 65.9467 104.265 66.0767 104.448 66.1875C108.715 66.4935 112.804 67.4229 116.801 68.5448C119.946 69.4739 123.18 70.5634 126.094 72.3267C133.242 71.7363 136.04 66.6457 134.377 61.5581C134.304 62.6562 133.901 63.9992 133.203 64.8713C131.041 67.4318 127.809 66.9335 124.869 66.2196C126.271 66.2489 127.692 66.2874 128.973 65.9758C130.473 65.6504 131.932 64.7154 132.351 63.2386C132.377 63.0855 132.789 61.7709 132.423 60.6053C132.164 59.5138 126.91 55.0794 123.704 53.9799L123.724 53.989ZM151.68 61.0516C148.633 60.7594 144.017 60.1933 142.834 63.0299C141.379 66.1389 146.773 69.4835 149.807 71.0918C155.691 71.1749 161.903 72.9489 167.347 76.3878C168.175 76.7814 168.965 77.2043 169.738 77.7134C173.099 77.0457 174.469 74.9587 174.312 72.2633C174.064 71.7914 173.798 71.3581 173.532 70.9247C173.019 72.947 170.8 74.5359 166.822 73.4231C167.572 73.2366 168.322 73.0977 169.005 72.9029C170.152 72.5749 171.2 72.0582 171.703 70.9992C172.445 69.4397 170.578 67.5602 169.241 66.4521C169.087 66.3788 161.776 62.0521 151.699 61.0607L151.68 61.0516ZM196.048 70.8198C195.213 70.5408 194.341 70.2912 193.478 70.0699C193.229 69.9986 187.386 67.5975 182.071 72.7191C181.227 73.4511 180.749 74.3093 180.884 74.9169C180.919 75.2404 181.184 75.6261 181.497 76.0108C181.866 76.3754 182.292 76.7197 182.785 77.0722C184.824 78.443 187.021 79.6293 189.368 80.6983C186.782 80.5781 184.231 79.8374 181.863 78.664C181.555 78.5175 181.247 78.3235 180.948 78.1577C180.639 77.9636 180.357 77.7118 180.058 77.4984C179.756 77.1898 179.445 76.8527 179.18 76.467C179.221 76.6283 179.234 76.7996 179.294 76.9701C179.546 77.6326 180.006 78.2528 180.532 78.8335C181.594 80.0234 183.053 80.9766 184.547 81.8527C185.029 82.1292 185.492 82.3965 185.983 82.6537C186.716 82.5533 187.449 82.5006 188.153 82.458C189.649 82.3901 191.127 82.4083 192.617 82.5503C195.568 82.8444 198.489 83.5491 201.237 84.6196C201.468 84.7294 201.699 84.8393 201.939 84.9298C202.129 84.926 202.32 84.9223 202.491 84.9093C203.824 84.7874 205.187 84.3026 206.258 83.4898C206.653 83.2054 206.97 82.8367 207.267 82.4589C206.786 82.726 206.294 82.9169 205.821 83.0694C203.537 83.8014 201.052 83.9176 198.827 83.2849C201.151 83.1623 203.344 82.6705 205.328 81.7728C209.939 79.669 206.631 77.1983 204.655 75.6452C203.784 74.9474 202.857 74.3651 201.92 73.7543C200.02 72.5907 197.97 71.6397 195.809 70.7769C195.876 70.7851 195.962 70.8025 196.029 70.8107L196.048 70.8198Z" fill="white" fill-opacity="0.5"/>
<path d="M222.893 105.377C222.686 105.019 222.516 104.631 222.46 104.204C222.385 103.766 222.423 103.289 222.578 102.914C222.868 102.155 223.656 101.491 224.375 101.715C223.782 102.07 223.66 102.673 223.717 103.149C223.755 103.615 224.047 103.943 224.387 104.27C225.105 104.895 226.242 105.53 227.254 106.082C228.275 106.615 229.43 107.164 230.438 107.525C230.927 107.687 231.416 107.801 231.852 107.678C232.335 107.554 232.835 107.249 233.012 106.578C233.396 107.209 233.071 108.14 232.462 108.677C231.787 109.253 230.904 109.423 230.141 109.391C228.632 109.287 227.375 108.854 226.123 108.212C225.506 107.871 224.927 107.501 224.375 107.074C223.852 106.636 223.289 106.132 222.866 105.435L222.893 105.377Z" fill="white" fill-opacity="0.5"/>
<path d="M121.327 80.117C120.418 80.9361 119.27 81.2164 118.243 81.3417C117.197 81.5056 116.147 81.4311 115.155 81.3841C114.096 81.3289 113.052 81.0922 112.093 80.8253C110.147 80.2537 108.243 79.4429 106.577 78.0839C106.16 77.7203 105.743 77.3567 105.419 76.8482C105.104 76.3682 104.824 75.7158 104.897 75.0182C104.988 74.3298 105.397 73.8163 105.83 73.5025C106.252 73.1604 106.735 72.9887 107.218 72.8169C106.555 73.5167 105.876 74.398 106.069 75.033C106.186 75.6314 106.911 76.1415 107.653 76.5653C109.186 77.4121 110.999 78.0149 112.754 78.5426C113.665 78.8105 114.508 79.0226 115.407 79.1668C116.345 79.3293 117.262 79.4351 118.15 79.5032C120.354 79.631 121.699 79.1846 121.656 76.9922C121.669 77.1636 122.736 78.5918 121.327 80.117Z" fill="white" fill-opacity="0.5"/>
<path d="M115.528 62.343C115.116 62.2177 114.722 62.0539 114.319 61.9094L114.03 61.7721L113.837 61.6806L113.664 61.5982C113.462 61.4783 113.298 61.3766 113.114 61.2659C112.419 60.7934 111.733 60.3493 111.102 59.7897C110.482 59.2585 109.87 58.6604 109.359 57.8982C109.241 57.7003 109.123 57.5024 109.023 57.266C108.942 57.0388 108.84 56.707 108.976 56.3706C109.132 56.0433 109.435 55.9514 109.664 55.9182C109.892 55.8851 110.083 55.929 110.303 55.9627C109.953 56.1032 109.521 56.4169 109.61 56.5773C109.659 56.6717 109.912 56.9336 110.202 57.1186C110.782 57.5361 111.466 57.8849 112.14 58.2529C112.833 58.5824 113.498 58.9696 114.191 59.2991L114.788 59.5829L115.133 59.6999C115.47 59.8363 115.834 59.9625 116.17 60.0512C118.309 60.7143 120.46 61.0529 122.685 60.7416C123.39 60.699 124.071 60.4565 124.544 59.7606C124.716 62.2269 119.5 63.618 115.47 62.3156L115.528 62.343Z" fill="white" fill-opacity="0.5"/>
<path d="M163.585 68.7674C161.409 71.1088 152.796 70.3648 149.81 64.9317C153.394 66.3288 156.173 67.5799 161.195 67.9377C161.854 67.9913 162.398 68.0377 162.842 67.8476C163.222 67.7447 163.705 67.1248 163.33 66.4743C164.029 66.6416 164.349 67.8558 163.575 68.739L163.585 68.7674Z" fill="white" fill-opacity="0.5"/>
<path d="M271.622 147.556C270.943 147.894 270.27 148.117 269.369 147.878C268.545 147.627 268.03 147.17 267.497 146.704C266.983 146.247 266.553 145.712 266.151 145.167C265.759 144.603 265.432 143.999 265.181 143.336C264.958 142.664 264.734 141.944 264.908 141.082C264.981 140.88 265.014 140.66 265.134 140.458C265.274 140.264 265.365 140.072 265.562 139.906C265.937 139.564 266.45 139.478 266.832 139.518C267.616 139.655 268.149 140.073 268.606 140.551C267.974 140.392 267.323 140.271 266.84 140.395C266.602 140.447 266.471 140.574 266.407 140.709C266.38 140.767 266.363 140.9 266.317 140.949C266.299 141.035 266.311 141.159 266.294 141.245C266.368 142.13 266.99 143.205 267.628 144.146C267.942 144.626 268.314 145.086 268.703 145.507C269.074 145.919 269.511 146.34 269.849 146.571C270.139 146.756 270.817 146.819 271.301 146.743C271.558 146.7 271.776 146.638 271.849 146.484C271.932 146.311 271.83 145.979 271.662 145.687C271.942 145.843 272.279 146.027 272.327 146.522C272.337 147.046 271.905 147.36 271.612 147.528L271.622 147.556Z" fill="white" fill-opacity="0.5"/>
<path d="M280.964 190.882C280.689 190.468 280.508 190.004 280.403 189.53C280.166 188.59 280.222 187.578 280.576 186.685C280.902 185.801 281.535 185.016 282.376 184.637C282.107 185.5 281.96 186.257 281.946 186.982C281.931 187.707 281.974 188.411 282.149 189.085C282.222 189.427 282.333 189.739 282.463 190.061C282.594 190.382 282.752 190.694 282.909 190.91C283.066 191.126 283.268 191.246 283.345 191.283C283.507 191.289 283.93 190.947 283.647 190.6C283.894 190.576 284.147 190.838 284.143 191.143C284.177 191.419 284.098 191.735 283.855 191.998C283.217 192.544 282.469 192.283 282.015 191.996C281.523 191.691 281.219 191.287 280.964 190.882Z" fill="white" fill-opacity="0.5"/>
<path d="M276.964 169.716C276.72 169.387 276.502 169.001 276.324 168.632C275.636 167.101 275.495 165.264 276.305 163.76C276.635 164.554 276.868 165.255 277.138 165.927C277.409 166.599 277.669 167.242 277.958 167.875C278.256 168.489 278.575 169.207 278.84 169.593C278.909 169.697 278.996 169.762 279.074 169.846C279.132 169.921 279.229 169.967 279.362 169.983C279.611 170.007 279.982 169.971 280.136 169.548C280.42 169.943 280.098 170.569 279.627 170.817C279.4 170.946 279.087 171.009 278.772 170.977C278.476 170.954 278.226 170.835 277.985 170.697C277.522 170.43 277.209 170.045 276.964 169.716Z" fill="white" fill-opacity="0.5"/>
<path d="M249.003 118.951C248.838 119.298 248.953 119.801 249.19 120.244C249.723 121.159 250.514 122.125 251.358 122.881C252.193 123.656 253.199 124.37 254.18 124.837C254.642 125.056 255.159 125.16 255.604 125.018C256.05 124.876 256.556 124.455 256.543 123.788C256.974 124.371 256.658 125.283 256.048 125.772C255.372 126.3 254.514 126.317 253.778 126.18C252.351 125.855 251.183 125.135 250.136 124.211C249.135 123.24 248.322 122.169 247.875 120.728C247.67 120.017 247.652 119.064 248.325 118.393C248.644 118.119 249.022 117.969 249.422 117.97C249.804 117.963 250.199 118.174 250.329 118.496C249.74 118.145 249.177 118.585 248.994 118.97L249.003 118.951Z" fill="white" fill-opacity="0.5"/>
<path d="M244.778 106.648C244.455 106.187 244.092 105.661 243.955 105.005C243.872 104.683 243.837 104.312 243.906 103.967C243.956 103.613 244.168 103.218 244.412 103.003C244.664 102.769 244.976 102.611 245.299 102.576C245.623 102.541 245.968 102.658 246.144 102.883C245.58 102.78 245.225 103.178 245.099 103.543C244.963 103.879 245.093 104.201 245.252 104.56C245.666 105.229 246.415 105.986 247.132 106.611C247.841 107.255 248.653 107.83 249.473 108.338C249.878 108.578 250.244 108.752 250.625 108.744C250.978 108.747 251.479 108.536 251.602 107.981C251.908 108.528 251.503 109.28 250.87 109.569C250.209 109.868 249.501 109.768 248.926 109.589C247.804 109.268 246.782 108.687 245.919 107.922C245.482 107.55 245.102 107.109 244.75 106.658L244.778 106.648Z" fill="white" fill-opacity="0.5"/>
<path d="M281.016 206.204C280.941 205.815 280.896 205.415 280.878 205.006C280.929 204.203 280.876 203.423 281.459 202.543C282.165 201.604 283.584 201.996 283.762 202.812C283.123 202.319 282.338 202.631 282.232 203.052C282.069 203.494 282.056 204.315 282.069 204.982C282.082 205.649 282.117 206.468 282.316 206.894C282.435 207.091 282.629 207.278 282.858 207.293C283.049 207.337 283.435 207.072 283.361 206.682C283.7 206.961 283.542 207.642 283.012 207.862C282.492 208.063 281.935 207.845 281.583 207.442C281.223 207.058 281.119 206.584 281.016 206.204Z" fill="white" fill-opacity="0.5"/>
<path d="M280.781 220.494C280.676 220.019 280.687 219.599 280.764 219.14C280.938 218.279 281.417 217.42 282.257 216.994C282.209 217.939 282.05 218.619 281.931 219.365L281.695 220.457C281.67 220.61 281.625 220.754 281.637 220.877C281.64 221.02 281.7 221.191 281.931 221.301C281.734 221.467 281.39 221.397 281.167 221.221C280.934 221.015 280.833 220.731 280.781 220.494Z" fill="white" fill-opacity="0.5"/>
<path d="M83.6728 100.644C78.2833 98.5292 73.0211 96.0975 67.9328 93.2999C65.4537 91.814 62.9187 90.3959 60.5211 88.6891C58.1051 87.0208 55.866 85.1296 53.7385 83.1027C51.6303 81.0849 49.6898 78.8636 47.9279 76.5147C46.2035 74.1365 44.7237 71.5913 43.5087 68.936C42.3597 66.2411 41.5322 63.416 41.0758 60.5548C40.6763 57.6734 40.7431 54.7542 41.1646 51.9327C41.1252 54.7942 41.3809 57.6308 42.0544 60.3828C42.7654 63.1054 43.7798 65.7361 45.0863 68.1989C46.4305 70.6324 47.9917 72.9566 49.7783 75.1047C51.6025 77.2235 53.5201 79.2451 55.6245 81.0722C57.7381 82.88 59.9452 84.5907 62.2823 86.1271C64.591 87.6736 67.0856 88.978 69.5527 90.3402C74.542 92.949 79.6786 95.2974 84.9517 97.3094C90.2248 99.3214 95.616 101.035 101.069 102.519C106.532 103.984 112.084 105.161 117.653 106.204C123.248 107.141 128.879 107.954 134.543 108.499C140.207 109.045 145.905 109.37 151.639 109.618C145.93 110.161 140.194 110.313 134.444 110.246C128.711 110.094 122.964 109.674 117.24 108.958C111.515 108.243 105.869 107.115 100.238 105.807C94.6331 104.392 89.1081 102.662 83.692 100.653L83.6728 100.644Z" fill="white" fill-opacity="0.5"/>
<path d="M243.829 146.402C239.784 142.354 235.393 138.637 230.705 135.392C226.046 132.09 221.061 129.224 215.883 126.714C210.743 124.175 205.363 122.089 199.893 120.243C188.936 116.637 177.518 114.347 165.886 113.301C177.565 112.859 189.369 114.388 200.709 117.586C206.383 119.151 211.934 121.224 217.33 123.672C222.708 126.159 227.875 129.088 232.746 132.491C237.58 135.923 242.108 139.8 246.233 144.075C250.322 148.381 254.053 152.988 257.249 157.979C263.697 167.891 268.28 178.995 270.336 190.502C266.838 179.348 261.667 168.885 254.973 159.54C251.593 154.887 247.922 150.45 243.839 146.431L243.829 146.402Z" fill="white" fill-opacity="0.5"/>
<path d="M38.2643 66.4657C39.0267 69.378 40.13 72.1691 41.64 74.7995C43.1024 77.4309 44.8388 79.9328 46.838 82.2293C50.743 86.9194 55.4075 90.9555 60.5729 94.2856C65.7575 97.6248 71.4423 100.21 77.4859 102.14C71.1468 101.675 64.874 99.7307 59.1708 96.6879C56.2913 95.2004 53.605 93.3563 51.068 91.3471C48.5493 89.2993 46.2348 86.971 44.1183 84.5243C42.0292 82.0199 40.1837 79.3008 38.6681 76.3844C37.2093 73.4478 36.0417 70.2957 35.5486 67.0157C34.9986 63.7558 35.0854 60.3975 35.7762 57.2084C36.4861 54.0284 37.7524 51.0185 39.5117 48.3612C38.4645 51.3571 37.704 54.3951 37.4971 57.4602C37.2516 60.507 37.5495 63.5525 38.2735 66.4465L38.2643 66.4657Z" fill="white" fill-opacity="0.5"/>
<path d="M34.2658 80.3815C35.701 84.0623 37.8271 87.4815 40.4131 90.5291C43.0274 93.5666 46.1107 96.2134 49.5952 98.4136C49.2882 98.3148 37.4942 94.8306 32.0523 81.2647C30.4969 77.2907 29.7743 73.0044 29.9589 68.7955C30.1243 64.5774 31.1675 60.3991 33.1363 56.7554C32.1086 60.7522 31.6445 64.8046 31.8181 68.8062C32.0201 72.7976 32.793 76.73 34.2759 80.4099L34.2658 80.3815Z" fill="white" fill-opacity="0.5"/>
<path d="M224.944 134.211C228.996 136.705 232.846 139.527 236.341 142.747C239.845 145.948 243.05 149.479 245.738 153.354C242.3 150.114 238.817 147.018 235.157 144.144C231.488 141.289 227.689 138.609 223.725 136.228C219.778 133.808 215.656 131.659 211.442 129.702C207.219 127.764 202.849 126.087 198.404 124.517C203.097 125.119 207.715 126.324 212.143 127.981C216.607 129.609 220.882 131.736 224.953 134.191L224.944 134.211Z" fill="white" fill-opacity="0.5"/>
<path d="M275.019 204.226C275.798 207.005 276.226 209.876 276.435 212.761C276.597 215.647 276.539 218.547 276.128 221.397C275.735 224.256 275.056 227.073 273.955 229.736C274.09 226.873 274.245 224.066 274.285 221.252C274.316 218.458 274.271 215.674 274.074 212.913C273.905 210.141 273.594 207.373 273.206 204.615C272.799 201.848 272.297 199.083 271.775 196.262C273.206 198.76 274.26 201.457 275.01 204.245L275.019 204.226Z" fill="white" fill-opacity="0.5"/>
<path d="M92.7273 111.229C92.988 109.937 95.7138 109.415 98.8057 110.059C101.897 110.704 104.197 112.269 103.926 113.533C103.665 114.826 100.94 115.347 97.8478 114.703C94.756 114.059 92.4565 112.493 92.7273 111.229Z" fill="white" fill-opacity="0.5"/>
<path d="M123.973 119.313C124.119 118.014 125.942 117.157 127.997 117.402C130.071 117.657 131.592 118.923 131.446 120.223C131.28 121.514 129.477 122.379 127.422 122.134C125.368 121.889 123.827 120.613 123.973 119.313Z" fill="white" fill-opacity="0.5"/>
<path d="M186.779 122.316C183.723 121.595 181.499 119.971 181.798 118.696C182.097 117.422 184.815 116.968 187.87 117.689C190.925 118.41 193.15 120.034 192.851 121.308C192.551 122.583 189.834 123.037 186.779 122.316Z" fill="white" fill-opacity="0.5"/>
<path d="M253.694 172.601C252.582 173.3 250.439 171.903 248.923 169.482C247.408 167.062 247.082 164.522 248.212 163.832C249.323 163.133 251.467 164.53 252.982 166.951C254.498 169.371 254.824 171.911 253.694 172.601Z" fill="white" fill-opacity="0.5"/>
<path d="M68.5606 108.402C68.1368 109.64 65.4045 109.828 62.515 108.808C59.5971 107.798 57.588 105.969 58.021 104.711C58.4448 103.473 61.1772 103.285 64.0666 104.305C66.9845 105.315 68.9936 107.144 68.5606 108.402Z" fill="white" fill-opacity="0.5"/>
<path d="M70.7518 111.19C70.9906 110.241 72.517 109.81 74.1363 110.226C75.7555 110.642 76.8738 111.764 76.635 112.713C76.3961 113.662 74.8697 114.093 73.2504 113.677C71.6312 113.261 70.5129 112.139 70.7518 111.19Z" fill="white" fill-opacity="0.5"/>
<path d="M114.816 112.668C113.096 112.464 111.809 111.498 111.923 110.514C112.037 109.529 113.532 108.918 115.252 109.122C116.972 109.326 118.258 110.292 118.144 111.277C118.03 112.261 116.536 112.873 114.816 112.668Z" fill="white" fill-opacity="0.5"/>
<path d="M153.107 120.822C153.26 119.856 155.204 119.34 157.47 119.686C159.736 120.032 161.444 121.104 161.292 122.07C161.139 123.037 159.195 123.552 156.929 123.206C154.663 122.86 152.954 121.788 153.107 120.822Z" fill="white" fill-opacity="0.5"/>
<path d="M246.639 156.025C247.36 155.353 248.777 155.697 249.829 156.811C250.88 157.924 251.137 159.369 250.436 160.05C249.715 160.723 248.297 160.379 247.246 159.265C246.194 158.151 245.937 156.707 246.639 156.025Z" fill="white" fill-opacity="0.5"/>
<path d="M256.807 180.74C255.969 181.262 254.848 180.989 254.297 180.113C253.746 179.237 253.953 178.108 254.8 177.566C255.638 177.044 256.759 177.318 257.319 178.174C257.87 179.05 257.663 180.179 256.816 180.721L256.807 180.74Z" fill="white" fill-opacity="0.5"/>
<path d="M270.477 216.656C269.589 217.084 268.126 215.892 267.203 214.013C266.289 212.114 266.262 210.236 267.149 209.809C268.037 209.381 269.5 210.572 270.423 212.452C271.337 214.35 271.365 216.228 270.477 216.656Z" fill="white" fill-opacity="0.5"/>
</g>
<defs>
<clipPath id="clip0_434_6054">
<rect width="125" height="303" fill="white" transform="matrix(0.429479 -0.903077 -0.903077 -0.429479 273.633 243.017)"/>
</clipPath>
</defs>
</svg>
